<?xml version="1.0" encoding="UTF-8"?>
<svg version="1.1" xmlns="http://www.w3.org/2000/svg" width="411" height="411">
<path d="M0 0 C1.10027726 -0.00322445 2.20055451 -0.00644889 3.3341735 -0.00977105 C4.55807184 -0.00822245 5.78197018 -0.00667385 7.04295635 -0.00507832 C8.97560841 -0.00847665 8.97560841 -0.00847665 10.94730395 -0.01194364 C14.54022583 -0.01809197 18.13312455 -0.0179245 21.7260505 -0.01674926 C25.59458824 -0.01654601 29.46311839 -0.02205678 33.33165264 -0.02680683 C40.91753047 -0.03513087 48.50340054 -0.03786247 56.08928255 -0.03841921 C62.25341404 -0.03889361 68.41754295 -0.04094452 74.58167362 -0.04411983 C92.0421631 -0.05293171 109.50264642 -0.05753846 126.96313814 -0.05678936 C127.90541245 -0.0567494 128.84768675 -0.05670945 129.81851482 -0.05666828 C131.23364411 -0.05660696 131.23364411 -0.05660696 132.67736187 -0.0565444 C147.96794168 -0.05613793 163.25849687 -0.06570641 178.54906956 -0.07980665 C194.23369441 -0.09415657 209.91830724 -0.10107758 225.60293883 -0.10021287 C234.41489303 -0.09988039 243.22682142 -0.10264971 252.03876972 -0.11339092 C259.54192395 -0.12247783 267.04504069 -0.12468619 274.54819802 -0.1178815 C278.37850576 -0.11460691 282.20874149 -0.11459322 286.03904247 -0.12323475 C290.18680513 -0.13249644 294.33439964 -0.12634813 298.48216534 -0.11860371 C299.69937151 -0.12374727 300.91657769 -0.12889083 302.1706689 -0.13419026 C303.2787694 -0.12959147 304.38686989 -0.12499267 305.52854919 -0.12025452 C306.96535726 -0.12058057 306.96535726 -0.12058057 308.43119174 -0.12091321 C311.05805514 0.13902653 312.69849107 0.79238207 314.95303631 2.12863445 C315.09533675 10.01954287 314.67402724 17.75151961 313.94375896 25.60617352 C313.77953001 27.43989639 313.77953001 27.43989639 313.6119833 29.31066418 C313.37108471 31.99464601 313.12846001 34.67840666 312.88294888 37.36196423 C312.47909327 41.77837114 312.08245493 46.19540935 311.68707561 50.61258221 C311.54636921 52.18398992 311.40565831 53.75539723 311.26494312 55.32680416 C311.19361613 56.12344935 311.12228913 56.92009454 311.04880071 57.74088049 C310.82557766 60.23141478 310.60171963 62.72189133 310.37771702 65.21235561 C308.56817502 85.34337452 306.81596974 105.47939529 305.06117821 125.61524677 C304.60460617 130.85309791 304.147483 136.09090095 303.69040203 141.3287077 C302.94561111 149.86404087 302.20116943 158.39940443 301.45694256 166.9347868 C300.60675932 176.68511003 299.7556088 186.43534853 298.90404642 196.1855514 C298.15500491 204.76249039 297.40670604 213.33949397 296.65892851 221.91654325 C296.22002124 226.95067531 295.78085766 231.98478458 295.34089565 237.01882458 C294.85038406 242.63183518 294.36117552 248.24495854 293.8724699 253.85812664 C293.75501293 255.2050595 293.75501293 255.2050595 293.6351831 256.57920313 C292.68052438 267.53731204 291.75336222 278.49732936 290.85617352 289.46029949 C290.76512754 290.56899592 290.67408156 291.67769234 290.58027661 292.81998563 C290.13754721 298.21237934 289.69806573 303.60499686 289.26471806 308.99815273 C289.10616144 310.93824392 288.94747503 312.8783245 288.78863811 314.81839275 C288.71869334 315.70484116 288.64874856 316.59128957 288.57668424 317.50460005 C288.47530829 318.73073995 288.47530829 318.73073995 288.37188435 319.98165035 C288.28626364 321.0440172 288.28626364 321.0440172 288.19891322 322.127846 C287.94283311 324.21166155 287.59864601 326.12930758 286.95303631 328.12863445 C285.23301983 329.07951641 285.23301983 329.07951641 282.94253826 329.72751141 C282.07300014 329.98284145 281.20346203 330.2381715 280.30757427 330.50123882 C278.8578397 330.89881138 278.8578397 330.89881138 277.37881756 331.3044157 C275.85095371 331.74567539 275.85095371 331.74567539 274.29222393 332.19584942 C272.04713541 332.84247333 269.7998456 333.48148869 267.55075359 334.11404705 C263.87752427 335.1499295 260.21233518 336.2107828 256.54825115 337.2785368 C246.21507486 340.28629262 235.87619193 343.27337383 225.51346779 346.17790318 C221.8226932 347.21266606 218.13357823 348.25324943 214.44522381 349.2966032 C213.72235243 349.50082771 212.99948105 349.70505222 212.25470448 349.91546535 C203.35478394 352.44055941 194.61839087 355.21679163 185.96084881 358.4919157 C160.91301819 367.76654816 144.00787665 365.28481894 119.02519512 356.53700542 C110.26391098 353.48712066 101.42119043 350.89423831 92.48428631 348.4216032 C91.77526291 348.22524021 91.06623951 348.02887722 90.33573055 347.82656384 C86.74938067 346.83461677 83.16182171 345.84713187 79.57370281 344.86160564 C72.82395485 343.00488979 66.08797752 341.09913523 59.35147381 339.1950407 C56.87328815 338.49466688 54.39509818 337.79430835 51.9169035 337.09396648 C50.74768353 336.76342266 49.57846355 336.43287884 48.37381268 336.09231853 C45.08334582 335.1653446 41.7905494 334.24715721 38.49698162 333.33127117 C36.57866536 332.79375198 34.66036962 332.25615956 32.74209881 331.7184782 C31.45207455 331.36361088 31.45207455 331.36361088 30.13598919 331.00157452 C29.35583447 330.78174404 28.57567974 330.56191357 27.77188396 330.33542156 C27.10113842 330.14902615 26.43039288 329.96263073 25.73932171 329.77058697 C23.95303631 329.12863445 23.95303631 329.12863445 20.95303631 327.12863445 C20.07613496 324.49793041 19.73081311 322.55687886 19.50938702 319.83139324 C19.435721 318.94728897 19.36205498 318.0631847 19.28615665 317.15228939 C19.17020617 315.69135168 19.17020617 315.69135168 19.05191326 314.20090008 C18.9240591 312.64647009 18.9240591 312.64647009 18.79362202 311.06063747 C18.5059718 307.55233332 18.22369926 304.04361632 17.94131756 300.53488445 C17.73466545 298.00179652 17.52767069 295.46873653 17.32036114 292.93570232 C16.86969065 287.42015193 16.42130242 281.90442338 15.97494793 276.38852215 C15.26023259 267.55650097 14.54081884 258.7248659 13.82071209 249.89328289 C13.56963911 246.81339075 13.31860753 243.73349525 13.0675993 240.65359783 C13.0043564 239.87762745 12.9411135 239.10165706 12.87595415 238.30217242 C12.41539696 232.65028215 11.95565877 226.99832555 11.49618816 221.34634686 C9.5540862 197.4606782 7.59529257 173.57640833 5.62934971 149.69269085 C5.14635315 143.82444461 4.6638276 137.95615971 4.18144512 132.08786297 C4.10222508 131.12415154 4.02300503 130.1604401 3.94138438 129.16752529 C3.62252032 125.28842521 3.3036746 121.40932362 2.98486483 117.53021908 C2.11932944 106.99889029 1.25318006 96.46761298 0.38507366 85.93649578 C-0.29221516 77.71993119 -0.96778699 69.50322743 -1.64131111 61.28635335 C-1.9874528 57.06415035 -2.33436762 52.84201474 -2.68342113 48.62005138 C-5.11334015 19.21691284 -5.11334015 19.21691284 -5.78280354 8.03781414 C-5.82836195 7.31883575 -5.87392036 6.59985737 -5.92085934 5.85909176 C-6.00555219 4.28398779 -6.03378722 2.7059587 -6.04696369 1.12863445 C-4.36751204 -0.55081719 -2.30481573 0.00169584 0 0 Z " fill="#0174BE" transform="translate(52.046963691711426,20.871365547180176)"/>
<path d="M0 0 C66.66 0 133.32 0 202 0 C202 12.87 202 25.74 202 39 C197.04018683 41.47990659 192.55723769 43.65908832 187.4375 45.5625 C182.28546913 47.50711004 177.21590597 49.5151944 172.21484375 51.82421875 C166.75725431 54.31641277 161.20571506 56.55108445 155.625 58.75 C154.82731201 59.06807617 154.02962402 59.38615234 153.20776367 59.71386719 C152.45084229 60.00938477 151.6939209 60.30490234 150.9140625 60.609375 C150.2329541 60.87717773 149.5518457 61.14498047 148.85009766 61.42089844 C147 62 147 62 144 62 C144 62.66 144 63.32 144 64 C143.37351563 64.19335938 142.74703125 64.38671875 142.1015625 64.5859375 C140.87566406 64.97652344 140.87566406 64.97652344 139.625 65.375 C138.40683594 65.75785156 138.40683594 65.75785156 137.1640625 66.1484375 C134.83540815 66.89854283 134.83540815 66.89854283 133 69 C131.12458502 69.70292488 129.22419349 70.3402457 127.3125 70.9375 C122.67623831 72.39259102 118.51803247 74.06370037 114 76 C140.4 76.33 166.8 76.66 194 77 C192.84512669 96.6328462 192.84512669 96.6328462 192.28125 103.9453125 C192.21844849 104.77030243 192.15564697 105.59529236 192.09094238 106.44528198 C191.96064466 108.15042892 191.8295894 109.85551815 191.69775391 111.56054688 C191.49750578 114.15734476 191.30139579 116.7544354 191.10546875 119.3515625 C190.97680994 121.02866483 190.84791263 122.70574889 190.71875 124.3828125 C190.661427 125.14643097 190.604104 125.91004944 190.54504395 126.69680786 C190.19544062 131.16491948 189.63577342 135.56182487 189 140 C188.83158029 142.14660967 188.6889496 144.2953768 188.5703125 146.4453125 C188.4986084 147.67435303 188.4269043 148.90339355 188.35302734 150.16967773 C188.24015381 152.12756226 188.24015381 152.12756226 188.125 154.125 C187.20793842 169.47205094 185.71539284 184.72131566 184 200 C179.1788225 201.84138553 174.37625054 203.55741148 169.4375 205.0625 C162.59333111 207.16774775 155.77828263 209.35866734 148.96728516 211.56860352 C142.94547096 213.52227071 136.91817103 215.45882809 130.89001465 217.39282227 C129.08398954 217.97301789 127.27879032 218.55578247 125.47363281 219.13867188 C122.34033181 220.14643171 119.20251227 221.13838342 116.0625 222.125 C115.15298584 222.42003418 114.24347168 222.71506836 113.30639648 223.01904297 C103.30535494 226.12056601 96.31509395 224.83294618 86.5 221.75 C79.82276888 219.6920703 73.14781684 217.74866844 66.359375 216.08984375 C57.41995908 213.90243518 48.58926946 211.37044888 39.75 208.8125 C37.40233114 208.13563147 35.05443704 207.45955402 32.70635986 206.78410339 C31.26365293 206.36883721 29.82121311 205.9526415 28.37908936 205.53535461 C25.26464608 204.63660795 22.15322377 203.75313614 19 203 C18.26363042 199.59758319 17.7943963 196.28679599 17.53515625 192.81640625 C17.4582959 191.81697998 17.38143555 190.81755371 17.30224609 189.7878418 C17.18357178 188.19129761 17.18357178 188.19129761 17.0625 186.5625 C16.56126396 179.99803302 16.05629675 173.43631997 15.42578125 166.8828125 C15.33353271 165.92173584 15.24128418 164.96065918 15.14624023 163.97045898 C14.97203113 162.18305159 14.79352441 160.39605494 14.60961914 158.60961914 C13.9757541 152.06223369 13.91077274 145.57519905 14 139 C19.53588533 138.97535225 25.071739 138.95716504 30.60766602 138.94506836 C32.4924373 138.94002756 34.37720465 138.93319502 36.26196289 138.92456055 C38.96501636 138.91248383 41.66801831 138.90676932 44.37109375 138.90234375 C45.21900986 138.89718246 46.06692596 138.89202118 46.9405365 138.88670349 C48.96071068 138.88650805 50.98077934 138.93793789 53 139 C55.18360318 141.18360318 54.75389761 145.84136404 55.0625 148.875 C55.15192871 149.73456299 55.24135742 150.59412598 55.33349609 151.47973633 C55.94487662 157.66748949 56.2515721 163.78057855 56 170 C56.97195312 170.12632812 57.94390625 170.25265625 58.9453125 170.3828125 C63.30261121 171.00716149 67.58053995 171.9161968 71.875 172.875 C72.6685791 173.05135986 73.4621582 173.22771973 74.27978516 173.40942383 C79.65637795 174.63067374 84.81170635 176.12147989 90 178 C97.84727059 180.24428843 104.83191504 178.70631692 112.5546875 176.7890625 C117.09896537 175.74830952 121.65934794 175.15340693 126.27734375 174.5390625 C132.89102399 173.58136274 139.4418202 172.27756749 146 171 C146.04487549 170.42483643 146.08975098 169.84967285 146.13598633 169.25708008 C147.48549334 152.13363435 149.23174355 135.09314565 151 118 C105.13 118 59.26 118 12 118 C10.61539945 111.07699725 9.36844109 104.28179336 8.375 97.3125 C8.17390625 95.96575195 8.17390625 95.96575195 7.96875 94.59179688 C7.26214972 89.67083064 6.85040106 84.97076474 7 80 C7.556875 79.75765625 8.11375 79.5153125 8.6875 79.265625 C12.45925313 77.6091118 16.20216579 75.92939705 19.875 74.0625 C28.00985397 69.95496032 36.30379865 66.46613024 44.82421875 63.2421875 C48.62249721 61.75651401 52.30989622 60.08785182 56.01171875 58.37890625 C65.96741745 53.78496946 75.91028641 49.48988039 86.32861328 46.04125977 C90.33345525 44.69393097 93.30452051 43.21728769 97 41 C66.64 40.67 36.28 40.34 5 40 C1 17 1 17 0 0 Z " fill="#FCFEFE" transform="translate(105,91)"/>
<path d="M0 0 C16.93262514 -0.02254677 33.86523753 -0.04097902 50.7978735 -0.05181217 C58.65944391 -0.05697519 66.52100435 -0.06401801 74.38256836 -0.07543945 C81.23225475 -0.0853861 88.08193392 -0.09185338 94.93162733 -0.09408849 C98.56069396 -0.09539563 102.18973994 -0.09848169 105.81879997 -0.10573006 C109.86350304 -0.11374356 113.90816989 -0.11399115 117.95288086 -0.11352539 C119.16488159 -0.11712067 120.37688232 -0.12071594 121.62561035 -0.12442017 C123.26843239 -0.12235817 123.26843239 -0.12235817 124.94444275 -0.12025452 C126.38105711 -0.12163721 126.38105711 -0.12163721 127.84669399 -0.12304783 C130 0 130 0 131 1 C131.34789493 10.13826423 130.3954203 19.19108446 129.57421875 28.28125 C129.42408182 29.97909223 129.27433545 31.67696904 129.12495422 33.37487793 C128.730469 37.84686583 128.33077626 42.31837316 127.92993164 46.78979492 C127.53420193 51.21375818 127.1432392 55.6381419 126.75195312 60.0625 C126.13435316 67.03936207 125.5141709 74.01598952 124.8918457 80.99243164 C122.67179727 105.88289852 120.48778973 130.77655645 118.32006836 155.67163086 C118.06373177 158.61503404 117.8068685 161.55839056 117.54956055 164.50170898 C116.21939295 179.71924121 114.90810771 194.93713415 113.70666504 210.16549683 C112.9247556 220.04273347 112.07205291 229.91325943 111.19506836 239.7824707 C110.9316166 242.75385693 110.67185332 245.72555323 110.41210938 248.69726562 C110.24240903 250.61460295 110.07249573 252.53192145 109.90234375 254.44921875 C109.82628403 255.32414474 109.7502243 256.19907074 109.67185974 257.10050964 C109.28240576 261.44124043 108.79203588 265.7094061 108 270 C105.56388437 270.71053372 103.12776831 271.42106594 100.69165039 272.1315918 C98.5215585 272.76454218 96.35147414 273.39751839 94.18139648 274.03051758 C88.95573495 275.55477817 83.73001531 277.07883694 78.50390625 278.6015625 C65.35413041 282.43368759 52.20792816 286.27799289 39.0625 290.125 C38.19480988 290.37889496 37.32711975 290.63278992 36.43313599 290.89437866 C34.72280816 291.3948642 33.01250616 291.89543798 31.30223083 292.39610291 C29.63660141 292.8836074 27.9708821 293.37080489 26.30506897 293.85768127 C22.21189565 295.05494485 18.12123966 296.25987014 14.03466797 297.47949219 C13.24861679 297.71328583 12.46256561 297.94707947 11.6526947 298.18795776 C10.16744551 298.63011458 8.68283982 299.07444065 7.19898987 299.52127075 C2.22362248 301 2.22362248 301 0 301 C0 289.12 0 277.24 0 265 C-1.32 265 -2.64 265 -4 265 C-4 264.34 -4 263.68 -4 263 C-3.38326416 262.8860791 -2.76652832 262.7721582 -2.13110352 262.65478516 C3.71757241 261.53571437 9.37455664 260.12910364 15.0625 258.375 C15.90321045 258.11920166 16.7439209 257.86340332 17.61010742 257.59985352 C31.52770593 253.33920932 45.39798759 248.90861906 59.1875 244.25 C63.90315265 242.66096312 68.63748286 241.21364121 73.42578125 239.859375 C75.2826355 239.3329541 75.2826355 239.3329541 77.17700195 238.79589844 C78.10859131 238.53325195 79.04018066 238.27060547 80 238 C80.55617268 232.34860533 81.10725427 226.69674298 81.65405273 221.04443359 C81.83990125 219.13024189 82.0270306 217.21617402 82.21557617 215.30224609 C83.23071113 204.98847487 84.13593363 194.69633109 84.65419006 184.34492493 C85.02104704 177.14689265 85.6715758 169.98518183 86.375 162.8125 C86.4884375 161.62720703 86.601875 160.44191406 86.71875 159.22070312 C87.14170672 154.81340411 87.57123632 150.40673787 88 146 C88.99 135.77 89.98 125.54 91 115 C64.27 115 37.54 115 10 115 C12.15784133 111.763238 12.53599384 111.5435615 16.02734375 110.5 C16.81947266 110.2525 17.61160156 110.005 18.42773438 109.75 C19.25595703 109.5025 20.08417969 109.255 20.9375 109 C22.57422119 108.50859974 24.20847618 108.00889127 25.83984375 107.5 C26.56550537 107.2834375 27.29116699 107.066875 28.03881836 106.84375 C30.23457018 105.89908197 31.36819633 104.71598633 33 103 C35.67318858 102.33042504 38.23825037 102.22637292 41 102 C41 101.34 41 100.68 41 100 C41.78125244 99.71801758 42.56250488 99.43603516 43.36743164 99.14550781 C46.29722232 98.08455299 49.22482633 97.01781602 52.15112305 95.94726562 C54.02818289 95.2625188 55.90762799 94.58432194 57.78710938 93.90625 C63.87926844 91.67300571 69.46369895 89.37415105 75 86 C77.23046875 85.12890625 77.23046875 85.12890625 79.1875 84.5625 C85.62118321 82.55474714 91.96935829 80.01532085 98 77 C98.33 63.8 98.66 50.6 99 37 C66.33 37 33.66 37 0 37 C0 24.79 0 12.58 0 0 Z " fill="#0188C9" transform="translate(208,53)"/>
<path d="M0 0 C15.84 0 31.68 0 48 0 C47.42724492 10.8823465 46.83737709 21.17503913 45.47265625 31.890625 C44.80924271 37.31737372 44.5270109 42.76093114 44.24609375 48.21875 C44 51 44 51 43 52 C40.66850133 52.50394372 38.34709889 52.95589482 36 53.375 C35.28956543 53.50438965 34.57913086 53.6337793 33.84716797 53.76708984 C32.33692159 54.04122916 30.82632977 54.31347108 29.31542969 54.58398438 C27.04492958 54.99192746 24.77630404 55.40917383 22.5078125 55.828125 C21.04695208 56.09417361 19.58601669 56.35981094 18.125 56.625 C17.46113281 56.74794434 16.79726562 56.87088867 16.11328125 56.99755859 C10.72234224 57.96117565 5.49963823 58.45003618 0 59 C0 39.53 0 20.06 0 0 Z " fill="#0288C9" transform="translate(208,211)"/>
<path d="M0 0 C1.10089395 -0.00322445 2.20178791 -0.00644889 3.33604228 -0.00977105 C4.56062275 -0.00822245 5.78520321 -0.00667385 7.04689217 -0.00507832 C8.98060258 -0.00847665 8.98060258 -0.00847665 10.95337784 -0.01194364 C14.54823033 -0.01809193 18.14305968 -0.01792451 21.73791623 -0.01674926 C25.60847986 -0.01654601 29.47903589 -0.02205674 33.34959602 -0.02680683 C40.93914886 -0.03513066 48.52869393 -0.03786246 56.11825095 -0.03841921 C62.28477471 -0.03889358 68.45129589 -0.04094436 74.61781883 -0.04411983 C92.08337397 -0.05293136 109.54892296 -0.05753847 127.01448034 -0.05678936 C127.95701737 -0.0567494 128.8995544 -0.05670945 129.87065315 -0.05666828 C131.28617591 -0.05660696 131.28617591 -0.05660696 132.73029508 -0.0565444 C148.02801697 -0.05613785 163.32571427 -0.0657083 178.62342905 -0.07980665 C194.31369913 -0.09415319 210.0039572 -0.10107777 225.69423401 -0.10021287 C234.51006872 -0.09988029 243.32587765 -0.10265397 252.14170647 -0.11339092 C259.64745113 -0.12247335 267.15315832 -0.12468987 274.65890609 -0.1178815 C278.49111518 -0.11460474 282.32325228 -0.11460097 286.15545464 -0.12323475 C290.30356708 -0.13248442 294.45151111 -0.12635391 298.59962654 -0.11860371 C299.81974556 -0.12374727 301.03986458 -0.12889083 302.2969569 -0.13419026 C303.40306635 -0.12959147 304.50917579 -0.12499267 305.64880371 -0.12025452 C307.08618135 -0.12058057 307.08618135 -0.12058057 308.55259693 -0.12091321 C310.950243 0.12863445 310.950243 0.12863445 313.950243 2.12863445 C280.37088533 2.15168834 246.79152969 2.16922676 213.21216583 2.17969978 C209.21828269 2.18095 205.22439956 2.18224437 201.23051643 2.18356609 C200.43564135 2.1838284 199.64076626 2.18409071 198.82180405 2.18436097 C186.06990592 2.18867361 173.31801244 2.19653599 160.56611705 2.20578725 C147.41254121 2.21524799 134.25896775 2.22071585 121.10538864 2.22272295 C113.74631634 2.2239539 106.3872537 2.22685573 99.02818489 2.23436451 C64.65729701 2.26844766 30.31092505 2.0421326 -4.049757 1.12863445 C-3.73949298 4.47313111 -3.42916848 7.81762216 -3.11883354 11.16211224 C-3.03149499 12.10358766 -2.94415645 13.04506308 -2.85417128 14.01506805 C-2.40709601 18.8328952 -1.95862897 23.65058402 -1.50703239 28.46798992 C-0.61191946 38.15713386 0.1967058 47.83042938 0.61184883 57.55365276 C0.77256777 61.35678737 0.77256777 61.35678737 1.44415474 65.0925169 C1.96102315 67.17200565 2.16271095 69.08469742 2.29155159 71.22165203 C2.34196602 72.02325253 2.39238045 72.82485302 2.44432259 73.65074444 C2.4952607 74.51614346 2.54619881 75.38154247 2.5986805 76.2731657 C2.71650723 78.15305946 2.83451594 80.03294183 2.9526844 81.91281414 C3.01337105 82.89777874 3.07405769 83.88274334 3.13658333 84.89755535 C4.07749332 100.07692049 5.10724451 115.24033298 6.575243 130.37863445 C6.69818733 131.6726115 6.82113167 132.96658855 6.94780159 134.29977703 C6.99732664 139.58711832 6.99732664 139.58711832 8.950243 144.12863445 C9.06133134 145.6961082 9.10634429 147.2682899 9.12602425 148.83957195 C9.4275574 163.66188279 10.39437842 178.31146227 11.825243 193.06613445 C11.91307045 193.97482281 12.0008979 194.88351116 12.0913868 195.81973553 C12.44846527 199.51135373 12.80595665 203.20293116 13.16476631 206.89438152 C14.0131482 215.67025756 14.78235177 224.45181627 15.50352669 233.23901653 C15.63266696 234.80775236 15.76359056 236.37634261 15.89647102 237.94476604 C16.60740768 246.34914263 17.15334863 254.68846713 16.950243 263.12863445 C16.290243 263.12863445 15.630243 263.12863445 14.950243 263.12863445 C14.18064933 253.77186875 13.41113189 244.41509678 12.64164925 235.05832195 C12.58191107 234.33192375 12.52217288 233.60552554 12.46062446 232.85711527 C10.93132208 214.26116202 9.40257534 195.66516326 7.87504768 177.06906414 C7.73757938 175.39556153 7.60011104 173.72205893 7.46264267 172.04855633 C6.90900202 165.30861409 6.35537009 158.56867113 5.80180168 151.82872295 C4.25461311 132.99126889 2.70592973 114.1539404 1.15242481 95.31700611 C0.29529433 84.92366948 -0.56032425 74.53020904 -1.41467381 64.13664341 C-1.90437231 58.18023345 -2.39495448 52.22389916 -2.88761711 46.26773357 C-3.34477179 40.74075869 -3.79970244 35.21360546 -4.25285721 29.68630123 C-4.41713584 27.68752962 -4.58225228 25.68882666 -4.74828339 23.69019985 C-4.97244597 20.99049553 -5.19361134 18.29056194 -5.41401482 15.59054852 C-5.4793463 14.81257853 -5.54467779 14.03460854 -5.61198902 13.2330637 C-5.93857547 9.18989272 -6.21342578 5.18478648 -6.049757 1.12863445 C-4.36991442 -0.55120813 -2.30523248 0.00169518 0 0 Z " fill="#2C7FB6" transform="translate(52.04975700378418,20.871365547180176)"/>
<path d="M0 0 C66.66 0 133.32 0 202 0 C202 12.87 202 25.74 202 39 C194 43 194 43 192 43 C192 42.01 192 41.02 192 40 C195.465 39.505 195.465 39.505 199 39 C199 27.12 199 15.24 199 3 C100.99 2.505 100.99 2.505 1 2 C2.32 9.92 3.64 17.84 5 26 C5 29.3 5 32.6 5 36 C4.67 36 4.34 36 4 36 C3.32394521 31.50135882 2.66084619 27.00089838 2 22.5 C1.80921875 21.2315625 1.6184375 19.963125 1.421875 18.65625 C1.24140625 17.41875 1.0609375 16.18125 0.875 14.90625 C0.70742187 13.77509766 0.53984375 12.64394531 0.3671875 11.47851562 C-0.03467204 7.67153771 0 3.82812904 0 0 Z " fill="#C2E5F1" transform="translate(105,91)"/>
<path d="M0 0 C0.33 0 0.66 0 1 0 C1.14230044 7.89090842 0.72099093 15.62288515 -0.00927734 23.47753906 C-0.11876331 24.70002098 -0.22824928 25.9225029 -0.34105301 27.18202972 C-0.58195159 29.86601155 -0.8245763 32.5497722 -1.07008743 35.23332977 C-1.47394304 39.64973669 -1.87058138 44.0667749 -2.26596069 48.48394775 C-2.40666709 50.05535547 -2.547378 51.62676278 -2.68809319 53.19816971 C-2.75942018 53.9948149 -2.83074718 54.79146008 -2.9042356 55.61224604 C-3.12745865 58.10278033 -3.35131668 60.59325687 -3.57531929 63.08372116 C-5.38486128 83.21474006 -7.13706657 103.35076084 -8.8918581 123.48661232 C-9.34843014 128.72446346 -9.80555331 133.9622665 -10.26263428 139.20007324 C-11.0074252 147.73540641 -11.75186688 156.27076997 -12.49609375 164.80615234 C-13.34627699 174.55647558 -14.19742751 184.30671408 -15.04898989 194.05691695 C-15.7980314 202.63385593 -16.54633027 211.21085952 -17.29410779 219.78790879 C-17.73301507 224.82204085 -18.17217864 229.85615013 -18.61214066 234.89019012 C-21.14896928 263.92072123 -23.59884057 292.95793646 -26 322 C-26.66 322 -27.32 322 -28 322 C-28.1809662 313.22615539 -27.63389192 304.66314266 -26.75 295.9375 C-26.61519797 294.55890494 -26.48110656 293.18024024 -26.34765625 291.80151367 C-26.05752779 288.80788669 -25.76492877 285.81451605 -25.47070312 282.82128906 C-24.62154859 274.15413317 -23.80973438 265.48341368 -23 256.8125 C-22.91381409 255.89029663 -22.82762817 254.96809326 -22.73883057 254.01794434 C-21.5601375 241.3746818 -20.45859727 228.72822205 -19.45751953 216.06973267 C-17.99556078 197.5972315 -16.39128979 179.13698611 -14.79957199 160.67531967 C-13.08858349 140.83006844 -11.38132395 120.98509774 -9.84960938 101.125 C-9.74841797 99.8359375 -9.64722656 98.546875 -9.54296875 97.21875 C-9.46071045 96.14560547 -9.37845215 95.07246094 -9.29370117 93.96679688 C-9.09972231 92.00733623 -8.83896175 90.05321995 -8.50878906 88.11206055 C-7.90444973 84.41555698 -7.59760217 80.71976631 -7.31640625 76.98828125 C-7.19329744 75.41967621 -7.07016844 73.85107275 -6.94702148 72.2824707 C-6.88425018 71.47041168 -6.82147888 70.65835266 -6.75680542 69.82168579 C-5.87591183 58.44616332 -4.99271846 47.07897847 -3.70166016 35.74145508 C-2.80771854 27.69316939 -2.25814475 19.61565677 -1.69702148 11.53833008 C-1.58209351 9.94154419 -1.58209351 9.94154419 -1.46484375 8.3125 C-1.399021 7.35988281 -1.33319824 6.40726563 -1.26538086 5.42578125 C-1 3 -1 3 0 0 Z " fill="#287DB4" transform="translate(366,23)"/>
<path d="M0 0 C0.66 0.33 1.32 0.66 2 1 C4.5317239 1.12221229 7.03778521 1.18564445 9.57080078 1.20532227 C10.35137848 1.21522186 11.13195618 1.22512146 11.93618774 1.23532104 C14.52253155 1.26696978 17.10889375 1.29170676 19.6953125 1.31640625 C21.48607874 1.33697287 23.27684008 1.35796926 25.06759644 1.37937927 C29.78578743 1.43463013 34.50402245 1.4840261 39.22229004 1.53222656 C44.03495207 1.5824196 48.84755 1.63811712 53.66015625 1.69335938 C63.1067161 1.80097781 72.55333156 1.90241459 82 2 C82 4.64 82 7.28 82 10 C81.67 10 81.34 10 81 10 C81 8.02 81 6.04 81 4 C52.95 4 24.9 4 -4 4 C-3.67 3.01 -3.34 2.02 -3 1 C-2.01 0.67 -1.02 0.34 0 0 Z " fill="#B6E3F1" transform="translate(217,166)"/>
<path d="M0 0 C22.42643338 5.73666039 22.42643338 5.73666039 32.54296875 8.9453125 C37.12995181 10.34473106 41.74827261 11.6141162 46.375 12.875 C47.30538086 13.12878418 48.23576172 13.38256836 49.19433594 13.64404297 C54.1910765 14.99729147 59.19556833 16.310925 64.21484375 17.578125 C65.23465332 17.8373877 66.25446289 18.09665039 67.30517578 18.36376953 C69.25096428 18.85629823 71.19847154 19.34210651 73.14794922 19.81982422 C79.0788932 21.32255755 84.49604939 23.32605005 90 26 C86.29599671 27.23466776 84.84452596 26.61788657 81.11767578 25.55639648 C79.90435577 25.21531357 78.69103577 24.87423065 77.44094849 24.52281189 C76.10901942 24.13908075 74.77714218 23.75516968 73.4453125 23.37109375 C72.06522178 22.97973548 70.68491785 22.58912837 69.30441284 22.19923401 C65.6507939 21.16513244 62.00018524 20.12076724 58.35009766 19.07427979 C54.71821661 18.03490588 51.08361753 17.00513759 47.44921875 15.97460938 C41.19278962 14.19922499 34.93899225 12.41479909 28.6866188 10.62518883 C24.56465221 9.44583158 20.44079397 8.27336996 16.31542969 7.10595703 C14.83536942 6.68625389 14.83536942 6.68625389 13.32540894 6.2580719 C11.53605341 5.75084378 9.74630546 5.24499709 7.95608521 4.74082947 C2.22490709 3.11245354 2.22490709 3.11245354 0 2 C0 1.34 0 0.68 0 0 Z " fill="#287DB4" transform="translate(74,347)"/>
<path d="M0 0 C30.69 0 61.38 0 93 0 C90.51831208 4.96337585 81.07752584 7.29124698 76.1015625 9.36328125 C74 10 74 10 72 9 C72.33 8.34 72.66 7.68 73 7 C73.99 7 74.98 7 76 7 C76 5.35 76 3.7 76 2 C50.92 1.67 25.84 1.34 0 1 C0 0.67 0 0.34 0 0 Z " fill="#3382B4" transform="translate(110,131)"/>
<path d="M0 0 C5.53588533 -0.02464775 11.071739 -0.04283496 16.60766602 -0.05493164 C18.4924373 -0.05997244 20.37720465 -0.06680498 22.26196289 -0.07543945 C24.96501636 -0.08751617 27.66801831 -0.09323068 30.37109375 -0.09765625 C31.21900986 -0.10281754 32.06692596 -0.10797882 32.9405365 -0.11329651 C34.96071068 -0.11349195 36.98077934 -0.06206211 39 0 C41.96398185 2.96398185 41.0625 11.50616922 41.0625 15.5625 C41.04673956 17.04172942 41.02779013 18.52094768 41 20 C40.67 20 40.34 20 40 20 C39.65981837 18.29301718 39.3281911 16.58432867 39 14.875 C38.814375 13.92367187 38.62875 12.97234375 38.4375 11.9921875 C38 9 38 9 38 3 C19.685 2.505 19.685 2.505 1 2 C1.33 2.99 1.66 3.98 2 5 C2.0806622 6.48123547 2.10761193 7.96582204 2.09765625 9.44921875 C2.09443359 10.29677734 2.09121094 11.14433594 2.08789062 12.01757812 C2.07951172 12.89865234 2.07113281 13.77972656 2.0625 14.6875 C2.05798828 15.58017578 2.05347656 16.47285156 2.04882812 17.39257812 C2.03704983 19.59511987 2.02060164 21.79752599 2 24 C1.67 24 1.34 24 1 24 C0.82630897 22.25068322 0.66158247 20.50047676 0.5 18.75 C0.4071875 17.77546875 0.314375 16.8009375 0.21875 15.796875 C-0.0846963 10.52991424 -0.03882788 5.27412029 0 0 Z " fill="#AEDBEB" transform="translate(119,230)"/>
<path d="M0 0 C-2.64738916 1.4606285 -3.89448334 2 -7 2 C-6.01 3.485 -6.01 3.485 -5 5 C-2.13251684 5.47910061 -2.13251684 5.47910061 1.28564453 5.43237305 C1.92967224 5.4425647 2.57369995 5.45275635 3.23724365 5.46325684 C5.36918725 5.49348761 7.50068236 5.50266751 9.6328125 5.51171875 C11.10970566 5.52855809 12.58658442 5.54670732 14.06344604 5.56611633 C17.95305889 5.61370399 21.84261339 5.64345625 25.73242188 5.66955566 C29.70063811 5.69931729 33.66865308 5.74586257 37.63671875 5.79101562 C45.4243795 5.87714827 53.21205472 5.94444879 61 6 C61 6.33 61 6.66 61 7 C34.27 7 7.54 7 -20 7 C-17.44361336 3.16542004 -15.42727201 2.77055352 -11.125 1.25 C-9.89007813 0.80140625 -8.65515625 0.3528125 -7.3828125 -0.109375 C-4.25404244 -0.93311585 -2.92367569 -1.20473068 0 0 Z " fill="#268EC1" transform="translate(238,161)"/>
<path d="M0 0 C0.66 0 1.32 0 2 0 C2.43571762 4.17601349 2.86249556 8.35282567 3.28173828 12.53051758 C3.42491502 13.94546894 3.5703461 15.36019438 3.71826172 16.7746582 C4.667418 25.86912506 5.21267418 34.84417958 5 44 C5.66 44 6.32 44 7 44 C6.67 47.3 6.34 50.6 6 54 C5.34 54 4.68 54 4 54 C3.42810275 46.95265362 2.85869238 39.90510948 2.29101562 32.85742188 C2.09757919 30.45958904 1.90357218 28.06180217 1.70898438 25.6640625 C1.42949021 22.21886917 1.15204416 18.77351611 0.875 15.328125 C0.78750488 14.25508118 0.70000977 13.18203735 0.60986328 12.07647705 C0.52978027 11.07574158 0.44969727 10.0750061 0.3671875 9.04394531 C0.29612793 8.16458313 0.22506836 7.28522095 0.15185547 6.37921143 C0.01637292 4.25652448 0 2.1270062 0 0 Z " fill="#297DB4" transform="translate(68,291)"/>
<path d="M0 0 C0.33 0 0.66 0 1 0 C5.5691466 45.60255972 5.5691466 45.60255972 6 64 C7.32 64.33 8.64 64.66 10 65 C8.35 65 6.7 65 5 65 C3.98715798 61.96147393 3.72570771 59.49444801 3.5 56.30859375 C3.4175 55.19935547 3.335 54.09011719 3.25 52.94726562 C3.0830565 50.60353533 2.91639074 48.25978523 2.75 45.91601562 C2.6675 44.80806641 2.585 43.70011719 2.5 42.55859375 C2.4278125 41.54079834 2.355625 40.52300293 2.28125 39.47436523 C2.14352625 37.00093813 2.14352625 37.00093813 1 35 C0.75896198 32.3069209 0.574207 29.63627028 0.4375 26.9375 C0.3950415 26.1448877 0.35258301 25.35227539 0.30883789 24.53564453 C-0.09311544 16.35585387 -0.09327076 8.18710026 0 0 Z " fill="#348BBE" transform="translate(118,230)"/>
<path d="M0 0 C0.66 0.33 1.32 0.66 2 1 C2.0493521 6.51756476 2.08569662 12.03500171 2.10986328 17.55273438 C2.11993534 19.43068682 2.13359362 21.30862353 2.15087891 23.18652344 C2.17507453 25.8822009 2.18647083 28.57767146 2.1953125 31.2734375 C2.20563507 32.11619232 2.21595764 32.95894714 2.22659302 33.82723999 C2.22699144 35.88621247 2.12257588 37.94467935 2 40 C0 42 0 42 -3.125 42.125 C-4.07375 42.08375 -5.0225 42.0425 -6 42 C-3 40 -3 40 -1 39 C-0.67 26.13 -0.34 13.26 0 0 Z " fill="#1C8DC3" transform="translate(307,91)"/>
<path d="M0 0 C-2.44013574 4.08438492 -5.17404398 5.18950677 -9.5625 6.8125 C-10.71878906 7.25207031 -11.87507812 7.69164062 -13.06640625 8.14453125 C-16 9 -16 9 -18 8 C-17.67 7.34 -17.34 6.68 -17 6 C-16.01 6 -15.02 6 -14 6 C-14 4.35 -14 2.7 -14 1 C-9.23692563 0.04738513 -4.8333472 -0.08333357 0 0 Z " fill="#2584BF" transform="translate(200,132)"/>
<path d="M0 0 C0.33 0 0.66 0 1 0 C1 3.63 1 7.26 1 11 C1.96164063 11.12503906 2.92328125 11.25007813 3.9140625 11.37890625 C8.44597322 12.02844207 12.9033903 12.96273257 17.375 13.9375 C18.19355469 14.10701172 19.01210937 14.27652344 19.85546875 14.45117188 C21.91920876 14.90122463 23.96242698 15.44334345 26 16 C26.33 16.66 26.66 17.32 27 18 C22.22498998 18.29234755 19.31496341 17.75019956 15.04296875 15.66796875 C10.85739208 14.29945324 6.35021616 14.78760247 2 15 C2 14.01 2 13.02 2 12 C1.34 12 0.68 12 0 12 C0 8.04 0 4.08 0 0 Z " fill="#C2E6F3" transform="translate(160,250)"/>
<path d="M0 0 C0.33 0 0.66 0 1 0 C1.08167446 1.41569064 1.13949698 2.83276805 1.1875 4.25 C1.23970703 5.43335938 1.23970703 5.43335938 1.29296875 6.640625 C0.92046754 9.6405014 0.17595846 10.90863604 -2 13 C-4.3828125 13.50390625 -4.3828125 13.50390625 -7.125 13.5625 C-11.86533851 13.80736517 -15.64402239 14.69046146 -20.02734375 16.4765625 C-22.36837047 17.09774583 -23.73104591 16.76139399 -26 16 C-17.77902213 12.8458289 -9.48815684 10.32959633 -1 8 C-0.67 5.36 -0.34 2.72 0 0 Z " fill="#3899C8" transform="translate(289,283)"/>
<path d="M0 0 C4.70941717 0.60120219 9.28277868 1.46349118 13.91015625 2.5234375 C16.26511763 3.06045673 18.62866444 3.54103183 21 4 C21 4.66 21 5.32 21 6 C21.969375 6.12375 22.93875 6.2475 23.9375 6.375 C25.4534375 6.684375 25.4534375 6.684375 27 7 C27.33 7.66 27.66 8.32 28 9 C18.48610229 7.31205041 9.28118882 4.6488796 0 2 C0 1.34 0 0.68 0 0 Z " fill="#267CB4" transform="translate(175,376)"/>
<path d="M0 0 C0 0.66 0 1.32 0 2 C-4.12170184 3.1991618 -8.24782028 4.3823424 -12.375 5.5625 C-14.1384375 6.07586914 -14.1384375 6.07586914 -15.9375 6.59960938 C-17.05898437 6.91865234 -18.18046875 7.23769531 -19.3359375 7.56640625 C-20.37282715 7.86490479 -21.4097168 8.16340332 -22.47802734 8.47094727 C-25 9 -25 9 -27 8 C-25.33140192 7.28488654 -23.66251554 6.57043834 -21.9921875 5.859375 C-20.17249702 5.07441048 -18.36664396 4.25756544 -16.5625 3.4375 C-11.16704553 1.26038679 -5.89377907 -0.36836119 0 0 Z " fill="#287DB4" transform="translate(271,367)"/>
<path d="M0 0 C0.33 0 0.66 0 1 0 C1.10402152 6.44283279 0.73459309 12.66459122 0 19.0625 C-0.14308594 20.3609082 -0.14308594 20.3609082 -0.2890625 21.68554688 C-0.52169264 23.79084969 -0.76021969 25.89549956 -1 28 C-2.98 28.66 -4.96 29.32 -7 30 C-6.505 28.515 -6.505 28.515 -6 27 C-3.9375 26.3125 -3.9375 26.3125 -2 26 C-2.01160156 24.78441406 -2.02320313 23.56882812 -2.03515625 22.31640625 C-2.04453278 20.73177236 -2.05363313 19.14713682 -2.0625 17.5625 C-2.07087891 16.76005859 -2.07925781 15.95761719 -2.08789062 15.13085938 C-2.0965143 13.08704779 -2.0522815 11.04316098 -2 9 C-1.67 8.67 -1.34 8.34 -1 8 C-0.76924918 6.65252916 -0.58846937 5.29622435 -0.4375 3.9375 C-0.293125 2.638125 -0.14875 1.33875 0 0 Z " fill="#D4F1F9" transform="translate(290,263)"/>
<path d="M0 0 C0 0.66 0 1.32 0 2 C-0.62648437 2.19335938 -1.25296875 2.38671875 -1.8984375 2.5859375 C-2.71570313 2.84632813 -3.53296875 3.10671875 -4.375 3.375 C-5.18710938 3.63023437 -5.99921875 3.88546875 -6.8359375 4.1484375 C-9.16459185 4.89854283 -9.16459185 4.89854283 -11 7 C-13.02213278 7.61056087 -15.06827978 8.14363995 -17.125 8.625 C-18.22070312 8.88539063 -19.31640625 9.14578125 -20.4453125 9.4140625 C-21.28835937 9.60742188 -22.13140625 9.80078125 -23 10 C-23 9.34 -23 8.68 -23 8 C-21.68 8 -20.36 8 -19 8 C-19 7.34 -19 6.68 -19 6 C-17.35 6 -15.7 6 -14 6 C-13.67 5.01 -13.34 4.02 -13 3 C-8.97396166 0.71418851 -4.62463797 -0.43355981 0 0 Z " fill="#C8EAF5" transform="translate(249,153)"/>
<path d="M0 0 C-2.64738916 1.4606285 -3.89448334 2 -7 2 C-6.34 3.32 -5.68 4.64 -5 6 C-8.63 6 -12.26 6 -16 6 C-15.34 5.67 -14.68 5.34 -14 5 C-14 4.34 -14 3.68 -14 3 C-12.42274653 2.29866401 -10.83788667 1.614417 -9.25 0.9375 C-7.92742187 0.36322266 -7.92742187 0.36322266 -6.578125 -0.22265625 C-3.84743691 -1.04600008 -2.63098653 -0.9773992 0 0 Z " fill="#148AC2" transform="translate(238,161)"/>
<path d="M0 0 C0.33 0 0.66 0 1 0 C0.3616813 10.33533038 -0.30232659 20.66849591 -1 31 C-1.33 31 -1.66 31 -2 31 C-3.10777262 19.97566042 -3.02275452 10.77603447 0 0 Z " fill="#3F9DCA" transform="translate(253,231)"/>
<path d="M0 0 C-3.70664942 2.02440084 -7.63524032 3.34611528 -11.625 4.6875 C-12.305625 4.92533203 -12.98625 5.16316406 -13.6875 5.40820312 C-15.43933889 5.99849666 -17.21870464 6.50565925 -19 7 C-19.66 6.67 -20.32 6.34 -21 6 C-19.23002526 5.18563132 -17.45898848 4.3735706 -15.6875 3.5625 C-14.70136719 3.11003906 -13.71523438 2.65757812 -12.69921875 2.19140625 C-8.22156616 0.21501835 -4.87991194 -0.09207381 0 0 Z " fill="#DBF5FB" transform="translate(278,294)"/>
<path d="M0 0 C1.91789713 0.28346278 3.83429183 0.5771028 5.75 0.875 C7.35101563 1.11863281 7.35101563 1.11863281 8.984375 1.3671875 C11.67708871 1.93223882 13.63572439 2.63422914 16 4 C16 4.33 16 4.66 16 5 C9.741346 5.5326514 5.54891215 3.81849506 0 1 C0 0.67 0 0.34 0 0 Z " fill="#A5D6EA" transform="translate(171,263)"/>
<path d="M0 0 C-0.33 0.99 -0.66 1.98 -1 3 C-3.109375 3.9140625 -3.109375 3.9140625 -5.75 4.625 C-6.61109375 4.86476562 -7.4721875 5.10453125 -8.359375 5.3515625 C-10.89594084 5.97444701 -13.43457286 6.51090777 -16 7 C-13.52097896 4.06719206 -11.030738 3.06128178 -7.4375 1.8125 C-6.46683594 1.46832031 -5.49617187 1.12414062 -4.49609375 0.76953125 C-2 0 -2 0 0 0 Z " fill="#B6DFEF" transform="translate(150,155)"/>
<path d="M0 0 C-5.5825192 3.32575612 -9.49686791 4.46450943 -16 4 C-16 3.34 -16 2.68 -16 2 C-15.31292969 1.86722656 -14.62585938 1.73445313 -13.91796875 1.59765625 C-12.56638672 1.33275391 -12.56638672 1.33275391 -11.1875 1.0625 C-9.84751953 0.80146484 -9.84751953 0.80146484 -8.48046875 0.53515625 C-2.35755258 -0.78585086 -2.35755258 -0.78585086 0 0 Z " fill="#479FCB" transform="translate(220,314)"/>
<path d="M0 0 C0.33 0.66 0.66 1.32 1 2 C1.66 2 2.32 2 3 2 C2.67 5.3 2.34 8.6 2 12 C1.34 12 0.68 12 0 12 C0 8.04 0 4.08 0 0 Z " fill="#1F78B1" transform="translate(72,333)"/>
<path d="M0 0 C0.66 0 1.32 0 2 0 C3.13480527 3.60993172 3.10015767 6.9842327 3.0625 10.75 C3.05347656 11.92046875 3.04445313 13.0909375 3.03515625 14.296875 C3.02355469 15.18890625 3.01195313 16.0809375 3 17 C2.67 17 2.34 17 2 17 C2 13.7 2 10.4 2 7 C1.34 7 0.68 7 0 7 C0 4.69 0 2.38 0 0 Z " fill="#1372AF" transform="translate(68,284)"/>
<path d="M0 0 C1.93922422 0.45098238 3.87633594 0.91105559 5.8125 1.375 C6.89144531 1.63023437 7.97039062 1.88546875 9.08203125 2.1484375 C12 3 12 3 15 5 C8.92671312 5.50610724 5.22771463 4.04157942 0 1 C0 0.67 0 0.34 0 0 Z " fill="#3489BD" transform="translate(130,295)"/>
<path d="M0 0 C1.65 0 3.3 0 5 0 C4.67 1.65 4.34 3.3 4 5 C2.35 5 0.7 5 -1 5 C-0.67 3.35 -0.34 1.7 0 0 Z " fill="#0972B6" transform="translate(74,343)"/>
<path d="M0 0 C1.21236328 0.01353516 1.21236328 0.01353516 2.44921875 0.02734375 C3.37154297 0.04474609 3.37154297 0.04474609 4.3125 0.0625 C1.36297042 1.56247444 -1.60239173 2.86273567 -4.6875 4.0625 C-5.6775 3.0725 -6.6675 2.0825 -7.6875 1.0625 C-4.80538698 0.10179566 -2.98899956 -0.04331883 0 0 Z " fill="#ABDAEC" transform="translate(225.6875,266.9375)"/>
<path d="M0 0 C-2.6855594 2.6855594 -5.37621328 3.06049974 -9 4 C-9 3.01 -9 2.02 -9 1 C-6.04335481 -0.4783226 -3.25770263 -0.06032783 0 0 Z " fill="#C7E9F5" transform="translate(306,130)"/>
</svg>
