<?xml version="1.0" encoding="UTF-8"?>
<svg version="1.1" xmlns="http://www.w3.org/2000/svg" width="411" height="411">
<path d="M0 0 C1.54853441 -0.00391523 3.09706586 -0.00942324 4.64558792 -0.01674271 C28.95015462 -0.12346344 47.78858715 1.9263836 66.13035774 19.10728264 C78.12233416 31.53827168 82.06084377 47.29531978 81.97020149 64.08384514 C80.93308413 78.50471513 74.43165386 92.97290535 63.97020149 103.08384514 C62.01168805 104.47740278 60.01893036 105.82667061 57.97020149 107.08384514 C57.31020149 107.74384514 56.65020149 108.40384514 55.97020149 109.08384514 C55.28957649 109.41384514 54.60895149 109.74384514 53.90770149 110.08384514 C51.80154548 110.92974455 51.80154548 110.92974455 50.97020149 113.08384514 C49.79457649 113.30040764 49.79457649 113.30040764 48.59520149 113.52134514 C45.71894429 114.13768597 44.80635442 114.86113369 42.97020149 117.08384514 C42.31020149 116.75384514 41.65020149 116.42384514 40.97020149 116.08384514 C39.98020149 116.41384514 38.99020149 116.74384514 37.97020149 117.08384514 C39.02078743 117.5801342 40.07137337 118.07642326 41.15379524 118.58775139 C49.06975201 122.39103281 56.4158468 126.1336995 62.97020149 132.08384514 C63.66500618 132.69872795 64.35981087 133.31361076 65.07567024 133.94712639 C75.49761159 143.70425347 81.36903531 156.81268269 81.97020149 171.08384514 C82.01016243 171.78767326 82.05012337 172.49150139 82.09129524 173.21665764 C82.62216102 190.64154627 76.03105345 204.45577668 64.77488899 217.32603264 C62.97020149 219.08384514 62.97020149 219.08384514 60.97020149 219.08384514 C60.64020149 220.07384514 60.31020149 221.06384514 59.97020149 222.08384514 C57.97020149 223.45884514 57.97020149 223.45884514 54.97020149 225.08384514 C53.85065071 225.72773186 53.85065071 225.72773186 52.70848274 226.38462639 C46.23745501 230.08384514 46.23745501 230.08384514 43.97020149 230.08384514 C43.64020149 230.74384514 43.31020149 231.40384514 42.97020149 232.08384514 C40.64207649 232.68150139 40.64207649 232.68150139 37.72020149 233.14634514 C36.76629524 233.3023217 35.81238899 233.45829826 34.82957649 233.61900139 C33.88598274 233.77239983 32.94238899 233.92579826 31.97020149 234.08384514 C31.06785774 234.28880608 30.16551399 234.49376701 29.23582649 234.70493889 C26.97020149 235.08384514 26.97020149 235.08384514 24.97020149 234.08384514 C24.97020149 234.74384514 24.97020149 235.40384514 24.97020149 236.08384514 C16.29290833 234.46896428 7.61812525 232.85084879 -1.02979851 231.08384514 C-1.02979851 230.42384514 -1.02979851 229.76384514 -1.02979851 229.08384514 C-1.93729851 229.00134514 -2.84479851 228.91884514 -3.77979851 228.83384514 C-7.53580163 227.96707519 -8.48646818 226.8733042 -11.02979851 224.08384514 C-11.93729851 223.54759514 -12.84479851 223.01134514 -13.77979851 222.45884514 C-14.52229851 222.00509514 -15.26479851 221.55134514 -16.02979851 221.08384514 C-16.02979851 220.42384514 -16.02979851 219.76384514 -16.02979851 219.08384514 C-17.67979851 218.42384514 -19.32979851 217.76384514 -21.02979851 217.08384514 C-21.02979851 216.09384514 -21.02979851 215.10384514 -21.02979851 214.08384514 C-22.01979851 213.75384514 -23.00979851 213.42384514 -24.02979851 213.08384514 C-27.30743505 209.72216664 -29.33675659 206.67742039 -31.18995476 202.36509514 C-31.5380822 201.56136467 -31.88620964 200.7576342 -32.2448864 199.92954826 C-32.50390739 199.32046623 -32.76292839 198.7113842 -33.02979851 198.08384514 C-33.0275779 198.88753029 -33.02535728 199.69121544 -33.02306938 200.51925468 C-33.00264916 208.26438211 -32.98761904 216.00949569 -32.97798634 223.75464344 C-32.97286698 227.7321466 -32.96598149 231.70962673 -32.95435905 235.68711662 C-32.90878446 251.81744729 -32.91497157 267.94941895 -33.29753113 284.07615662 C-33.32939231 285.47474614 -33.35689025 286.87344352 -33.37951279 288.27221298 C-33.70799236 307.52635485 -39.7054971 322.25458345 -53.59229851 335.70884514 C-66.67996866 347.13554186 -84.382567 351.6696284 -101.52198601 351.41978264 C-104.8969983 350.96767819 -107.40455187 349.74490568 -110.27589226 347.95884514 C-112.2996731 346.78623431 -112.2996731 346.78623431 -116.02979851 347.08384514 C-116.02979851 346.42384514 -116.02979851 345.76384514 -116.02979851 345.08384514 C-117.67979851 345.08384514 -119.32979851 345.08384514 -121.02979851 345.08384514 C-121.02979851 344.42384514 -121.02979851 343.76384514 -121.02979851 343.08384514 C-122.08167351 342.69197014 -123.13354851 342.30009514 -124.21729851 341.89634514 C-127.98815132 340.27918582 -130.2224774 338.10171533 -133.02979851 335.08384514 C-134.85798165 333.53301457 -136.70865346 332.01607051 -138.57667351 330.51353264 C-140.02979851 329.08384514 -140.02979851 329.08384514 -141.02979851 326.08384514 C-141.74136101 325.40322014 -141.74136101 325.40322014 -142.46729851 324.70884514 C-144.41899594 322.67907981 -145.03087609 320.70601649 -146.02979851 318.08384514 C-146.52479851 317.30009514 -147.01979851 316.51634514 -147.52979851 315.70884514 C-149.30676969 312.59914557 -150.11793048 309.53591695 -151.02979851 306.08384514 C-151.35979851 305.42384514 -151.68979851 304.76384514 -152.02979851 304.08384514 C-152.07562707 302.54285979 -152.0679705 301.00003916 -152.02979851 299.45884514 C-151.98334267 296.20693675 -152.13275349 293.44552423 -152.65479851 290.20884514 C-153.63633642 283.52893432 -151.71974296 276.5363603 -150.02979851 270.08384514 C-149.36979851 270.08384514 -148.70979851 270.08384514 -148.02979851 270.08384514 C-147.91765007 269.36970451 -147.80550163 268.65556389 -147.68995476 267.91978264 C-145.60638091 258.96904528 -140.21772314 252.45916269 -133.02979851 247.08384514 C-132.21640007 246.42642326 -131.40300163 245.76900139 -130.56495476 245.09165764 C-123.51495811 239.60487611 -116.31138488 236.27558062 -108.02979851 233.08384514 C-111.32979851 232.09384514 -114.62979851 231.10384514 -118.02979851 230.08384514 C-118.02979851 229.42384514 -118.02979851 228.76384514 -118.02979851 228.08384514 C-120.33979851 227.75384514 -122.64979851 227.42384514 -125.02979851 227.08384514 C-125.02979851 226.09384514 -125.02979851 225.10384514 -125.02979851 224.08384514 C-126.11261101 223.71259514 -126.11261101 223.71259514 -127.21729851 223.33384514 C-130.2830181 221.9713031 -132.46808969 220.23014172 -135.02979851 218.08384514 C-135.68979851 217.75384514 -136.34979851 217.42384514 -137.02979851 217.08384514 C-137.69646517 215.75051181 -138.36313184 214.41717847 -139.02979851 213.08384514 C-139.68979851 212.75384514 -140.34979851 212.42384514 -141.02979851 212.08384514 C-142.10011101 210.52525139 -142.10011101 210.52525139 -143.15479851 208.64634514 C-143.50800163 208.0288842 -143.86120476 207.41142326 -144.22511101 206.77525139 C-145.02979851 205.08384514 -145.02979851 205.08384514 -145.02979851 203.08384514 C-145.68979851 202.75384514 -146.34979851 202.42384514 -147.02979851 202.08384514 C-148.02979851 199.95884514 -148.02979851 199.95884514 -149.02979851 197.08384514 C-149.38042351 196.11447014 -149.73104851 195.14509514 -150.09229851 194.14634514 C-151.71054262 188.28498852 -151.75699903 182.12440506 -152.02979851 176.08384514 C-152.08393913 175.00876701 -152.13807976 173.93368889 -152.19386101 172.82603264 C-152.37811092 166.27678563 -151.60304848 161.10263321 -149.02979851 155.08384514 C-148.54253288 153.92368889 -148.54253288 153.92368889 -148.04542351 152.74009514 C-147.07595409 150.50285802 -146.06495107 148.29133917 -145.02979851 146.08384514 C-144.51417351 144.97009514 -143.99854851 143.85634514 -143.46729851 142.70884514 C-142.17370082 140.34662327 -141.14068762 138.73584531 -139.02979851 137.08384514 C-138.36979851 137.08384514 -137.70979851 137.08384514 -137.02979851 137.08384514 C-136.79390007 136.50505608 -136.55800163 135.92626701 -136.31495476 135.32993889 C-132.10411868 127.97057492 -121.67202422 121.88295217 -113.68995476 119.33775139 C-111.81734107 118.86054755 -109.92473242 118.46283192 -108.02979851 118.08384514 C-108.02979851 117.42384514 -108.02979851 116.76384514 -108.02979851 116.08384514 C-109.70042351 116.11478264 -109.70042351 116.11478264 -111.40479851 116.14634514 C-115.02979851 116.08384514 -115.02979851 116.08384514 -117.02979851 115.08384514 C-117.02979851 114.42384514 -117.02979851 113.76384514 -117.02979851 113.08384514 C-118.67979851 113.08384514 -120.32979851 113.08384514 -122.02979851 113.08384514 C-122.02979851 112.42384514 -122.02979851 111.76384514 -122.02979851 111.08384514 C-122.60987663 110.82474358 -123.18995476 110.56564201 -123.78761101 110.29868889 C-126.19379346 108.99499073 -127.90795298 107.51086958 -129.90479851 105.64634514 C-132.43033664 103.35082814 -134.09302966 102.0570935 -137.27979851 100.70884514 C-141.40891094 98.26891507 -142.59215301 94.54054618 -144.02979851 90.08384514 C-144.02979851 89.42384514 -144.02979851 88.76384514 -144.02979851 88.08384514 C-145.01979851 87.75384514 -146.00979851 87.42384514 -147.02979851 87.08384514 C-147.13292351 86.42384514 -147.23604851 85.76384514 -147.34229851 85.08384514 C-147.98504253 81.92117446 -147.98504253 81.92117446 -149.49464226 78.43540764 C-151.12591304 74.14098789 -151.80496123 70.0107335 -152.27979851 65.45884514 C-152.37003288 64.73439201 -152.46026726 64.00993889 -152.55323601 63.26353264 C-153.03531457 58.9714783 -152.9478915 55.34473824 -152.02979851 51.08384514 C-151.86479851 50.14282951 -151.69979851 49.20181389 -151.52979851 48.23228264 C-151.36479851 47.31704826 -151.19979851 46.40181389 -151.02979851 45.45884514 C-150.86479851 44.53845451 -150.69979851 43.61806389 -150.52979851 42.66978264 C-150.36479851 41.81642326 -150.19979851 40.96306389 -150.02979851 40.08384514 C-149.88542351 39.33361076 -149.74104851 38.58337639 -149.59229851 37.81040764 C-149.40667351 37.24064201 -149.22104851 36.67087639 -149.02979851 36.08384514 C-148.03979851 35.58884514 -148.03979851 35.58884514 -147.02979851 35.08384514 C-146.20584656 33.54869255 -145.44396719 31.97986745 -144.71729851 30.39634514 C-138.19408067 17.04650398 -125.52402935 7.69737508 -111.70557976 2.84556389 C-106.20240666 1.27896717 -100.82779308 0.9243559 -95.13306999 0.87852287 C-94.36257317 0.86862328 -93.59207634 0.85872368 -92.79823112 0.84852409 C-90.2491489 0.8169645 -87.70004985 0.79210042 -85.15089226 0.76743889 C-83.342381 0.74679301 -81.53387373 0.72579504 -79.72537041 0.70446587 C-75.91484367 0.66049661 -72.10430069 0.61962916 -68.29371452 0.58115959 C-63.52962037 0.53299521 -58.76561431 0.47915854 -54.00160599 0.42320633 C-36.0017716 0.21270986 -18.00111092 0.04043943 0 0 Z M-34.02979851 118.08384514 C-34.02979851 130.62384514 -34.02979851 143.16384514 -34.02979851 156.08384514 C-31.60399046 152.44513306 -29.61756035 148.63372994 -27.56495476 144.77525139 C-26.02979851 142.08384514 -26.02979851 142.08384514 -24.33839226 139.86118889 C-22.83216613 138.18327202 -22.83216613 138.18327202 -23.02979851 136.08384514 C-22.43940788 135.81958733 -21.84901726 135.55532951 -21.24073601 135.28306389 C-18.95414576 134.04281087 -17.49773768 132.71843658 -15.65479851 130.89634514 C-10.19988602 125.95996045 -3.64707444 123.14154708 2.97020149 120.08384514 C2.97020149 119.75384514 2.97020149 119.42384514 2.97020149 119.08384514 C-1.95225554 118.38676517 -6.14239385 117.86199398 -11.02979851 119.08384514 C-11.35979851 118.75384514 -11.68979851 118.42384514 -12.02979851 118.08384514 C-13.79833143 117.98445651 -15.57098126 117.95415291 -17.34229851 117.95884514 C-18.79056023 117.95497795 -18.79056023 117.95497795 -20.26807976 117.95103264 C-22.92120314 117.96852265 -22.92120314 117.96852265 -24.94776726 118.65415764 C-27.02979851 119.08384514 -27.02979851 119.08384514 -34.02979851 118.08384514 Z " fill="#A25AFE" transform="translate(240.02979850769043,28.916154861450195)"/>
<path d="M0 0 C1.54853441 -0.00391523 3.09706586 -0.00942324 4.64558792 -0.01674271 C28.95015462 -0.12346344 47.78858715 1.9263836 66.13035774 19.10728264 C78.12233416 31.53827168 82.06084377 47.29531978 81.97020149 64.08384514 C80.93308413 78.50471513 74.43165386 92.97290535 63.97020149 103.08384514 C62.01168805 104.47740278 60.01893036 105.82667061 57.97020149 107.08384514 C57.31020149 107.74384514 56.65020149 108.40384514 55.97020149 109.08384514 C55.28957649 109.41384514 54.60895149 109.74384514 53.90770149 110.08384514 C51.80154548 110.92974455 51.80154548 110.92974455 50.97020149 113.08384514 C49.79457649 113.30040764 49.79457649 113.30040764 48.59520149 113.52134514 C45.71894429 114.13768597 44.80635442 114.86113369 42.97020149 117.08384514 C42.31020149 116.75384514 41.65020149 116.42384514 40.97020149 116.08384514 C39.98020149 116.41384514 38.99020149 116.74384514 37.97020149 117.08384514 C36.54012564 117.21947895 35.10526196 117.30787655 33.66990852 117.36509514 C32.80536049 117.40183342 31.94081245 117.4385717 31.05006599 117.47642326 C30.11878883 117.51187248 29.18751167 117.5473217 28.22801399 117.58384514 C27.26749123 117.62445061 26.30696846 117.66505608 25.31733894 117.70689201 C22.24344755 117.83665657 19.1693711 117.96085914 16.09520149 118.08384514 C12.05593652 118.24599848 8.01693828 118.41344173 3.97801399 118.58384514 C3.05078529 118.61929436 2.12355659 118.65474358 1.16823006 118.69126701 C-3.02092143 118.86799298 -6.91794431 119.22146483 -11.02979851 120.08384514 C-11.35979851 119.75384514 -11.68979851 119.42384514 -12.02979851 119.08384514 C-13.79833143 118.98445651 -15.57098126 118.95415291 -17.34229851 118.95884514 C-18.30780632 118.95626701 -19.27331413 118.95368889 -20.26807976 118.95103264 C-22.9666048 118.98812146 -22.9666048 118.98812146 -25.26026726 119.65415764 C-27.02979851 120.08384514 -27.02979851 120.08384514 -29.02979851 119.08384514 C-31.48029851 118.98063681 -33.90257072 118.9370299 -36.35352898 118.93858147 C-37.10817436 118.93522285 -37.86281975 118.93186424 -38.64033318 118.92840385 C-41.1425674 118.91888157 -43.64473478 118.91695004 -46.14698601 118.91587639 C-47.88332459 118.91266445 -49.6196629 118.90930043 -51.3560009 118.90579033 C-54.99938904 118.89979569 -58.64275344 118.89795075 -62.28614616 118.8985424 C-66.95585549 118.89864399 -71.62541264 118.88499697 -76.29508591 118.8677702 C-79.88272107 118.85665338 -83.47031942 118.85462311 -87.05797005 118.85515213 C-88.77956097 118.85397133 -90.50115282 118.84954398 -92.22272682 118.84181976 C-94.6310193 118.83202725 -97.03898123 118.83489504 -99.44727898 118.84092522 C-100.15911339 118.83530571 -100.8709478 118.8296862 -101.60435295 118.82389641 C-105.33764481 118.84766171 -107.78521852 119.28477267 -111.02979851 121.08384514 C-112.34979851 121.08384514 -113.66979851 121.08384514 -115.02979851 121.08384514 C-115.02979851 121.74384514 -115.02979851 122.40384514 -115.02979851 123.08384514 C-116.34979851 122.75384514 -117.66979851 122.42384514 -119.02979851 122.08384514 C-117.57354401 121.41264965 -116.11471984 120.74702707 -114.65479851 120.08384514 C-113.84268913 119.71259514 -113.03057976 119.34134514 -112.19386101 118.95884514 C-110.02979851 118.08384514 -110.02979851 118.08384514 -108.02979851 118.08384514 C-108.02979851 117.42384514 -108.02979851 116.76384514 -108.02979851 116.08384514 C-109.70042351 116.11478264 -109.70042351 116.11478264 -111.40479851 116.14634514 C-115.02979851 116.08384514 -115.02979851 116.08384514 -117.02979851 115.08384514 C-117.02979851 114.42384514 -117.02979851 113.76384514 -117.02979851 113.08384514 C-118.67979851 113.08384514 -120.32979851 113.08384514 -122.02979851 113.08384514 C-122.02979851 112.42384514 -122.02979851 111.76384514 -122.02979851 111.08384514 C-122.60987663 110.82474358 -123.18995476 110.56564201 -123.78761101 110.29868889 C-126.19379346 108.99499073 -127.90795298 107.51086958 -129.90479851 105.64634514 C-132.43033664 103.35082814 -134.09302966 102.0570935 -137.27979851 100.70884514 C-141.40891094 98.26891507 -142.59215301 94.54054618 -144.02979851 90.08384514 C-144.02979851 89.42384514 -144.02979851 88.76384514 -144.02979851 88.08384514 C-145.01979851 87.75384514 -146.00979851 87.42384514 -147.02979851 87.08384514 C-147.13292351 86.42384514 -147.23604851 85.76384514 -147.34229851 85.08384514 C-147.98504253 81.92117446 -147.98504253 81.92117446 -149.49464226 78.43540764 C-151.12591304 74.14098789 -151.80496123 70.0107335 -152.27979851 65.45884514 C-152.37003288 64.73439201 -152.46026726 64.00993889 -152.55323601 63.26353264 C-153.03531457 58.9714783 -152.9478915 55.34473824 -152.02979851 51.08384514 C-151.86479851 50.14282951 -151.69979851 49.20181389 -151.52979851 48.23228264 C-151.36479851 47.31704826 -151.19979851 46.40181389 -151.02979851 45.45884514 C-150.86479851 44.53845451 -150.69979851 43.61806389 -150.52979851 42.66978264 C-150.36479851 41.81642326 -150.19979851 40.96306389 -150.02979851 40.08384514 C-149.88542351 39.33361076 -149.74104851 38.58337639 -149.59229851 37.81040764 C-149.40667351 37.24064201 -149.22104851 36.67087639 -149.02979851 36.08384514 C-148.03979851 35.58884514 -148.03979851 35.58884514 -147.02979851 35.08384514 C-146.20584656 33.54869255 -145.44396719 31.97986745 -144.71729851 30.39634514 C-138.19408067 17.04650398 -125.52402935 7.69737508 -111.70557976 2.84556389 C-106.20240666 1.27896717 -100.82779308 0.9243559 -95.13306999 0.87852287 C-94.36257317 0.86862328 -93.59207634 0.85872368 -92.79823112 0.84852409 C-90.2491489 0.8169645 -87.70004985 0.79210042 -85.15089226 0.76743889 C-83.342381 0.74679301 -81.53387373 0.72579504 -79.72537041 0.70446587 C-75.91484367 0.66049661 -72.10430069 0.61962916 -68.29371452 0.58115959 C-63.52962037 0.53299521 -58.76561431 0.47915854 -54.00160599 0.42320633 C-36.0017716 0.21270986 -18.00111092 0.04043943 0 0 Z " fill="#FE7261" transform="translate(240.02979850769043,28.916154861450195)"/>
<path d="M0 0 C1.25908676 0.00222061 2.51817352 0.00444122 3.81541443 0.00672913 C4.50806396 0.0065831 5.2007135 0.00643707 5.91435242 0.00628662 C8.21400537 0.00698577 10.51357828 0.01477823 12.81321716 0.02259827 C14.40362504 0.02446244 15.99403349 0.02588635 17.58444214 0.02688599 C21.77827021 0.03071123 25.97206386 0.04054156 30.1658783 0.05158997 C34.44220006 0.06180395 38.71852736 0.06638358 42.99485779 0.07142639 C51.39135799 0.08216383 59.78783017 0.09924032 68.18431091 0.12025452 C68.35003165 2.01503428 68.51348762 3.9100122 68.67601013 5.80506897 C68.7672818 6.86031265 68.85855347 7.91555634 68.95259094 9.0027771 C69.28263933 13.44312984 69.33368788 17.85709938 69.30931091 22.30775452 C69.30520203 23.25682678 69.30109314 24.20589905 69.29685974 25.18373108 C69.27251115 28.49618672 69.23086004 31.8080359 69.18431091 35.12025452 C69.17571045 35.78067749 69.16710999 36.44110046 69.1582489 37.12153625 C69.09980473 41.47695842 69.0205472 45.83142774 68.91984558 50.18608093 C68.88822717 51.6237946 68.86097052 53.0616119 68.83842468 54.49949646 C68.51460984 74.09029447 62.80490135 89.00393247 48.62181091 102.74525452 C35.53414076 114.17195124 17.83154242 118.70603777 0.69212341 118.45619202 C-2.68288888 118.00408757 -5.19044245 116.78131506 -8.06178284 114.99525452 C-10.08556368 113.82264369 -10.08556368 113.82264369 -13.81568909 114.12025452 C-13.81568909 113.46025452 -13.81568909 112.80025452 -13.81568909 112.12025452 C-15.46568909 112.12025452 -17.11568909 112.12025452 -18.81568909 112.12025452 C-18.81568909 111.46025452 -18.81568909 110.80025452 -18.81568909 110.12025452 C-20.39350159 109.53244202 -20.39350159 109.53244202 -22.00318909 108.93275452 C-25.7740419 107.3155952 -28.00836798 105.1381247 -30.81568909 102.12025452 C-32.64387222 100.56942395 -34.49454404 99.05247988 -36.36256409 97.54994202 C-37.81568909 96.12025452 -37.81568909 96.12025452 -38.81568909 93.12025452 C-39.29006409 92.66650452 -39.76443909 92.21275452 -40.25318909 91.74525452 C-42.20488652 89.71548919 -42.81676667 87.74242587 -43.81568909 85.12025452 C-44.31068909 84.33650452 -44.80568909 83.55275452 -45.31568909 82.74525452 C-47.09266027 79.63555494 -47.90382106 76.57232632 -48.81568909 73.12025452 C-49.14568909 72.46025452 -49.47568909 71.80025452 -49.81568909 71.12025452 C-49.86151765 69.57926916 -49.85386108 68.03644854 -49.81568909 66.49525452 C-49.76923325 63.24334612 -49.91864407 60.48193361 -50.44068909 57.24525452 C-51.422227 50.5653437 -49.50563353 43.57276968 -47.81568909 37.12025452 C-47.15568909 37.12025452 -46.49568909 37.12025452 -45.81568909 37.12025452 C-45.64746643 36.04904358 -45.64746643 36.04904358 -45.47584534 34.95619202 C-43.39488062 26.0166631 -38.00936258 19.47830098 -30.81568909 14.12025452 C-29.94428284 13.43962952 -29.07287659 12.75900452 -28.17506409 12.05775452 C-20.45102045 6.1892074 -13.51745652 2.13085529 -3.81568909 1.12025452 C-2.81568909 0.12025452 -2.81568909 0.12025452 0 0 Z " fill="#0BCD82" transform="translate(137.81568908691406,261.87974548339844)"/>
<path d="M0 0 C0 37.29 0 74.58 0 113 C-11.158125 113.061875 -22.31625 113.12375 -33.8125 113.1875 C-37.31464111 113.21481201 -40.81678223 113.24212402 -44.42504883 113.27026367 C-48.75524902 113.28381348 -48.75524902 113.28381348 -50.79277039 113.28633118 C-52.19314956 113.29088926 -53.59351816 113.30133745 -54.99382019 113.31672668 C-63.74633746 113.40797205 -71.66777936 112.92853914 -80 110 C-80 109.34 -80 108.68 -80 108 C-80.7425 107.896875 -81.485 107.79375 -82.25 107.6875 C-85.1973519 106.95066203 -86.78383074 106.05200858 -89 104 C-89 103.34 -89 102.68 -89 102 C-90.093125 101.896875 -91.18625 101.79375 -92.3125 101.6875 C-96.12286654 100.97709268 -96.61737092 100.70753305 -99 98 C-99.79921875 97.76023437 -100.5984375 97.52046875 -101.421875 97.2734375 C-104.97375271 95.51902518 -105.33523565 93.75192794 -106.625 90.0625 C-107.03492187 88.89332031 -107.44484375 87.72414063 -107.8671875 86.51953125 C-113.21019487 69.91936008 -116.10477028 51.82445618 -110 35 C-109.34 35 -108.68 35 -108 35 C-107.896875 34.443125 -107.79375 33.88625 -107.6875 33.3125 C-106.86913147 30.55980585 -105.47401082 28.4566847 -104 26 C-103.9175 25.29875 -103.835 24.5975 -103.75 23.875 C-102.4754918 20.68872951 -99.01919864 20.29394227 -96 19 C-95.66602258 17.66682785 -95.33274902 16.33347928 -95 15 C-93.2578125 13.40234375 -93.2578125 13.40234375 -91.125 11.9375 C-89.03669525 10.48493378 -87.16512771 9.17364781 -85.41015625 7.328125 C-84 6 -84 6 -81.3125 5.8125 C-80.549375 5.874375 -79.78625 5.93625 -79 6 C-79 5.01 -79 4.02 -79 3 C-71.23555054 1.34097769 -63.78862078 0.6727154 -55.859375 0.5859375 C-54.73412415 0.56657135 -53.60887329 0.5472052 -52.44952393 0.5272522 C-48.88309067 0.46804124 -45.3166199 0.4214391 -41.75 0.375 C-39.37368486 0.33674032 -36.99738239 0.29768421 -34.62109375 0.2578125 C-23.07853477 0.07298857 -11.54568331 0 0 0 Z " fill="#F24E1E" transform="translate(204,32)"/>
<path d="M0 0 C0.93585938 0.49628906 1.87171875 0.99257812 2.8359375 1.50390625 C16.8806173 9.6671305 26.48700883 21.64949545 31.25390625 37.1171875 C32.28270859 41.09235046 32.82741285 44.90293106 33 49 C33.05994141 50.05574219 33.05994141 50.05574219 33.12109375 51.1328125 C33.65195953 68.55770113 27.06085195 82.37193154 15.8046875 95.2421875 C14 97 14 97 12 97 C11.505 98.485 11.505 98.485 11 100 C9 101.375 9 101.375 6 103 C4.88044922 103.64388672 4.88044922 103.64388672 3.73828125 104.30078125 C-2.73274648 108 -2.73274648 108 -5 108 C-5.33 108.66 -5.66 109.32 -6 110 C-8.328125 110.59765625 -8.328125 110.59765625 -11.25 111.0625 C-12.20390625 111.21847656 -13.1578125 111.37445313 -14.140625 111.53515625 C-15.55601562 111.76525391 -15.55601562 111.76525391 -17 112 C-17.90234375 112.20496094 -18.8046875 112.40992188 -19.734375 112.62109375 C-22 113 -22 113 -24 112 C-24 112.66 -24 113.32 -24 114 C-32.67729316 112.38511914 -41.35207625 110.76700365 -50 109 C-50 108.34 -50 107.68 -50 107 C-50.9075 106.9175 -51.815 106.835 -52.75 106.75 C-56.50600312 105.88323005 -57.45666968 104.78945906 -60 102 C-60.9075 101.46375 -61.815 100.9275 -62.75 100.375 C-63.4925 99.92125 -64.235 99.4675 -65 99 C-65 98.34 -65 97.68 -65 97 C-66.65 96.34 -68.3 95.68 -70 95 C-70 94.01 -70 93.02 -70 92 C-70.99 91.67 -71.98 91.34 -73 91 C-82.40003654 81.84733285 -84.95104899 68.25718433 -85.2331543 55.62915039 C-85.32567638 43.24862277 -82.96847435 35.31364035 -76.97265625 24.6484375 C-75.61983583 22.23264054 -74.4894588 19.82920873 -73.46484375 17.2578125 C-69.59020132 8.64060772 -58.60481621 2.37334976 -50.16796875 -1.19921875 C-49.45253906 -1.46347656 -48.73710937 -1.72773438 -48 -2 C-48.99 -2.66 -49.98 -3.32 -51 -4 C-13.25856326 -7.33889488 -13.25856326 -7.33889488 0 0 Z " fill="#1BBBFC" transform="translate(289,151)"/>
<path d="M0 0 C1.54853441 -0.00391523 3.09706586 -0.00942324 4.64558792 -0.01674271 C27.25968207 -0.11604062 46.59192569 1.10919931 63.97020149 17.08384514 C64.96020149 18.56884514 64.96020149 18.56884514 65.97020149 20.08384514 C64.63102889 19.77480531 63.29931831 19.43361272 61.97020149 19.08384514 C60.93895149 18.83634514 59.90770149 18.58884514 58.84520149 18.33384514 C57.89645149 17.92134514 56.94770149 17.50884514 55.97020149 17.08384514 C55.68145149 16.30009514 55.39270149 15.51634514 55.09520149 14.70884514 C53.58180634 11.17758979 51.74637276 10.47493833 48.33348274 8.92759514 C45.00097334 7.73780666 41.65384544 7.0636723 38.16942024 6.47837639 C35.97020149 6.08384514 35.97020149 6.08384514 32.97020149 5.08384514 C30.77804696 4.96596512 28.58257574 4.90692577 26.38743782 4.87852287 C25.71304759 4.86849015 25.03865736 4.85845743 24.34383106 4.84812069 C22.1633331 4.81676734 19.98281693 4.79197769 17.80223274 4.76743889 C16.4550181 4.74903252 15.10780926 4.73019568 13.76060677 4.71092033 C8.76804046 4.64250961 3.77536277 4.58243316 -1.21729851 4.52134514 C-12.37542351 4.37697014 -23.53354851 4.23259514 -35.02979851 4.08384514 C-35.02979851 41.37384514 -35.02979851 78.66384514 -35.02979851 117.08384514 C-21.16979851 116.75384514 -7.30979851 116.42384514 6.97020149 116.08384514 C11.65207649 115.98072014 16.33395149 115.87759514 21.15770149 115.77134514 C32.50144268 115.27111232 46.23768923 114.35928376 54.97020149 106.08384514 C56.16844077 104.01198414 56.16844077 104.01198414 56.97020149 102.08384514 C58.29020149 102.08384514 59.61020149 102.08384514 60.97020149 102.08384514 C60.97020149 101.42384514 60.97020149 100.76384514 60.97020149 100.08384514 C61.63020149 99.42384514 62.29020149 98.76384514 62.97020149 98.08384514 C65.09520149 98.45884514 65.09520149 98.45884514 66.97020149 99.08384514 C62.40382343 103.78452844 57.93657589 108.21114635 51.97020149 111.08384514 C51.64020149 111.74384514 51.31020149 112.40384514 50.97020149 113.08384514 C49.79457649 113.30040764 49.79457649 113.30040764 48.59520149 113.52134514 C45.71894429 114.13768597 44.80635442 114.86113369 42.97020149 117.08384514 C42.31020149 116.75384514 41.65020149 116.42384514 40.97020149 116.08384514 C39.98020149 116.41384514 38.99020149 116.74384514 37.97020149 117.08384514 C36.54012564 117.21947895 35.10526196 117.30787655 33.66990852 117.36509514 C32.80536049 117.40183342 31.94081245 117.4385717 31.05006599 117.47642326 C30.11878883 117.51187248 29.18751167 117.5473217 28.22801399 117.58384514 C27.26749123 117.62445061 26.30696846 117.66505608 25.31733894 117.70689201 C22.24344755 117.83665657 19.1693711 117.96085914 16.09520149 118.08384514 C12.05593652 118.24599848 8.01693828 118.41344173 3.97801399 118.58384514 C3.05078529 118.61929436 2.12355659 118.65474358 1.16823006 118.69126701 C-3.02092143 118.86799298 -6.91794431 119.22146483 -11.02979851 120.08384514 C-11.35979851 119.75384514 -11.68979851 119.42384514 -12.02979851 119.08384514 C-13.79833143 118.98445651 -15.57098126 118.95415291 -17.34229851 118.95884514 C-18.30780632 118.95626701 -19.27331413 118.95368889 -20.26807976 118.95103264 C-22.9666048 118.98812146 -22.9666048 118.98812146 -25.26026726 119.65415764 C-27.02979851 120.08384514 -27.02979851 120.08384514 -29.02979851 119.08384514 C-31.48029851 118.98063681 -33.90257072 118.9370299 -36.35352898 118.93858147 C-37.10817436 118.93522285 -37.86281975 118.93186424 -38.64033318 118.92840385 C-41.1425674 118.91888157 -43.64473478 118.91695004 -46.14698601 118.91587639 C-47.88332459 118.91266445 -49.6196629 118.90930043 -51.3560009 118.90579033 C-54.99938904 118.89979569 -58.64275344 118.89795075 -62.28614616 118.8985424 C-66.95585549 118.89864399 -71.62541264 118.88499697 -76.29508591 118.8677702 C-79.88272107 118.85665338 -83.47031942 118.85462311 -87.05797005 118.85515213 C-88.77956097 118.85397133 -90.50115282 118.84954398 -92.22272682 118.84181976 C-94.6310193 118.83202725 -97.03898123 118.83489504 -99.44727898 118.84092522 C-100.15911339 118.83530571 -100.8709478 118.8296862 -101.60435295 118.82389641 C-105.33764481 118.84766171 -107.78521852 119.28477267 -111.02979851 121.08384514 C-112.34979851 121.08384514 -113.66979851 121.08384514 -115.02979851 121.08384514 C-115.02979851 121.74384514 -115.02979851 122.40384514 -115.02979851 123.08384514 C-116.34979851 122.75384514 -117.66979851 122.42384514 -119.02979851 122.08384514 C-117.57354401 121.41264965 -116.11471984 120.74702707 -114.65479851 120.08384514 C-113.84268913 119.71259514 -113.03057976 119.34134514 -112.19386101 118.95884514 C-110.02979851 118.08384514 -110.02979851 118.08384514 -108.02979851 118.08384514 C-108.02979851 117.42384514 -108.02979851 116.76384514 -108.02979851 116.08384514 C-109.70042351 116.11478264 -109.70042351 116.11478264 -111.40479851 116.14634514 C-115.02979851 116.08384514 -115.02979851 116.08384514 -117.02979851 115.08384514 C-117.02979851 114.42384514 -117.02979851 113.76384514 -117.02979851 113.08384514 C-118.67979851 113.08384514 -120.32979851 113.08384514 -122.02979851 113.08384514 C-122.02979851 112.42384514 -122.02979851 111.76384514 -122.02979851 111.08384514 C-122.58667351 110.85697014 -123.14354851 110.63009514 -123.71729851 110.39634514 C-126.66226534 108.72487747 -128.71136394 106.53108162 -131.02979851 104.08384514 C-125.58482925 104.46372671 -123.71106195 106.20883099 -120.02979851 110.08384514 C-117.85633283 110.94503648 -117.85633283 110.94503648 -116.02979851 111.08384514 C-116.02979851 111.74384514 -116.02979851 112.40384514 -116.02979851 113.08384514 C-114.77167351 113.22822014 -113.51354851 113.37259514 -112.21729851 113.52134514 C-109.60312728 113.821332 -107.55539958 114.24197811 -105.02979851 115.08384514 C-102.80702269 115.2018492 -100.580963 115.2607884 -98.35523796 115.2891674 C-97.67093554 115.29920012 -96.98663313 115.30923285 -96.28159428 115.31956959 C-94.06879042 115.35092587 -91.85596863 115.37571381 -89.64307976 115.40025139 C-88.27600842 115.41865749 -86.90894282 115.43749432 -85.54188347 115.45676994 C-80.47542297 115.52518394 -75.40885264 115.5852583 -70.34229851 115.64634514 C-59.01917351 115.79072014 -47.69604851 115.93509514 -36.02979851 116.08384514 C-36.02979851 78.79384514 -36.02979851 41.50384514 -36.02979851 3.08384514 C-40.97979851 3.41384514 -45.92979851 3.74384514 -51.02979851 4.08384514 C-55.35062832 4.2093867 -59.66172465 4.31039745 -63.98292351 4.36509514 C-66.33578859 4.4028242 -68.68865316 4.4405855 -71.04151726 4.47837639 C-74.68879736 4.5323112 -78.33609584 4.58463931 -81.98341179 4.63609123 C-85.54582149 4.6876792 -89.10810839 4.74489509 -92.67042351 4.80259514 C-93.76719414 4.81617058 -94.86396477 4.82974602 -95.99397087 4.84373283 C-97.5126577 4.86880913 -97.5126577 4.86880913 -99.06202507 4.89439201 C-99.95165947 4.90692009 -100.84129387 4.91944817 -101.75788689 4.93235588 C-104.19565857 4.99890415 -104.19565857 4.99890415 -107.02979851 6.08384514 C-108.42419515 6.1504989 -109.82149726 6.16922713 -111.21729851 6.14634514 C-113.10448601 6.11540764 -113.10448601 6.11540764 -115.02979851 6.08384514 C-115.02979851 7.07384514 -115.02979851 8.06384514 -115.02979851 9.08384514 C-115.91667351 9.31072014 -116.80354851 9.53759514 -117.71729851 9.77134514 C-121.50897782 11.27370864 -123.24293516 13.15406572 -126.02979851 16.08384514 C-126.93729851 16.59947014 -127.84479851 17.11509514 -128.77979851 17.64634514 C-131.4958846 19.38162237 -131.35426461 20.09219504 -132.02979851 23.08384514 C-134.61132153 24.80486049 -135.87897876 25.08384514 -139.02979851 25.08384514 C-139.15354851 26.35228264 -139.15354851 26.35228264 -139.27979851 27.64634514 C-140.18713703 31.80498005 -141.79521124 34.47967213 -144.02979851 38.08384514 C-144.68979851 38.08384514 -145.34979851 38.08384514 -146.02979851 38.08384514 C-149.23652921 51.3402408 -148.83459235 64.798977 -146.02979851 78.08384514 C-145.83901726 79.05966545 -145.64823601 80.03548576 -145.45167351 81.04087639 C-144.99138491 83.39163603 -144.51751523 85.73865408 -144.02979851 88.08384514 C-145.01979851 87.75384514 -146.00979851 87.42384514 -147.02979851 87.08384514 C-147.13292351 86.42384514 -147.23604851 85.76384514 -147.34229851 85.08384514 C-147.98504253 81.92117446 -147.98504253 81.92117446 -149.49464226 78.43540764 C-151.12591304 74.14098789 -151.80496123 70.0107335 -152.27979851 65.45884514 C-152.37003288 64.73439201 -152.46026726 64.00993889 -152.55323601 63.26353264 C-153.03531457 58.9714783 -152.9478915 55.34473824 -152.02979851 51.08384514 C-151.86479851 50.14282951 -151.69979851 49.20181389 -151.52979851 48.23228264 C-151.36479851 47.31704826 -151.19979851 46.40181389 -151.02979851 45.45884514 C-150.86479851 44.53845451 -150.69979851 43.61806389 -150.52979851 42.66978264 C-150.36479851 41.81642326 -150.19979851 40.96306389 -150.02979851 40.08384514 C-149.88542351 39.33361076 -149.74104851 38.58337639 -149.59229851 37.81040764 C-149.40667351 37.24064201 -149.22104851 36.67087639 -149.02979851 36.08384514 C-148.03979851 35.58884514 -148.03979851 35.58884514 -147.02979851 35.08384514 C-146.20584656 33.54869255 -145.44396719 31.97986745 -144.71729851 30.39634514 C-138.19408067 17.04650398 -125.52402935 7.69737508 -111.70557976 2.84556389 C-106.20240666 1.27896717 -100.82779308 0.9243559 -95.13306999 0.87852287 C-94.36257317 0.86862328 -93.59207634 0.85872368 -92.79823112 0.84852409 C-90.2491489 0.8169645 -87.70004985 0.79210042 -85.15089226 0.76743889 C-83.342381 0.74679301 -81.53387373 0.72579504 -79.72537041 0.70446587 C-75.91484367 0.66049661 -72.10430069 0.61962916 -68.29371452 0.58115959 C-63.52962037 0.53299521 -58.76561431 0.47915854 -54.00160599 0.42320633 C-36.0017716 0.21270986 -18.00111092 0.04043943 0 0 Z " fill="#E75736" transform="translate(240.02979850769043,28.916154861450195)"/>
<path d="M0 0 C5.11493465 -0.02947741 10.22981938 -0.05169102 15.34482574 -0.06371689 C16.89408139 -0.06787238 18.44333382 -0.07362072 19.9925766 -0.08118057 C42.61106514 -0.1845027 61.94582847 1.03776455 79.32785034 17.01585388 C80.31785034 18.50085388 80.31785034 18.50085388 81.32785034 20.01585388 C79.98867773 19.70681405 78.65696716 19.36562147 77.32785034 19.01585388 C76.29660034 18.76835388 75.26535034 18.52085388 74.20285034 18.26585388 C73.25410034 17.85335388 72.30535034 17.44085388 71.32785034 17.01585388 C71.03910034 16.23210388 70.75035034 15.44835388 70.45285034 14.64085388 C68.93945519 11.10959853 67.10402161 10.40694707 63.69113159 8.85960388 C60.35862219 7.6698154 57.01149429 6.99568104 53.52706909 6.41038513 C51.32785034 6.01585388 51.32785034 6.01585388 48.32785034 5.01585388 C46.13569581 4.89797386 43.94022459 4.83893451 41.74508667 4.81053162 C41.08140579 4.80063202 40.41772491 4.79073242 39.7339325 4.78053284 C37.54261835 4.74897298 35.35128253 4.72418233 33.15988159 4.69944763 C31.63958679 4.67887333 30.11929765 4.65787673 28.59901428 4.63647461 C24.59926947 4.58130305 20.59947345 4.53187213 16.59963989 4.48362732 C12.51746061 4.43337638 8.4353556 4.37770908 4.35324097 4.32249451 C-3.65515975 4.21497306 -11.66362265 4.11351477 -19.67214966 4.01585388 C-19.67214966 3.35585388 -19.67214966 2.69585388 -19.67214966 2.01585388 C-27.99181973 2.10055312 -36.31128366 2.19554865 -44.63068295 2.30338097 C-48.49448555 2.35314488 -52.35826342 2.39947515 -56.22219849 2.43772888 C-59.95707554 2.47483509 -63.69173501 2.52126045 -67.42642403 2.57391739 C-68.84519158 2.59232774 -70.26400552 2.60748397 -71.68284416 2.61919785 C-79.32675075 2.68451495 -86.2718309 3.07695205 -93.67214966 5.01585388 C-96.73464966 5.14085388 -96.73464966 5.14085388 -98.67214966 5.01585388 C-92.17827026 -1.47802552 -78.13355446 0.65937754 -69.50027466 0.60179138 C-67.69604687 0.5830034 -65.89182716 0.56342489 -64.08761597 0.54310608 C-59.32782125 0.49185999 -54.56799615 0.45230844 -49.80807495 0.41496277 C-46.03482412 0.38344121 -42.26168398 0.34365744 -38.48851776 0.30340195 C-25.65918604 0.16662027 -12.82981402 0.07611937 0 0 Z " fill="#DE8C7C" transform="translate(224.67214965820313,28.984146118164063)"/>
<path d="M0 0 C2.125 0.375 2.125 0.375 4 1 C-0.56637806 5.7006833 -5.0336256 10.12730122 -11 13 C-11.33 13.66 -11.66 14.32 -12 15 C-12.78375 15.144375 -13.5675 15.28875 -14.375 15.4375 C-17.25125721 16.05384083 -18.16384707 16.77728856 -20 19 C-20.66 18.67 -21.32 18.34 -22 18 C-22.99 18.33 -23.98 18.66 -25 19 C-26.43007585 19.13563381 -27.86493953 19.22403141 -29.30029297 19.28125 C-30.164841 19.31798828 -31.02938904 19.35472656 -31.9201355 19.39257812 C-32.85141266 19.42802734 -33.78268982 19.46347656 -34.7421875 19.5 C-35.70271027 19.54060547 -36.66323303 19.58121094 -37.65286255 19.62304688 C-40.72675395 19.75281143 -43.8008304 19.877014 -46.875 20 C-50.91426497 20.16215334 -54.95326321 20.32959659 -58.9921875 20.5 C-59.9194162 20.53544922 -60.8466449 20.57089844 -61.80197144 20.60742188 C-65.99112292 20.78414784 -69.8881458 21.13761969 -74 22 C-74.33 21.67 -74.66 21.34 -75 21 C-76.76853292 20.90061137 -78.54118275 20.87030777 -80.3125 20.875 C-81.27800781 20.87242187 -82.24351562 20.86984375 -83.23828125 20.8671875 C-85.93680629 20.90427632 -85.93680629 20.90427632 -88.23046875 21.5703125 C-90 22 -90 22 -92 21 C-94.4505 20.89679167 -96.87277222 20.85318476 -99.32373047 20.85473633 C-100.07837585 20.85137772 -100.83302124 20.8480191 -101.61053467 20.84455872 C-104.11276889 20.83503643 -106.61493627 20.8331049 -109.1171875 20.83203125 C-110.85352608 20.82881931 -112.58986439 20.82545529 -114.32620239 20.82194519 C-117.96959053 20.81595055 -121.61295493 20.81410561 -125.25634766 20.81469727 C-129.92605698 20.81479885 -134.59561413 20.80115183 -139.2652874 20.78392506 C-142.85292256 20.77280824 -146.44052092 20.77077797 -150.02817154 20.77130699 C-151.74976246 20.7701262 -153.47135431 20.76569884 -155.19292831 20.75797462 C-157.60122079 20.74818211 -160.00918272 20.7510499 -162.41748047 20.75708008 C-163.12931488 20.75146057 -163.84114929 20.74584106 -164.57455444 20.74005127 C-168.30784631 20.76381657 -170.75542001 21.20092753 -174 23 C-175.32 23 -176.64 23 -178 23 C-178 23.66 -178 24.32 -178 25 C-179.32 24.67 -180.64 24.34 -182 24 C-180.5437455 23.32880451 -179.08492133 22.66318193 -177.625 22 C-176.81289062 21.62875 -176.00078125 21.2575 -175.1640625 20.875 C-173 20 -173 20 -171 20 C-171 19.34 -171 18.68 -171 18 C-172.11375 18.020625 -173.2275 18.04125 -174.375 18.0625 C-178 18 -178 18 -180 17 C-180 16.34 -180 15.68 -180 15 C-181.65 15 -183.3 15 -185 15 C-185 14.34 -185 13.68 -185 13 C-185.556875 12.773125 -186.11375 12.54625 -186.6875 12.3125 C-189.63246684 10.64103234 -191.68156544 8.44723648 -194 6 C-188.55503074 6.37988158 -186.68126344 8.12498585 -183 12 C-180.82653432 12.86119134 -180.82653432 12.86119134 -179 13 C-179 13.66 -179 14.32 -179 15 C-177.865625 15.12375 -176.73125 15.2475 -175.5625 15.375 C-172.58702246 15.73664298 -169.76408829 16.2817452 -166.86206055 17.02388 C-161.75729147 18.17432347 -156.86004003 18.27479286 -151.64453125 18.24291992 C-150.64949585 18.24481827 -149.65446045 18.24671661 -148.62927246 18.24867249 C-145.35693329 18.2523594 -142.08481932 18.24169276 -138.8125 18.23046875 C-136.50870795 18.22927404 -134.2049154 18.2288244 -131.90112305 18.2290802 C-127.06946767 18.22751809 -122.23788665 18.21925855 -117.40625 18.20581055 C-111.28715474 18.18897436 -105.16814219 18.18499225 -99.04902649 18.18575573 C-94.28360234 18.18548015 -89.51819542 18.17993533 -84.7527771 18.17275429 C-82.50149668 18.16962268 -80.25021435 18.16761349 -77.99893188 18.16686058 C-66.14379895 18.15856628 -54.30148066 18.01861864 -42.453125 17.59887695 C-40.918554 17.55042145 -40.918554 17.55042145 -39.35298157 17.50098705 C-28.72145462 17.07671726 -16.09763374 15.67379065 -8 8 C-6.80176072 5.92813901 -6.80176072 5.92813901 -6 4 C-4.68 4 -3.36 4 -2 4 C-2 3.34 -2 2.68 -2 2 C-1.34 1.34 -0.68 0.68 0 0 Z " fill="#DB6B7F" transform="translate(303,127)"/>
<path d="M0 0 C0 1.32 0 2.64 0 4 C-0.886875 4.226875 -1.77375 4.45375 -2.6875 4.6875 C-6.47917931 6.1898635 -8.21313665 8.07022058 -11 11 C-11.9075 11.515625 -12.815 12.03125 -13.75 12.5625 C-16.46608609 14.29777723 -16.32446611 15.0083499 -17 18 C-19.58152302 19.72101535 -20.84918025 20 -24 20 C-24.12375 21.2684375 -24.12375 21.2684375 -24.25 22.5625 C-25.15733853 26.72113491 -26.76541273 29.39582699 -29 33 C-29.66 33 -30.32 33 -31 33 C-34.2067307 46.25639566 -33.80479384 59.71513186 -31 73 C-30.80921875 73.97582031 -30.6184375 74.95164062 -30.421875 75.95703125 C-29.9615864 78.3077909 -29.48771673 80.65480894 -29 83 C-29.99 82.67 -30.98 82.34 -32 82 C-32.103125 81.34 -32.20625 80.68 -32.3125 80 C-32.95524402 76.83732932 -32.95524402 76.83732932 -34.46484375 73.3515625 C-36.09611453 69.05714275 -36.77516272 64.92688837 -37.25 60.375 C-37.34023437 59.65054688 -37.43046875 58.92609375 -37.5234375 58.1796875 C-38.00551607 53.88763316 -37.91809299 50.2608931 -37 46 C-36.835 45.05898437 -36.67 44.11796875 -36.5 43.1484375 C-36.335 42.23320313 -36.17 41.31796875 -36 40.375 C-35.835 39.45460937 -35.67 38.53421875 -35.5 37.5859375 C-35.335 36.73257813 -35.17 35.87921875 -35 35 C-34.855625 34.24976563 -34.71125 33.49953125 -34.5625 32.7265625 C-34.376875 32.15679687 -34.19125 31.58703125 -34 31 C-33.34 30.67 -32.68 30.34 -32 30 C-31.17604805 28.46484742 -30.41416868 26.89602231 -29.6875 25.3125 C-24.41812734 14.52866757 -15.22852792 7.01203416 -5 1 C-2 0 -2 0 0 0 Z " fill="#E39582" transform="translate(125,34)"/>
<path d="M0 0 C0.33 0 0.66 0 1 0 C1.97058832 5.66568337 2.13123058 11.12994803 2.09765625 16.87109375 C2.0962413 17.793423 2.09482635 18.71575226 2.09336853 19.66603088 C2.08780506 22.58988798 2.07525942 25.51366635 2.0625 28.4375 C2.05748028 30.42903535 2.0529182 32.4205719 2.04882812 34.41210938 C2.03784762 39.27476956 2.02060839 44.13737147 2 49 C1.12160965 49.01030746 0.2432193 49.02061493 -0.66178894 49.03123474 C-8.9454855 49.12926962 -17.2291118 49.23179257 -25.51269054 49.33933926 C-29.77121134 49.39447029 -34.02973911 49.44787435 -38.28833008 49.49731445 C-42.39917644 49.54510315 -46.50994193 49.59745075 -50.6206913 49.65294075 C-52.18792007 49.67329871 -53.75517096 49.69202239 -55.32243919 49.70907402 C-57.51997225 49.7332638 -59.71735439 49.76329758 -61.91479492 49.79467773 C-63.16499924 49.81022202 -64.41520355 49.8257663 -65.70329285 49.84178162 C-68.59000615 49.98032323 -71.19430915 50.33557368 -74 51 C-73.34 50.34 -72.68 49.68 -72 49 C-76.95 47.515 -76.95 47.515 -82 46 C-82 45.34 -82 44.68 -82 44 C-79.625 43.375 -79.625 43.375 -77 43 C-76.34 43.66 -75.68 44.32 -75 45 C-67.01805645 46.34188122 -58.97420062 46.12856696 -50.90234375 46.09765625 C-49.45789133 46.09578753 -48.01343827 46.09436577 -46.56898499 46.09336853 C-42.79613446 46.08957909 -39.02332339 46.07977997 -35.25048828 46.06866455 C-30.70820175 46.0565585 -26.16590192 46.05203116 -21.62360382 46.04621124 C-14.7490419 46.03656577 -7.8745663 46.0173844 -1 46 C-0.67 30.82 -0.34 15.64 0 0 Z " fill="#9082DA" transform="translate(204,213)"/>
<path d="M0 0 C21.12 0 42.24 0 64 0 C64.33 11.55 64.66 23.1 65 35 C66.98 31.37 68.96 27.74 71 24 C71.99 23.505 71.99 23.505 73 23 C71.2150858 27.7537916 68.88526251 32.19177416 66.47851562 36.65234375 C64.29382491 40.87329609 63.43491901 44.34100458 63 49 C62.67 49 62.34 49 62 49 C62 33.16 62 17.32 62 1 C41.54 1 21.08 1 0 1 C0 0.67 0 0.34 0 0 Z " fill="#AB6AE3" transform="translate(142,147)"/>
<path d="M0 0 C0.33 0 0.66 0 1 0 C0.98952637 0.80219971 0.97905273 1.60439941 0.96826172 2.4309082 C0.92674233 6.05807372 0.90068657 9.68518928 0.875 13.3125 C0.85824219 14.57513672 0.84148437 15.83777344 0.82421875 17.13867188 C0.81777344 18.34716797 0.81132812 19.55566406 0.8046875 20.80078125 C0.79421387 21.91622314 0.78374023 23.03166504 0.77294922 24.1809082 C0.78677347 27.20678201 0.78677347 27.20678201 3 30 C3.32190243 31.5737452 3.58775131 33.15947079 3.8125 34.75 C4.624903 39.15744622 5.92613242 41.86998564 8.6953125 45.34375 C11.62304716 49.0603952 14.24358941 53.27243382 15 58 C15.66 58 16.32 58 17 58 C17.33 58.99 17.66 59.98 18 61 C16.35 60.34 14.7 59.68 13 59 C13 58.01 13 57.02 13 56 C12.01 55.67 11.02 55.34 10 55 C0.60314972 45.85043525 -1.96068853 32.25218622 -2.23120117 19.62548828 C-2.28817295 12.80515197 -1.91843966 6.59463633 0 0 Z " fill="#6ABDEE" transform="translate(206,187)"/>
<path d="M0 0 C0.99 1.485 0.99 1.485 2 3 C0.66082739 2.69096017 -0.67088318 2.34976758 -2 2 C-3.03125 1.7525 -4.0625 1.505 -5.125 1.25 C-6.07375 0.8375 -7.0225 0.425 -8 0 C-8.28875 -0.78375 -8.5775 -1.5675 -8.875 -2.375 C-10.38839515 -5.90625535 -12.22382873 -6.60890681 -15.63671875 -8.15625 C-18.96922815 -9.34603848 -22.31635605 -10.02017284 -25.80078125 -10.60546875 C-28 -11 -28 -11 -31 -12 C-33.19215453 -12.11788002 -35.38762575 -12.17691937 -37.58276367 -12.20532227 C-38.24644455 -12.21522186 -38.91012543 -12.22512146 -39.59391785 -12.23532104 C-41.78523199 -12.2668809 -43.97656781 -12.29167155 -46.16796875 -12.31640625 C-47.68826355 -12.33698055 -49.20855269 -12.35797715 -50.72883606 -12.37937927 C-54.72858087 -12.43455084 -58.72837689 -12.48398175 -62.72821045 -12.53222656 C-66.81038974 -12.5824775 -70.89249474 -12.63814481 -74.97460938 -12.69335938 C-82.9830101 -12.80088082 -90.99147299 -12.90233911 -99 -13 C-99 -13.33 -99 -13.66 -99 -14 C-90.43709948 -14.15454651 -81.87412153 -14.30271669 -73.31097603 -14.4429636 C-69.33388392 -14.50829605 -65.35685216 -14.57574489 -61.37988281 -14.64819336 C-57.53498454 -14.71815529 -53.69002761 -14.78234508 -49.84496689 -14.84269524 C-48.38508541 -14.86659221 -46.92523522 -14.89249633 -45.4654274 -14.92053413 C-26.85353846 -15.27476446 -14.14022458 -13.2106879 0 0 Z " fill="#F37769" transform="translate(304,46)"/>
<path d="M0 0 C-0.0625 1.75 -0.0625 1.75 -1 4 C-3.31959838 5.45543428 -5.57990281 6.7429352 -8 8 C-12.77705815 10.75599509 -14.89984481 12.86628732 -17 18 C-17.99 18 -18.98 18 -20 18 C-20.66 20.31 -21.32 22.62 -22 25 C-22.99 25 -23.98 25 -25 25 C-25.483059 26.39449109 -25.96125517 27.79066707 -26.4375 29.1875 C-26.70433594 29.96480469 -26.97117187 30.74210937 -27.24609375 31.54296875 C-28.7533185 36.45511572 -29.11953456 40.90937922 -29.09765625 46.05078125 C-29.0962413 46.70958786 -29.09482635 47.36839447 -29.09336853 48.04716492 C-29.087805 50.13565762 -29.07525947 52.22404011 -29.0625 54.3125 C-29.05748028 55.73502449 -29.0529182 57.15755066 -29.04882812 58.58007812 C-29.03784757 62.05342077 -29.02060835 65.52669961 -29 69 C-31.96777344 66.30224609 -31.96777344 66.30224609 -32.2578125 63.58203125 C-32.21398437 62.66808594 -32.17015625 61.75414062 -32.125 60.8125 C-32.0166703 57.36400454 -32.07993403 54.49641563 -32.625 51.0625 C-33.6161923 44.41325164 -31.68229713 37.42331632 -30 31 C-29.34 31 -28.68 31 -28 31 C-27.88785156 30.28585937 -27.77570313 29.57171875 -27.66015625 28.8359375 C-25.58099616 19.90416103 -20.19747877 13.34599786 -13 8 C-12.04738281 7.27296875 -11.09476563 6.5459375 -10.11328125 5.796875 C-2.36046766 0 -2.36046766 0 0 0 Z " fill="#79D7B6" transform="translate(120,268)"/>
<path d="M0 0 C0.66 0 1.32 0 2 0 C4.09900921 17.42927288 3.0567741 35.18327242 2.5625 52.6875 C2.5429425 53.42003998 2.52338501 54.15257996 2.50323486 54.90731812 C2.4459245 57.00480086 2.38224252 59.1019882 2.31640625 61.19921875 C2.27974854 62.41440186 2.24309082 63.62958496 2.20532227 64.8815918 C2.03799253 67.42297438 1.73881264 69.57697999 1 72 C0.34 72 -0.32 72 -1 72 C-0.67 48.24 -0.34 24.48 0 0 Z " fill="#6CCFAD" transform="translate(204,262)"/>
<path d="M0 0 C1.258125 0.12375 2.51625 0.2475 3.8125 0.375 C4.87404297 0.47941406 4.87404297 0.47941406 5.95703125 0.5859375 C8 1 8 1 11 3 C15.70674013 4.37608603 20.57466649 4.19161601 25.4375 4.1875 C26.76406616 4.18737915 26.76406616 4.18737915 28.11743164 4.18725586 C37.27825102 4.1084192 46.02792793 2.83406998 55 1 C45.85849436 8.44172455 30.90572412 9.50208782 19.5078125 9.3359375 C16.13280021 8.88383305 13.62524664 7.66106055 10.75390625 5.875 C8.7301254 4.70238917 8.7301254 4.70238917 5 5 C5 4.34 5 3.68 5 3 C3.35 3 1.7 3 0 3 C0 2.01 0 1.02 0 0 Z " fill="#6AD5AF" transform="translate(119,371)"/>
<path d="M0 0 C3.14181296 2.8543705 4.92379222 5.4326487 6.625 9.3125 C7.23214844 10.66794922 7.23214844 10.66794922 7.8515625 12.05078125 C10.20538372 18.09545819 11.39936546 23.7562598 11.75 30.1875 C11.79165283 30.92782471 11.83330566 31.66814941 11.8762207 32.4309082 C12.23911746 40.92269225 11.09394783 49.04413415 8 57 C7.67 57 7.34 57 7 57 C6.875 49.375 6.875 49.375 8 46 C8.09387113 44.17766025 8.13070591 42.3520984 8.1328125 40.52734375 C8.13410156 39.46322266 8.13539063 38.39910156 8.13671875 37.30273438 C8.13285156 36.19220703 8.12898438 35.08167969 8.125 33.9375 C8.12886719 32.82310547 8.13273437 31.70871094 8.13671875 30.56054688 C8.13542969 29.49771484 8.13414062 28.43488281 8.1328125 27.33984375 C8.13168457 26.36394287 8.13055664 25.38804199 8.12939453 24.38256836 C8.15763793 21.98356611 8.15763793 21.98356611 7 20 C6.960008 18.00039988 6.95653201 15.99952758 7 14 C6.01 14 5.02 14 4 14 C0.74031891 4.58997722 0.74031891 4.58997722 0 0 Z " fill="#EAADA8" transform="translate(310,54)"/>
<path d="M0 0 C2.76276177 0.52268466 5.3260876 1.10869587 8 2 C8 2.66 8 3.32 8 4 C9.27875 4.144375 10.5575 4.28875 11.875 4.4375 C14.25692894 4.70642746 15.84452691 4.92226346 18 6 C22.12000792 6.24343642 26.24860907 6.18520245 30.375 6.1875 C31.52484375 6.19974609 32.6746875 6.21199219 33.859375 6.22460938 C35.51839844 6.22750977 35.51839844 6.22750977 37.2109375 6.23046875 C38.73146729 6.23663208 38.73146729 6.23663208 40.28271484 6.24291992 C43.06342469 5.99432996 44.57960448 5.30583259 47 4 C50.25 3.875 50.25 3.875 53 4 C53 3.34 53 2.68 53 2 C54.65 2 56.3 2 58 2 C54.25 5 54.25 5 52 5 C51.67 5.66 51.34 6.32 51 7 C48.671875 7.59765625 48.671875 7.59765625 45.75 8.0625 C44.79609375 8.21847656 43.8421875 8.37445313 42.859375 8.53515625 C41.91578125 8.68855469 40.9721875 8.84195312 40 9 C39.09765625 9.20496094 38.1953125 9.40992188 37.265625 9.62109375 C35 10 35 10 33 9 C33 9.66 33 10.32 33 11 C24.32270684 9.38511914 15.64792375 7.76700365 7 6 C7 5.34 7 4.68 7 4 C4.03 3.505 4.03 3.505 1 3 C0.67 2.01 0.34 1.02 0 0 Z " fill="#7ECEEB" transform="translate(232,254)"/>
<path d="M0 0 C7.97933571 1.28991022 16.03171232 1.21892606 24.09765625 1.31640625 C25.54211462 1.3370187 26.98656755 1.35801616 28.43101501 1.37937927 C32.20380192 1.43415745 35.97663918 1.48375883 39.74951172 1.53222656 C43.61104734 1.58276809 47.47251125 1.63828242 51.33398438 1.69335938 C58.88926192 1.80039829 66.44459974 1.90196002 74 2 C74 2.33 74 2.66 74 3 C73.23880356 3.00808685 72.47760712 3.01617371 71.69334412 3.02450562 C64.49918277 3.10263632 57.30521886 3.1899818 50.11129665 3.28752708 C46.41334682 3.33734809 42.7154236 3.38367858 39.01733398 3.421875 C35.44455459 3.45890819 31.87200584 3.50531537 28.29942513 3.55806351 C26.94041069 3.57651214 25.58134699 3.59165481 24.22225761 3.60334396 C17.4519683 3.66362735 11.42063928 3.78997884 5 6 C2.5625 5.625 2.5625 5.625 1 5 C1.66 4.67 2.32 4.34 3 4 C-0.3 3.01 -3.6 2.02 -7 1 C-7 0.34 -7 -0.32 -7 -1 C-3.51418144 -2.2020064 -3.32007656 -2.21338437 0 0 Z " fill="#9B64F2" transform="translate(129,258)"/>
<path d="M0 0 C0 1.32 0 2.64 0 4 C-1.3303125 4.3403125 -1.3303125 4.3403125 -2.6875 4.6875 C-6.47917931 6.1898635 -8.21313665 8.07022058 -11 11 C-12.36125 11.7734375 -12.36125 11.7734375 -13.75 12.5625 C-16.46608609 14.29777723 -16.32446611 15.0083499 -17 18 C-18.875 19.3125 -18.875 19.3125 -21 20 C-21.99 19.67 -22.98 19.34 -24 19 C-22.07218922 11.04778052 -13.37876378 6.39939408 -6.98046875 2.1640625 C-4.65484505 0.79712786 -2.72109458 0 0 0 Z " fill="#E55930" transform="translate(125,34)"/>
<path d="M0 0 C0.98685791 -0.01289063 1.97371582 -0.02578125 2.99047852 -0.0390625 C8.04564417 -0.04597377 12.20497287 0.16839483 16.9375 2.1875 C16.9375 2.5175 16.9375 2.8475 16.9375 3.1875 C16.09977051 3.18226318 15.26204102 3.17702637 14.39892578 3.17163086 C11.29411064 3.15459986 8.18931929 3.14205518 5.08447266 3.13256836 C3.07843449 3.12505964 1.07241798 3.1123553 -0.93359375 3.09960938 C-2.19042969 3.09638672 -3.44726562 3.09316406 -4.7421875 3.08984375 C-5.90476074 3.08460693 -7.06733398 3.07937012 -8.26513672 3.07397461 C-11.01752192 2.99393717 -11.01752192 2.99393717 -13.0625 4.1875 C-14.87093663 4.33466542 -16.68581566 4.4085887 -18.5 4.4375 C-19.46808594 4.46328125 -20.43617188 4.4890625 -21.43359375 4.515625 C-24.0625 4.1875 -24.0625 4.1875 -25.91015625 2.671875 C-26.29042969 2.18203125 -26.67070312 1.6921875 -27.0625 1.1875 C-18.04189412 0.38946852 -9.05488196 0.05752327 0 0 Z " fill="#6EBBDE" transform="translate(265.0625,145.8125)"/>
<path d="M0 0 C0.66 0 1.32 0 2 0 C-0.29987489 13.79924935 -10.45585239 24.55790111 -21 33 C-25.57333333 36 -25.57333333 36 -28 36 C-28 35.01 -28 34.02 -28 33 C-27.195625 32.71125 -26.39125 32.4225 -25.5625 32.125 C-22.8673532 31.26737432 -22.8673532 31.26737432 -22 29 C-21.01 29 -20.02 29 -19 29 C-19 28.34 -19 27.68 -19 27 C-17.05872155 25.41988963 -15.01023561 24.0464337 -12.9453125 22.6328125 C-10.87584706 20.89579131 -10.01808468 19.47555328 -9 17 C-8.34 17 -7.68 17 -7 17 C-6.72414062 16.30519531 -6.44828125 15.61039062 -6.1640625 14.89453125 C-4.92556397 11.81490906 -3.65405114 8.75049088 -2.375 5.6875 C-1.92898437 4.61886719 -1.48296875 3.55023438 -1.0234375 2.44921875 C-0.68570313 1.64097656 -0.34796875 0.83273437 0 0 Z " fill="#A1E0D0" transform="translate(202,336)"/>
<path d="M0 0 C5.44496926 0.37988158 7.31873656 2.12498585 11 6 C13.17346568 6.86119134 13.17346568 6.86119134 15 7 C15 7.66 15 8.32 15 9 C16.258125 9.144375 17.51625 9.28875 18.8125 9.4375 C21.42667123 9.73748686 23.47439892 10.15813297 26 11 C26 11.66 26 12.32 26 13 C26.66 13.33 27.32 13.66 28 14 C26.75336669 14.50833591 25.50250613 15.00631145 24.25 15.5 C23.55390625 15.7784375 22.8578125 16.056875 22.140625 16.34375 C20 17 20 17 16 17 C16 17.66 16 18.32 16 19 C14.68 18.67 13.36 18.34 12 18 C13.4562545 17.32880451 14.91507867 16.66318193 16.375 16 C17.18710938 15.62875 17.99921875 15.2575 18.8359375 14.875 C21 14 21 14 23 14 C23 13.34 23 12.68 23 12 C21.88625 12.020625 20.7725 12.04125 19.625 12.0625 C16 12 16 12 14 11 C14 10.34 14 9.68 14 9 C12.35 9 10.7 9 9 9 C9 8.34 9 7.68 9 7 C8.443125 6.773125 7.88625 6.54625 7.3125 6.3125 C4.36753316 4.64103234 2.31843456 2.44723648 0 0 Z " fill="#DDB2B9" transform="translate(109,133)"/>
<path d="M0 0 C7.90541254 7.09873779 10.31690843 18.83901293 11 29 C11.23612 34.77510165 10.83142996 40.28391903 10 46 C9.67 46 9.34 46 9 46 C8.98018066 45.25314941 8.96036133 44.50629883 8.93994141 43.73681641 C8.84491789 40.36584395 8.73514741 36.99551071 8.625 33.625 C8.5940625 32.449375 8.563125 31.27375 8.53125 30.0625 C8.49257813 28.94101563 8.45390625 27.81953125 8.4140625 26.6640625 C8.3826416 25.62717285 8.3512207 24.5902832 8.31884766 23.52197266 C8.24045528 20.83190165 8.24045528 20.83190165 6 19 C5.08570067 16.75270352 4.24058674 14.47689652 3.4375 12.1875 C3.00308594 10.96417969 2.56867188 9.74085938 2.12109375 8.48046875 C1.20645002 5.64093019 0.49754158 2.9349363 0 0 Z " fill="#99D7EB" transform="translate(311,171)"/>
<path d="M0 0 C2.125 0.375 2.125 0.375 4 1 C-0.56637806 5.7006833 -5.0336256 10.12730122 -11 13 C-11.33 13.66 -11.66 14.32 -12 15 C-13.175625 15.2165625 -13.175625 15.2165625 -14.375 15.4375 C-17.25125721 16.05384083 -18.16384707 16.77728856 -20 19 C-20.66 18.67 -21.32 18.34 -22 18 C-23.99021521 18.09723451 -23.99021521 18.09723451 -26.125 18.4375 C-27.40375 18.623125 -28.6825 18.80875 -30 19 C-28.68 18.67 -27.36 18.34 -26 18 C-26 17.34 -26 16.68 -26 16 C-25.20335937 15.75765625 -24.40671875 15.5153125 -23.5859375 15.265625 C-13.76245901 12.51899631 -13.76245901 12.51899631 -6.625 5.75 C-6.41875 5.1725 -6.2125 4.595 -6 4 C-4.68 4 -3.36 4 -2 4 C-2 3.34 -2 2.68 -2 2 C-1.34 1.34 -0.68 0.68 0 0 Z " fill="#ECB3AD" transform="translate(303,127)"/>
<path d="M0 0 C12.02321147 1.71394717 21.07830771 6.79890593 30 15 C30.99 16.485 30.99 16.485 32 18 C30.66082739 17.69096017 29.32911682 17.34976758 28 17 C26.96875 16.7525 25.9375 16.505 24.875 16.25 C23.92625 15.8375 22.9775 15.425 22 15 C21.71511719 14.21496094 21.43023437 13.42992187 21.13671875 12.62109375 C19.00592878 7.70782891 13.70782945 6.04500203 9 4 C5.97825432 3.08654966 3.12463826 2.51223578 0 2 C0 1.34 0 0.68 0 0 Z " fill="#EFB9B3" transform="translate(274,31)"/>
<path d="M0 0 C0.33 0.66 0.66 1.32 1 2 C0.0390625 4.42578125 0.0390625 4.42578125 -1.375 7.3125 C-4.36148402 13.42728431 -5.12661687 18.24503533 -5.09765625 25.05078125 C-5.0962413 25.70958786 -5.09482635 26.36839447 -5.09336853 27.04716492 C-5.087805 29.13565762 -5.07525947 31.22404011 -5.0625 33.3125 C-5.05748028 34.73502449 -5.0529182 36.15755066 -5.04882812 37.58007812 C-5.03784757 41.05342077 -5.02060835 44.52669961 -5 48 C-7.96777344 45.30224609 -7.96777344 45.30224609 -8.2578125 42.58203125 C-8.21398437 41.66808594 -8.17015625 40.75414062 -8.125 39.8125 C-8.0166703 36.36400454 -8.07993403 33.49641563 -8.625 30.0625 C-9.6161923 23.41325164 -7.68229713 16.42331632 -6 10 C-5.34 10 -4.68 10 -4 10 C-3.8453125 8.9171875 -3.8453125 8.9171875 -3.6875 7.8125 C-2.94013068 4.75508007 -1.71954811 2.61670365 0 0 Z " fill="#A9DED1" transform="translate(96,289)"/>
<path d="M0 0 C0.66 0 1.32 0 2 0 C0.94513949 6.12096691 -0.65217026 10.75506674 -4 16 C-4.66 16 -5.32 16 -6 16 C-6.99 18.97 -7.98 21.94 -9 25 C-9.66 24.67 -10.32 24.34 -11 24 C-10.71890887 22.35232753 -10.42481474 20.70686855 -10.125 19.0625 C-9.96257812 18.14597656 -9.80015625 17.22945312 -9.6328125 16.28515625 C-9.42398438 15.53105469 -9.21515625 14.77695313 -9 14 C-8.34 13.67 -7.68 13.34 -7 13 C-6.10874811 11.40603027 -5.2840385 9.77434929 -4.5 8.125 C-3.12043487 5.23969 -1.77947336 2.66921004 0 0 Z " fill="#E4A091" transform="translate(100,51)"/>
<path d="M0 0 C1.258125 0.12375 2.51625 0.2475 3.8125 0.375 C4.87404297 0.47941406 4.87404297 0.47941406 5.95703125 0.5859375 C8 1 8 1 11 3 C13.32873375 3.68255989 15.66182791 4.35050775 18 5 C18.33 5.33 18.66 5.66 19 6 C20.34015221 6.15582303 21.68758903 6.25044142 23.03515625 6.31640625 C24.24848633 6.37924805 24.24848633 6.37924805 25.48632812 6.44335938 C26.33646484 6.48267578 27.18660156 6.52199219 28.0625 6.5625 C28.91650391 6.60568359 29.77050781 6.64886719 30.65039062 6.69335938 C32.76672037 6.79976702 34.88333813 6.90041731 37 7 C37 7.33 37 7.66 37 8 C18.14540241 10.47273411 18.14540241 10.47273411 10.75390625 5.875 C8.7301254 4.70238917 8.7301254 4.70238917 5 5 C5 4.34 5 3.68 5 3 C3.35 3 1.7 3 0 3 C0 2.01 0 1.02 0 0 Z " fill="#81D9BB" transform="translate(119,371)"/>
<path d="M0 0 C0.33 0 0.66 0 1 0 C1.33 11.55 1.66 23.1 2 35 C3.98 31.37 5.96 27.74 8 24 C8.66 23.67 9.32 23.34 10 23 C8.39369175 27.24292532 6.4231838 31.27025107 4.375 35.3125 C4.05015625 35.95767578 3.7253125 36.60285156 3.390625 37.26757812 C2.59558044 38.84597541 1.79804366 40.42311694 1 42 C0.67 42 0.34 42 0 42 C0 28.14 0 14.28 0 0 Z " fill="#AB8CDD" transform="translate(205,147)"/>
<path d="M0 0 C0.4125 0.556875 0.825 1.11375 1.25 1.6875 C2.46536764 3.29352152 3.74191003 4.85432064 5.0625 6.375 C7 9 7 9 7.9375 12 C9.23246644 15.65637583 11.21612901 17.35889163 14 20 C14.33 20.99 14.66 21.98 15 23 C15.99 23.33 16.98 23.66 18 24 C19.1875 26.0625 19.1875 26.0625 20 28 C17.09220751 26.65843569 14.7482101 25.13892965 12.3125 23.0625 C11.71050781 22.55847656 11.10851562 22.05445313 10.48828125 21.53515625 C9 20 9 20 8 17 C7.525625 16.54625 7.05125 16.0925 6.5625 15.625 C4.61080257 13.59523467 3.99892242 11.62217135 3 9 C2.46375 8.154375 1.9275 7.30875 1.375 6.4375 C0 4 0 4 0 0 Z " fill="#A3DFCD" transform="translate(91,338)"/>
<path d="M0 0 C0 0.66 0 1.32 0 2 C-0.56589844 2.25394531 -1.13179687 2.50789062 -1.71484375 2.76953125 C-2.44832031 3.11371094 -3.18179688 3.45789063 -3.9375 3.8125 C-4.66839844 4.14894531 -5.39929688 4.48539063 -6.15234375 4.83203125 C-8.33029489 5.93600134 -8.33029489 5.93600134 -9 9 C-10.55859375 10.60546875 -10.55859375 10.60546875 -12.4375 12.1875 C-13.05496094 12.71730469 -13.67242187 13.24710938 -14.30859375 13.79296875 C-16 15 -16 15 -18 15 C-18 15.66 -18 16.32 -18 17 C-19.95927063 18.7143618 -21.95880212 20.38405168 -24 22 C-23.62403791 19.21788056 -23.32681541 17.4120716 -21.5625 15.1875 C-20 14 -20 14 -18 14 C-17.65582031 13.13761719 -17.65582031 13.13761719 -17.3046875 12.2578125 C-15.66107128 9.41347065 -13.70976048 7.89218697 -11.125 5.875 C-10.26132813 5.19179687 -9.39765625 4.50859375 -8.5078125 3.8046875 C-3.22077922 0 -3.22077922 0 0 0 Z " fill="#C3ACEB" transform="translate(121,152)"/>
<path d="M0 0 C8.71700174 -0.14368684 17.31320899 0.28038418 26 1 C25.67 1.66 25.34 2.32 25 3 C16.42 3 7.84 3 -1 3 C-0.67 2.01 -0.34 1.02 0 0 Z " fill="#E3968A" transform="translate(247,29)"/>
<path d="M0 0 C-0.1875 1.8125 -0.1875 1.8125 -1 4 C-3.25 5.5625 -3.25 5.5625 -6 7 C-9.64943538 8.87012492 -9.64943538 8.87012492 -12 12 C-12.66 12 -13.32 12 -14 12 C-14.33 12.99 -14.66 13.98 -15 15 C-15.99 15.33 -16.98 15.66 -18 16 C-16.37434347 9.29416681 -10.02239334 5.31142838 -4.625 1.5625 C-2 0 -2 0 0 0 Z " fill="#76CCEC" transform="translate(233,154)"/>
<path d="M0 0 C0.33 0.66 0.66 1.32 1 2 C-0.00626136 3.89709863 -1.10747313 5.74421028 -2.25 7.5625 C-6.42983149 14.51500856 -8.96605941 20.93526343 -10 29 C-10.33 29 -10.66 29 -11 29 C-11.99720124 18.62910706 -6.90012907 9.28287351 -1 1 C-0.67 0.67 -0.34 0.34 0 0 Z " fill="#A370E9" transform="translate(101,169)"/>
<path d="M0 0 C3.86715038 2.12246797 6.74405677 4.52746145 9.8125 7.6875 C10.60269531 8.49574219 11.39289063 9.30398437 12.20703125 10.13671875 C13.09455078 11.05904297 13.09455078 11.05904297 14 12 C13.67 12.66 13.34 13.32 13 14 C12.608125 13.566875 12.21625 13.13375 11.8125 12.6875 C9.97761098 10.85439739 9.97761098 10.85439739 7.3125 9.4375 C6.549375 8.963125 5.78625 8.48875 5 8 C5 7.34 5 6.68 5 6 C3.35 5.67 1.7 5.34 0 5 C0 3.35 0 1.7 0 0 Z " fill="#85D2EB" transform="translate(297,157)"/>
<path d="M0 0 C9.9 0 19.8 0 30 0 C29.67 0.99 29.34 1.98 29 3 C28.28972656 2.83757812 27.57945312 2.67515625 26.84765625 2.5078125 C23.97972991 1.99638531 21.34758318 1.86690519 18.4375 1.875 C17.50808594 1.87242187 16.57867187 1.86984375 15.62109375 1.8671875 C13.06862348 1.90101887 13.06862348 1.90101887 10.95703125 2.56640625 C8.45340423 3.12110206 6.72482302 2.68120575 4.25 2.0625 C3.05117187 1.77052734 3.05117187 1.77052734 1.828125 1.47265625 C1.22484375 1.31667969 0.6215625 1.16070312 0 1 C0 0.67 0 0.34 0 0 Z " fill="#E0A49A" transform="translate(204,146)"/>
<path d="M0 0 C1.4026432 3.8151895 0.57670429 6.62333297 -0.375 10.5 C-1.86878108 17.00715594 -2.64630189 23.34071832 -3 30 C-3.33 30 -3.66 30 -4 30 C-4.33 23.73 -4.66 17.46 -5 11 C-4.01 10.67 -3.02 10.34 -2 10 C-1.855625 8.906875 -1.71125 7.81375 -1.5625 6.6875 C-1 3 -1 3 0 0 Z " fill="#DE7A60" transform="translate(93,66)"/>
<path d="M0 0 C0.433125 0.639375 0.86625 1.27875 1.3125 1.9375 C2.91239177 4.26746003 2.91239177 4.26746003 6 5 C7.5625 7.375 7.5625 7.375 9 10 C9.99 11.485 9.99 11.485 11 13 C10.625 15.1875 10.625 15.1875 10 17 C5.9918197 13.32583472 3.47408385 9.85653496 1 5 C1 4.34 1 3.68 1 3 C0.34 2.67 -0.32 2.34 -1 2 C-0.67 1.34 -0.34 0.68 0 0 Z " fill="#C4AFE9" transform="translate(94,229)"/>
<path d="M0 0 C1.900617 4.87397489 -0.61375771 8.56404695 -2.5859375 13.0703125 C-4.15210425 16.31513311 -5.84264407 19.12352542 -8 22 C-8 14.79273851 -3.29422724 6.33505239 0 0 Z " fill="#A0D8E8" transform="translate(319,217)"/>
<path d="M0 0 C0 1.32 0 2.64 0 4 C-0.62648438 4.19335938 -1.25296875 4.38671875 -1.8984375 4.5859375 C-2.71570313 4.84632812 -3.53296875 5.10671875 -4.375 5.375 C-5.18710938 5.63023438 -5.99921875 5.88546875 -6.8359375 6.1484375 C-9.16459185 6.89854283 -9.16459185 6.89854283 -11 9 C-13.125 8.625 -13.125 8.625 -15 8 C-13.3990869 6.84962529 -11.79414775 5.70485184 -10.1875 4.5625 C-9.29417969 3.92441406 -8.40085937 3.28632812 -7.48046875 2.62890625 C-4.94635478 0.96477156 -3.06475148 0 0 0 Z " fill="#E3917B" transform="translate(125,34)"/>
<path d="M0 0 C0.66 0 1.32 0 2 0 C1.33607808 3.48154178 -0.05780377 6.09633962 -1.875 9.125 C-2.38804687 9.99382812 -2.90109375 10.86265625 -3.4296875 11.7578125 C-5 14 -5 14 -8 16 C-7.67 14.35 -7.34 12.7 -7 11 C-6.34 11 -5.68 11 -5 11 C-4.67 9.35 -4.34 7.7 -4 6 C-3.34 6 -2.68 6 -2 6 C-2 5.01 -2 4.02 -2 3 C-1.34 3 -0.68 3 0 3 C0 2.01 0 1.02 0 0 Z " fill="#EABAB6" transform="translate(315,111)"/>
<path d="M0 0 C2.125 0.375 2.125 0.375 4 1 C1.66666667 3.33333333 -0.66666667 5.66666667 -3 8 C-5.125 7.625 -5.125 7.625 -7 7 C-6.67 6.01 -6.34 5.02 -6 4 C-4.68 4 -3.36 4 -2 4 C-2 3.34 -2 2.68 -2 2 C-1.34 1.34 -0.68 0.68 0 0 Z " fill="#EDA59F" transform="translate(303,127)"/>
<path d="M0 0 C6.45280438 0.4870041 6.45280438 0.4870041 9 2.875 C10 5 10 5 9 8 C8.34 8 7.68 8 7 8 C7 7.01 7 6.02 7 5 C6.21625 4.731875 5.4325 4.46375 4.625 4.1875 C2 3 2 3 0 0 Z " fill="#BD9AEB" transform="translate(108,248)"/>
<path d="M0 0 C7.59 0.33 15.18 0.66 23 1 C23 1.33 23 1.66 23 2 C18.03806234 2.65074592 13.12959321 3.11672189 8.125 3.25 C7.22007812 3.27578125 6.31515625 3.3015625 5.3828125 3.328125 C3 3 3 3 0 0 Z " fill="#C7E2DF" transform="translate(133,377)"/>
<path d="M0 0 C4.95696581 1.23924145 7.11658466 2.78577758 10 7 C6.58978257 6.21302675 3.31114834 5.12880057 0 4 C0 2.68 0 1.36 0 0 Z " fill="#EF9F96" transform="translate(296,42)"/>
<path d="M0 0 C0.66 0.33 1.32 0.66 2 1 C-0.64116988 4.61938095 -2.97413046 6.98706523 -7 9 C-7.66 9 -8.32 9 -9 9 C-9 8.01 -9 7.02 -9 6 C-8.195625 5.71125 -7.39125 5.4225 -6.5625 5.125 C-3.8673532 4.26737432 -3.8673532 4.26737432 -3 2 C-2.01 2 -1.02 2 0 2 C0 1.34 0 0.68 0 0 Z " fill="#78D8B8" transform="translate(183,363)"/>
<path d="M0 0 C5.94 0 11.88 0 18 0 C16.02 0.99 16.02 0.99 14 2 C13.01 1.67 12.02 1.34 11 1 C11 1.66 11 2.32 11 3 C7.37 2.34 3.74 1.68 0 1 C0 0.67 0 0.34 0 0 Z " fill="#B2DEEC" transform="translate(254,262)"/>
<path d="M0 0 C0 3.86474861 -1.34492416 6.20494458 -3 9.6875 C-3.556875 10.86699219 -4.11375 12.04648438 -4.6875 13.26171875 C-5.120625 14.16535156 -5.55375 15.06898438 -6 16 C-6.66 15.67 -7.32 15.34 -8 15 C-5.75347149 9.62267113 -3.40298503 4.739872 0 0 Z " fill="#ABD9E9" transform="translate(214,170)"/>
<path d="M0 0 C0.33 0.66 0.66 1.32 1 2 C0.01 3.485 0.01 3.485 -1 5 C-1.99 5 -2.98 5 -4 5 C-4.66 7.31 -5.32 9.62 -6 12 C-6.66 12 -7.32 12 -8 12 C-6.64537037 4.48796296 -6.64537037 4.48796296 -3.4375 2.0625 C-2.2309375 1.5365625 -2.2309375 1.5365625 -1 1 C-0.67 0.67 -0.34 0.34 0 0 Z " fill="#58CEA4" transform="translate(104,281)"/>
<path d="M0 0 C0 0.99 0 1.98 0 3 C-3.12317517 5.23083941 -6.4134946 6.66786942 -10 8 C-8.75009681 4.25029042 -7.20287849 3.23456639 -4 1 C-1.6875 0.25 -1.6875 0.25 0 0 Z " fill="#86D3EB" transform="translate(300,248)"/>
<path d="M0 0 C3.01657791 0.14030595 5.23841273 0.29351465 7.51171875 2.40234375 C8.73256066 3.88904235 9.87246522 5.44134898 11 7 C5.95904225 6.55520961 3.58884285 4.33845847 0 1 C0 0.67 0 0.34 0 0 Z " fill="#E29A87" transform="translate(109,133)"/>
<path d="M0 0 C2.76276177 0.52268466 5.3260876 1.10869587 8 2 C8 2.66 8 3.32 8 4 C8.99 4.33 9.98 4.66 11 5 C10.34 5.66 9.68 6.32 9 7 C8.34 6.67 7.68 6.34 7 6 C7 5.34 7 4.68 7 4 C4.03 3.505 4.03 3.505 1 3 C0.67 2.01 0.34 1.02 0 0 Z " fill="#A0D7E9" transform="translate(232,254)"/>
<path d="M0 0 C3.66161578 1.22053859 4.16270474 2.36782304 6.1875 5.5625 C6.71730469 6.38878906 7.24710938 7.21507812 7.79296875 8.06640625 C8.19128906 8.70449219 8.58960938 9.34257812 9 10 C8.01 10 7.02 10 6 10 C0.4875 4.225 0.4875 4.225 0 0 Z " fill="#B2DDE8" transform="translate(210,232)"/>
<path d="M0 0 C0.66 0 1.32 0 2 0 C1.39254603 4.85963179 -0.72758967 8.7405518 -3 13 C-4.23593891 9.29218328 -3.5678132 8.32489747 -2.0625 4.8125 C-1.68222656 3.91144531 -1.30195313 3.01039063 -0.91015625 2.08203125 C-0.60980469 1.39496094 -0.30945313 0.70789063 0 0 Z " fill="#ABE3D4" transform="translate(202,336)"/>
<path d="M0 0 C3 2 3 2 3.73046875 4.3828125 C3.88128906 5.28773437 4.03210938 6.19265625 4.1875 7.125 C4.34605469 8.03507812 4.50460938 8.94515625 4.66796875 9.8828125 C4.83232422 10.93082031 4.83232422 10.93082031 5 12 C4.01 11.67 3.02 11.34 2 11 C1.87625 10.278125 1.7525 9.55625 1.625 8.8125 C1.0095069 6.04278106 0.11555626 3.6029646 -1 1 C-0.67 0.67 -0.34 0.34 0 0 Z " fill="#E6ADA0" transform="translate(91,105)"/>
<path d="M0 0 C3.25524265 3.02272532 5.61820737 6.25718301 8 10 C6.35 9.67 4.7 9.34 3 9 C2.01 6.03 1.02 3.06 0 0 Z " fill="#E3D2D1" transform="translate(97,119)"/>
<path d="M0 0 C3.45854519 3.45854519 4 7.21904213 4 12 C3.34 12 2.68 12 2 12 C0.86235649 7.73383684 0 4.43513689 0 0 Z " fill="#E7C0BD" transform="translate(316,64)"/>
<path d="M0 0 C3.3502463 3.81234923 5.16974789 7.33285711 7 12 C6.01 11.67 5.02 11.34 4 11 C3.3125 8.9375 3.3125 8.9375 3 7 C2.34 7 1.68 7 1 7 C0.67 4.69 0.34 2.38 0 0 Z " fill="#AB7CEA" transform="translate(92,222)"/>
<path d="M0 0 C0.99 0.33 1.98 0.66 3 1 C1.90220176 2.15193623 0.79650554 3.29634937 -0.3125 4.4375 C-0.92738281 5.07558594 -1.54226562 5.71367187 -2.17578125 6.37109375 C-4 8 -4 8 -7 9 C-6.00102287 6.00306862 -5.34869747 4.97290587 -3 3 C-2.34 3 -1.68 3 -1 3 C-0.67 2.01 -0.34 1.02 0 0 Z " fill="#30BAF1" transform="translate(222,163)"/>
<path d="M0 0 C2.5 1.3125 2.5 1.3125 5 3 C5 3.99 5 4.98 5 6 C3.35 5.67 1.7 5.34 0 5 C0 3.35 0 1.7 0 0 Z " fill="#61C6ED" transform="translate(297,157)"/>
<path d="M0 0 C4.29 0 8.58 0 13 0 C9.49223439 2.3385104 7.18333056 2.77589301 3 3 C2.01 2.01 1.02 1.02 0 0 Z " fill="#B0DAE9" transform="translate(238,147)"/>
<path d="M0 0 C2.92879371 0.62759865 5.36095629 1.58622659 8 3 C8 3.99 8 4.98 8 6 C5.0280615 4.87548273 2.66559313 3.77706209 0 2 C0 1.34 0 0.68 0 0 Z " fill="#79D0EC" transform="translate(224,248)"/>
<path d="M0 0 C2.61885488 2.36944013 4.41866551 4.83733102 6 8 C5.67 8.99 5.34 9.98 5 11 C4.67 9.68 4.34 8.36 4 7 C3.34 7 2.68 7 2 7 C0 4 0 4 0 0 Z " fill="#A5DBE7" transform="translate(311,171)"/>
<path d="M0 0 C0.95465783 2.16967689 1.14401212 3.56328793 0.3984375 5.82421875 C-0.35870385 7.5684743 -1.17609198 9.28627131 -2 11 C-2.33 11 -2.66 11 -3 11 C-2.25 3.375 -2.25 3.375 0 0 Z " fill="#3BBAEC" transform="translate(210,180)"/>
<path d="M0 0 C0.66 0.33 1.32 0.66 2 1 C1.25 7.625 1.25 7.625 -1 11 C-1.125 3.375 -1.125 3.375 0 0 Z " fill="#E7B8B8" transform="translate(318,100)"/>
<path d="M0 0 C0 3.57575896 -1.08840607 5.05295935 -3 8 C-4.32 7.67 -5.64 7.34 -7 7 C-4.66666667 4.66666667 -2.33333333 2.33333333 0 0 Z " fill="#E99C8A" transform="translate(109,43)"/>
<path d="M0 0 C0 3 0 3 -2.375 5.6875 C-5 8 -5 8 -7 8 C-5.50902342 4.2047869 -3.24299151 2.38957269 0 0 Z " fill="#A0D8EB" transform="translate(308,240)"/>
<path d="M0 0 C0 0.66 0 1.32 0 2 C-2.25 4.1875 -2.25 4.1875 -5 6 C-7.171875 5.61328125 -7.171875 5.61328125 -9 5 C-7.87926138 4.16094435 -6.75325453 3.32892169 -5.625 2.5 C-4.99851562 2.0359375 -4.37203125 1.571875 -3.7265625 1.09375 C-2 0 -2 0 0 0 Z " fill="#E3A798" transform="translate(119,37)"/>
<path d="M0 0 C0.66 0 1.32 0 2 0 C0.70700306 2.88437779 -0.65941363 4.87219421 -3 7 C-3.66 6.67 -4.32 6.34 -5 6 C-3.38405168 3.95880212 -1.7143618 1.95927063 0 0 Z " fill="#92DDC1" transform="translate(189,358)"/>
<path d="M0 0 C0 0.66 0 1.32 0 2 C-2.31 1.67 -4.62 1.34 -7 1 C-7 0.34 -7 -0.32 -7 -1 C-3.51418144 -2.2020064 -3.32007656 -2.21338437 0 0 Z " fill="#C2A5EC" transform="translate(129,258)"/>
<path d="M0 0 C0.33 0.66 0.66 1.32 1 2 C-0.25 5.0625 -0.25 5.0625 -2 8 C-2.99 8.33 -3.98 8.66 -5 9 C-5 8.01 -5 7.02 -5 6 C-4.34 6 -3.68 6 -3 6 C-2.87625 5.38125 -2.7525 4.7625 -2.625 4.125 C-2 2 -2 2 0 0 Z " fill="#5BC3ED" transform="translate(312,232)"/>
<path d="M0 0 C0.33 0.66 0.66 1.32 1 2 C0.67 2.66 0.34 3.32 0 4 C-0.66 4 -1.32 4 -2 4 C-2.33 4.99 -2.66 5.98 -3 7 C-3.99 7.33 -4.98 7.66 -6 8 C-4.73058503 4.08597051 -3.48832306 2.20927127 0 0 Z " fill="#9DD8EB" transform="translate(221,162)"/>
<path d="M0 0 C2.97 0.33 5.94 0.66 9 1 C5.71299843 2.64350079 3.52069985 3.41321669 0 4 C0.66 3.34 1.32 2.68 2 2 C1.34 1.34 0.68 0.68 0 0 Z " fill="#BDC6E3" transform="translate(130,260)"/>
<path d="" fill="#D6DEE2" transform="translate(0,0)"/>
<path d="" fill="#D6DEE2" transform="translate(0,0)"/>
<path d="" fill="#D6DEE2" transform="translate(0,0)"/>
<path d="" fill="#D6DEE2" transform="translate(0,0)"/>
<path d="" fill="#D6DEE2" transform="translate(0,0)"/>
</svg>
