<?xml version="1.0" encoding="UTF-8"?>
<svg version="1.1" xmlns="http://www.w3.org/2000/svg" width="411" height="411">
<path d="M0 0 C0.99 0.33 1.98 0.66 3 1 C3 111.22 3 221.44 3 335 C1.68 335.33 0.36 335.66 -1 336 C-2.65789795 334.95683289 -2.65789795 334.95683289 -4.29980469 333.29956055 C-4.92014587 332.68529709 -5.54048706 332.07103363 -6.17962646 331.43815613 C-7.16578949 330.42269463 -7.16578949 330.42269463 -8.171875 329.38671875 C-8.8542926 328.70196976 -9.53671021 328.01722076 -10.23980713 327.3117218 C-11.68123398 325.86054275 -13.11661704 324.40333944 -14.54638672 322.94067383 C-16.74281794 320.69484359 -18.95735588 318.4682265 -21.17578125 316.24414062 C-22.57141382 314.83442279 -23.96598211 313.42365037 -25.359375 312.01171875 C-26.02491394 311.34081711 -26.69045288 310.66991547 -27.37615967 309.97868347 C-27.98389221 309.35496353 -28.59162476 308.73124359 -29.21777344 308.08862305 C-29.75642029 307.5393364 -30.29506714 306.99004974 -30.85003662 306.42411804 C-32 305 -32 305 -32 303 C-33.32 302.34 -34.64 301.68 -36 301 C-36 300.34 -36 299.68 -36 299 C-36.66 299 -37.32 299 -38 299 C-38 298.34 -38 297.68 -38 297 C-38.66 297 -39.32 297 -40 297 C-40 296.34 -40 295.68 -40 295 C-40.53012695 294.79439453 -41.06025391 294.58878906 -41.60644531 294.37695312 C-44.99820684 292.42575616 -47.56050587 289.72455618 -50.296875 286.96875 C-51.18732513 286.08117004 -51.18732513 286.08117004 -52.09576416 285.17565918 C-53.34543718 283.92734419 -54.59259992 282.67651177 -55.83740234 281.42333984 C-57.75007952 279.49992003 -59.67323119 277.58743901 -61.59765625 275.67578125 C-62.81053798 274.46157861 -64.02279952 273.24675607 -65.234375 272.03125 C-65.81241882 271.45725464 -66.39046265 270.88325928 -66.98602295 270.29187012 C-71 266.22993434 -71 266.22993434 -71 264 C-71.66 264 -72.32 264 -73 264 C-73 263.34 -73 262.68 -73 262 C-73.598125 261.7525 -74.19625 261.505 -74.8125 261.25 C-77 260 -77 260 -78.5 257.9375 C-80.24509481 255.6834192 -81.23423473 255.38148486 -84 255 C-84.39698861 255.88329876 -84.39698861 255.88329876 -84.80199718 256.78444195 C-86.04260496 259.0787926 -87.33825004 260.59992975 -89.16804504 262.44892883 C-90.14578636 263.44380058 -90.14578636 263.44380058 -91.14328003 264.45877075 C-91.85759186 265.1753183 -92.57190369 265.89186584 -93.30786133 266.63012695 C-94.43741997 267.77458031 -94.43741997 267.77458031 -95.58979797 268.94215393 C-98.08159924 271.46315797 -100.58112155 273.97631458 -103.08203125 276.48828125 C-104.81598059 278.23373259 -106.54992316 279.97919065 -108.28385925 281.72465515 C-111.91915724 285.38095864 -115.55908784 289.03258547 -119.20141602 292.68188477 C-123.87594875 297.36741329 -128.5316319 302.07121335 -133.18315601 306.77956867 C-136.75641591 310.38999451 -140.34294179 313.98701353 -143.9332943 317.5804348 C-145.65630569 319.30951515 -147.37429495 321.0436147 -149.08719826 322.78270912 C-151.47892988 325.20839683 -153.88869899 327.61461272 -156.30395508 330.0168457 C-157.01219421 330.7435144 -157.72043335 331.47018311 -158.45013428 332.21887207 C-159.4405648 333.19259514 -159.4405648 333.19259514 -160.45100403 334.18598938 C-161.01899625 334.75691472 -161.58698847 335.32784006 -162.17219257 335.91606617 C-164 337 -164 337 -166.57478333 336.80740356 C-170.01595244 335.66176894 -171.55633337 333.67258477 -174 331 C-175.13116711 329.86192676 -176.26852795 328.72999037 -177.41059875 327.6028595 C-178.04011948 326.9762291 -178.6696402 326.34959869 -179.3182373 325.70397949 C-179.99221558 325.03314331 -180.66619385 324.36230713 -181.3605957 323.67114258 C-188.69667631 316.367682 -196.02770592 309.05917271 -203.35586262 301.74776173 C-207.78743297 297.32667395 -212.22087161 292.90749234 -216.65844727 288.49243164 C-220.95438845 284.21814298 -225.24549473 279.93905608 -229.53322411 275.65653038 C-231.16982998 274.02362962 -232.80819965 272.39249475 -234.44832802 270.7631321 C-236.73231013 268.49356666 -239.01005942 266.21792281 -241.28637695 263.94067383 C-241.97047638 263.26376495 -242.65457581 262.58685608 -243.35940552 261.88943481 C-244.28253792 260.96217842 -244.28253792 260.96217842 -245.22431946 260.01618958 C-245.76352681 259.47882581 -246.30273417 258.94146204 -246.85828114 258.38781452 C-248 257 -248 257 -248 255 C-252.97597453 257.56808141 -256.51087471 261.24256441 -260.40478516 265.17773438 C-261.1322142 265.90487137 -261.85964325 266.63200836 -262.6091156 267.38117981 C-265.00720365 269.78065862 -267.39813209 272.18714074 -269.7890625 274.59375 C-271.45581069 276.26423035 -273.12300251 277.93426818 -274.7906189 279.60388184 C-279.17671707 283.99760984 -283.55677841 288.39730832 -287.93560791 292.79827881 C-292.3935653 297.27667301 -296.85716554 301.74943499 -301.3203125 306.22265625 C-309.70982993 314.63266028 -318.09379103 323.04817711 -326.47352028 331.46793365 C-326.97725859 331.97351555 -327.48099689 332.47909744 -328 333 C-328.47797216 333.58137474 -328.95594433 334.16274948 -329.4484005 334.76174164 C-330.21644225 335.37467953 -330.21644225 335.37467953 -331 336 C-332.32 335.67 -333.64 335.34 -335 335 C-335 225.11 -335 115.22 -335 2 C-333.68 1.67 -332.36 1.34 -331 1 C-328.66789246 2.72410583 -328.66789246 2.72410583 -326.06713867 5.34936523 C-325.59012009 5.82404739 -325.1131015 6.29872955 -324.62162781 6.78779602 C-323.04146624 8.36633805 -321.47989797 9.96202512 -319.91796875 11.55859375 C-318.82046632 12.66288854 -317.72192428 13.766151 -316.62239075 14.86842346 C-313.72200267 17.78225342 -310.83734973 20.71121203 -307.95526123 23.64312744 C-305.61944043 26.01411097 -303.27270986 28.37412068 -300.92524242 30.73356533 C-298.1064618 33.56725622 -295.2928221 36.40602545 -292.48046875 39.24609375 C-291.68707124 40.04685742 -291.68707124 40.04685742 -290.87764549 40.86379814 C-289.35607325 42.40191996 -287.8379988 43.94340855 -286.32104492 45.48608398 C-285.46040939 46.35957993 -284.59977386 47.23307587 -283.71305847 48.13304138 C-281.6841692 50.27702082 -279.75072618 52.43651496 -277.83099365 54.67396545 C-273.2591855 59.93282178 -268.31723192 64.81493636 -263.38305664 69.73046875 C-262.32763528 70.78560747 -261.27243519 71.84096757 -260.21743774 72.89653015 C-257.37513542 75.73911743 -254.52977747 78.57862766 -251.68382955 81.41756439 C-248.70183946 84.39327049 -245.72271242 87.37184021 -242.74327087 90.35009766 C-237.11083024 95.97943978 -231.47584711 101.6062296 -225.83992904 107.23209 C-219.41952207 113.6412897 -213.00198054 120.05335532 -206.58466923 126.46565437 C-193.39294856 139.6469442 -180.19766257 152.8246596 -167 166 C-166.401875 165.690625 -165.80375 165.38125 -165.1875 165.0625 C-163 164 -163 164 -160 163 C-159.32990281 161.66838745 -158.6640381 160.33464438 -158 159 C-156.36705423 157.18862964 -154.67218145 155.43258612 -152.94480896 153.71102905 C-152.42519453 153.19041134 -151.90558009 152.66979362 -151.37021977 152.13339961 C-149.62839603 150.39062347 -147.87952631 148.65509517 -146.13061523 146.91943359 C-144.88029058 145.67131017 -143.63041335 144.42273841 -142.38095093 143.17375183 C-139.68994576 140.48568022 -136.99581382 137.80079615 -134.29922295 135.11832809 C-130.03852288 130.87987509 -125.7849048 126.63436271 -121.53224182 122.3878479 C-114.80824904 115.67523747 -108.07959956 108.96731721 -101.34891421 102.26141798 C-89.28713278 90.24397399 -77.23094364 78.22092582 -65.17993313 66.19268095 C-60.94785045 61.96902427 -56.71297549 57.74819274 -52.47586238 53.52958274 C-49.84557005 50.90990556 -47.21728469 48.28822175 -44.58950424 45.66602516 C-43.3668774 44.44687955 -42.14337926 43.22860703 -40.91896629 42.01125526 C-39.2530921 40.35478032 -37.59028075 38.69529093 -35.9282074 37.03500366 C-34.99518516 36.10550085 -34.06216291 35.17599804 -33.10086727 34.21832848 C-30.97146393 32.18486189 -30.97146393 32.18486189 -30 30 C-29.34 30 -28.68 30 -28 30 C-28 29.34 -28 28.68 -28 28 C-26.42578125 26.484375 -26.42578125 26.484375 -24.3125 24.75 C-20.74663606 21.724038 -17.92488753 18.63634666 -15 15 C-13.34595374 13.32080777 -11.67760324 11.65565785 -10 10 C-8.67548828 8.67548828 -8.67548828 8.67548828 -7.32421875 7.32421875 C-4.8828125 4.8828125 -2.44140625 2.44140625 0 0 Z " fill="#6906FE" transform="translate(376,33)"/>
<path d="M0 0 C4.07384003 0.3639079 6.04720671 2.67864294 8.84106445 5.48461914 C9.30832947 5.94983978 9.77559448 6.41506042 10.25701904 6.89437866 C11.79979573 8.43414833 13.33155683 9.98439779 14.86328125 11.53515625 C15.93880208 12.61373768 17.01491728 13.69172671 18.09159851 14.76914978 C20.34976677 17.03192221 22.60293807 19.29951361 24.85229492 21.57104492 C27.71673686 24.46359936 30.58962321 27.34756841 33.465909 30.2283411 C36.22651748 32.9941461 38.98244595 35.76459679 41.73828125 38.53515625 C42.25614008 39.0548958 42.77399891 39.57463535 43.30755043 40.11012459 C44.79786192 41.60742386 46.28477035 43.10802396 47.77075195 44.60961914 C48.61362259 45.45931778 49.45649323 46.30901642 50.3249054 47.1844635 C52.35926548 49.32562705 54.29509445 51.48537116 56.21788025 53.72283936 C60.5010024 58.65117921 65.11042827 63.2274243 69.74316406 67.82495117 C70.70506714 68.78328959 71.66673018 69.741869 72.62817383 70.70066833 C74.68326204 72.74925416 76.73985102 74.79631662 78.79761505 76.84221458 C82.0535023 80.07967524 85.30492332 83.32159695 88.55560303 86.56428528 C97.79436513 95.77899245 107.03911244 104.98768136 116.28808594 114.19213867 C121.40814353 119.28763129 126.52458693 124.38672551 131.63719726 129.4896906 C134.86619773 132.71216304 138.09964439 135.93008454 141.33649492 139.14467084 C143.34798495 141.1444142 145.3552648 143.14834244 147.36138916 145.15346718 C148.73264437 146.52155909 150.10889242 147.88464092 151.48529053 149.24755859 C152.3038855 150.06745773 153.12248047 150.88735687 153.96588135 151.73210144 C154.67670994 152.43978763 155.38753853 153.14747381 156.11990738 153.87660503 C158.09849762 156.11124418 159.47720433 158.44123932 161 161 C161.9075 161.804375 162.815 162.60875 163.75 163.4375 C166 166 166 166 166.0625 169.125 C164.87412968 172.34059029 163.97676293 173.37631113 161 175 C160.34 175 159.68 175 159 175 C158.34 176.32 157.68 177.64 157 179 C156.34 179 155.68 179 155 179 C154.61134766 179.8971875 154.61134766 179.8971875 154.21484375 180.8125 C152.89899467 183.18187456 151.66881809 184.31844876 149.5625 186 C145.31824139 189.57818883 141.64489428 193.5255822 137.94555664 197.6484375 C132.14184582 204.11473066 126.13346193 210.32540698 118.8125 215.0625 C115.89068262 217.07530753 114.16161058 219.22078639 112 222 C111.34 222 110.68 222 110 222 C109.34 223.32 108.68 224.64 108 226 C107.34 226 106.68 226 106 226 C105.79890625 226.53238281 105.5978125 227.06476563 105.390625 227.61328125 C103.39159383 231.04420272 100.61249585 233.46554115 97.75 236.1875 C93.23077048 240.57242758 89.34032034 244.81390871 86.1484375 250.29296875 C85 252 85 252 82 254 C81.58737915 254.71731293 81.1747583 255.43462585 80.74963379 256.17367554 C78.34112883 260.06432771 75.24780879 263.01418613 72.00585938 266.22119141 C71.29822952 266.92911331 70.59059967 267.63703522 69.86152649 268.3664093 C67.52697819 270.69956713 65.18542929 273.02556361 62.84375 275.3515625 C61.21811009 276.97347012 59.59291278 278.59582148 57.96813965 280.21859741 C53.69277912 284.4863289 49.41144907 288.74802266 45.12884521 293.00848389 C40.77109693 297.34579463 36.41898125 301.68874888 32.06640625 306.03125 C25.03890826 313.04115658 18.00786692 320.0474862 10.97261047 327.04960632 C10.05157784 327.96630348 10.05157784 327.96630348 9.11193848 328.90151978 C8.58027321 329.43058741 8.04860794 329.95965504 7.5008316 330.50475502 C5.95581938 331.99478693 5.95581938 331.99478693 4.55550385 333.75615501 C4.04218758 334.16662386 3.52887131 334.5770927 3 335 C0.90278101 334.57774031 0.90278101 334.57774031 -1 334 C-1.02286459 291.59479118 -1.04049732 249.18958308 -1.05106533 206.78436932 C-1.05231611 201.78357368 -1.05361042 196.78277805 -1.05493164 191.78198242 C-1.05519395 190.78637001 -1.05545626 189.7907576 -1.05572652 188.76497512 C-1.0600836 172.62196551 -1.06797136 156.47895944 -1.0771528 140.33595193 C-1.08648828 123.7846557 -1.09205539 107.23336133 -1.09408849 90.68206257 C-1.09546394 80.46041557 -1.0998157 70.23877858 -1.10791647 60.01713466 C-1.11318263 53.01774228 -1.11480459 46.01835512 -1.11350138 39.0189609 C-1.11285779 34.97437294 -1.11387779 30.92980254 -1.11920547 26.88521767 C-1.1240395 23.18862781 -1.12433863 19.49206747 -1.12089889 15.79547631 C-1.12027026 13.81189194 -1.12461196 11.82830796 -1.12908131 9.84472853 C-1.12709026 8.68276675 -1.12509921 7.52080498 -1.12304783 6.32363224 C-1.12342755 5.312437 -1.12380727 4.30124176 -1.1241985 3.25940424 C-1 1 -1 1 0 0 Z " fill="#EC01BA" transform="translate(42,34)"/>
<path d="M0 0 C0.33 0 0.66 0 1 0 C1 54.12 1 108.24 1 164 C-4.09090909 161.45454545 -4.09090909 161.45454545 -6 159 C-6.144375 158.154375 -6.28875 157.30875 -6.4375 156.4375 C-6.623125 155.633125 -6.80875 154.82875 -7 154 C-8.79932579 152.93283296 -8.79932579 152.93283296 -11 152 C-13.75 149.5 -13.75 149.5 -16 147 C-16 146.34 -16 145.68 -16 145 C-16.86625 144.62875 -16.86625 144.62875 -17.75 144.25 C-20.32939979 142.81700012 -22.06121592 141.21575324 -24 139 C-24 138.34 -24 137.68 -24 137 C-24.66 137 -25.32 137 -26 137 C-26 136.34 -26 135.68 -26 135 C-26.66 135 -27.32 135 -28 135 C-28 134.34 -28 133.68 -28 133 C-29.32 132.34 -30.64 131.68 -32 131 C-32 130.34 -32 129.68 -32 129 C-32.66 129 -33.32 129 -34 129 C-34 128.34 -34 127.68 -34 127 C-34.59296875 126.90847656 -35.1859375 126.81695312 -35.796875 126.72265625 C-38.54567656 125.82101035 -39.44501702 124.67620462 -41.25 122.4375 C-44.44820551 118.58716581 -47.87351576 115.11479144 -51.49609375 111.6640625 C-53 110 -53 110 -53 108 C-53.804375 107.690625 -53.804375 107.690625 -54.625 107.375 C-57.90822941 105.47418297 -60.69191747 103.02358811 -63 100 C-63 99.01 -63 98.02 -63 97 C-64.485 96.505 -64.485 96.505 -66 96 C-66 95.34 -66 94.68 -66 94 C-67.11375 93.773125 -68.2275 93.54625 -69.375 93.3125 C-73 92 -73 92 -74.4375 89.5625 C-75 87 -75 87 -75 84 C-76.98 83.67 -78.96 83.34 -81 83 C-80.91939744 80.2595131 -80.5369489 78.52681778 -78.55078125 76.578125 C-77.30849171 75.5756701 -76.0607341 74.5799668 -74.80859375 73.58984375 C-72.72425465 71.89809636 -72.72425465 71.89809636 -70.8125 68.6875 C-67.78520605 64.12141543 -63.31899771 61.42223674 -58.9296875 58.26171875 C-55.68213228 55.75460612 -53.22742176 53.0800077 -50.65625 49.91015625 C-48.83771552 47.812837 -46.87556266 46.09535419 -44.75 44.3125 C-41.74058883 41.77096274 -39.95222728 39.43963855 -38 36 C-36.33784732 34.66104368 -34.67036393 33.32869858 -33 32 C-31.89696106 30.76735398 -30.81547746 29.51525448 -29.75 28.25 C-26.46102928 24.38527948 -22.83369605 21.13035512 -19.00390625 17.8125 C-16.70436793 15.73260569 -14.86862217 13.46925072 -13 11 C-9.6246338 7.35815752 -6.16698908 4.68539296 -2 2 C-1.34 1.34 -0.68 0.68 0 0 Z " fill="#0375FB" transform="translate(376,203)"/>
<path d="M0 0 C0.99 0.33 1.98 0.66 3 1 C3 111.22 3 221.44 3 335 C1.68 335.33 0.36 335.66 -1 336 C-2.65789795 334.95683289 -2.65789795 334.95683289 -4.29980469 333.29956055 C-4.92014587 332.68529709 -5.54048706 332.07103363 -6.17962646 331.43815613 C-6.83706848 330.76118179 -7.4945105 330.08420746 -8.171875 329.38671875 C-9.1955014 328.35959526 -9.1955014 328.35959526 -10.23980713 327.3117218 C-11.68123398 325.86054275 -13.11661704 324.40333944 -14.54638672 322.94067383 C-16.74281794 320.69484359 -18.95735588 318.4682265 -21.17578125 316.24414062 C-22.57141382 314.83442279 -23.96598211 313.42365037 -25.359375 312.01171875 C-26.02491394 311.34081711 -26.69045288 310.66991547 -27.37615967 309.97868347 C-28.28775848 309.04310356 -28.28775848 309.04310356 -29.21777344 308.08862305 C-29.75642029 307.5393364 -30.29506714 306.99004974 -30.85003662 306.42411804 C-32 305 -32 305 -32 303 C-33.32 302.34 -34.64 301.68 -36 301 C-36 300.34 -36 299.68 -36 299 C-36.66 299 -37.32 299 -38 299 C-38 298.34 -38 297.68 -38 297 C-38.66 297 -39.32 297 -40 297 C-40 296.34 -40 295.68 -40 295 C-40.53012695 294.79439453 -41.06025391 294.58878906 -41.60644531 294.37695312 C-44.99820684 292.42575616 -47.56050587 289.72455618 -50.296875 286.96875 C-51.18732513 286.08117004 -51.18732513 286.08117004 -52.09576416 285.17565918 C-53.34543718 283.92734419 -54.59259992 282.67651177 -55.83740234 281.42333984 C-57.75007952 279.49992003 -59.67323119 277.58743901 -61.59765625 275.67578125 C-62.81053798 274.46157861 -64.02279952 273.24675607 -65.234375 272.03125 C-65.81241882 271.45725464 -66.39046265 270.88325928 -66.98602295 270.29187012 C-71 266.22993434 -71 266.22993434 -71 264 C-71.66 264 -72.32 264 -73 264 C-73 263.34 -73 262.68 -73 262 C-68.57649669 262.50554324 -66.21928398 263.95015202 -63 267 C-62.319375 268.175625 -62.319375 268.175625 -61.625 269.375 C-59.75017181 272.40356862 -57.61600771 274.10262786 -54.88671875 276.33984375 C-52.26774414 278.64432451 -50.09354034 281.24740687 -47.84375 283.90625 C-45.22314034 286.88219656 -42.37375256 289.60223191 -39.50390625 292.3359375 C-38 294 -38 294 -38 296 C-36.68 296.33 -35.36 296.66 -34 297 C-34 297.66 -34 298.32 -34 299 C-33.34 299 -32.68 299 -32 299 C-29.875 300.875 -29.875 300.875 -28 303 C-28 303.66 -28 304.32 -28 305 C-27.34 305 -26.68 305 -26 305 C-26 305.66 -26 306.32 -26 307 C-25.34 307 -24.68 307 -24 307 C-22.66796875 308.35546875 -22.66796875 308.35546875 -21.1875 310.1875 C-17.719303 314.36109299 -14.1670997 318.08966223 -9.875 321.4375 C-6.83136148 324.15030825 -5.76737126 326.38841525 -4 330 C-2.36822286 331.3758121 -0.70451158 332.71540051 1 334 C0.89287567 312.65156281 0.78013511 291.30316191 0.66066074 269.95479012 C0.60532172 260.04295162 0.55183862 250.13110954 0.50268555 240.21923828 C0.45985202 231.58266353 0.41357614 222.94611536 0.36312145 214.30958164 C0.33651381 209.73426005 0.31166057 205.15894375 0.29092598 200.58359146 C0.2713734 196.28104642 0.24723379 191.978552 0.21950912 187.67605209 C0.21013137 186.09337023 0.2024587 184.51067725 0.19658089 182.92797852 C0.18833197 180.77412419 0.17405884 178.62039312 0.15821838 176.46658325 C0.15176583 175.25903444 0.14531328 174.05148563 0.1386652 172.80734444 C0.19111666 170.04678019 0.19111666 170.04678019 -1 168 C-1.10605127 165.9604381 -1.14667073 163.91737612 -1.15821838 161.87509155 C-1.1680072 160.56814835 -1.17779602 159.26120514 -1.18788147 157.91465759 C-1.19378607 156.45791663 -1.19959649 155.00117527 -1.20532227 153.54443359 C-1.21489797 152.0170617 -1.22490787 150.48969247 -1.23532104 148.96232605 C-1.26240949 144.80763534 -1.28339768 140.65293322 -1.30332303 136.4982028 C-1.32515833 132.15931324 -1.35255901 127.82045899 -1.37937927 123.4815979 C-1.42933944 115.2616378 -1.47426592 107.04165812 -1.51740164 98.82165968 C-1.56674564 89.46505704 -1.62167427 80.10848982 -1.67708123 70.75192142 C-1.7909523 51.50131382 -1.89778015 32.25067281 -2 13 C-5.2020765 12.65462479 -5.2020765 12.65462479 -7.4453125 15.3359375 C-8.34703878 16.3414022 -9.23997773 17.35480142 -10.125 18.375 C-10.58003906 18.88289063 -11.03507812 19.39078125 -11.50390625 19.9140625 C-14.03185806 22.76067029 -14.03185806 22.76067029 -16 26 C-16.66 26 -17.32 26 -18 26 C-18.0928125 26.928125 -18.0928125 26.928125 -18.1875 27.875 C-18.455625 28.57625 -18.72375 29.2775 -19 30 C-20.66666667 30.66666667 -22.33333333 31.33333333 -24 32 C-24.88693303 34.04105639 -24.88693303 34.04105639 -25 36 C-25.60199219 36.09667969 -26.20398438 36.19335938 -26.82421875 36.29296875 C-29.46399479 37.15077748 -30.17544392 38.10931502 -31.8125 40.3125 C-34.25585344 43.33326283 -36.44118144 44.86707384 -39.93359375 46.6328125 C-43.45370507 48.96180865 -46.27099646 52.0831407 -49.18041992 55.11621094 C-51.37101582 57.39721735 -53.35213165 59.23475444 -56 61 C-57.485 60.505 -57.485 60.505 -59 60 C-58.15703369 59.16227051 -57.31406738 58.32454102 -56.44555664 57.46142578 C-53.32519605 54.35913552 -50.20812177 51.25356127 -47.09204102 48.14697266 C-45.74170225 46.80166944 -44.39046825 45.45726419 -43.03833008 44.11376953 C-41.09742173 42.18496072 -39.15973265 40.25296869 -37.22265625 38.3203125 C-36.61535172 37.71816925 -36.00804718 37.116026 -35.38233948 36.49563599 C-32.31629378 33.53349058 -32.31629378 33.53349058 -30 30 C-29.34 30 -28.68 30 -28 30 C-28 29.34 -28 28.68 -28 28 C-26.42578125 26.484375 -26.42578125 26.484375 -24.3125 24.75 C-20.74663606 21.724038 -17.92488753 18.63634666 -15 15 C-13.34595374 13.32080777 -11.67760324 11.65565785 -10 10 C-9.11699219 9.11699219 -8.23398437 8.23398437 -7.32421875 7.32421875 C-4.8828125 4.8828125 -2.44140625 2.44140625 0 0 Z " fill="#7119D5" transform="translate(376,33)"/>
<path d="M0 0 C4.07384003 0.3639079 6.04720671 2.67864294 8.84106445 5.48461914 C9.30832947 5.94983978 9.77559448 6.41506042 10.25701904 6.89437866 C11.79979573 8.43414833 13.33155683 9.98439779 14.86328125 11.53515625 C15.93880208 12.61373768 17.01491728 13.69172671 18.09159851 14.76914978 C20.34976677 17.03192221 22.60293807 19.29951361 24.85229492 21.57104492 C27.71673686 24.46359936 30.58962321 27.34756841 33.465909 30.2283411 C36.22651748 32.9941461 38.98244595 35.76459679 41.73828125 38.53515625 C42.25614008 39.0548958 42.77399891 39.57463535 43.30755043 40.11012459 C44.79786192 41.60742386 46.28477035 43.10802396 47.77075195 44.60961914 C48.61362259 45.45931778 49.45649323 46.30901642 50.3249054 47.1844635 C52.35787474 49.32416331 54.29305408 51.48225066 56.21490479 53.71788025 C60.51839784 58.6697089 65.14418436 63.27645488 69.79077148 67.90429688 C70.75752407 68.87076673 71.72405521 69.83745813 72.69038391 70.80435181 C75.29095898 73.40521152 77.89458594 76.00299587 80.49880862 78.60020256 C83.22855633 81.32366103 85.95543598 84.0499882 88.68263245 86.77600098 C93.83695698 91.92722852 98.99382326 97.0759036 104.1516276 102.22364664 C110.02791182 108.0887188 115.90132644 113.9566611 121.77451217 119.82483578 C133.8465043 131.88640052 145.92206131 143.94438996 158 156 C155 156 155 156 152.4765625 153.69921875 C151.51846983 152.70253623 150.56821695 151.69827168 149.625 150.6875 C145.56525216 146.36565306 141.62236179 143.37361808 136.375 140.625 C133.5639609 138.70165746 132.59799143 136.9875492 131 134 C128.03102068 129.16989464 124.63062805 125.3391422 120.64257812 121.36791992 C120.0144371 120.73466797 119.38629608 120.10141602 118.73912048 119.44897461 C116.67494681 117.37097374 114.60350233 115.3004112 112.53125 113.23046875 C111.08901333 111.78434318 109.64700003 110.33799481 108.2052002 108.89143372 C105.1891867 105.86797415 102.16934702 102.84839927 99.14697266 99.83129883 C95.27134548 95.96148341 91.40724178 92.08038233 87.54611969 88.19610119 C84.57454191 85.2098117 81.59608772 82.23045637 78.61558533 79.25307655 C77.18747414 77.82445151 75.76172938 76.39345686 74.33839417 74.96007347 C72.35181095 72.96118473 70.35596157 70.97203189 68.35742188 68.98510742 C67.77028915 68.39033096 67.18315643 67.7955545 66.57823181 67.18275452 C63.78459428 64.4249642 61.86350503 62.72444673 58 62 C58 61.34 58 60.68 58 60 C57.34 60 56.68 60 56 60 C55.505 58.02 55.505 58.02 55 56 C53.68 56 52.36 56 51 56 C50.71261963 54.89841553 50.42523926 53.79683105 50.12915039 52.66186523 C47.72622196 46.30671863 42.70037487 42.0614327 37.93359375 37.41015625 C36.93274007 36.41610212 35.93292409 35.42100222 34.93409729 34.4249115 C32.3172668 31.82141974 29.68535112 29.23370451 27.05029297 26.64868164 C24.89604835 24.52998238 22.75313009 22.4000243 20.61064053 20.26944828 C18.05551299 17.72908656 15.4952006 15.19398242 12.93359375 12.66015625 C12.4451895 12.17666277 11.95678524 11.69316929 11.45358086 11.19502449 C10.07529244 9.83298328 8.69289625 8.47510258 7.31030273 7.11743164 C6.52437241 6.34436172 5.73844208 5.57129181 4.92869568 4.77479553 C3.1164819 2.94300506 3.1164819 2.94300506 1 2 C1 110.9 1 219.8 1 332 C1.33 331.34 1.66 330.68 2 330 C3.32 330 4.64 330 6 330 C6 329.01 6 328.02 6 327 C7.6458588 325.96611093 9.31773594 324.97353244 11 324 C12.91673106 322.24496704 14.74784792 320.48620851 16.5625 318.6328125 C17.33315796 317.8579097 17.33315796 317.8579097 18.11938477 317.06735229 C19.75104559 315.42456876 21.37560852 313.77496865 23 312.125 C24.09067866 311.02427647 25.18182036 309.92401157 26.2734375 308.82421875 C28.28804291 306.79335542 30.29986538 304.75982035 32.30859375 302.72314453 C34.86272204 300.13889681 37.42841203 297.56686078 40 295 C40.64582031 294.35417969 41.29164062 293.70835937 41.95703125 293.04296875 C45.3671875 289.6328125 48.77734375 286.22265625 52.1875 282.8125 C53.17496216 281.82382935 53.17496216 281.82382935 54.18237305 280.81518555 C55.70554679 279.29405771 57.23660804 277.78083354 58.76953125 276.26953125 C61.49337884 273.49798055 63.96246303 270.55722284 66.44921875 267.57421875 C66.96097656 267.05472656 67.47273438 266.53523438 68 266 C68.66 266 69.32 266 70 266 C70 265.34 70 264.68 70 264 C71.64453125 262.2734375 71.64453125 262.2734375 73.8125 260.375 C74.87404297 259.42753906 74.87404297 259.42753906 75.95703125 258.4609375 C78 257 78 257 81 257 C56 282 31 307 6 332 C5.28200084 332.87268666 5.28200084 332.87268666 4.54949665 333.76300335 C4.03816276 334.17121224 3.52682886 334.57942114 3 335 C0.90315646 334.57731229 0.90315646 334.57731229 -1 334 C-1.02286459 291.59479118 -1.04049732 249.18958308 -1.05106533 206.78436932 C-1.05231611 201.78357368 -1.05361042 196.78277805 -1.05493164 191.78198242 C-1.05519395 190.78637001 -1.05545626 189.7907576 -1.05572652 188.76497512 C-1.0600836 172.62196551 -1.06797136 156.47895944 -1.0771528 140.33595193 C-1.08648828 123.7846557 -1.09205539 107.23336133 -1.09408849 90.68206257 C-1.09546394 80.46041557 -1.0998157 70.23877858 -1.10791647 60.01713466 C-1.11318263 53.01774228 -1.11480459 46.01835512 -1.11350138 39.0189609 C-1.11285779 34.97437294 -1.11387779 30.92980254 -1.11920547 26.88521767 C-1.1240395 23.18862781 -1.12433863 19.49206747 -1.12089889 15.79547631 C-1.12027026 13.81189194 -1.12461196 11.82830796 -1.12908131 9.84472853 C-1.12709026 8.68276675 -1.12509921 7.52080498 -1.12304783 6.32363224 C-1.12342755 5.312437 -1.12380727 4.30124176 -1.1241985 3.25940424 C-1 1 -1 1 0 0 Z " fill="#5A144F" transform="translate(42,34)"/>
<path d="M0 0 C0.99 0.33 1.98 0.66 3 1 C3 111.22 3 221.44 3 335 C1.68 335.33 0.36 335.66 -1 336 C-2.65789795 334.95683289 -2.65789795 334.95683289 -4.29980469 333.29956055 C-4.92014587 332.68529709 -5.54048706 332.07103363 -6.17962646 331.43815613 C-6.83706848 330.76118179 -7.4945105 330.08420746 -8.171875 329.38671875 C-9.1955014 328.35959526 -9.1955014 328.35959526 -10.23980713 327.3117218 C-11.68123398 325.86054275 -13.11661704 324.40333944 -14.54638672 322.94067383 C-16.74281794 320.69484359 -18.95735588 318.4682265 -21.17578125 316.24414062 C-22.57141382 314.83442279 -23.96598211 313.42365037 -25.359375 312.01171875 C-26.02491394 311.34081711 -26.69045288 310.66991547 -27.37615967 309.97868347 C-28.28775848 309.04310356 -28.28775848 309.04310356 -29.21777344 308.08862305 C-29.75642029 307.5393364 -30.29506714 306.99004974 -30.85003662 306.42411804 C-32 305 -32 305 -32 303 C-33.32 302.34 -34.64 301.68 -36 301 C-36 300.34 -36 299.68 -36 299 C-36.66 299 -37.32 299 -38 299 C-38 298.34 -38 297.68 -38 297 C-38.66 297 -39.32 297 -40 297 C-40 296.34 -40 295.68 -40 295 C-40.53012695 294.79439453 -41.06025391 294.58878906 -41.60644531 294.37695312 C-44.99820684 292.42575616 -47.56050587 289.72455618 -50.296875 286.96875 C-51.18732513 286.08117004 -51.18732513 286.08117004 -52.09576416 285.17565918 C-53.34543718 283.92734419 -54.59259992 282.67651177 -55.83740234 281.42333984 C-57.75007952 279.49992003 -59.67323119 277.58743901 -61.59765625 275.67578125 C-62.81053798 274.46157861 -64.02279952 273.24675607 -65.234375 272.03125 C-65.81241882 271.45725464 -66.39046265 270.88325928 -66.98602295 270.29187012 C-71 266.22993434 -71 266.22993434 -71 264 C-71.66 264 -72.32 264 -73 264 C-73 263.34 -73 262.68 -73 262 C-68.57649669 262.50554324 -66.21928398 263.95015202 -63 267 C-62.319375 268.175625 -62.319375 268.175625 -61.625 269.375 C-59.75017181 272.40356862 -57.61600771 274.10262786 -54.88671875 276.33984375 C-52.26774414 278.64432451 -50.09354034 281.24740687 -47.84375 283.90625 C-45.22314034 286.88219656 -42.37375256 289.60223191 -39.50390625 292.3359375 C-38 294 -38 294 -38 296 C-36.68 296.33 -35.36 296.66 -34 297 C-34 297.66 -34 298.32 -34 299 C-33.34 299 -32.68 299 -32 299 C-29.875 300.875 -29.875 300.875 -28 303 C-28 303.66 -28 304.32 -28 305 C-27.34 305 -26.68 305 -26 305 C-26 305.66 -26 306.32 -26 307 C-25.34 307 -24.68 307 -24 307 C-22.66796875 308.35546875 -22.66796875 308.35546875 -21.1875 310.1875 C-17.719303 314.36109299 -14.1670997 318.08966223 -9.875 321.4375 C-6.83136148 324.15030825 -5.76737126 326.38841525 -4 330 C-2.36822286 331.3758121 -0.70451158 332.71540051 1 334 C0.99907821 333.29749807 0.99815641 332.59499615 0.99720669 331.87120628 C0.96694446 308.37247713 0.94832151 284.87374591 0.9375 261.375 C0.9370657 260.45963691 0.93663139 259.54427382 0.93618393 258.60117245 C0.90789296 197.27415069 1.10147136 135.95071727 1.5 74.625 C1.50597372 73.70378577 1.51194743 72.78257154 1.51810217 71.83344173 C1.66923547 48.55555986 1.82922855 25.27774619 2 2 C0.71804237 3.10984207 -0.56223211 4.22162851 -1.84179688 5.33422852 C-2.55493042 5.95314468 -3.26806396 6.57206085 -4.00280762 7.20973206 C-6.34906625 9.31290031 -8.44409169 11.55117786 -10.5 13.9375 C-11.50546875 15.09572266 -11.50546875 15.09572266 -12.53125 16.27734375 C-13.0159375 16.84582031 -13.500625 17.41429688 -14 18 C-14.66 17.67 -15.32 17.34 -16 17 C-10.94647258 11.03651266 -5.58288259 5.46894621 0 0 Z " fill="#1A2045" transform="translate(376,33)"/>
<path d="M0 0 C0.99 3.96 0.99 3.96 2 8 C-0.55088723 6.94446046 -1.85389582 6.20089325 -3.5 3.9375 C-5.24509481 1.6834192 -6.23423473 1.38148486 -9 1 C-9.39698861 1.88329876 -9.39698861 1.88329876 -9.80199718 2.78444195 C-11.04260496 5.0787926 -12.33825004 6.59992975 -14.16804504 8.44892883 C-14.81987259 9.11217667 -15.47170013 9.7754245 -16.14328003 10.45877075 C-16.85759186 11.1753183 -17.57190369 11.89186584 -18.30786133 12.63012695 C-19.06090042 13.39309586 -19.81393951 14.15606476 -20.58979797 14.94215393 C-23.08159924 17.46315797 -25.58112155 19.97631458 -28.08203125 22.48828125 C-29.81598059 24.23373259 -31.54992316 25.97919065 -33.28385925 27.72465515 C-36.91915724 31.38095864 -40.55908784 35.03258547 -44.20141602 38.68188477 C-48.87594875 43.36741329 -53.5316319 48.07121335 -58.18315601 52.77956867 C-61.75641591 56.38999451 -65.34294179 59.98701353 -68.9332943 63.5804348 C-70.65630569 65.30951515 -72.37429495 67.0436147 -74.08719826 68.78270912 C-76.47892988 71.20839683 -78.88869899 73.61461272 -81.30395508 76.0168457 C-82.01219421 76.7435144 -82.72043335 77.47018311 -83.45013428 78.21887207 C-84.1104213 78.86802078 -84.77070831 79.51716949 -85.45100403 80.18598938 C-86.01899625 80.75691472 -86.58698847 81.32784006 -87.17219257 81.91606617 C-89 83 -89 83 -91.58382702 82.79823589 C-94.94151782 81.68894888 -96.67581532 79.53716754 -99 77 C-100.46877835 75.52006897 -101.94385273 74.0463756 -103.4230957 72.5769043 C-115.94873047 60.05126953 -128.47436523 47.52563477 -141 35 C-139.515 34.505 -139.515 34.505 -138 34 C-137.01 34.66 -136.02 35.32 -135 36 C-135 36.66 -135 37.32 -135 38 C-134.34 38 -133.68 38 -133 38 C-133 38.66 -133 39.32 -133 40 C-132.34 40 -131.68 40 -131 40 C-131 40.66 -131 41.32 -131 42 C-129.68 42.33 -128.36 42.66 -127 43 C-127 43.66 -127 44.32 -127 45 C-126.34 45 -125.68 45 -125 45 C-125 46.32 -125 47.64 -125 49 C-121.535 49.495 -121.535 49.495 -118 50 C-118 50.66 -118 51.32 -118 52 C-117.34 52 -116.68 52 -116 52 C-114.44921875 53.64453125 -114.44921875 53.64453125 -112.6875 55.8125 C-110.50540893 58.41001008 -109.00826223 59.99507782 -106.0625 61.75 C-105.0415625 62.36875 -105.0415625 62.36875 -104 63 C-104 64.32 -104 65.64 -104 67 C-102.68 67.66 -101.36 68.32 -100 69 C-100 69.99 -100 70.98 -100 72 C-99.01 72 -98.02 72 -97 72 C-97 72.66 -97 73.32 -97 74 C-96.34 74 -95.68 74 -95 74 C-95 74.66 -95 75.32 -95 76 C-92.36 76 -89.72 76 -87 76 C-85.43727811 71.60746227 -85.43727811 71.60746227 -85 67 C-84.34 67 -83.68 67 -83 67 C-83 67.66 -83 68.32 -83 69 C-78.04437087 65.26978687 -78.04437087 65.26978687 -75 60 C-74.01 60 -73.02 60 -72 60 C-72 59.34 -72 58.68 -72 58 C-71.360625 57.87625 -70.72125 57.7525 -70.0625 57.625 C-69.381875 57.41875 -68.70125 57.2125 -68 57 C-67.505 56.01 -67.505 56.01 -67 55 C-66.34 55 -65.68 55 -65 55 C-65 54.01 -65 53.02 -65 52 C-63.02 51.67 -61.04 51.34 -59 51 C-58.9175 50.38125 -58.835 49.7625 -58.75 49.125 C-57.76374561 46.33061257 -56.56609601 46.283048 -54 45 C-53.19471111 42.94999129 -53.19471111 42.94999129 -53 41 C-52.34 41 -51.68 41 -51 41 C-51 40.01 -51 39.02 -51 38 C-49.02 37.67 -47.04 37.34 -45 37 C-45 36.01 -45 35.02 -45 34 C-44.01 34 -43.02 34 -42 34 C-41.01 31.525 -41.01 31.525 -40 29 C-39.01 29 -38.02 29 -37 29 C-37 28.01 -37 27.02 -37 26 C-36.01 25.67 -35.02 25.34 -34 25 C-33.505 23.515 -33.505 23.515 -33 22 C-30.9375 21.3125 -30.9375 21.3125 -29 21 C-28.67 19.68 -28.34 18.36 -28 17 C-27.34 17 -26.68 17 -26 17 C-25.505 15.515 -25.505 15.515 -25 14 C-24.01 13.67 -23.02 13.34 -22 13 C-21.26676204 10.98491642 -21.26676204 10.98491642 -21 9 C-20.38125 8.9175 -19.7625 8.835 -19.125 8.75 C-16.85609195 8.21402157 -16.85609195 8.21402157 -16 6.1875 C-15.67 5.465625 -15.34 4.74375 -15 4 C-12.98227065 1.56480941 -11.63230828 0.21631599 -8.625 -0.8125 C-5.59448136 -1.02896562 -2.96580893 -0.62075071 0 0 Z " fill="#3E1C78" transform="translate(301,287)"/>
<path d="M0 0 C0.33 0 0.66 0 1 0 C1 54.12 1 108.24 1 164 C-3 162 -3 162 -4 160 C-2.68 160.33 -1.36 160.66 0 161 C-0.33 109.85 -0.66 58.7 -1 6 C-1.99 7.65 -2.98 9.3 -4 11 C-5.32 11 -6.64 11 -8 11 C-8.37125 11.88171875 -8.37125 11.88171875 -8.75 12.78125 C-10.5806943 16.03073238 -13.25615757 17.89836274 -16.125 20.21875 C-18.07323084 22.0695693 -18.83516939 23.61397601 -20 26 C-21.65625 27.703125 -21.65625 27.703125 -23.5 29.25 C-24.1084375 29.77078125 -24.716875 30.2915625 -25.34375 30.828125 C-27 32 -27 32 -29 32 C-29.33 32.99 -29.66 33.98 -30 35 C-30.66 35 -31.32 35 -32 35 C-32.2475 35.804375 -32.495 36.60875 -32.75 37.4375 C-33.36875 38.7059375 -33.36875 38.7059375 -34 40 C-34.61617188 40.15339844 -35.23234375 40.30679688 -35.8671875 40.46484375 C-38.5127004 41.12864461 -39.50336741 42.16549733 -41.375 44.125 C-41.97828125 44.75277344 -42.5815625 45.38054687 -43.203125 46.02734375 C-45.40315249 48.44259132 -47.49655974 50.93704874 -49.59375 53.44140625 C-51.51474058 55.57050414 -53.75318004 57.22619477 -56 59 C-57.35386936 60.65002828 -58.68678142 62.3174387 -60 64 C-64.30938508 68.56420089 -69.07287043 72.07489332 -74.16015625 75.71875 C-76.91646406 77.93289548 -78.9147434 80.15965048 -81 83 C-80.91939744 80.2595131 -80.5369489 78.52681778 -78.55078125 76.578125 C-77.30849171 75.5756701 -76.0607341 74.5799668 -74.80859375 73.58984375 C-72.72425465 71.89809636 -72.72425465 71.89809636 -70.8125 68.6875 C-67.78520605 64.12141543 -63.31899771 61.42223674 -58.9296875 58.26171875 C-55.68213228 55.75460612 -53.22742176 53.0800077 -50.65625 49.91015625 C-48.83771552 47.812837 -46.87556266 46.09535419 -44.75 44.3125 C-41.74058883 41.77096274 -39.95222728 39.43963855 -38 36 C-36.33784732 34.66104368 -34.67036393 33.32869858 -33 32 C-31.89696106 30.76735398 -30.81547746 29.51525448 -29.75 28.25 C-26.46102928 24.38527948 -22.83369605 21.13035512 -19.00390625 17.8125 C-16.70436793 15.73260569 -14.86862217 13.46925072 -13 11 C-9.6246338 7.35815752 -6.16698908 4.68539296 -2 2 C-1.34 1.34 -0.68 0.68 0 0 Z " fill="#1967FE" transform="translate(376,203)"/>
<path d="M0 0 C0.495 0.99 0.495 0.99 1 2 C-1.34238623 7.20311562 -5.67516621 10.96313773 -9.66015625 14.92578125 C-10.40583359 15.67337204 -11.15151093 16.42096283 -11.91978455 17.19120789 C-13.49167235 18.76445324 -15.06607492 20.3351895 -16.64282227 21.90356445 C-19.06435768 24.31434943 -21.47499192 26.73566761 -23.88476562 29.15820312 C-25.41342122 30.68553794 -26.94269666 32.21225267 -28.47265625 33.73828125 C-29.55861839 34.83031609 -29.55861839 34.83031609 -30.66651917 35.94441223 C-31.33739059 36.60897934 -32.00826202 37.27354645 -32.69946289 37.95825195 C-33.2899794 38.54717728 -33.88049591 39.1361026 -34.48890686 39.74287415 C-36 41 -36 41 -38 41 C-38.0825 41.7425 -38.165 42.485 -38.25 43.25 C-39.16787454 46.61553999 -40.33881328 47.7823444 -43 50 C-43.70640625 50.37125 -44.4128125 50.7425 -45.140625 51.125 C-49.2932414 53.84802715 -52.54091394 57.33294693 -56 60.875 C-56.69867188 61.58269531 -57.39734375 62.29039062 -58.1171875 63.01953125 C-59.47275247 64.39299991 -60.82634716 65.76841664 -62.17773438 67.14599609 C-63.72506163 68.72027305 -65.28030551 70.28551699 -66.84375 71.84375 C-68.41680463 73.41680463 -69.96576883 75.01405727 -71.5 76.625 C-73.88688095 78.8925369 -76.16727456 80.36000106 -79 82 C-81.08164915 83.76139543 -82.1303256 85.22806981 -83.5 87.625 C-85 90 -85 90 -88 91 C-88.71111538 92.31016683 -89.37378966 93.64719446 -90 95 C-91.94990371 97.41847697 -94.13624124 99.59759513 -96.3125 101.8125 C-96.88162109 102.42287109 -97.45074219 103.03324219 -98.03710938 103.66210938 C-102.25806767 107.96060536 -102.25806767 107.96060536 -105.6484375 108.140625 C-108.45627244 106.77868513 -110.18121012 105.21328411 -112.3125 102.9375 C-113.35857422 101.83728516 -113.35857422 101.83728516 -114.42578125 100.71484375 C-114.94527344 100.14894531 -115.46476563 99.58304687 -116 99 C-115.505 98.01 -115.505 98.01 -115 97 C-112.36 99.64 -109.72 102.28 -107 105 C-105.02 104.01 -105.02 104.01 -103 103 C-101.515 102.505 -101.515 102.505 -100 102 C-99.30995269 100.67861553 -98.64706913 99.34295337 -98 98 C-96.72982131 96.55387522 -95.40177144 95.15777714 -94.03903198 93.79852295 C-93.21169556 92.96843719 -92.38435913 92.13835144 -91.5319519 91.28311157 C-90.62277008 90.3811203 -89.71358826 89.47912903 -88.77685547 88.54980469 C-87.81062587 87.58413941 -86.8448368 86.61803317 -85.87945557 85.65151978 C-83.26015009 83.03164059 -80.63472488 80.41797275 -78.00816107 77.80537319 C-75.2632695 75.07298585 -72.52404229 72.33493204 -69.78421021 69.59747314 C-64.59629454 64.41577315 -59.40330179 59.23919242 -54.2084676 54.06442952 C-48.29407035 48.17238854 -42.38535248 42.27466615 -36.47710586 36.37645864 C-24.32438093 24.24463768 -12.16453966 12.1199741 0 0 Z " fill="#541F8C" transform="translate(316,94)"/>
<path d="M0 0 C3.19771119 1.5988556 4.66449155 2.41598693 7.02441406 4.79736328 C7.86483246 5.63800827 7.86483246 5.63800827 8.722229 6.49563599 C9.31404968 7.09777924 9.90587036 7.69992249 10.515625 8.3203125 C11.13145447 8.93897186 11.74728394 9.55763123 12.3817749 10.19503784 C14.34260336 12.16703814 16.29635301 14.14588737 18.25 16.125 C19.58026799 17.46530164 20.910992 18.80515083 22.2421875 20.14453125 C25.5001015 23.42446589 28.75168533 26.71055942 32 30 C31.01 30.33 30.02 30.66 29 31 C28.55269531 30.48050781 28.10539062 29.96101563 27.64453125 29.42578125 C27.03996094 28.72839844 26.43539062 28.03101562 25.8125 27.3125 C25.22082031 26.62800781 24.62914063 25.94351563 24.01953125 25.23828125 C21.76052199 22.7345824 19.39669197 20.37251784 17 18 C15.83887919 16.8290807 14.6787903 15.65713755 13.51953125 14.484375 C12.28389291 13.23954488 11.04821518 11.99475385 9.8125 10.75 C9.18408203 10.11320312 8.55566406 9.47640625 7.90820312 8.8203125 C7.30556641 8.21445312 6.70292969 7.60859375 6.08203125 6.984375 C5.53780518 6.43491211 4.9935791 5.88544922 4.43286133 5.31933594 C3.0161937 3.89273848 3.0161937 3.89273848 1 3 C1 110.58 1 218.16 1 329 C1.66 329.33 2.32 329.66 3 330 C2.01 330 1.02 330 0 330 C0 221.1 0 112.2 0 0 Z " fill="#A5288E" transform="translate(43,36)"/>
<path d="M0 0 C3.61322401 1.806612 4.83748791 2.66418971 7.25 5.625 C8.03117187 6.57246094 8.03117187 6.57246094 8.828125 7.5390625 C9.40820312 8.26222656 9.40820312 8.26222656 10 9 C6.36185181 7.38304525 4.30701392 5.64561113 1 3 C1 108.6 1 214.2 1 323 C1.99 323 2.98 323 4 323 C4 323.66 4 324.32 4 325 C2.68 325 1.36 325 0 325 C0 217.75 0 110.5 0 0 Z " fill="#CE14A6" transform="translate(44,39)"/>
<path d="M0 0 C0.33 0 0.66 0 1 0 C1 29.37 1 58.74 1 89 C1.495 88.01 1.495 88.01 2 87 C3.32 87 4.64 87 6 87 C6 86.01 6 85.02 6 84 C7.6458588 82.96611093 9.31773594 81.97353244 11 81 C12.91673106 79.24496704 14.74784792 77.48620851 16.5625 75.6328125 C17.07627197 75.11621063 17.59004395 74.59960876 18.11938477 74.06735229 C19.75104559 72.42456876 21.37560852 70.77496865 23 69.125 C24.09067866 68.02427647 25.18182036 66.92401157 26.2734375 65.82421875 C28.28804291 63.79335542 30.29986538 61.75982035 32.30859375 59.72314453 C34.86272204 57.13889681 37.42841203 54.56686078 40 52 C40.64582031 51.35417969 41.29164062 50.70835937 41.95703125 50.04296875 C45.3671875 46.6328125 48.77734375 43.22265625 52.1875 39.8125 C52.84580811 39.15338623 53.50411621 38.49427246 54.18237305 37.81518555 C55.70554679 36.29405771 57.23660804 34.78083354 58.76953125 33.26953125 C61.49337884 30.49798055 63.96246303 27.55722284 66.44921875 24.57421875 C66.96097656 24.05472656 67.47273438 23.53523438 68 23 C68.66 23 69.32 23 70 23 C70 22.34 70 21.68 70 21 C71.64453125 19.2734375 71.64453125 19.2734375 73.8125 17.375 C74.52019531 16.74335938 75.22789063 16.11171875 75.95703125 15.4609375 C78 14 78 14 81 14 C56 39 31 64 6 89 C5.48395108 89.56761142 4.96790216 90.13522284 4.4362154 90.7200346 C3.72528878 91.35361747 3.72528878 91.35361747 3 92 C0.8125 91.6875 0.8125 91.6875 -1 91 C-1.02313398 79.43038672 -1.0409205 67.8607789 -1.05181217 56.29114723 C-1.05703868 50.91935028 -1.06413214 45.54756911 -1.07543945 40.17578125 C-1.08627654 34.99517028 -1.09227859 29.81457452 -1.09487724 24.63395309 C-1.09673 22.65393204 -1.10034778 20.67391185 -1.10573006 18.69389725 C-1.11295136 15.92823717 -1.11399048 13.16264059 -1.11352539 10.39697266 C-1.11712067 9.57194748 -1.12071594 8.7469223 -1.12442017 7.89689636 C-1.11405216 2.22810432 -1.11405216 2.22810432 0 0 Z " fill="#430E3A" transform="translate(42,277)"/>
<path d="M0 0 C1.32 0.33 2.64 0.66 4 1 C4 1.99 4 2.98 4 4 C2.68 4 1.36 4 0 4 C0 4.99 0 5.98 0 7 C-1.63064764 8.05771739 -3.30280873 9.05273046 -5 10 C-5.556875 10.556875 -6.11375 11.11375 -6.6875 11.6875 C-7.120625 12.120625 -7.55375 12.55375 -8 13 C-8.66 13 -9.32 13 -10 13 C-10.31904297 14.05767578 -10.31904297 14.05767578 -10.64453125 15.13671875 C-12.35200264 18.74356753 -14.83141265 21.11331658 -17.6875 23.8125 C-18.77795443 24.87042782 -19.86650265 25.93032404 -20.953125 26.9921875 C-21.47841797 27.50491211 -22.00371094 28.01763672 -22.54492188 28.54589844 C-25.02144895 31.02076341 -27.28047884 33.6693883 -29.5546875 36.328125 C-33.31443175 40.67723456 -37.47152705 44.47785437 -42 48 C-42.66 48 -43.32 48 -44 48 C-44.226875 48.5775 -44.45375 49.155 -44.6875 49.75 C-46.34761639 52.59591381 -48.39187957 53.99841921 -51 56 C-52.3303125 57.36125 -52.3303125 57.36125 -53.6875 58.75 C-56 61 -56 61 -58 61 C-58.26167969 61.58652344 -58.52335937 62.17304688 -58.79296875 62.77734375 C-61.19206654 67.19509987 -65.10962812 70.96029547 -69.5 73.375 C-73.59678717 76.03791166 -76.15090423 80.08351965 -79 84 C-79.66 83.67 -80.32 83.34 -81 83 C-76.19571345 76.61312494 -71.03484088 70.8358722 -65.30175781 65.28808594 C-61.94798698 62.02790871 -58.96105459 58.62186916 -56 55 C-52.29101295 51.1055636 -48.41035999 47.73545919 -44.046875 44.59375 C-40.04000812 41.68506145 -37.03684925 38.94790402 -34 35 C-32.54732817 33.80558094 -31.09355088 32.6123407 -29.625 31.4375 C-27.78976593 29.81402371 -26.26733921 28.05990202 -24.6875 26.1875 C-21.44185477 22.36613056 -17.86092536 19.15692543 -14.0703125 15.88671875 C-12.26070807 14.23758867 -10.75741618 12.60732249 -9.25 10.6875 C-7 8 -7 8 -4.3125 6.4375 C-1.46056551 4.66467586 -0.93918351 3.15907181 0 0 Z " fill="#9F06DF" transform="translate(208,201)"/>
<path d="M0 0 C2.16874252 0.50603992 3.99967627 0.99983813 6 2 C6 2.66 6 3.32 6 4 C6.66 4 7.32 4 8 4 C8 4.66 8 5.32 8 6 C8.66 6 9.32 6 10 6 C10 6.66 10 7.32 10 8 C11.32 8.33 12.64 8.66 14 9 C14 9.66 14 10.32 14 11 C14.66 11 15.32 11 16 11 C16 12.32 16 13.64 16 15 C18.31 15.33 20.62 15.66 23 16 C23 16.66 23 17.32 23 18 C23.66 18 24.32 18 25 18 C26.55078125 19.64453125 26.55078125 19.64453125 28.3125 21.8125 C30.49459107 24.41001008 31.99173777 25.99507782 34.9375 27.75 C35.618125 28.1625 36.29875 28.575 37 29 C37 30.32 37 31.64 37 33 C38.32 33.66 39.64 34.32 41 35 C41 35.99 41 36.98 41 38 C41.99 38 42.98 38 44 38 C44 38.66 44 39.32 44 40 C44.66 40 45.32 40 46 40 C46 40.66 46 41.32 46 42 C48.64 42 51.28 42 54 42 C55.56272189 37.60746227 55.56272189 37.60746227 56 33 C56.66 33 57.32 33 58 33 C58 33.66 58 34.32 58 35 C58.45375 34.505 58.9075 34.01 59.375 33.5 C61 32 61 32 63 32 C62.67 33.32 62.34 34.64 62 36 C61.34 36 60.68 36 60 36 C60 36.99 60 37.98 60 39 C59.01 39 58.02 39 57 39 C56.896875 39.639375 56.79375 40.27875 56.6875 40.9375 C56.460625 41.618125 56.23375 42.29875 56 43 C55.01 43.33 54.02 43.66 53 44 C52.505 44.99 52.505 44.99 52 46 C50.68 46 49.36 46 48 46 C48 45.34 48 44.68 48 44 C47.04407959 43.85828369 46.08815918 43.71656738 45.10327148 43.57055664 C39.24340097 41.87470598 35.48509865 37.11750985 31.34765625 32.87109375 C30.44752304 31.96625748 29.54738983 31.0614212 28.61997986 30.12916565 C26.72550163 28.22059091 24.8362807 26.30824349 22.95483398 24.38696289 C20.53846752 21.91944124 18.10914877 19.46521116 15.67452335 17.0157156 C11.65520897 12.97086839 7.6443267 8.91752156 3.65258789 4.84545898 C2.94534073 4.12535141 2.23809357 3.40524384 1.50941467 2.66331482 C0 1 0 1 0 0 Z " fill="#5914DC" transform="translate(160,321)"/>
<path d="M0 0 C6.22954836 3.64077524 10.9940129 8.72703361 16.04443359 13.81738281 C17.04980202 14.82331601 18.05561228 15.82880777 19.06182861 16.83389282 C21.7807583 19.55225057 24.49349324 22.27671415 27.20513105 25.00234318 C30.04426225 27.85400818 32.88908838 30.69998046 35.73330688 33.54656982 C41.1132737 38.93274362 46.48812348 44.32399365 51.86113894 49.71710086 C57.98053623 55.85888148 64.10563858 61.99495904 70.23121905 68.13057184 C82.82715664 80.74739372 95.41593702 93.37133488 108 106 C105 106 105 106 102.4765625 103.69921875 C101.51846983 102.70253623 100.56821695 101.69827168 99.625 100.6875 C95.56525216 96.36565306 91.62236179 93.37361808 86.375 90.625 C83.5639609 88.70165746 82.59799143 86.9875492 81 84 C78.03102068 79.16989464 74.63062805 75.3391422 70.64257812 71.36791992 C70.0144371 70.73466797 69.38629608 70.10141602 68.73912048 69.44897461 C66.67494681 67.37097374 64.60350233 65.3004112 62.53125 63.23046875 C61.08901333 61.78434318 59.64700003 60.33799481 58.2052002 58.89143372 C55.1891867 55.86797415 52.16934702 52.84839927 49.14697266 49.83129883 C45.27134548 45.96148341 41.40724178 42.08038233 37.54611969 38.19610119 C34.57454191 35.2098117 31.59608772 32.23045637 28.61558533 29.25307655 C27.18747414 27.82445151 25.76172938 26.39345686 24.33839417 24.96007347 C22.35181095 22.96118473 20.35596157 20.97203189 18.35742188 18.98510742 C17.77028915 18.39033096 17.18315643 17.7955545 16.57823181 17.18275452 C13.78459428 14.4249642 11.86350503 12.72444673 8 12 C8 11.34 8 10.68 8 10 C7.34 10 6.68 10 6 10 C5.67 8.68 5.34 7.36 5 6 C3.68 6 2.36 6 1 6 C0.67 4.02 0.34 2.04 0 0 Z " fill="#521348" transform="translate(92,84)"/>
<path d="M0 0 C4.42350331 0.50554324 6.78071602 1.95015202 10 5 C10.45375 5.78375 10.9075 6.5675 11.375 7.375 C13.24982819 10.40356862 15.38399229 12.10262786 18.11328125 14.33984375 C20.73225586 16.64432451 22.90645966 19.24740687 25.15625 21.90625 C27.77685966 24.88219656 30.62624744 27.60223191 33.49609375 30.3359375 C35 32 35 32 35 34 C36.32 34.33 37.64 34.66 39 35 C39 35.66 39 36.32 39 37 C39.66 37 40.32 37 41 37 C43.125 38.875 43.125 38.875 45 41 C45 41.66 45 42.32 45 43 C45.66 43 46.32 43 47 43 C47 43.66 47 44.32 47 45 C47.66 45 48.32 45 49 45 C50.33203125 46.35546875 50.33203125 46.35546875 51.8125 48.1875 C55.30816847 52.39415189 58.93927214 56.18576317 63.25 59.5625 C66.03717101 62.03294703 66.39202626 62.57652882 67 66 C61.07626437 61.06483086 55.70160226 55.74994505 50.34179688 50.21484375 C49.39336914 49.24998047 49.39336914 49.24998047 48.42578125 48.265625 C47.58140503 47.39599121 47.58140503 47.39599121 46.7199707 46.50878906 C44.91737752 44.92752209 43.18241544 43.9726144 41 43 C41 42.34 41 41.68 41 41 C39.68 40.34 38.36 39.68 37 39 C37 38.34 37 37.68 37 37 C36.34 37 35.68 37 35 37 C35 36.34 35 35.68 35 35 C34.34 35 33.68 35 33 35 C33 34.34 33 33.68 33 33 C32.46987305 32.79439453 31.93974609 32.58878906 31.39355469 32.37695312 C28.00179316 30.42575616 25.43949413 27.72455618 22.703125 24.96875 C22.10949158 24.37703003 21.51585815 23.78531006 20.90423584 23.17565918 C19.65456282 21.92734419 18.40740008 20.67651177 17.16259766 19.42333984 C15.24992048 17.49992003 13.32676881 15.58743901 11.40234375 13.67578125 C10.18946202 12.46157861 8.97720048 11.24675607 7.765625 10.03125 C7.18758118 9.45725464 6.60953735 8.88325928 6.01397705 8.29187012 C2 4.22993434 2 4.22993434 2 2 C1.34 2 0.68 2 0 2 C0 1.34 0 0.68 0 0 Z " fill="#1C4C88" transform="translate(303,295)"/>
<path d="M0 0 C0.99 0.33 1.98 0.66 3 1 C2.2575 1.721875 1.515 2.44375 0.75 3.1875 C-1.97539437 5.87055629 -1.97539437 5.87055629 -4 8.5625 C-6 11 -6 11 -8.5625 13 C-11.08760651 14.8311345 -11.08760651 14.8311345 -12.3515625 17.3515625 C-14.18700403 20.30044723 -16.1728951 22.12870028 -18.8125 24.375 C-21.80793456 26.9857395 -24.54485354 29.50154719 -27 32.625 C-29.33310498 35.50668207 -31.83913985 37.34359395 -34.9375 39.375 C-39.4464396 42.37418955 -42.33030154 45.61662698 -45.46484375 49.99609375 C-47 52 -47 52 -49.875 54.25 C-52.2389195 55.86381331 -52.2389195 55.86381331 -52.8125 58.75 C-52.874375 59.4925 -52.93625 60.235 -53 61 C-55.31 61.66 -57.62 62.32 -60 63 C-60 62.01 -60 61.02 -60 60 C-59.34 60 -58.68 60 -58 60 C-57.67 59.01 -57.34 58.02 -57 57 C-56.34 57 -55.68 57 -55 57 C-55 56.01 -55 55.02 -55 54 C-54.01 54 -53.02 54 -52 54 C-51.87625 52.865625 -51.7525 51.73125 -51.625 50.5625 C-51.41875 49.386875 -51.2125 48.21125 -51 47 C-50.01 46.505 -50.01 46.505 -49 46 C-49 46.99 -49 47.98 -49 49 C-48.34 49 -47.68 49 -47 49 C-47 48.34 -47 47.68 -47 47 C-44.49416218 44.27305884 -41.87466612 41.89816622 -39 39.5625 C-36.76991478 37.65763554 -35.11947946 36.04816228 -33.3125 33.8125 C-31 31 -31 31 -28 29 C-27.525625 28.154375 -27.05125 27.30875 -26.5625 26.4375 C-24.71631882 23.55745736 -24.14471104 23.71009604 -21 23 C-20.566875 22.10667969 -20.566875 22.10667969 -20.125 21.1953125 C-18.79968979 18.60911689 -17.2880937 17.29008917 -15.0625 15.4375 C-12.11693957 12.96809867 -12.11693957 12.96809867 -9.37109375 10.28515625 C-8 9 -8 9 -6 9 C-5.731875 8.360625 -5.46375 7.72125 -5.1875 7.0625 C-4 5 -4 5 -1 4 C-0.26676204 1.98491642 -0.26676204 1.98491642 0 0 Z " fill="#491DF8" transform="translate(348,226)"/>
<path d="M0 0 C0.66 0.33 1.32 0.66 2 1 C1.37351562 1.51949219 0.74703125 2.03898437 0.1015625 2.57421875 C-0.71570313 3.27160156 -1.53296875 3.96898438 -2.375 4.6875 C-3.18710937 5.37199219 -3.99921875 6.05648437 -4.8359375 6.76171875 C-7.11544848 9.1194079 -7.88209921 10.96497524 -9 14 C-11.92923811 16.17815142 -13.32281907 17 -17 17 C-17 17.70125 -17 18.4025 -17 19.125 C-18.363906 23.04622976 -20.73225448 24.15059161 -24.0703125 26.44921875 C-26.6698676 28.53833489 -27.63765879 31.00284935 -29 34 C-30.33112586 34.67106345 -31.66469431 35.33729273 -33 36 C-34.59654895 37.64039884 -34.59654895 37.64039884 -36 39.5 C-38.57217333 42.79909188 -38.57217333 42.79909188 -40.86328125 43.875 C-43.96697511 45.50912035 -45.86451574 47.89221856 -48.1875 50.5 C-49.06792969 51.4796875 -49.94835937 52.459375 -50.85546875 53.46875 C-52.99362872 55.78979395 -52.99362872 55.78979395 -54 58 C-55.32467746 58.6837045 -56.65863633 59.34964186 -58 60 C-58.66 60.66 -59.32 61.32 -60 62 C-60 58 -60 58 -58.77294922 56.59228516 C-57.86053467 55.88531494 -57.86053467 55.88531494 -56.9296875 55.1640625 C-50.61834111 49.94864845 -44.90933169 44.13233318 -39.11621094 38.35644531 C-37.11576083 36.36580615 -35.10488651 34.38608478 -33.09375 32.40625 C-31.81444882 31.13347087 -30.53578005 29.86005569 -29.2578125 28.5859375 C-28.65889191 27.99936371 -28.05997131 27.41278992 -27.44290161 26.80844116 C-24.31095099 23.65954356 -22.53524089 21.22920742 -21 17 C-19.39333518 16.09625104 -17.78065516 15.20121813 -16.13671875 14.3671875 C-12.34645895 11.94197556 -9.42496971 8.57890529 -6.33203125 5.33984375 C-4.31799521 3.31906052 -2.33018097 1.63380505 0 0 Z M-62 63 C-61.67 63.66 -61.34 64.32 -61 65 C-61.33 65.66 -61.66 66.32 -62 67 C-62.99 66.67 -63.98 66.34 -65 66 C-64.01 65.01 -63.02 64.02 -62 63 Z " fill="#7610E8" transform="translate(338,77)"/>
<path d="M0 0 C0.99 0.33 1.98 0.66 3 1 C2.3125 2.875 2.3125 2.875 1 5 C0.24074219 5.27457031 -0.51851563 5.54914063 -1.30078125 5.83203125 C-4.62360772 7.26983894 -6.16177549 9.06673284 -8.5 11.8125 C-11.56266473 15.34440331 -14.69416137 18.69416137 -18 22 C-20.02460618 24.32666436 -22.03937984 26.66025941 -24.03515625 29.01171875 C-25.96541738 30.96500486 -27.5237553 31.88959975 -30 33 C-30.53625 33.53625 -31.0725 34.0725 -31.625 34.625 C-32.07875 35.07875 -32.5325 35.5325 -33 36 C-33.66 36 -34.32 36 -35 36 C-35.2165625 37.546875 -35.2165625 37.546875 -35.4375 39.125 C-36.71948376 43.73270974 -39.8272484 45.22909624 -43.75390625 47.59765625 C-46.60517574 49.37784016 -48.72625176 51.53677274 -51 54 C-52.66666667 55.66666667 -54.33333333 57.33333333 -56 59 C-56.66 58.67 -57.32 58.34 -58 58 C-54.25651042 54.25651042 -50.51302083 50.51302083 -46.76953125 46.76953125 C-46.1237915 46.12250244 -45.47805176 45.47547363 -44.81274414 44.80883789 C-43.69742903 43.69592615 -42.57775512 42.58733799 -41.45092773 41.48608398 C-38.7472087 38.8374726 -36.91992465 36.25552441 -35 33 C-32.2858669 29.92398249 -29.50263406 28.08490123 -26 26 C-21.84245951 22.83665398 -18.58564713 19.43899663 -15.2109375 15.46875 C-10.3870013 10.08230534 -5.14603824 5.07639261 0 0 Z " fill="#750FEA" transform="translate(270,144)"/>
<path d="M0 0 C0 54.78 0 109.56 0 166 C-0.33 166 -0.66 166 -1 166 C-1 112.21 -1 58.42 -1 3 C-2.65 4.32 -4.3 5.64 -6 7 C-6.66 6.67 -7.32 6.34 -8 6 C-7.0479279 4.99403703 -6.08812654 3.99538437 -5.125 3 C-4.59132813 2.443125 -4.05765625 1.88625 -3.5078125 1.3125 C-2 0 -2 0 0 0 Z " fill="#59288B" transform="translate(378,35)"/>
<path d="M0 0 C0.33 0 0.66 0 1 0 C1 54.12 1 108.24 1 164 C-3 162 -3 162 -4 160 C-2.68 160.33 -1.36 160.66 0 161 C0 107.87 0 54.74 0 0 Z " fill="#266DBF" transform="translate(376,203)"/>
<path d="M0 0 C0.33 0 0.66 0 1 0 C1 51.48 1 102.96 1 156 C-0.98 155.34 -2.96 154.68 -5 154 C-5.875 151.875 -5.875 151.875 -6 150 C-5.34 150 -4.68 150 -4 150 C-3.67 150.66 -3.34 151.32 -3 152 C-2.01 152.33 -1.02 152.66 0 153 C0 102.51 0 52.02 0 0 Z " fill="#0F72E3" transform="translate(375,208)"/>
<path d="M0 0 C0.66 2.64 1.32 5.28 2 8 C-0.55088723 6.94446046 -1.85389582 6.20089325 -3.5 3.9375 C-5.24509481 1.6834192 -6.23423473 1.38148486 -9 1 C-9.38289688 1.8708725 -9.38289688 1.8708725 -9.77352905 2.75933838 C-11.12670699 5.23148325 -12.62568512 6.86632672 -14.62353516 8.85058594 C-15.7344603 9.96128448 -15.7344603 9.96128448 -16.86782837 11.09442139 C-18.06633926 12.27744843 -18.06633926 12.27744843 -19.2890625 13.484375 C-20.10748627 14.29996887 -20.92591003 15.11556274 -21.76913452 15.95587158 C-24.38309973 18.55864562 -27.00393505 21.15437762 -29.625 23.75 C-31.39889454 25.5138634 -33.17233766 27.2781809 -34.9453125 29.04296875 C-39.29165142 33.36726136 -43.64365081 37.6857933 -48 42 C-48.33 40.68 -48.66 39.36 -49 38 C-47.02 37.505 -47.02 37.505 -45 37 C-45 36.01 -45 35.02 -45 34 C-44.01 34 -43.02 34 -42 34 C-41.34 32.35 -40.68 30.7 -40 29 C-39.01 29 -38.02 29 -37 29 C-37 28.01 -37 27.02 -37 26 C-36.01 25.67 -35.02 25.34 -34 25 C-33.67 24.01 -33.34 23.02 -33 22 C-30.9375 21.3125 -30.9375 21.3125 -29 21 C-28.67 19.68 -28.34 18.36 -28 17 C-27.34 17 -26.68 17 -26 17 C-25.67 16.01 -25.34 15.02 -25 14 C-24.01 13.67 -23.02 13.34 -22 13 C-21.26676204 10.98491642 -21.26676204 10.98491642 -21 9 C-20.071875 8.87625 -20.071875 8.87625 -19.125 8.75 C-16.85609195 8.21402157 -16.85609195 8.21402157 -16 6.1875 C-15.67 5.465625 -15.34 4.74375 -15 4 C-12.98227065 1.56480941 -11.63230828 0.21631599 -8.625 -0.8125 C-5.59448136 -1.02896562 -2.96580893 -0.62075071 0 0 Z " fill="#3E1E76" transform="translate(301,287)"/>
<path d="M0 0 C0.495 0.99 0.495 0.99 1 2 C-3.28682848 6.99626841 -7.68254602 11.89217794 -12.125 16.75 C-12.87861816 17.58180786 -12.87861816 17.58180786 -13.64746094 18.43041992 C-16.57107796 21.61208796 -19.58388055 24.33448119 -23 27 C-24.35386936 28.65002828 -25.68678142 30.3174387 -27 32 C-31.30938508 36.56420089 -36.07287043 40.07489332 -41.16015625 43.71875 C-43.91646406 45.93289548 -45.9147434 48.15965048 -48 51 C-47.91939744 48.2595131 -47.5369489 46.52681778 -45.55078125 44.578125 C-44.30849171 43.5756701 -43.0607341 42.5799668 -41.80859375 41.58984375 C-39.72425465 39.89809636 -39.72425465 39.89809636 -37.8125 36.6875 C-34.78520605 32.12141543 -30.31899771 29.42223674 -25.9296875 26.26171875 C-22.68213228 23.75460612 -20.22742176 21.0800077 -17.65625 17.91015625 C-15.83771552 15.812837 -13.87556266 14.09535419 -11.75 12.3125 C-8.74058883 9.77096274 -6.95222728 7.43963855 -5 4 C-2.3125 1.6875 -2.3125 1.6875 0 0 Z " fill="#2F51FE" transform="translate(343,235)"/>
<path d="M0 0 C4.54704504 1.40859548 7.2961666 3.9336673 10.5 7.3125 C11.4178125 8.25738281 12.335625 9.20226562 13.28125 10.17578125 C14.1784375 11.10777344 15.075625 12.03976563 16 13 C18.56341736 15.60100413 21.08875298 18.07524709 23.875 20.4375 C26 23 26 23 26.0625 26.125 C24.87412968 29.34059029 23.97676293 30.37631113 21 32 C20.34 32 19.68 32 19 32 C18.34 33.32 17.68 34.64 17 36 C16.34 36 15.68 36 15 36 C14.74089844 36.598125 14.48179687 37.19625 14.21484375 37.8125 C12.89899467 40.18187456 11.66881809 41.31844876 9.5625 43 C5.31824139 46.57818883 1.64489428 50.5255822 -2.05444336 54.6484375 C-6.41619445 59.50814918 -10.82382774 64.00695283 -16 68 C-13.5565627 62.22460275 -9.40216523 58.2350578 -4.58984375 54.40234375 C-2.76546608 52.7931261 -1.25637124 51.04623197 0.3125 49.1875 C3.55814523 45.36613056 7.13907464 42.15692543 10.9296875 38.88671875 C12.73929193 37.23758867 14.24258382 35.60732249 15.75 33.6875 C18 31 18 31 20.75 29.375 C23.17883738 28.20917705 23.17883738 28.20917705 23.8125 25.8125 C23.9053125 24.9153125 23.9053125 24.9153125 24 24 C23.01 23.34 22.02 22.68 21 22 C21 21.34 21 20.68 21 20 C20.41089844 19.75121094 19.82179687 19.50242188 19.21484375 19.24609375 C16.69037176 17.82579998 15.37437781 16.30956324 13.5625 14.0625 C10.95650201 10.97556676 8.68432724 8.78953037 5 7 C4.34 6.67 3.68 6.34 3 6 C3 5.01 3 4.02 3 3 C2.01 3 1.02 3 0 3 C0 2.01 0 1.02 0 0 Z " fill="#BF08D4" transform="translate(182,177)"/>
<path d="M0 0 C0.66 0.33 1.32 0.66 2 1 C1.34 1.99 0.68 2.98 0 4 C-0.66 4 -1.32 4 -2 4 C-2.66 5.32 -3.32 6.64 -4 8 C-4.66 8 -5.32 8 -6 8 C-6.20109375 8.53238281 -6.4021875 9.06476563 -6.609375 9.61328125 C-8.60841882 13.04422444 -11.38754728 15.46548451 -14.25 18.1875 C-18.70891703 22.51471906 -22.36844591 26.67785081 -25.609375 32.0078125 C-27.68886607 34.9868587 -30.31079381 37.1333997 -33.10546875 39.42578125 C-34.81816849 40.84891114 -36.3436233 42.32481127 -37.875 43.9375 C-40 46 -40 46 -42 46 C-42 46.66 -42 47.32 -42 48 C-42.66 48 -43.32 48 -44 48 C-44.66 49.32 -45.32 50.64 -46 52 C-46.6875 50.1875 -46.6875 50.1875 -47 48 C-45.55554037 46.02337103 -44.28906342 45.13054477 -42.0625 44.125 C-38.18311598 42.00897235 -36.31154779 38.64801941 -34.4375 34.75 C-33 32 -33 32 -30 31 C-30 30.34 -30 29.68 -30 29 C-29.01 29 -28.02 29 -27 29 C-27 28.34 -27 27.68 -27 27 C-25.390625 25.484375 -25.390625 25.484375 -23.25 23.75 C-20.5704369 21.48882482 -18.84501325 19.76751988 -16.875 16.8125 C-14.66353863 13.49530795 -12.30968773 12.1843939 -9 10 C-7.37304143 8.29031472 -5.87794426 6.51844896 -4.39453125 4.68359375 C-3.01450842 3.01751577 -1.55159867 1.5058288 0 0 Z " fill="#DD05CA" transform="translate(154,252)"/>
<path d="M0 0 C1.01866229 1.65532623 2.01810813 3.32260138 3 5 C3.66 5.33 4.32 5.66 5 6 C5 6.66 5 7.32 5 8 C5.598125 8.04125 6.19625 8.0825 6.8125 8.125 C10.08163817 9.43265527 10.52410676 11.91987498 12 15 C12.99 15.33 13.98 15.66 15 16 C15.45375 16.474375 15.9075 16.94875 16.375 17.4375 C17.96481007 19.19697901 17.96481007 19.19697901 20.5625 19.8125 C23 21 23 21 24.3125 24.125 C24.6528125 25.548125 24.6528125 25.548125 25 27 C25.99 27 26.98 27 28 27 C28.495 29.475 28.495 29.475 29 32 C29.66 32 30.32 32 31 32 C30.67 33.32 30.34 34.64 30 36 C25.57816365 31.62872972 21.16407358 27.24975043 16.75537109 22.86523438 C15.25357961 21.37352203 13.75000097 19.88360672 12.24462891 18.39550781 C10.08548034 16.26052352 7.93276847 14.11923229 5.78125 11.9765625 C5.10316284 11.30879791 4.42507568 10.64103333 3.72644043 9.95303345 C3.10579712 9.3325412 2.48515381 8.71204895 1.84570312 8.07275391 C1.29499146 7.52648346 0.74427979 6.98021301 0.17687988 6.41738892 C-1 5 -1 5 -1 3 C-2.65 3.66 -4.3 4.32 -6 5 C-3.74193548 0 -3.74193548 0 0 0 Z " fill="#4D1E9E" transform="translate(129,285)"/>
<path d="M0 0 C0 3 0 3 -1.14575195 4.45458984 C-1.67128662 4.95168457 -2.19682129 5.4487793 -2.73828125 5.9609375 C-3.31126953 6.51523438 -3.88425781 7.06953125 -4.47460938 7.640625 C-5.08111328 8.21296875 -5.68761719 8.7853125 -6.3125 9.375 C-10.20590653 13.07015073 -13.25372926 16.35246491 -16 21 C-16.99 21.33 -17.98 21.66 -19 22 C-19.71111538 23.31016683 -20.37378966 24.64719446 -21 26 C-22.94990371 28.41847697 -25.13624124 30.59759513 -27.3125 32.8125 C-27.88162109 33.42287109 -28.45074219 34.03324219 -29.03710938 34.66210938 C-33.25806767 38.96060536 -33.25806767 38.96060536 -36.6484375 39.140625 C-39.45627244 37.77868513 -41.18121012 36.21328411 -43.3125 33.9375 C-44.35857422 32.83728516 -44.35857422 32.83728516 -45.42578125 31.71484375 C-45.94527344 31.14894531 -46.46476563 30.58304688 -47 30 C-46.67 29.34 -46.34 28.68 -46 28 C-43.36 30.64 -40.72 33.28 -38 36 C-36.68 35.34 -35.36 34.68 -34 34 C-32.515 33.505 -32.515 33.505 -31 33 C-30.29258769 31.68783003 -29.62936792 30.35133943 -29 29 C-27.65853882 27.41802979 -27.65853882 27.41802979 -26.11083984 25.88378906 C-25.5303891 25.30348938 -24.94993835 24.7231897 -24.35189819 24.12530518 C-23.72788116 23.51161072 -23.10386414 22.89791626 -22.4609375 22.265625 C-21.82008209 21.62759949 -21.17922668 20.98957397 -20.51895142 20.33221436 C-18.47562179 18.30005931 -16.42544018 16.27497782 -14.375 14.25 C-12.9865214 12.8715547 -11.5984951 11.49265364 -10.2109375 10.11328125 C-6.81251303 6.73688106 -3.40792746 3.36680712 0 0 Z " fill="#461B77" transform="translate(247,163)"/>
<path d="M0 0 C0.6328125 1.83984375 0.6328125 1.83984375 1 4 C-1.17008734 6.61687002 -3.1673227 8.55680079 -6.1796875 10.16015625 C-10.32209422 12.86247421 -13.55502766 16.34739917 -17 19.875 C-17.69867188 20.58269531 -18.39734375 21.29039062 -19.1171875 22.01953125 C-20.47307519 23.39332689 -21.82707242 24.76899154 -23.17895508 26.14672852 C-25.43807733 28.44582987 -27.71671638 30.72491488 -30 33 C-30.928125 33.928125 -31.85625 34.85625 -32.8125 35.8125 C-33.534375 36.534375 -34.25625 37.25625 -35 38 C-35.66 37.67 -36.32 37.34 -37 37 C-36.52949219 36.55269531 -36.05898437 36.10539062 -35.57421875 35.64453125 C-34.95160156 35.03996094 -34.32898438 34.43539062 -33.6875 33.8125 C-33.07261719 33.22082031 -32.45773438 32.62914062 -31.82421875 32.01953125 C-29.93225292 30.07474122 -29.93225292 30.07474122 -28.73046875 27.73828125 C-26.21698211 23.76095814 -22.96007004 20.67143989 -19.625 17.375 C-18.965 16.70726562 -18.305 16.03953125 -17.625 15.3515625 C-14.26512443 12.00507289 -11.15708673 9.3334252 -7 7 C-5.687994 5.81488046 -4.41340514 4.58647985 -3.1875 3.3125 C-2.28064453 2.37857422 -2.28064453 2.37857422 -1.35546875 1.42578125 C-0.68451172 0.72001953 -0.68451172 0.72001953 0 0 Z " fill="#592197" transform="translate(277,135)"/>
<path d="M0 0 C0.99 0.33 1.98 0.66 3 1 C0.54976242 3.50804718 -1.91147598 6.0050076 -4.375 8.5 C-5.07367188 9.21542969 -5.77234375 9.93085938 -6.4921875 10.66796875 C-7.49765625 11.68310547 -7.49765625 11.68310547 -8.5234375 12.71875 C-9.450354 13.66137695 -9.450354 13.66137695 -10.39599609 14.62304688 C-12 16 -12 16 -14 16 C-14.21317871 16.53915039 -14.42635742 17.07830078 -14.64599609 17.63378906 C-16.49498827 20.86502458 -19.02795629 23.27398693 -21.6640625 25.859375 C-22.21613373 26.40861633 -22.76820496 26.95785767 -23.33700562 27.52374268 C-25.09501815 29.27059293 -26.8598689 31.01034601 -28.625 32.75 C-29.8207708 33.93573591 -31.01608865 35.1219288 -32.2109375 36.30859375 C-35.13540253 39.21105085 -38.06601874 42.1071641 -41 45 C-41.66 44.67 -42.32 44.34 -43 44 C-41.38405168 41.95880212 -39.7143618 39.95927063 -38 38 C-37.34 38 -36.68 38 -36 38 C-36 37.01 -36 36.02 -36 35 C-35.01 35 -34.02 35 -33 35 C-33 34.01 -33 33.02 -33 32 C-31.5390625 30.39453125 -31.5390625 30.39453125 -29.625 28.8125 C-28.99851562 28.28269531 -28.37203125 27.75289063 -27.7265625 27.20703125 C-26 26 -26 26 -24 26 C-24 25.34 -24 24.68 -24 24 C-22.69026002 22.6434836 -21.35197858 21.31442362 -20 20 C-18.9790625 18.63875 -18.9790625 18.63875 -17.9375 17.25 C-17.298125 16.5075 -16.65875 15.765 -16 15 C-15.01 15 -14.02 15 -13 15 C-13 13.68 -13 12.36 -13 11 C-12.278125 10.79375 -11.55625 10.5875 -10.8125 10.375 C-8.05249768 9.02566553 -7.15478986 8.19979435 -5.3125 5.875 C-4.549375 4.92625 -3.78625 3.9775 -3 3 C-2.34 3 -1.68 3 -1 3 C-0.67 2.01 -0.34 1.02 0 0 Z " fill="#B21F92" transform="translate(92,316)"/>
<path d="M0 0 C0.495 1.485 0.495 1.485 1 3 C0.50371094 3.4125 0.00742187 3.825 -0.50390625 4.25 C-4.78979247 7.89340992 -8.57338468 11.6677888 -12.2109375 15.953125 C-16.13265819 20.43998447 -20.49061266 24.52491692 -24.75 28.6875 C-27.02100052 30.92940025 -27.02100052 30.92940025 -28.8125 33.375 C-31.82450167 36.98940201 -35.23499938 40.17217486 -39 43 C-39.66 43 -40.32 43 -41 43 C-41.33 43.66 -41.66 44.32 -42 45 C-42 41 -42 41 -40.0625 38.6875 C-36.9375686 35.794045 -33.50844082 33.2738036 -30.1328125 30.68359375 C-26.13103846 27.52468421 -22.86842644 23.85331296 -19.5625 20 C-16.63045251 16.60566425 -13.44814427 13.87345356 -10 11 C-8.15127277 8.99688227 -6.37409865 6.94778553 -4.61328125 4.8671875 C-3.14080217 3.16296232 -1.61363306 1.56975784 0 0 Z " fill="#126DFE" transform="translate(339,242)"/>
<path d="M0 0 C4.1260846 0.35135864 6.13461443 2.7722532 8.95214844 5.61157227 C9.4306575 6.08964325 9.90916656 6.56771423 10.4021759 7.06027222 C11.97845961 8.63864214 13.54385729 10.22736342 15.109375 11.81640625 C16.20159428 12.91422206 17.29447879 14.0113764 18.38800049 15.1078949 C21.26174873 17.99308732 24.12637336 20.8871757 26.98919678 23.78320312 C29.91312669 26.73784296 32.84558726 29.68398899 35.77734375 32.63085938 C41.52661709 38.41228936 47.26628064 44.20314425 53 50 C52.505 50.99 52.505 50.99 52 52 C51.08584824 51.0791864 51.08584824 51.0791864 50.15322876 50.13977051 C44.41953715 44.36606723 38.68109198 38.59714075 32.93720436 32.83358002 C29.98411827 29.87003993 27.03292812 26.90466118 24.0859375 23.93505859 C21.24386922 21.07131947 18.39699648 18.21244004 15.54667282 15.35691833 C14.45803303 14.26457241 13.37116012 13.17046275 12.28606033 12.07460022 C10.77032651 10.54442799 9.24853013 9.02054896 7.72509766 7.49804688 C6.85905914 6.62756714 5.99302063 5.7570874 5.10073853 4.86022949 C3.21810987 2.77901652 3.21810987 2.77901652 1 3 C0.67 7.29 0.34 11.58 0 16 C-0.33 16 -0.66 16 -1 16 C-1.02685095 13.52076199 -1.04676547 11.0418116 -1.0625 8.5625 C-1.07506836 7.50192383 -1.07506836 7.50192383 -1.08789062 6.41992188 C-1.09653588 4.61306441 -1.05220011 2.80612397 -1 1 C-0.67 0.67 -0.34 0.34 0 0 Z " fill="#340A2D" transform="translate(42,34)"/>
<path d="M0 0 C0.66 0.33 1.32 0.66 2 1 C1.21496094 1.7734375 0.42992187 2.546875 -0.37890625 3.34375 C-5.6188512 8.53028573 -10.75913588 13.72173131 -15.5546875 19.328125 C-19.31443175 23.67723456 -23.47152705 27.47785437 -28 31 C-28.66 31 -29.32 31 -30 31 C-30.226875 31.5775 -30.45375 32.155 -30.6875 32.75 C-32.34761639 35.59591381 -34.39187957 36.99841921 -37 39 C-38.3303125 40.36125 -38.3303125 40.36125 -39.6875 41.75 C-42 44 -42 44 -44 44 C-44.25523437 44.58265625 -44.51046875 45.1653125 -44.7734375 45.765625 C-46.11741087 48.21388223 -47.61810296 49.81743248 -49.625 51.75 C-50.57246094 52.67039062 -50.57246094 52.67039062 -51.5390625 53.609375 C-52.26222656 54.29773438 -52.26222656 54.29773438 -53 55 C-53.66 54.67 -54.32 54.34 -55 54 C-50.5 49.5 -50.5 49.5 -46 45 C-45.27425781 44.27296875 -44.54851562 43.5459375 -43.80078125 42.796875 C-42.68949539 41.68799974 -41.57000012 40.58720012 -40.4375 39.5 C-38.90808136 37.98156018 -38.90808136 37.98156018 -37.5625 35.9375 C-35.82751885 33.78612338 -34.4548549 33.19023268 -32 32 C-30.64426252 30.68945377 -29.31387169 29.35251497 -28 28 C-27.030625 27.195625 -26.06125 26.39125 -25.0625 25.5625 C-19.54830066 20.94857811 -14.75713742 15.63743023 -9.875 10.375 C-8.64372851 9.04901532 -7.4119751 7.72347793 -6.1796875 6.3984375 C-5.64069824 5.81755371 -5.10170898 5.23666992 -4.54638672 4.63818359 C-3.05871395 3.06219934 -1.54045335 1.52426847 0 0 Z " fill="#8504E9" transform="translate(194,218)"/>
<path d="M0 0 C5.55439924 4.62491379 10.68525669 9.55360964 15.77734375 14.6796875 C16.58869278 15.49245148 17.40004181 16.30521545 18.23597717 17.14260864 C20.8055259 19.71771738 23.37155968 22.2962962 25.9375 24.875 C27.68791929 26.63043946 29.438568 28.38565017 31.18945312 30.140625 C35.46229302 34.42444082 39.73225899 38.71110472 44 43 C41 43 41 43 39.08642578 41.42700195 C38.3798584 40.70472412 37.67329102 39.98244629 36.9453125 39.23828125 C35.77548828 38.05395508 35.77548828 38.05395508 34.58203125 36.84570312 C33.77121094 36.00974609 32.96039063 35.17378906 32.125 34.3125 C31.32191406 33.49587891 30.51882812 32.67925781 29.69140625 31.83789062 C26.91390122 29.01233979 24.14386855 26.17967931 21.38574219 23.33520508 C18.95796674 20.84379396 18.95796674 20.84379396 16 19.0625 C13.53671102 17.75387773 12.13991963 15.94825221 10.4296875 13.78125 C8.24935669 11.06477227 5.88844086 8.5109613 3.55078125 5.9296875 C2.02118241 4.02635797 1.05299623 2.19139362 0 0 Z " fill="#B72296" transform="translate(107,100)"/>
<path d="M0 0 C2.16874252 0.50603992 3.99967627 0.99983813 6 2 C6 2.66 6 3.32 6 4 C6.66 4 7.32 4 8 4 C8 4.66 8 5.32 8 6 C8.66 6 9.32 6 10 6 C10 6.66 10 7.32 10 8 C11.32 8.33 12.64 8.66 14 9 C14 9.66 14 10.32 14 11 C14.66 11 15.32 11 16 11 C16 12.32 16 13.64 16 15 C17.32 15 18.64 15 20 15 C20 15.99 20 16.98 20 18 C20.66 18 21.32 18 22 18 C22 18.66 22 19.32 22 20 C22.66 20 23.32 20 24 20 C25.92152816 22.88229224 27.46387819 25.90127153 29 29 C23.01472264 24.07242944 17.53689775 18.69051775 12.07250977 13.20288086 C10.54492879 11.66986628 9.01197919 10.14236233 7.47851562 8.61523438 C6.50749107 7.64355027 5.53677608 6.67155669 4.56640625 5.69921875 C3.68927979 4.82096436 2.81215332 3.94270996 1.90844727 3.0378418 C0 1 0 1 0 0 Z " fill="#4A2387" transform="translate(160,321)"/>
<path d="M0 0 C0.66 2.64 1.32 5.28 2 8 C-0.55088723 6.94446046 -1.85389582 6.20089325 -3.5 3.9375 C-5.24509481 1.6834192 -6.23423473 1.38148486 -9 1 C-9.2475 1.57234375 -9.495 2.1446875 -9.75 2.734375 C-11.19316199 5.35010611 -12.88216222 7.14773456 -15 9.25 C-15.70125 9.95640625 -16.4025 10.6628125 -17.125 11.390625 C-19 13 -19 13 -21 13 C-21 11.68 -21 10.36 -21 9 C-20.071875 8.87625 -20.071875 8.87625 -19.125 8.75 C-16.85609195 8.21402157 -16.85609195 8.21402157 -16 6.1875 C-15.67 5.465625 -15.34 4.74375 -15 4 C-12.98227065 1.56480941 -11.63230828 0.21631599 -8.625 -0.8125 C-5.59448136 -1.02896562 -2.96580893 -0.62075071 0 0 Z " fill="#421D83" transform="translate(301,287)"/>
<path d="M0 0 C0 3 0 3 -1.609375 4.68359375 C-2.66898437 5.55177734 -2.66898437 5.55177734 -3.75 6.4375 C-6.07866007 8.37942147 -8.25563998 10.26236735 -10.375 12.4375 C-12 14 -12 14 -14 14 C-14.25394531 14.5671875 -14.50789063 15.134375 -14.76953125 15.71875 C-18.4630379 22.56639407 -24.05210281 27.67079926 -31 31 C-28.79329296 25.58353728 -24.2690123 22.21848635 -19.9375 18.5 C-16.9058646 15.87712443 -14.43755654 13.19403961 -12 10 C-8.6287638 6.36261357 -5.18029272 3.66018627 -1 1 C-0.67 0.67 -0.34 0.34 0 0 Z " fill="#3944FC" transform="translate(375,204)"/>
<path d="M0 0 C0.66 0.33 1.32 0.66 2 1 C1.34773438 1.64066406 0.69546875 2.28132812 0.0234375 2.94140625 C-4.40356625 7.32270347 -8.72244996 11.70008693 -12.70703125 16.48828125 C-14.6730338 18.78690055 -16.86193825 20.86193825 -19 23 C-20.00413429 24.22579159 -21.00394417 25.45513501 -22 26.6875 C-24.38852803 29.53393237 -26.32026795 31.02595328 -30 32 C-29.67 30.68 -29.34 29.36 -29 28 C-27.68 27.67 -26.36 27.34 -25 27 C-24.896875 26.360625 -24.79375 25.72125 -24.6875 25.0625 C-24.460625 24.381875 -24.23375 23.70125 -24 23 C-23.01 22.67 -22.02 22.34 -21 22 C-19.75464529 20.52523784 -18.51307598 19.04659566 -17.3125 17.53515625 C-16 16 -16 16 -13.625 14.125 C-10.57533664 11.6562249 -8.19119384 8.88205218 -5.6484375 5.90625 C-3.85817559 3.83599452 -1.97421482 1.89524622 0 0 Z " fill="#DC05C8" transform="translate(189,217)"/>
<path d="M0 0 C7.31287316 4.05796116 12.69371726 9.34164965 18.5 15.3125 C19.87671875 16.70952148 19.87671875 16.70952148 21.28125 18.13476562 C23.5278501 20.41646885 25.76710183 22.70489967 28 25 C25 25 25 25 22.4765625 22.69921875 C21.51846983 21.70253623 20.56821695 20.69827168 19.625 19.6875 C15.56525216 15.36565306 11.62236179 12.37361808 6.375 9.625 C2.71444651 7.12041077 1.37713232 4.13139696 0 0 Z " fill="#771765" transform="translate(172,165)"/>
<path d="M0 0 C0.33 0 0.66 0 1 0 C1 7.59 1 15.18 1 23 C1.33 22.34 1.66 21.68 2 21 C3.32 21 4.64 21 6 21 C6 20.01 6 19.02 6 18 C6.99 18 7.98 18 9 18 C7.56036361 21.35915158 5.87583411 23.71624938 3 26 C0.8671875 25.60546875 0.8671875 25.60546875 -1 25 C-1.02886984 21.02084841 -1.04675406 17.04172347 -1.0625 13.0625 C-1.07087891 11.92619141 -1.07925781 10.78988281 -1.08789062 9.61914062 C-1.09111328 8.53955078 -1.09433594 7.45996094 -1.09765625 6.34765625 C-1.10289307 5.34742432 -1.10812988 4.34719238 -1.11352539 3.31665039 C-1 1 -1 1 0 0 Z " fill="#4F1546" transform="translate(42,343)"/>
<path d="M0 0 C0.66 0.33 1.32 0.66 2 1 C-1.50074982 5.17443363 -4.97950843 9.3145494 -9 13 C-9.66 13 -10.32 13 -11 13 C-11.19980469 13.52980469 -11.39960938 14.05960937 -11.60546875 14.60546875 C-13.99436858 18.7074172 -17.62424519 21.70072332 -21.03710938 24.95898438 C-24.88852701 28.70427799 -27.99065039 32.54525921 -31 37 C-31.66 36.67 -32.32 36.34 -33 36 C-28.19571345 29.61312494 -23.03484088 23.8358722 -17.30175781 18.28808594 C-13.94791692 15.0278406 -10.96457204 11.61889185 -8 8 C-6.35305515 6.31384218 -4.68873879 4.64429829 -3 3 C-2.401875 2.401875 -1.80375 1.80375 -1.1875 1.1875 C-0.795625 0.795625 -0.40375 0.40375 0 0 Z " fill="#BA07D8" transform="translate(160,248)"/>
<path d="M0 0 C0.99 0.33 1.98 0.66 3 1 C2.2575 1.721875 1.515 2.44375 0.75 3.1875 C-1.97539437 5.87055629 -1.97539437 5.87055629 -4 8.5625 C-6.11878607 11.14477053 -8.37202922 12.94890086 -11 15 C-12.0828125 16.0828125 -12.0828125 16.0828125 -13.1875 17.1875 C-17.29989335 21.29989335 -21.65929335 25.13129252 -26 29 C-26.33 28.01 -26.66 27.02 -27 26 C-25.6875 24.5 -25.6875 24.5 -24 23 C-23.01 23 -22.02 23 -21 23 C-20.75121094 22.41347656 -20.50242187 21.82695312 -20.24609375 21.22265625 C-18.82588804 18.68943667 -17.28816254 17.29014647 -15.0625 15.4375 C-12.11693957 12.96809867 -12.11693957 12.96809867 -9.37109375 10.28515625 C-8 9 -8 9 -6 9 C-5.731875 8.360625 -5.46375 7.72125 -5.1875 7.0625 C-4 5 -4 5 -1 4 C-0.26676204 1.98491642 -0.26676204 1.98491642 0 0 Z " fill="#520FF5" transform="translate(348,226)"/>
<path d="M0 0 C0 3 0 3 -1.4296875 4.44921875 C-1.94789063 4.96097656 -2.46609375 5.47273437 -3 6 C-3.37125 7.258125 -3.7425 8.51625 -4.125 9.8125 C-5.74623236 14.52097269 -8.63887416 16.14807191 -12.7890625 18.6328125 C-15.63395804 20.39202352 -17.73797004 22.54946755 -20 25 C-21.66666667 26.66666667 -23.33333333 28.33333333 -25 30 C-25.66 29.67 -26.32 29.34 -27 29 C-23.25651042 25.25651042 -19.51302083 21.51302083 -15.76953125 17.76953125 C-15.1237915 17.12250244 -14.47805176 16.47547363 -13.81274414 15.80883789 C-12.69742903 14.69592615 -11.57775512 13.58733799 -10.45092773 12.48608398 C-7.7472087 9.8374726 -5.91992465 7.25552441 -4 4 C-2.70420353 2.63015802 -1.38007251 1.2848951 0 0 Z " fill="#6F0FEB" transform="translate(239,173)"/>
<path d="M0 0 C-0.33 1.32 -0.66 2.64 -1 4 C-1.66 4 -2.32 4 -3 4 C-3 4.99 -3 5.98 -3 7 C-3.99 7 -4.98 7 -6 7 C-6.1546875 7.9590625 -6.1546875 7.9590625 -6.3125 8.9375 C-6.539375 9.618125 -6.76625 10.29875 -7 11 C-7.99 11.33 -8.98 11.66 -10 12 C-10.33 12.66 -10.66 13.32 -11 14 C-12.32 14 -13.64 14 -15 14 C-15 13.34 -15 12.68 -15 12 C-16.4540625 11.62875 -16.4540625 11.62875 -17.9375 11.25 C-18.948125 10.8375 -19.95875 10.425 -21 10 C-21.875 7.875 -21.875 7.875 -22 6 C-21.01 6 -20.02 6 -19 6 C-19 6.66 -19 7.32 -19 8 C-18.34 8 -17.68 8 -17 8 C-17 8.66 -17 9.32 -17 10 C-14.36 10 -11.72 10 -9 10 C-7.43727811 5.60746227 -7.43727811 5.60746227 -7 1 C-6.34 1 -5.68 1 -5 1 C-5 1.66 -5 2.32 -5 3 C-4.54625 2.505 -4.0925 2.01 -3.625 1.5 C-2 0 -2 0 0 0 Z " fill="#5913D8" transform="translate(223,353)"/>
<path d="M0 0 C4.08290097 1.61551447 6.78433836 4.54639696 9.7890625 7.62890625 C10.60580948 8.45345558 10.60580948 8.45345558 11.4390564 9.29466248 C13.17253779 11.04591176 14.89916551 12.80371688 16.625 14.5625 C18.35884152 16.32395811 20.09412183 18.08393623 21.83236694 19.84104919 C22.91247367 20.93341505 23.98989603 22.02844296 25.06436157 23.12635803 C27.76313489 25.91551945 27.76313489 25.91551945 31 28 C31.33 26.02 31.66 24.04 32 22 C32.33 22 32.66 22 33 22 C33 24.31 33 26.62 33 29 C31.19476318 29.65829468 31.19476318 29.65829468 29 30 C27.41802979 29.02603149 27.41802979 29.02603149 25.88378906 27.46728516 C25.30348938 26.88983551 24.7231897 26.31238586 24.12530518 25.71743774 C23.51161072 25.08107391 22.89791626 24.44471008 22.265625 23.7890625 C21.62759949 23.14633392 20.98957397 22.50360535 20.33221436 21.84140015 C18.29287348 19.7806619 16.27180714 17.70292848 14.25 15.625 C12.87218774 14.23068894 11.49329434 12.83744533 10.11328125 11.4453125 C0 1.19497094 0 1.19497094 0 0 Z " fill="#0D203F" transform="translate(346,339)"/>
<path d="M0 0 C1.01866229 1.65532623 2.01810813 3.32260138 3 5 C3.66 5.33 4.32 5.66 5 6 C5 6.66 5 7.32 5 8 C5.598125 8.04125 6.19625 8.0825 6.8125 8.125 C10.08163817 9.43265527 10.52410676 11.91987498 12 15 C12.99 15.33 13.98 15.66 15 16 C15.33 17.65 15.66 19.3 16 21 C10.00040771 16.04381506 4.19144551 10.80773381 -1 5 C-1 4.34 -1 3.68 -1 3 C-2.65 3.66 -4.3 4.32 -6 5 C-3.74193548 0 -3.74193548 0 0 0 Z " fill="#4C2293" transform="translate(129,285)"/>
<path d="M0 0 C1.32 0.33 2.64 0.66 4 1 C1.79560567 3.3784607 -0.44203904 5.72282389 -2.6875 8.0625 C-3.62625977 9.07666992 -3.62625977 9.07666992 -4.58398438 10.11132812 C-9.30091576 14.97643536 -9.30091576 14.97643536 -12.78125 15.09375 C-15.81173289 13.59984998 -17.75950347 11.49655328 -20 9 C-19.34 8.67 -18.68 8.34 -18 8 C-15.875 8.9375 -15.875 8.9375 -14 10 C-14 10.66 -14 11.32 -14 12 C-12.68 12 -11.36 12 -10 12 C-9.67 11.01 -9.34 10.02 -9 9 C-8.01 8.67 -7.02 8.34 -6 8 C-5.67 7.01 -5.34 6.02 -5 5 C-4.01 5 -3.02 5 -2 5 C-2 4.01 -2 3.02 -2 2 C-1.34 2 -0.68 2 0 2 C0 1.34 0 0.68 0 0 Z " fill="#422177" transform="translate(222,355)"/>
<path d="M0 0 C4.54704504 1.40859548 7.2961666 3.9336673 10.5 7.3125 C11.4178125 8.25738281 12.335625 9.20226562 13.28125 10.17578125 C14.1784375 11.10777344 15.075625 12.03976563 16 13 C17.66301037 14.67031496 19.32914048 16.33753676 21 18 C22.66666667 19.66666667 24.33333333 21.33333333 26 23 C25.67 23.66 25.34 24.32 25 25 C23 23.625 23 23.625 21 22 C21 21.34 21 20.68 21 20 C20.41089844 19.75121094 19.82179687 19.50242188 19.21484375 19.24609375 C16.69037176 17.82579998 15.37437781 16.30956324 13.5625 14.0625 C10.95650201 10.97556676 8.68432724 8.78953037 5 7 C4.34 6.67 3.68 6.34 3 6 C3 5.01 3 4.02 3 3 C2.01 3 1.02 3 0 3 C0 2.01 0 1.02 0 0 Z " fill="#B52094" transform="translate(182,177)"/>
<path d="M0 0 C-0.33 0.99 -0.66 1.98 -1 3 C-1.99 3 -2.98 3 -4 3 C-4 3.99 -4 4.98 -4 6 C-4.99 6 -5.98 6 -7 6 C-7.66 7.65 -8.32 9.3 -9 11 C-9.99 11 -10.98 11 -12 11 C-12 11.99 -12 12.98 -12 14 C-13.65 14.33 -15.3 14.66 -17 15 C-15.80677904 11.60390956 -14.71504084 9.37566073 -12 7 C-11.34 6.34 -10.68 5.68 -10 5 C-9.34 4.34 -8.68 3.68 -8 3 C-7.01 3 -6.02 3 -5 3 C-5 2.34 -5 1.68 -5 1 C-3 0 -3 0 0 0 Z " fill="#5A10E0" transform="translate(268,310)"/>
<path d="M0 0 C0.33 0.99 0.66 1.98 1 3 C-2.56106999 8.5528549 -8.4471451 14.43893001 -14 18 C-14.99 17.67 -15.98 17.34 -17 17 C-11.39 11.39 -5.78 5.78 0 0 Z " fill="#54208C" transform="translate(334,76)"/>
<path d="M0 0 C0.33 0.99 0.66 1.98 1 3 C-0.28965176 4.37562854 -1.62689293 5.70766393 -3 7 C-3.66 7 -4.32 7 -5 7 C-5.1546875 7.9590625 -5.1546875 7.9590625 -5.3125 8.9375 C-5.539375 9.618125 -5.76625 10.29875 -6 11 C-6.99 11.33 -7.98 11.66 -9 12 C-10.20882096 14.00016466 -10.20882096 14.00016466 -11 16 C-11.66 16 -12.32 16 -13 16 C-13.33 16.99 -13.66 17.98 -14 19 C-15.32 18.67 -16.64 18.34 -18 18 C-17.28972656 17.30132812 -16.57945312 16.60265625 -15.84765625 15.8828125 C-14.92855469 14.97273438 -14.00945312 14.06265625 -13.0625 13.125 C-12.14597656 12.22007813 -11.22945313 11.31515625 -10.28515625 10.3828125 C-7.98812373 8.22317745 -7.98812373 8.22317745 -7 6 C-6.34 6 -5.68 6 -5 6 C-5 5.34 -5 4.68 -5 4 C-3.37373596 2.61767557 -1.7074998 1.28062485 0 0 Z " fill="#4F2280" transform="translate(353,57)"/>
<path d="M0 0 C0 0.99 0 1.98 0 3 C-1 4 -2 5 -3 6 C-3 6.99 -3 7.98 -3 9 C-3.66666667 10.33333333 -4.33333333 11.66666667 -5 13 C-5 13.99 -5 14.98 -5 16 C-4.34 16 -3.68 16 -3 16 C-3 16.66 -3 17.32 -3 18 C-2.34 18 -1.68 18 -1 18 C-0.67 18.99 -0.34 19.98 0 21 C-1.32 20.67 -2.64 20.34 -4 20 C-4 19.34 -4 18.68 -4 18 C-4.99 17.67 -5.98 17.34 -7 17 C-9 14 -9 14 -8.87890625 11.61328125 C-7.79931693 8.40330233 -6.25008804 6.64691903 -3.9375 4.1875 C-3.20402344 3.39730469 -2.47054687 2.60710937 -1.71484375 1.79296875 C-1.14894531 1.20128906 -0.58304688 0.60960937 0 0 Z " fill="#6D09E8" transform="translate(138,273)"/>
<path d="M0 0 C1.32 0 2.64 0 4 0 C3.69481346 3.56050965 2.99971192 5.00035037 0.6875 7.8125 C-2 10 -2 10 -6 10 C-5.37240135 7.07120629 -4.41377341 4.63904371 -3 2 C-2.01 2 -1.02 2 0 2 C0 1.34 0 0.68 0 0 Z " fill="#5714D5" transform="translate(229,345)"/>
<path d="M0 0 C6.03331362 4.98404168 11.5184171 10.41915303 17 16 C12.94654898 16 11.1784671 14.41839888 8 12 C7.67 11.01 7.34 10.02 7 9 C5.6846659 8.29848848 4.34882408 7.63474075 3 7 C1.25 5.625 1.25 5.625 0 4 C0 2.68 0 1.36 0 0 Z " fill="#AF1D94" transform="translate(75,67)"/>
<path d="M0 0 C-1.55603771 3.81936528 -3.95604931 6.26044438 -7 9 C-7.66 9 -8.32 9 -9 9 C-9.22429687 9.55171875 -9.44859375 10.1034375 -9.6796875 10.671875 C-11.40385183 13.71211744 -13.62515822 15.81425673 -16.125 18.25 C-17.03507813 19.14203125 -17.94515625 20.0340625 -18.8828125 20.953125 C-19.58148438 21.62859375 -20.28015625 22.3040625 -21 23 C-21.66 22.67 -22.32 22.34 -23 22 C-22.24074219 21.26394531 -21.48148438 20.52789062 -20.69921875 19.76953125 C-19.69504479 18.7841269 -18.69115346 17.79843448 -17.6875 16.8125 C-17.18798828 16.32974609 -16.68847656 15.84699219 -16.17382812 15.34960938 C-13.21596912 12.43092731 -11.0832597 9.57130234 -9 6 C-7.24609375 4.19921875 -7.24609375 4.19921875 -5.4375 2.6875 C-4.53837891 1.91986328 -4.53837891 1.91986328 -3.62109375 1.13671875 C-2 0 -2 0 0 0 Z " fill="#7105F3" transform="translate(207,208)"/>
<path d="M0 0 C0 5.06265537 -3.7028002 8.36923135 -7 12 C-8.75144314 13.41714279 -10.53147774 14.64914778 -12.421875 15.87109375 C-14.7606408 17.54412176 -16.34125493 19.6777569 -18 22 C-17.91939744 19.2595131 -17.5369489 17.52681778 -15.55078125 15.578125 C-14.31719598 14.58269393 -13.07864388 13.59339556 -11.8359375 12.609375 C-9.47650692 10.5411082 -7.93038255 8.20715126 -6.19921875 5.61328125 C-4.47206426 3.28978026 -2.3413651 1.67240364 0 0 Z " fill="#3B3BFA" transform="translate(313,264)"/>
<path d="M0 0 C2 3 2 3 1.8125 5 C1 7 1 7 -0.5 8.4375 C-2.46573078 10.48513623 -2.62668561 12.23747349 -3 15 C-5.31 15.66 -7.62 16.32 -10 17 C-10 16.01 -10 15.02 -10 14 C-9.34 14 -8.68 14 -8 14 C-7.67 13.01 -7.34 12.02 -7 11 C-6.34 11 -5.68 11 -5 11 C-5 10.01 -5 9.02 -5 8 C-4.01 8 -3.02 8 -2 8 C-1.855625 6.865625 -1.71125 5.73125 -1.5625 4.5625 C-1 1 -1 1 0 0 Z " fill="#560BF4" transform="translate(298,272)"/>
<path d="M0 0 C0.99 0.33 1.98 0.66 3 1 C2.48050781 1.44730469 1.96101563 1.89460938 1.42578125 2.35546875 C-3.35980076 6.50271977 -3.35980076 6.50271977 -7.875 10.9375 C-10 13 -10 13 -12 13 C-12 13.66 -12 14.32 -12 15 C-12.66 15 -13.32 15 -14 15 C-14.66 16.32 -15.32 17.64 -16 19 C-16.6875 17.1875 -16.6875 17.1875 -17 15 C-15.55554037 13.02337103 -14.28906342 12.13054477 -12.0625 11.125 C-9.28772145 9.61148443 -7.95552801 7.47316777 -6 5 C-4.07904689 3.08918384 -2.21578179 1.60290598 0 0 Z " fill="#AC2191" transform="translate(124,285)"/>
<path d="M0 0 C2.475 0.495 2.475 0.495 5 1 C5.33 1.99 5.66 2.98 6 4 C7.65 4.33 9.3 4.66 11 5 C11.73080266 6.97746603 12.39421747 8.98072489 13 11 C12.67 11.66 12.34 12.32 12 13 C9.99698146 11.0238076 7.99750133 9.04425526 6 7.0625 C5.42765625 6.49853516 4.8553125 5.93457031 4.265625 5.35351562 C2.82474495 3.92121224 1.41012857 2.46258871 0 1 C0 0.67 0 0.34 0 0 Z " fill="#501FA9" transform="translate(189,350)"/>
<path d="M0 0 C1 2 1 2 0.375 3.9375 C-1 6 -1 6 -3.19140625 7.2421875 C-6.74236522 9.46462357 -9.4094258 12.19271264 -12.3125 15.1875 C-12.86228516 15.74630859 -13.41207031 16.30511719 -13.97851562 16.88085938 C-15.32363696 18.24937412 -16.66246643 19.62406833 -18 21 C-18.66 20.67 -19.32 20.34 -20 20 C-13.4 13.4 -6.8 6.8 0 0 Z " fill="#3F1A61" transform="translate(316,94)"/>
<path d="M0 0 C0.66 0.33 1.32 0.66 2 1 C1.06027344 1.77923828 1.06027344 1.77923828 0.1015625 2.57421875 C-0.71570313 3.27160156 -1.53296875 3.96898438 -2.375 4.6875 C-3.18710937 5.37199219 -3.99921875 6.05648437 -4.8359375 6.76171875 C-7.11584617 9.11981924 -7.86905729 10.97068917 -9 14 C-11.625 15.8125 -11.625 15.8125 -14 17 C-12.45413139 9.27065697 -6.1171035 4.43009962 0 0 Z " fill="#790EEE" transform="translate(338,77)"/>
<path d="M0 0 C0 3.92709135 -1.27900462 4.8189713 -3.875 7.6875 C-4.59429687 8.49574219 -5.31359375 9.30398438 -6.0546875 10.13671875 C-8 12 -8 12 -10 12 C-10.33 12.66 -10.66 13.32 -11 14 C-11 10 -11 10 -8.875 7.5625 C-5.96598964 4.96968642 -3.02194503 2.4597227 0 0 Z " fill="#1C66FC" transform="translate(308,273)"/>
<path d="M0 0 C3.91057234 3.25881029 7.70930002 6.59163576 11.375 10.125 C12.04273437 10.76695313 12.71046875 11.40890625 13.3984375 12.0703125 C15.07730775 14.09314641 15.60038627 15.43105462 16 18 C15.34 18 14.68 18 14 18 C12.80861947 16.63842225 11.62693635 15.26694089 10.5 13.8515625 C8.28658543 11.11937889 5.91067609 8.53551373 3.55078125 5.9296875 C2.02575767 4.03205111 0.9981268 2.21259636 0 0 Z " fill="#BA2199" transform="translate(107,100)"/>
<path d="M0 0 C0.99 0.33 1.98 0.66 3 1 C-0.07672627 4.95579092 -2.50554439 7.63449705 -7 10 C-7.99 10.66 -8.98 11.32 -10 12 C-9.75 9.625 -9.75 9.625 -9 7 C-6.9375 5.6875 -6.9375 5.6875 -5 5 C-5 4.34 -5 3.68 -5 3 C-4.01 3 -3.02 3 -2 3 C-2 2.34 -2 1.68 -2 1 C-1.34 0.67 -0.68 0.34 0 0 Z " fill="#D705CD" transform="translate(129,278)"/>
<path d="M0 0 C1.32 0.33 2.64 0.66 4 1 C4 1.99 4 2.98 4 4 C2.68 4 1.36 4 0 4 C0 4.99 0 5.98 0 7 C-1.63064764 8.05771739 -3.30280873 9.05273046 -5 10 C-5.556875 10.556875 -6.11375 11.11375 -6.6875 11.6875 C-7.3371875 12.3371875 -7.3371875 12.3371875 -8 13 C-8.66 13 -9.32 13 -10 13 C-10.66 14.32 -11.32 15.64 -12 17 C-12 13.36014388 -10.75895201 12.09433514 -8.4375 9.41015625 C-7 8 -7 8 -4.3125 6.4375 C-1.46056551 4.66467586 -0.93918351 3.15907181 0 0 Z " fill="#9307E0" transform="translate(208,201)"/>
<path d="M0 0 C0.33 0.99 0.66 1.98 1 3 C-3 7 -7 11 -11 15 C-13.125 14.625 -13.125 14.625 -15 14 C-11.60600375 9.22326454 -11.60600375 9.22326454 -8.625 8.125 C-4.69248791 6.43963767 -2.5854053 3.3228233 0 0 Z " fill="#592295" transform="translate(369,42)"/>
<path d="M0 0 C5.55770984 3.58163523 8.78724193 5.70215011 11 12 C10.01 12 9.02 12 8 12 C8 11.34 8 10.68 8 10 C7.34 10 6.68 10 6 10 C5.67 8.68 5.34 7.36 5 6 C3.68 6 2.36 6 1 6 C0.67 4.02 0.34 2.04 0 0 Z " fill="#991D7E" transform="translate(92,84)"/>
<path d="M0 0 C0.99 0 1.98 0 3 0 C3 1.32 3 2.64 3 4 C3.53625 4.061875 4.0725 4.12375 4.625 4.1875 C8.13986768 5.38995473 10.33586248 7.4542686 13 10 C13.875 12.3125 13.875 12.3125 14 14 C13.34 14 12.68 14 12 14 C12 13.34 12 12.68 12 12 C11.34 12 10.68 12 10 12 C10 11.34 10 10.68 10 10 C9.34 10 8.68 10 8 10 C8 9.34 8 8.68 8 8 C6.02 7.34 4.04 6.68 2 6 C2 4.68 2 3.36 2 2 C1.34 2 0.68 2 0 2 C0 1.34 0 0.68 0 0 Z " fill="#5912D9" transform="translate(158,315)"/>
<path d="M0 0 C0.45890625 0.40992188 0.9178125 0.81984375 1.390625 1.2421875 C2.00421875 1.78101563 2.6178125 2.31984375 3.25 2.875 C3.85328125 3.40867188 4.4565625 3.94234375 5.078125 4.4921875 C6.97418746 5.9797487 8.81290005 7.00322436 11 8 C11.99 7.01 12.98 6.02 14 5 C14.66 5.33 15.32 5.66 16 6 C14.515 8.475 14.515 8.475 13 11 C8.64645044 10.50441205 6.69933969 9.19912401 3.6875 6.0625 C2.99011719 5.35222656 2.29273438 4.64195312 1.57421875 3.91015625 C0 2 0 2 0 0 Z " fill="#4A1659" transform="translate(200,191)"/>
<path d="M0 0 C0 0.99 0 1.98 0 3 C-0.639375 3.268125 -1.27875 3.53625 -1.9375 3.8125 C-4.33131686 4.88667752 -4.33131686 4.88667752 -5 8 C-5.66 8 -6.32 8 -7 8 C-7.2475 8.598125 -7.495 9.19625 -7.75 9.8125 C-9.16370012 12.28647521 -10.65055383 13.43370255 -13 15 C-12.6875 13.0625 -12.6875 13.0625 -12 11 C-11.01 10.67 -10.02 10.34 -9 10 C-8.67 9.01 -8.34 8.02 -8 7 C-5.46221127 4.26185953 -3.1110644 2.07404293 0 0 Z " fill="#4D15F3" transform="translate(367,209)"/>
<path d="M0 0 C0.99 0.33 1.98 0.66 3 1 C2.55269531 1.37511719 2.10539062 1.75023437 1.64453125 2.13671875 C-2.07368722 5.2841233 -5.607181 8.5043683 -9 12 C-8.34 9.69 -7.68 7.38 -7 5 C-6.01 5 -5.02 5 -4 5 C-3.67 4.01 -3.34 3.02 -3 2 C-2.01 2 -1.02 2 0 2 C0 1.34 0 0.68 0 0 Z " fill="#B91B98" transform="translate(104,304)"/>
<path d="M0 0 C0.99 0 1.98 0 3 0 C2.67 0.99 2.34 1.98 2 3 C1.01 3.33 0.02 3.66 -1 4 C-3.36506843 6.00121175 -3.9893322 6.96799661 -5 10 C-5.99 10.33 -6.98 10.66 -8 11 C-7.29772585 7.83976631 -6.48261414 4.88719595 -5 2 C-2.9375 1.25 -2.9375 1.25 -1 1 C-0.67 0.67 -0.34 0.34 0 0 Z " fill="#5A12DB" transform="translate(277,298)"/>
<path d="M0 0 C0 0.99 0 1.98 0 3 C-0.45375 3.4125 -0.9075 3.825 -1.375 4.25 C-3.75529009 6.81338933 -4.18032075 9.65823073 -5 13 C-6.98 13.33 -8.96 13.66 -11 14 C-11 13.34 -11 12.68 -11 12 C-10.401875 11.566875 -9.80375 11.13375 -9.1875 10.6875 C-6.64829317 8.72868331 -5.61075669 6.75170935 -4 4 C-2.70420353 2.63015802 -1.38007251 1.2848951 0 0 Z " fill="#6E1AD4" transform="translate(239,173)"/>
<path d="M0 0 C2.97 0.495 2.97 0.495 6 1 C6.66 3.64 7.32 6.28 8 9 C3.7938588 7.49780671 2.22833454 4.74041869 0 1 C0 0.67 0 0.34 0 0 Z " fill="#184D90" transform="translate(295,286)"/>
<path d="M0 0 C0.99 0.33 1.98 0.66 3 1 C-0.96 4.96 -4.92 8.92 -9 13 C-9 9.45595664 -8.39010515 8.89732095 -6.125 6.3125 C-5.59132813 5.68988281 -5.05765625 5.06726563 -4.5078125 4.42578125 C-3 3 -3 3 -1 3 C-0.67 2.01 -0.34 1.02 0 0 Z " fill="#AC1F8E" transform="translate(92,316)"/>
<path d="M0 0 C-1.20819367 3.624581 -1.80341913 3.40170957 -5 5 C-5.33 5.99 -5.66 6.98 -6 8 C-7.65 8.33 -9.3 8.66 -11 9 C-11 7 -11 7 -8.6875 4.5 C-3.85 0 -3.85 0 0 0 Z " fill="#5812DB" transform="translate(248,330)"/>
<path d="M0 0 C0.99 0 1.98 0 3 0 C2.6875 1.9375 2.6875 1.9375 2 4 C1.01 4.33 0.02 4.66 -1 5 C-2.20882096 7.00016466 -2.20882096 7.00016466 -3 9 C-3.99 9 -4.98 9 -6 9 C-5.25 7.0625 -5.25 7.0625 -4 5 C-1.875 4.25 -1.875 4.25 0 4 C0 2.68 0 1.36 0 0 Z " fill="#C01999" transform="translate(79,327)"/>
<path d="M0 0 C0.99 0 1.98 0 3 0 C2.69381595 3.67420866 2.24228216 4.78135513 -0.5625 7.3125 C-1.366875 7.869375 -2.17125 8.42625 -3 9 C-2.67 7.02 -2.34 5.04 -2 3 C-1.34 3 -0.68 3 0 3 C0 2.01 0 1.02 0 0 Z " fill="#471F93" transform="translate(236,339)"/>
<path d="M0 0 C-3.625 4.875 -3.625 4.875 -7 6 C-7 5.34 -7 4.68 -7 4 C-7.66 4 -8.32 4 -9 4 C-8.3125 2.0625 -8.3125 2.0625 -7 0 C-4.12060581 -0.93580311 -2.74490212 -1.37245106 0 0 Z " fill="#5B0BEA" transform="translate(288,290)"/>
<path d="M0 0 C4.24822374 0.47202486 6.19989709 2.96655518 9 6 C8.67 6.66 8.34 7.32 8 8 C7.01 7.34 6.02 6.68 5 6 C5 5.34 5 4.68 5 4 C4.360625 3.896875 3.72125 3.79375 3.0625 3.6875 C2.381875 3.460625 1.70125 3.23375 1 3 C0.67 2.01 0.34 1.02 0 0 Z " fill="#5814D9" transform="translate(139,297)"/>
<path d="M0 0 C1.6875 2.3125 1.6875 2.3125 3 5 C2.67 5.99 2.34 6.98 2 8 C0.5 6.625 0.5 6.625 -1 5 C-1 4.34 -1 3.68 -1 3 C-2.65 3.66 -4.3 4.32 -6 5 C-3.74193548 0 -3.74193548 0 0 0 Z " fill="#4C1D73" transform="translate(129,285)"/>
<path d="M0 0 C0.33 0.99 0.66 1.98 1 3 C-1.52788007 5.79872437 -3.20411134 7.45773019 -7 8 C-5.98823563 4.59679258 -5.35156418 3.24274669 -2.375 1.1875 C-1.59125 0.795625 -0.8075 0.40375 0 0 Z " fill="#4C1CF4" transform="translate(375,201)"/>
<path d="M0 0 C0.8125 1.6875 0.8125 1.6875 1 4 C-1.4375 6.75 -1.4375 6.75 -4 9 C-4.66 8.67 -5.32 8.34 -6 8 C-4.26440562 4.942048 -2.61527381 2.36620011 0 0 Z " fill="#6F1BD0" transform="translate(277,135)"/>
<path d="M0 0 C7.48291572 6.15034169 7.48291572 6.15034169 10 10 C7.6875 9.8125 7.6875 9.8125 5 9 C3.3125 6.6875 3.3125 6.6875 2 4 C1.33429481 2.66618636 0.66780311 1.33276451 0 0 Z " fill="#BC1D98" transform="translate(151,144)"/>
<path d="M0 0 C0.66 0.33 1.32 0.66 2 1 C-0.78999451 4.48749314 -3.25235831 7.50157221 -7 10 C-7.66 9.67 -8.32 9.34 -9 9 C-8.3125 7.125 -8.3125 7.125 -7 5 C-5.34795544 4.29788106 -3.68076231 3.63028587 -2 3 C-1.34 2.01 -0.68 1.02 0 0 Z " fill="#7118D4" transform="translate(361,52)"/>
<path d="M0 0 C2.91517292 1.07401108 4.77810176 1.77810176 7 4 C7 4.99 7 5.98 7 7 C5.68 6.67 4.36 6.34 3 6 C3 5.01 3 4.02 3 3 C2.01 3 1.02 3 0 3 C0 2.01 0 1.02 0 0 Z " fill="#CD12A4" transform="translate(182,177)"/>
<path d="M0 0 C1.32 0.33 2.64 0.66 4 1 C0.535 3.97 0.535 3.97 -3 7 C-2.25 2.25 -2.25 2.25 0 0 Z " fill="#421E7D" transform="translate(229,348)"/>
<path d="M0 0 C2.3125 0.1875 2.3125 0.1875 5 1 C6.875 3.4375 6.875 3.4375 8 6 C7.67 6.66 7.34 7.32 7 8 C5.83035398 6.8572081 4.66435444 5.71068285 3.5 4.5625 C2.8503125 3.92441406 2.200625 3.28632813 1.53125 2.62890625 C0 1 0 1 0 0 Z " fill="#462581" transform="translate(189,350)"/>
<path d="M0 0 C0.33 0.99 0.66 1.98 1 3 C1.66 3.33 2.32 3.66 3 4 C3.66 4.33 4.32 4.66 5 5 C5.33 5.99 5.66 6.98 6 8 C4.68 8 3.36 8 2 8 C2 6.68 2 5.36 2 4 C1.34 4 0.68 4 0 4 C0 3.34 0 2.68 0 2 C-0.66 1.67 -1.32 1.34 -2 1 C-1.34 0.67 -0.68 0.34 0 0 Z " fill="#5A0DE5" transform="translate(174,328)"/>
<path d="M0 0 C0.33 0.99 0.66 1.98 1 3 C-1.52788007 5.79872437 -3.20411134 7.45773019 -7 8 C-7 7.34 -7 6.68 -7 6 C-6.34 6 -5.68 6 -5 6 C-5 5.34 -5 4.68 -5 4 C-3.37373596 2.61767557 -1.7074998 1.28062485 0 0 Z " fill="#411B65" transform="translate(353,57)"/>
<path d="M0 0 C0.99 0 1.98 0 3 0 C3 0.66 3 1.32 3 2 C3.66 2 4.32 2 5 2 C5 2.66 5 3.32 5 4 C5.66 4 6.32 4 7 4 C7 4.66 7 5.32 7 6 C4.0625 5.25 4.0625 5.25 1 4 C0.125 1.875 0.125 1.875 0 0 Z " fill="#5A16D0" transform="translate(201,359)"/>
<path d="M0 0 C-0.1875 1.875 -0.1875 1.875 -1 4 C-3.5625 5.25 -3.5625 5.25 -6 6 C-6.33 4.35 -6.66 2.7 -7 1 C-6.34 1 -5.68 1 -5 1 C-5 1.66 -5 2.32 -5 3 C-4.54625 2.505 -4.0925 2.01 -3.625 1.5 C-2 0 -2 0 0 0 Z " fill="#5B0CEB" transform="translate(223,353)"/>
<path d="M0 0 C1.65 0 3.3 0 5 0 C5 0.99 5 1.98 5 3 C2.69 3.66 0.38 4.32 -2 5 C-2 4.01 -2 3.02 -2 2 C-1.34 2 -0.68 2 0 2 C0 1.34 0 0.68 0 0 Z " fill="#551AD0" transform="translate(290,284)"/>
<path d="M0 0 C0 3 0 3 -2.3125 5.6875 C-5 8 -5 8 -8 8 C-5.36 5.36 -2.72 2.72 0 0 Z " fill="#7503F0" transform="translate(149,264)"/>
<path d="M0 0 C0.33 0.66 0.66 1.32 1 2 C0.67 2.99 0.34 3.98 0 5 C-0.66 5 -1.32 5 -2 5 C-2.33 5.66 -2.66 6.32 -3 7 C-3.33 5.35 -3.66 3.7 -4 2 C-2.68 1.34 -1.36 0.68 0 0 Z " fill="#5E08F0" transform="translate(236,337)"/>
<path d="M0 0 C0.66 0 1.32 0 2 0 C4 3 4 3 3.625 5.1875 C3.41875 5.785625 3.2125 6.38375 3 7 C2.67 6.01 2.34 5.02 2 4 C-0.00016466 2.79117904 -0.00016466 2.79117904 -2 2 C-1.34 1.34 -0.68 0.68 0 0 Z " fill="#163E6E" transform="translate(342,332)"/>
<path d="M0 0 C0.66 0 1.32 0 2 0 C2 1.65 2 3.3 2 5 C0.02 5.99 0.02 5.99 -2 7 C-2 5.68 -2 4.36 -2 3 C-1.34 3 -0.68 3 0 3 C0 2.01 0 1.02 0 0 Z " fill="#4B1AA1" transform="translate(250,325)"/>
<path d="M0 0 C0.598125 0.309375 1.19625 0.61875 1.8125 0.9375 C4.08956772 2.10209704 4.08956772 2.10209704 7 3 C7.33 4.65 7.66 6.3 8 8 C6.85073734 7.04578192 5.70569459 6.08647955 4.5625 5.125 C3.92441406 4.59132813 3.28632813 4.05765625 2.62890625 3.5078125 C1 2 1 2 0 0 Z " fill="#3F2171" transform="translate(137,298)"/>
<path d="M0 0 C0.99 0.33 1.98 0.66 3 1 C2.67 1.66 2.34 2.32 2 3 C1.34 3 0.68 3 0 3 C-0.66 4.32 -1.32 5.64 -2 7 C-2.6875 5.1875 -2.6875 5.1875 -3 3 C-1.5625 1.25 -1.5625 1.25 0 0 Z " fill="#BD1A99" transform="translate(110,297)"/>
<path d="M0 0 C1.4540625 0.0309375 1.4540625 0.0309375 2.9375 0.0625 C0.32235683 2.18288635 -2.25887616 4.19341744 -5.0625 6.0625 C-3.98897059 0.08140756 -3.98897059 0.08140756 0 0 Z " fill="#D30EAC" transform="translate(124.0625,283.9375)"/>
<path d="M0 0 C1.32 0.33 2.64 0.66 4 1 C4 1.99 4 2.98 4 4 C2.68 4 1.36 4 0 4 C0 4.99 0 5.98 0 7 C-0.66 7 -1.32 7 -2 7 C-1.34 4.69 -0.68 2.38 0 0 Z " fill="#800FDE" transform="translate(208,201)"/>
<path d="M0 0 C1.8125 0.1875 1.8125 0.1875 4 1 C5.75 3.5625 5.75 3.5625 7 6 C6.01 6.495 6.01 6.495 5 7 C0 1.125 0 1.125 0 0 Z " fill="#CC15A2" transform="translate(116,111)"/>
<path d="M0 0 C0.33 0.99 0.66 1.98 1 3 C-1 6 -1 6 -3.625 6.6875 C-4.800625 6.8421875 -4.800625 6.8421875 -6 7 C-4.02 4.69 -2.04 2.38 0 0 Z " fill="#4D2078" transform="translate(334,76)"/>
<path d="M0 0 C0.66 0.33 1.32 0.66 2 1 C1.360625 1.268125 0.72125 1.53625 0.0625 1.8125 C-2.33131686 2.88667752 -2.33131686 2.88667752 -3 6 C-4.32 5.67 -5.64 5.34 -7 5 C-4.88437775 2.67281553 -2.94982021 1.14186589 0 0 Z " fill="#5A2297" transform="translate(342,70)"/>
</svg>
