<?xml version="1.0" encoding="UTF-8"?>
<svg version="1.1" xmlns="http://www.w3.org/2000/svg" width="411" height="411">
<path d="M0 0 C3.26637657 1.95137059 5.80143383 4.0984881 8.57996559 6.69514561 C9.0945173 7.17503612 9.60906902 7.65492664 10.1392132 8.14935929 C16.42043921 14.04296593 22.52811259 20.1145596 28.63254738 26.1900034 C29.94460553 27.49249414 31.25682553 28.79482187 32.56919289 30.09700108 C36.82929601 34.32609536 41.0841884 38.56040916 45.33811378 42.79571629 C46.06551781 43.51982299 46.79292184 44.2439297 47.54236841 44.98997903 C54.41575892 51.83264187 61.28711891 58.67733781 68.15367126 65.5268631 C76.89272781 74.24397957 85.64172665 82.95084784 94.40443552 91.64418977 C100.59274518 97.78518374 106.76945027 103.93769983 112.93777335 110.09876829 C116.61137669 113.76743402 120.28979077 117.43094141 123.98082542 121.08207607 C127.449725 124.51395426 130.90394346 127.95996936 134.34775734 131.41701412 C135.60746332 132.67666644 136.87224353 133.93126975 138.14263725 135.1801424 C147.42676578 144.31542538 156.00365035 153.98782571 156.43967628 167.70587254 C156.22480726 181.54957668 149.99169432 190.13665084 140.51316261 199.41314793 C139.09599862 200.8002154 137.71070598 202.21960955 136.32639503 203.63946629 C134.06467628 205.83087254 134.06467628 205.83087254 131.87717628 206.89337254 C129.53606697 208.10429115 129.02396503 209.43265068 128.06467628 211.83087254 C127.40467628 211.83087254 126.74467628 211.83087254 126.06467628 211.83087254 C125.73467628 212.82087254 125.40467628 213.81087254 125.06467628 214.83087254 C123.28733253 216.54962254 123.28733253 216.54962254 121.12717628 218.33087254 C118.55492436 220.45963275 116.94206865 222.01478398 115.06467628 224.83087254 C114.40467628 224.83087254 113.74467628 224.83087254 113.06467628 224.83087254 C112.73467628 225.82087254 112.40467628 226.81087254 112.06467628 227.83087254 C110.68186378 229.15509129 110.68186378 229.15509129 108.93967628 230.51837254 C105.3587673 233.44954958 102.47087916 236.71665666 99.54514503 240.29181004 C99.05659035 240.79970066 98.56803566 241.30759129 98.06467628 241.83087254 C97.40467628 241.83087254 96.74467628 241.83087254 96.06467628 241.83087254 C95.40467628 243.15087254 94.74467628 244.47087254 94.06467628 245.83087254 C93.40467628 245.83087254 92.74467628 245.83087254 92.06467628 245.83087254 C91.40467628 247.15087254 90.74467628 248.47087254 90.06467628 249.83087254 C89.40467628 249.83087254 88.74467628 249.83087254 88.06467628 249.83087254 C87.83780128 250.38774754 87.61092628 250.94462254 87.37717628 251.51837254 C85.68917592 254.49246841 83.59791112 256.55096119 81.06467628 258.83087254 C80.40467628 258.83087254 79.74467628 258.83087254 79.06467628 258.83087254 C78.75530128 259.66618504 78.75530128 259.66618504 78.43967628 260.51837254 C76.9180255 263.07751248 75.0888044 264.51988103 72.77170753 266.34649754 C70.82983561 268.03508182 69.22826634 269.86850023 67.56467628 271.83087254 C64.66264216 275.24315442 61.51529403 277.96759398 58.06467628 280.83087254 C57.08601514 281.93823433 56.12853243 283.06456762 55.18967628 284.20587254 C52.39792112 287.58382302 49.27008023 290.3172121 45.93577003 293.14727879 C43.84941139 294.94394151 43.84941139 294.94394151 41.56467628 297.83087254 C38.91644337 301.00875203 36.04429858 303.50650123 32.90452003 306.17852879 C30.92515095 307.8655727 30.92515095 307.8655727 29.06467628 310.33087254 C27.21031598 312.64882292 25.37836158 314.35255935 23.12717628 316.26837254 C20.65332428 318.37775279 18.66155259 320.31462096 16.56467628 322.83087254 C9.52102032 331.28325969 -0.02785444 339.00836527 -11.18141747 340.63165379 C-23.23606886 341.5036924 -31.33401597 339.3776347 -40.93532372 331.83087254 C-43.85361094 329.09394779 -46.21518942 326.32842454 -47.96657372 322.68634129 C-49.22925848 320.26789264 -50.50450959 320.01155368 -52.93532372 318.83087254 C-54.64525805 317.20862714 -56.30880056 315.53673829 -57.93532372 313.83087254 C-60.54669913 311.20173266 -63.17570565 308.59248637 -65.82985497 306.00665379 C-66.80253568 305.05225163 -67.7751918 304.09782442 -68.74782372 303.14337254 C-69.24991356 302.6580405 -69.7520034 302.17270847 -70.26930809 301.67266941 C-71.52949644 300.42962648 -72.73723415 299.13387362 -73.93532372 297.83087254 C-73.93532372 297.17087254 -73.93532372 296.51087254 -73.93532372 295.83087254 C-74.46831581 295.62319752 -75.00130791 295.4155225 -75.55045128 295.2015543 C-78.89547847 293.27903312 -81.40343155 290.62393591 -84.0932827 287.89996433 C-84.70031029 287.2932288 -85.30733788 286.68649326 -85.93276024 286.0613718 C-87.9370901 284.05564951 -89.9342403 282.04293383 -91.93141747 280.03009129 C-93.32576032 278.63201574 -94.7205473 277.234383 -96.1157589 275.83717442 C-99.78925675 272.1560416 -103.45671477 268.46894797 -107.12294579 264.78057957 C-110.84392594 261.03920882 -114.57050392 257.30342344 -118.29665184 253.56720066 C-124.32143066 247.52484774 -130.3427804 241.47910319 -136.35959435 235.4288187 C-139.54654878 232.22452318 -142.73825693 229.02508729 -145.93532372 225.83087254 C-149.73740705 222.0287892 -153.53949038 218.22670587 -157.34157372 214.42462254 C-157.96427147 213.80216648 -158.58696922 213.17971043 -159.22853661 212.53839207 C-160.6208582 211.145473 -162.01085367 209.75022913 -163.40016747 208.35431004 C-165.51386264 206.25038541 -167.64433801 204.16710531 -169.78297997 202.08868504 C-171.18808162 200.71123768 -172.59302614 199.33363001 -173.99782372 197.95587254 C-174.7048745 197.27395847 -175.41192528 196.59204441 -176.14040184 195.88946629 C-184.57796824 187.57073884 -188.662726 178.54817925 -189.00172997 166.46368504 C-187.97655376 156.04454729 -183.40433113 147.96792406 -175.93532372 140.83087254 C-174.45532742 139.3316911 -172.97623911 137.831613 -171.49782372 136.33087254 C-169.01901457 133.84386898 -166.56443493 131.446557 -163.81032372 129.26837254 C-160.63004764 126.57205152 -158.09010924 123.62082517 -155.45094872 120.40509129 C-154.95079247 119.8855991 -154.45063622 119.36610691 -153.93532372 118.83087254 C-153.27532372 118.83087254 -152.61532372 118.83087254 -151.93532372 118.83087254 C-151.44032372 117.34587254 -151.44032372 117.34587254 -150.93532372 115.83087254 C-149.51735497 114.47149754 -149.51735497 114.47149754 -147.74782372 113.08087254 C-144.46058246 110.38885192 -141.82669908 107.4796819 -139.19704247 104.15118504 C-138.78067528 103.71548191 -138.36430809 103.27977879 -137.93532372 102.83087254 C-137.27532372 102.83087254 -136.61532372 102.83087254 -135.93532372 102.83087254 C-135.53216942 101.94093601 -135.53216942 101.94093601 -135.12087059 101.03302097 C-133.9324164 98.8254722 -132.72789982 97.36544372 -130.96657372 95.59649754 C-130.39551903 95.02286472 -129.82446434 94.44923191 -129.23610497 93.85821629 C-128.64184715 93.27169285 -128.04758934 92.68516941 -127.43532372 92.08087254 C-126.8410659 91.47888035 -126.24680809 90.87688816 -125.63454247 90.25665379 C-125.06348778 89.68817722 -124.49243309 89.11970066 -123.90407372 88.53399754 C-123.38264793 88.01482761 -122.86122215 87.49565769 -122.32399559 86.96075535 C-120.93532372 85.83087254 -120.93532372 85.83087254 -118.93532372 85.83087254 C-118.66719872 85.19149754 -118.39907372 84.55212254 -118.12282372 83.89337254 C-116.93532372 81.83087254 -116.93532372 81.83087254 -113.93532372 80.83087254 C-113.64657372 80.25337254 -113.35782372 79.67587254 -113.06032372 79.08087254 C-111.53919749 76.03862009 -109.44818475 74.09244747 -106.93532372 71.83087254 C-106.27532372 71.83087254 -105.61532372 71.83087254 -104.93532372 71.83087254 C-103.94532372 69.85087254 -103.94532372 69.85087254 -102.93532372 67.83087254 C-102.27532372 67.83087254 -101.61532372 67.83087254 -100.93532372 67.83087254 C-100.56407372 66.96462254 -100.56407372 66.96462254 -100.18532372 66.08087254 C-98.75232383 63.50147274 -97.15107695 61.76965662 -94.93532372 59.83087254 C-94.27532372 59.83087254 -93.61532372 59.83087254 -92.93532372 59.83087254 C-92.70844872 59.27399754 -92.48157372 58.71712254 -92.24782372 58.14337254 C-90.56496631 55.17833807 -88.39910998 53.17733564 -85.93532372 50.83087254 C-85.21344872 50.06774754 -84.49157372 49.30462254 -83.74782372 48.51837254 C-81.93532372 46.83087254 -81.93532372 46.83087254 -79.93532372 46.83087254 C-79.93532372 46.17087254 -79.93532372 45.51087254 -79.93532372 44.83087254 C-73.25179818 46.12298852 -68.43105387 52.29616715 -63.67067528 56.88043308 C-62.35839993 58.12832109 -61.02768356 59.35712849 -59.67848778 60.5650034 C-47.84259594 71.17393301 -47.84259594 71.17393301 -47.16798973 78.55108738 C-47.11260631 81.66436216 -47.35409512 84.67286112 -47.70216942 87.76373386 C-48.35096703 93.98231068 -45.54517986 98.93122029 -41.93532372 103.83087254 C-39.25152104 106.71471019 -36.4903366 109.0533661 -32.93532372 110.83087254 C-31.62437961 114.76370486 -31.76298304 118.52800714 -31.74245262 122.62921238 C-31.73018639 123.9784454 -31.73018639 123.9784454 -31.71767235 125.35493565 C-31.69284313 128.33388701 -31.67631059 131.31279087 -31.66188622 134.29181004 C-31.65656254 135.30884636 -31.65123886 136.32588268 -31.64575386 137.37373829 C-31.61903584 142.75462433 -31.5996547 148.13548725 -31.58522606 153.51641941 C-31.56856149 159.07740749 -31.52376451 164.63780487 -31.47285461 170.1985693 C-31.43922817 174.47251168 -31.42765382 178.74631285 -31.42199898 183.02037525 C-31.41527617 185.07052862 -31.40002749 187.12067236 -31.37610817 189.17069721 C-31.34454627 192.03887257 -31.34440611 194.90544075 -31.35182762 197.77374363 C-31.33542229 198.6206728 -31.31901695 199.46760197 -31.30211449 200.34019566 C-31.34777677 204.64955962 -31.49838695 206.29440215 -34.31163597 209.74850559 C-35.6103614 210.77927723 -35.6103614 210.77927723 -36.93532372 211.83087254 C-44.23379647 218.5953107 -47.66995598 225.98510641 -48.93532372 235.83087254 C-48.57381058 245.26519915 -45.90667676 253.35747328 -38.93532372 259.83087254 C-38.93532372 260.49087254 -38.93532372 261.15087254 -38.93532372 261.83087254 C-38.06907372 262.26206394 -38.06907372 262.26206394 -37.18532372 262.70196629 C-35.76439868 263.41489569 -34.3471712 264.13528741 -32.93532372 264.86602879 C-32.27532372 265.20505222 -31.61532372 265.54407566 -30.93532372 265.89337254 C-30.27532372 266.2349741 -29.61532372 266.57657566 -28.93532372 266.92852879 C-21.29992019 270.37340811 -11.24713583 270.0746655 -3.49782372 267.20587254 C1.38013555 264.95202997 6.59707807 261.76606897 9.06467628 256.83087254 C9.72467628 256.83087254 10.38467628 256.83087254 11.06467628 256.83087254 C11.25803566 256.25079441 11.45139503 255.67071629 11.65061378 255.07306004 C11.91100441 254.29188816 12.17139503 253.51071629 12.43967628 252.70587254 C12.71166847 251.87700535 12.98366066 251.04813816 13.26389503 250.19415379 C13.86951529 248.40683546 14.5448981 246.64295542 15.25217628 244.89337254 C17.57145721 236.15146751 15.87698711 227.92367272 12.06467628 219.83087254 C9.26731856 215.76078333 6.11110128 212.62706546 2.18967628 209.64337254 C-0.49914732 207.34996417 -0.47606609 206.29216692 -0.93532372 202.83087254 C-1.02624584 200.47692695 -1.06321512 198.12065497 -1.06471825 195.76495457 C-1.06734673 194.72733982 -1.06734673 194.72733982 -1.07002831 193.66876316 C-1.07441347 191.39204459 -1.07151995 189.11540434 -1.06813622 186.83868504 C-1.06881037 185.24834268 -1.06978132 183.65800043 -1.07103539 182.06765842 C-1.07250797 178.73725495 -1.07037247 175.40687835 -1.06569481 172.076478 C-1.06000708 167.82084156 -1.06327325 163.56526832 -1.06926727 159.30963421 C-1.07289267 156.02555973 -1.07172506 152.74150006 -1.06913948 149.45742512 C-1.0684752 147.88903769 -1.0692811 146.32064889 -1.07161903 144.75226307 C-1.07417707 142.55333273 -1.07026046 140.35450251 -1.06471825 138.15557957 C-1.06392265 136.90713261 -1.06312706 135.65868565 -1.06230736 134.37240696 C-0.93402222 130.79457435 -0.50642844 127.36283586 0.06467628 123.83087254 C2.00217628 124.14337254 2.00217628 124.14337254 4.06467628 124.83087254 C4.39467628 125.82087254 4.72467628 126.81087254 5.06467628 127.83087254 C6.3880626 128.51707285 7.7233691 129.1803979 9.06467628 129.83087254 C14.13603907 134.34916618 18.69459428 139.40774638 23.02561378 144.63165379 C24.68468948 146.42104003 26.29446578 147.89221257 28.16623878 149.43634129 C36.50557057 156.53559646 36.50557057 156.53559646 37.53782082 160.77325535 C37.80269887 164.2324465 37.52234627 167.60696186 37.24436378 171.05743504 C36.98686389 176.46493286 38.40118731 180.20306045 41.06467628 184.83087254 C41.47717628 185.54759129 41.88967628 186.26431004 42.31467628 187.00274754 C46.81192238 193.79972175 53.55606236 198.09743834 61.37717628 200.26837254 C70.57569256 201.82854491 78.9612253 200.6042731 87.04123878 195.98712254 C89.06467628 194.83087254 89.06467628 194.83087254 92.06467628 193.83087254 C92.06467628 193.17087254 92.06467628 192.51087254 92.06467628 191.83087254 C92.64217628 191.29462254 93.21967628 190.75837254 93.81467628 190.20587254 C100.75995014 182.87475013 101.40862832 174.12554953 101.35764503 164.42852879 C100.88374446 158.60902968 99.26012958 153.02632583 95.06467628 148.83087254 C94.70631691 148.31911472 94.34795753 147.80735691 93.97873878 147.28009129 C89.63074746 141.33783647 84.18594103 138.49171756 77.06467628 136.83087254 C74.17861037 136.76760876 71.3193778 136.96214366 68.43967628 137.14337254 C63.7344948 137.40751578 60.98155833 137.42535965 56.93186378 134.79962254 C54.4284672 132.25886182 52.2507845 129.64569233 50.06467628 126.83087254 C48.41908063 125.14339795 46.75464952 123.47390207 45.06467628 121.83087254 C35.06467628 111.83087254 35.06467628 111.83087254 32.92405128 109.65509129 C28.29702149 104.95405849 28.29702149 104.95405849 23.31467628 100.64337254 C17.50771642 95.96554376 17.50771642 95.96554376 16.06467628 92.83087254 C15.79519633 89.57538078 15.88342172 86.43351396 16.02170753 83.17071629 C16.07314518 79.17260839 15.41526493 75.63093962 14.50217628 71.75665379 C14.06467628 69.83087254 14.06467628 69.83087254 14.06467628 67.83087254 C13.40467628 67.83087254 12.74467628 67.83087254 12.06467628 67.83087254 C11.69342628 66.40774754 11.69342628 66.40774754 11.31467628 64.95587254 C10.41034337 61.7811124 10.41034337 61.7811124 8.18967628 60.70587254 C7.48842628 60.41712254 6.78717628 60.12837254 6.06467628 59.83087254 C5.26030128 58.90274754 5.26030128 58.90274754 4.43967628 57.95587254 C-1.61631613 52.53735301 -9.97971792 50.83087254 -17.93532372 50.83087254 C-19.82251122 51.17118504 -19.82251122 51.17118504 -21.74782372 51.51837254 C-24.93532372 51.83087254 -24.93532372 51.83087254 -27.56032372 50.26837254 C-30.19098359 47.56848477 -32.54167911 44.74206192 -34.93532372 41.83087254 C-35.59532372 41.50087254 -36.25532372 41.17087254 -36.93532372 40.83087254 C-36.93532372 40.17087254 -36.93532372 39.51087254 -36.93532372 38.83087254 C-37.59532372 38.83087254 -38.25532372 38.83087254 -38.93532372 38.83087254 C-40.16188622 37.54571629 -40.16188622 37.54571629 -41.56032372 35.76837254 C-44.48489462 32.22431124 -47.69960698 29.27662489 -51.20094872 26.31134129 C-52.93532372 24.83087254 -52.93532372 24.83087254 -54.93532372 22.83087254 C-54.56032372 20.70587254 -54.56032372 20.70587254 -53.93532372 18.83087254 C-53.27532372 18.83087254 -52.61532372 18.83087254 -51.93532372 18.83087254 C-51.93532372 18.17087254 -51.93532372 17.51087254 -51.93532372 16.83087254 C-50.36110497 15.28009129 -50.36110497 15.28009129 -48.24782372 13.51837254 C-45.81300579 11.45220662 -43.50919248 9.4047413 -41.24782372 7.14337254 C-30.10674859 -3.99770259 -14.49099788 -7.15434749 0 0 Z " fill="#E54A19" transform="translate(221.93532371520996,38.169127464294434)"/>
<path d="M0 0 C6.875 3.625 6.875 3.625 8 7 C8.11729235 9.94012361 8.17814888 12.85739527 8.19287109 15.79833984 C8.20104858 16.69782852 8.20922607 17.5973172 8.21765137 18.52406311 C8.24248059 21.50301447 8.25901313 24.48191833 8.2734375 27.4609375 C8.27876118 28.47797382 8.28408485 29.49501015 8.28956985 30.54286575 C8.31628788 35.92375179 8.33566901 41.30461472 8.35009766 46.68554688 C8.36676223 52.24653495 8.4115592 57.80693234 8.4624691 63.36769676 C8.49609554 67.64163914 8.5076699 71.91544031 8.51332474 76.18950272 C8.52004755 78.23965608 8.53529623 80.28979983 8.55921555 82.33982468 C8.59077745 85.20800004 8.59091761 88.07456821 8.58349609 90.94287109 C8.59990143 91.78980026 8.61630676 92.63672943 8.63320923 93.50932312 C8.58765004 97.80895789 8.43148095 99.46600782 5.63931274 102.92153931 C4.76833954 103.60743134 3.89736633 104.29332336 3 105 C2.071875 105.763125 1.14375 106.52625 0.1875 107.3125 C-0.534375 107.869375 -1.25625 108.42625 -2 109 C-1.875 106.6875 -1.875 106.6875 -1 104 C0.98 103.01 2.96 102.02 5 101 C5.33 69.32 5.66 37.64 6 5 C4.35 4.67 2.7 4.34 1 4 C0.67 2.68 0.34 1.36 0 0 Z " fill="#C9593A" transform="translate(182,145)"/>
<path d="M0 0 C0.99 0.495 0.99 0.495 2 1 C-15.5 18.5 -15.5 18.5 -17.3203125 20.31640625 C-18.68140407 21.68066315 -20.03013533 23.05724416 -21.375 24.4375 C-30.98275797 33.81650182 -38.59229402 39.43342666 -52.30078125 40.1796875 C-62.72751231 40.01731349 -70.54221317 36.2111072 -78.07421875 29.01953125 C-80.29251027 26.50045444 -82.1397119 23.79043215 -84 21 C-80.42049956 22.55305472 -77.86071322 24.75092141 -74.9375 27.3125 C-66.45744015 34.27625775 -59.2181461 37.82679775 -48.09375 37.36328125 C-43.21331071 36.79019936 -37.98344906 36.04823508 -34.4453125 32.39453125 C-33 31 -33 31 -30 31 C-30 30.34 -30 29.68 -30 29 C-29.34 28.67 -28.68 28.34 -28 28 C-26.86649466 25.98330173 -26.86649466 25.98330173 -26 24 C-25.01 24 -24.02 24 -23 24 C-22.505 22.515 -22.505 22.515 -22 21 C-20.0625 18.8125 -20.0625 18.8125 -18 17 C-17.34 17 -16.68 17 -16 17 C-16 16.01 -16 15.02 -16 14 C-15.34 14 -14.68 14 -14 14 C-14 13.01 -14 12.02 -14 11 C-13.38125 10.9175 -12.7625 10.835 -12.125 10.75 C-9.81562433 10.18741541 -9.81562433 10.18741541 -8.75 7.9375 C-8.37875 6.9784375 -8.37875 6.9784375 -8 6 C-7.34 6 -6.68 6 -6 6 C-6 5.34 -6 4.68 -6 4 C-5.01 3.67 -4.02 3.34 -3 3 C-1.33289654 1.50014391 -1.33289654 1.50014391 0 0 Z " fill="#D6542F" transform="translate(257,339)"/>
<path d="M0 0 C6.68352553 1.29211598 11.50426984 7.46529461 16.26464844 12.04956055 C17.57692378 13.29744855 18.90764016 14.52625595 20.25683594 15.73413086 C32.1001976 26.34975594 32.1001976 26.34975594 32.75634766 33.71362305 C32.80624433 36.82436659 32.5549909 39.82704402 32.20263672 42.91455078 C31.44696528 50.32501497 36.05497395 56.08246092 40 62 C39.01 62 38.02 62 37 62 C36.8453125 61.0409375 36.8453125 61.0409375 36.6875 60.0625 C36.460625 59.381875 36.23375 58.70125 36 58 C35.01 57.67 34.02 57.34 33 57 C31.9375 54.75 31.9375 54.75 31 52 C30.50886719 50.89398438 30.50886719 50.89398438 30.0078125 49.765625 C28.82086664 46.50842474 28.37820133 43.43672971 27.9375 40 C27.22926418 33.95119228 27.22926418 33.95119228 26 28 C25.34 27.67 24.68 27.34 24 27 C23.5666333 25.86957275 23.5666333 25.86957275 23.12451172 24.71630859 C21.06881289 19.75067569 16.88241651 16.37065621 13.125 12.625 C12.30902344 11.78066406 11.49304688 10.93632813 10.65234375 10.06640625 C9.86214844 9.27363281 9.07195312 8.48085937 8.2578125 7.6640625 C7.5373877 6.93654785 6.81696289 6.2090332 6.07470703 5.45947266 C4.13588847 3.7574802 4.13588847 3.7574802 1.92138672 4.20849609 C1.2873291 4.46969238 0.65327148 4.73088867 0 5 C-0.99 5.33 -1.98 5.66 -3 6 C-3.6496875 7.1446875 -3.6496875 7.1446875 -4.3125 8.3125 C-6.37157083 11.59176095 -8.71218683 13.0273121 -12 15 C-12 12 -12 12 -9.8125 9.625 C-8.884375 8.75875 -7.95625 7.8925 -7 7 C-6.113125 6.071875 -5.22625 5.14375 -4.3125 4.1875 C-2 2 -2 2 0 2 C0 1.34 0 0.68 0 0 Z " fill="#CB5839" transform="translate(142,83)"/>
<path d="M0 0 C0 0.99 0 1.98 0 3 C-0.99 3.33 -1.98 3.66 -3 4 C-4.20882096 6.00016466 -4.20882096 6.00016466 -5 8 C-5.66 8 -6.32 8 -7 8 C-7.33 8.99 -7.66 9.98 -8 11 C-9.77734375 12.71875 -9.77734375 12.71875 -11.9375 14.5 C-14.50975192 16.62876021 -16.12260763 18.18391145 -18 21 C-18.66 21 -19.32 21 -20 21 C-20.33 21.99 -20.66 22.98 -21 24 C-22.3828125 25.32421875 -22.3828125 25.32421875 -24.125 26.6875 C-27.70590899 29.61867705 -30.59379712 32.88578413 -33.51953125 36.4609375 C-34.25236328 37.22277344 -34.25236328 37.22277344 -35 38 C-35.66 38 -36.32 38 -37 38 C-37.66 39.32 -38.32 40.64 -39 42 C-39.66 42 -40.32 42 -41 42 C-41.66 43.32 -42.32 44.64 -43 46 C-43.66 45.67 -44.32 45.34 -45 45 C-44.01 42.69 -43.02 40.38 -42 38 C-40.68 38 -39.36 38 -38 38 C-38 37.34 -38 36.68 -38 36 C-36.515 35.505 -36.515 35.505 -35 35 C-34.26676204 32.98491642 -34.26676204 32.98491642 -34 31 C-33.01 31 -32.02 31 -31 31 C-30.67 29.68 -30.34 28.36 -30 27 C-28.68 27 -27.36 27 -26 27 C-26 25.68 -26 24.36 -26 23 C-24.68 23 -23.36 23 -22 23 C-21.67 21.68 -21.34 20.36 -21 19 C-20.34 19 -19.68 19 -19 19 C-18.67 17.35 -18.34 15.7 -18 14 C-16.35 14 -14.7 14 -13 14 C-12.67 12.68 -12.34 11.36 -12 10 C-11.34 10 -10.68 10 -10 10 C-9.67 9.01 -9.34 8.02 -9 7 C-7.66666667 6.33333333 -6.33333333 5.66666667 -5 5 C-4.67 4.01 -4.34 3.02 -4 2 C-1.9375 0.8125 -1.9375 0.8125 0 0 Z " fill="#D15431" transform="translate(355,242)"/>
<path d="M0 0 C0.6875 1.5625 0.6875 1.5625 1 4 C0.2884375 5.4540625 0.2884375 5.4540625 -0.4375 6.9375 C-3.22219169 12.93232239 -3.03277377 20.2306675 -1.30859375 26.5234375 C-0.35333229 28.80167612 0.74530689 30.87299644 2 33 C2.35449219 33.66773438 2.70898438 34.33546875 3.07421875 35.0234375 C6.95337635 41.60699204 12.49766739 46.69674056 17.9699707 51.94775391 C18.61667725 52.57214355 19.26338379 53.1965332 19.9296875 53.83984375 C20.51991699 54.40050537 21.11014648 54.96116699 21.71826172 55.53881836 C23 57 23 57 23 59 C22.34 59 21.68 59 21 59 C19.6953125 57.671875 19.6953125 57.671875 18.125 55.75 C14.43224517 51.37311374 10.4267442 47.40252371 6.26416016 43.47753906 C-1.4812983 35.96234416 -4.76368235 26.42402927 -5.06640625 15.6328125 C-4.62695278 11.16653032 -3.32992184 3.32992184 0 0 Z " fill="#CF5736" transform="translate(38,189)"/>
<path d="M0 0 C1.8125 0.1875 1.8125 0.1875 4 1 C7.36897954 5.49197272 8.00676358 9.76737742 8.17578125 15.25 C8.19962891 16.0234375 8.22347656 16.796875 8.24804688 17.59375 C8.29100837 19.19764575 8.32226337 20.80189789 8.34179688 22.40625 C8.52683849 27.57020192 9.19239703 30.2251647 13 34 C13.79921875 34.82242188 14.5984375 35.64484375 15.421875 36.4921875 C16.27265625 37.31976563 17.1234375 38.14734375 18 39 C19.75246641 40.70580311 21.50249259 42.414117 23.25 44.125 C24.12140625 44.97320312 24.9928125 45.82140625 25.890625 46.6953125 C28 49 28 49 29 52 C25.60459566 50.86819855 24.84642148 49.89642801 22.625 47.1875 C20.65096993 44.85417994 18.89427153 42.91541723 16.5 41 C12.85707479 38.08565983 10.01548796 34.54238774 7 31 C6.67 30.67 6.34 30.34 6 30 C5.97910383 28.020834 6.00939969 26.04106389 6.0625 24.0625 C6.11478978 18.78704249 5.64566307 14.05208427 4.4375 8.92578125 C4 7 4 7 4 5 C3.34 5 2.68 5 2 5 C1.34 3.35 0.68 1.7 0 0 Z " fill="#CC5838" transform="translate(232,101)"/>
<path d="M0 0 C1.98 0.495 1.98 0.495 4 1 C4 1.99 4 2.98 4 4 C3.01 3.34 2.02 2.68 1 2 C1.33 28.73 1.66 55.46 2 83 C2.66 83 3.32 83 4 83 C4.33 84.32 4.66 85.64 5 87 C3.125 86.375 3.125 86.375 1 85 C-0.89834205 80.52056589 -1.24845532 76.65526929 -1.24291992 71.82055664 C-1.24481827 71.12866745 -1.24671661 70.43677826 -1.24867249 69.72392273 C-1.25235605 67.45254936 -1.24170882 65.18150088 -1.23046875 62.91015625 C-1.2292752 61.32124367 -1.22882416 59.73233037 -1.2290802 58.14341736 C-1.22751938 54.81895507 -1.21926172 51.49460107 -1.20581055 48.17016602 C-1.18883533 43.92239751 -1.18499614 39.67474796 -1.18575573 35.4269495 C-1.18548292 32.14715961 -1.17998375 28.86739538 -1.17275429 25.58761406 C-1.16958628 24.02201977 -1.16760461 22.45642259 -1.16686058 20.89082527 C-1.16467627 18.69677983 -1.15588711 16.50285672 -1.14526367 14.30883789 C-1.13954597 12.44069176 -1.13954597 12.44069176 -1.13371277 10.5348053 C-0.99852553 6.96102129 -0.56921202 3.52852008 0 0 Z " fill="#D05533" transform="translate(222,162)"/>
<path d="M0 0 C2.475 0.99 2.475 0.99 5 2 C5 3.65 5 5.3 5 7 C5.66 7 6.32 7 7 7 C10.14327002 15.0285933 10.53795696 25.00755508 7.984375 33.296875 C6.80729409 35.75030871 5.72726478 37.89808906 4 40 C2.515 40.495 2.515 40.495 1 41 C1.45833333 39.625 1.91666667 38.25 2.375 36.875 C2.64699219 36.04613281 2.91898438 35.21726562 3.19921875 34.36328125 C3.80483901 32.57596293 4.48022181 30.81208288 5.1875 29.0625 C7.89927464 18.84119559 4.80981781 9.14298702 0 0 Z " fill="#D5542F" transform="translate(232,254)"/>
<path d="M0 0 C3.57950044 1.55305472 6.13928678 3.75092141 9.0625 6.3125 C17.55746884 13.2885009 24.77334448 16.78976348 35.90625 16.37890625 C39.59048227 15.92768083 42.78615682 15.00587682 46.1953125 13.55859375 C48 13 48 13 51 14 C41.80338305 19.32435718 31.31112428 20.27894838 21 18 C11.77926626 13.84815049 5.55281787 8.32922681 0 0 Z " fill="#CA5839" transform="translate(173,360)"/>
<path d="M0 0 C2.02045442 0.60183749 4.02111039 1.27306096 6 2 C6.33 2.66 6.66 3.32 7 4 C7.7113208 4.0093457 8.4226416 4.01869141 9.15551758 4.02832031 C12.3752206 4.08196888 15.59346183 4.16562635 18.8125 4.25 C19.93205078 4.26417969 21.05160156 4.27835937 22.20507812 4.29296875 C23.81479492 4.34130859 23.81479492 4.34130859 25.45703125 4.390625 C26.44678955 4.41157227 27.43654785 4.43251953 28.45629883 4.45410156 C31 5 31 5 32.84643555 6.91308594 C34 9 34 9 34 11 C32.97261719 10.69964844 31.94523437 10.39929688 30.88671875 10.08984375 C23.2332927 7.95684585 17.18295381 6.7016893 9.2109375 7.88671875 C7 8 7 8 3.9375 6.3125 C2.20779659 4.24801529 0.98161536 2.49865728 0 0 Z " fill="#CC5838" transform="translate(190,82)"/>
<path d="M0 0 C0.99 0.33 1.98 0.66 3 1 C2.401875 1.9075 1.80375 2.815 1.1875 3.75 C-4.98369412 14.74313074 -4.10834047 24.5202904 -0.875 36.25 C-0.58625 37.1575 -0.2975 38.065 0 39 C-3 38 -3 38 -5 35 C-7.34439208 25.62243168 -6.59609343 14.23327567 -4 5 C-1.921875 2.1171875 -1.921875 2.1171875 0 0 Z " fill="#D15532" transform="translate(177,254)"/>
<path d="M0 0 C2.1953125 1.2890625 2.1953125 1.2890625 3.1953125 3.2890625 C1.679375 2.8559375 1.679375 2.8559375 0.1328125 2.4140625 C-0.51171875 2.23359375 -1.15625 2.053125 -1.8203125 1.8671875 C-3.60093287 1.34842408 -5.36105413 0.76048515 -7.1171875 0.1640625 C-17.11141361 -2.20744878 -27.87484946 -0.81370209 -36.8046875 4.2890625 C-38.13802083 4.95572917 -39.47135417 5.62239583 -40.8046875 6.2890625 C-31.34530586 -6.89204307 -13.46537627 -6.14021158 0 0 Z " fill="#CF5635" transform="translate(222.8046875,38.7109375)"/>
<path d="M0 0 C2.38172522 1.60242223 4.17085867 2.83989616 6 5 C6.43173328 7.89834928 6.55573309 10.13083413 6.4375 13 C6.48285267 23.22315456 10.37317043 29.55975564 16 38 C15.01 38 14.02 38 13 38 C12.896875 37.360625 12.79375 36.72125 12.6875 36.0625 C12.460625 35.381875 12.23375 34.70125 12 34 C11.01 33.67 10.02 33.34 9 33 C7.9375 30.75 7.9375 30.75 7 28 C6.67257813 27.26265625 6.34515625 26.5253125 6.0078125 25.765625 C4.82086664 22.50842474 4.37820133 19.43672971 3.9375 16 C3.22926418 9.95119228 3.22926418 9.95119228 2 4 C1.34 3.67 0.68 3.34 0 3 C0 2.01 0 1.02 0 0 Z " fill="#DE4F24" transform="translate(166,107)"/>
<path d="M0 0 C0.66 0.33 1.32 0.66 2 1 C2.103125 1.61875 2.20625 2.2375 2.3125 2.875 C2.84602705 5.24639548 2.84602705 5.24639548 5.375 6.6875 C8.0073657 8.08102265 8.0073657 8.08102265 11 9 C11 10.32 11 11.64 11 13 C11.66 13 12.32 13 13 13 C14.70680947 14.62553283 16.37660195 16.29115995 18 18 C18.66 17.67 19.32 17.34 20 17 C20.66 19.64 21.32 22.28 22 25 C20 25 20 25 18.375 23.625 C17 22 17 22 17 20 C16.34 20 15.68 20 15 20 C13.7734375 18.71484375 13.7734375 18.71484375 12.375 16.9375 C9.45042909 13.3934387 6.23571673 10.44575235 2.734375 7.48046875 C1 6 1 6 -1 4 C-0.625 1.875 -0.625 1.875 0 0 Z " fill="#CA5838" transform="translate(168,57)"/>
<path d="M0 0 C2.475 0.495 2.475 0.495 5 1 C5 1.99 5 2.98 5 4 C5.598125 4.020625 6.19625 4.04125 6.8125 4.0625 C9 5 9 5 10.75 8.375 C12 12 12 12 12 15 C12.66 15 13.32 15 14 15 C14 21.27 14 27.54 14 34 C13.67 34 13.34 34 13 34 C12.96132813 32.65808594 12.96132813 32.65808594 12.921875 31.2890625 C12.33170351 18.61125518 12.33170351 18.61125518 6 8 C4.94321603 6.63658441 3.90284794 5.26036026 2.875 3.875 C2.33617187 3.15054688 1.79734375 2.42609375 1.2421875 1.6796875 C0.83226562 1.12539062 0.42234375 0.57109375 0 0 Z " fill="#CA5838" transform="translate(311,179)"/>
<path d="M0 0 C0.66 0.33 1.32 0.66 2 1 C-2.66376894 7.45875905 -6.99656503 12.97302489 -14 17 C-15.68477344 18.31037934 -17.35648543 19.63823078 -19 21 C-17.44396229 17.18063472 -15.04395069 14.73955562 -12 12 C-11.34 12 -10.68 12 -10 12 C-9.34 10.68 -8.68 9.36 -8 8 C-7.34 8 -6.68 8 -6 8 C-5.7525 7.4225 -5.505 6.845 -5.25 6.25 C-3.83316683 3.6997003 -2.12372463 1.98214299 0 0 Z " fill="#CD5635" transform="translate(127,98)"/>
<path d="M0 0 C4.21359754 2.26989493 7.41609269 5.15207831 10.73828125 8.54296875 C11.26391159 9.07142899 11.78954193 9.59988922 12.33110046 10.1443634 C13.99635248 11.82074262 15.65448492 13.50396589 17.3125 15.1875 C18.44549917 16.33053861 19.57895809 17.47312169 20.71289062 18.61523438 C23.48060828 21.40491332 26.24196548 24.20074873 29 27 C26 27 26 27 23.70336914 25.02807617 C22.82285889 24.12549072 21.94234863 23.22290527 21.03515625 22.29296875 C20.5605748 21.81177078 20.08599335 21.33057281 19.59703064 20.83479309 C18.07827831 19.29261223 16.57000769 17.7406679 15.0625 16.1875 C13.5569281 14.64676357 12.0492178 13.10821114 10.53868103 11.57234192 C9.16348866 10.17248203 7.79459326 8.76644442 6.42602539 7.36010742 C4.11243335 4.99907195 4.11243335 4.99907195 1.68139648 3.3059082 C1.12653564 2.8749585 0.5716748 2.44400879 0 2 C0 1.34 0 0.68 0 0 Z " fill="#CB5838" transform="translate(226,42)"/>
<path d="M0 0 C0.66 0 1.32 0 2 0 C0.68469288 3.55132921 -1.43559878 5.2781649 -4.36328125 7.58203125 C-6.10952128 9.09488359 -7.48535507 10.70525787 -8.9375 12.5 C-11.8921707 16.08165653 -15.1331628 18.44788745 -19 21 C-19 20.01 -19 19.02 -19 18 C-15.66666667 15 -15.66666667 15 -13 15 C-12.731875 14.401875 -12.46375 13.80375 -12.1875 13.1875 C-11 11 -11 11 -9.5 9.5625 C-7.60096688 7.5843405 -6.90100969 5.56441218 -6 3 C-4.35 3 -2.7 3 -1 3 C-0.67 2.01 -0.34 1.02 0 0 Z " fill="#D15533" transform="translate(286,310)"/>
<path d="M0 0 C0.33 0.99 0.66 1.98 1 3 C-3.00491783 9.36336944 -8.54989251 14.85646106 -14 20 C-14.66 19.67 -15.32 19.34 -16 19 C-15.34 18.34 -14.68 17.68 -14 17 C-13.71125 16.154375 -13.4225 15.30875 -13.125 14.4375 C-12 12 -12 12 -9.875 11.1875 C-9.25625 11.125625 -8.6375 11.06375 -8 11 C-8 10.34 -8 9.68 -8 9 C-7.401875 8.566875 -6.80375 8.13375 -6.1875 7.6875 C-3.66654132 5.74276045 -2.52803391 3.76501375 -1 1 C-0.67 0.67 -0.34 0.34 0 0 Z " fill="#CF5533" transform="translate(373,221)"/>
<path d="M0 0 C0.64324219 0.34933594 1.28648437 0.69867188 1.94921875 1.05859375 C12.97258354 6.60958915 23.12056457 6.88058454 35 4 C34.67 4.66 34.34 5.32 34 6 C23.31420548 9.56193151 12.62667861 8.4118055 2 5 C1.34 4.34 0.68 3.68 0 3 C0 2.01 0 1.02 0 0 Z " fill="#CE5736" transform="translate(271,233)"/>
<path d="M0 0 C0.66 0 1.32 0 2 0 C1.45285711 3.83000023 -0.10513208 5.50719706 -3 8 C-3.75152344 8.41765625 -4.50304687 8.8353125 -5.27734375 9.265625 C-8.55279168 11.35213702 -11.13099819 13.91291535 -13.8125 16.6875 C-14.31458984 17.19861328 -14.81667969 17.70972656 -15.33398438 18.23632812 C-16.56063509 19.48634362 -17.78097491 20.7425468 -19 22 C-19 19 -19 19 -17.74658203 17.37426758 C-17.17278809 16.80345459 -16.59899414 16.2326416 -16.0078125 15.64453125 C-15.38519531 15.02255859 -14.76257813 14.40058594 -14.12109375 13.75976562 C-13.13302734 12.79586914 -13.13302734 12.79586914 -12.125 11.8125 C-11.14853516 10.83120117 -11.14853516 10.83120117 -10.15234375 9.83007812 C-5.26686327 5 -5.26686327 5 -3 5 C-2.690625 4.360625 -2.38125 3.72125 -2.0625 3.0625 C-1 1 -1 1 0 0 Z " fill="#C35A3D" transform="translate(106,119)"/>
<path d="M0 0 C3.4557601 1.15192003 4.19828537 1.91134634 6 5 C6.1875 7.75 6.1875 7.75 6 10 C7.32 9.67 8.64 9.34 10 9 C12.125 13.625 12.125 13.625 11 17 C7.05921066 13.25355096 3.60824658 9.82525618 1 5 C0.01755155 3.65368175 -0.97676564 2.31558703 -2 1 C-1.34 0.67 -0.68 0.34 0 0 Z " fill="#E14D21" transform="translate(144,326)"/>
<path d="M0 0 C0.66 0.33 1.32 0.66 2 1 C-3.47169811 9.49056604 -3.47169811 9.49056604 -8 11 C-9.01187895 12.65948148 -10.0126546 14.32580562 -11 16 C-11.66 16 -12.32 16 -13 16 C-13 16.66 -13 17.32 -13 18 C-14.32 18.33 -15.64 18.66 -17 19 C-16.505 17.515 -16.505 17.515 -16 16 C-15.34 16 -14.68 16 -14 16 C-13.67 15.01 -13.34 14.02 -13 13 C-11.58203125 11.640625 -11.58203125 11.640625 -9.8125 10.25 C-6.07775116 7.17886356 -3.03178992 3.75364466 0 0 Z " fill="#D05431" transform="translate(84,141)"/>
<path d="M0 0 C0.64195312 0.64839844 1.28390625 1.29679688 1.9453125 1.96484375 C4.344095 4.3678584 6.78929235 6.71872768 9.2421875 9.06640625 C10.78673043 10.56482375 12.33099487 12.06352835 13.875 13.5625 C14.67164063 14.31724609 15.46828125 15.07199219 16.2890625 15.84960938 C17.41054687 16.94692383 17.41054687 16.94692383 18.5546875 18.06640625 C19.24030762 18.72584229 19.92592773 19.38527832 20.63232422 20.06469727 C22 22 22 22 21.71533203 24.24584961 C21.47927246 24.82471924 21.24321289 25.40358887 21 26 C21 25.01 21 24.02 21 23 C20.01 22.67 19.02 22.34 18 22 C16.4921875 20.46875 16.4921875 20.46875 14.875 18.5 C11.46285803 14.4476267 7.77319031 10.80539604 3.91796875 7.17578125 C1.88847674 4.87348583 0.95832463 2.89525589 0 0 Z " fill="#D05735" transform="translate(237,175)"/>
<path d="M0 0 C6.41069287 5.27101414 12.18590512 11.09128152 18 17 C13.90060335 17 12.21343005 15.47701899 9 13 C7.98343919 11.34338239 6.97934924 9.67888441 6 8 C5.01 8 4.02 8 3 8 C0 2.25 0 2.25 0 0 Z " fill="#D45532" transform="translate(340,155)"/>
<path d="M0 0 C3.96064107 1.74268207 7.74436549 4.14674729 11 7 C11 7.66 11 8.32 11 9 C11.61875 9.226875 12.2375 9.45375 12.875 9.6875 C15.61410209 11.37929835 16.05024472 12.99244161 17 16 C13.15588253 14.43387807 10.84049791 11.97905879 8 9 C7.13375 8.154375 6.2675 7.30875 5.375 6.4375 C3.36916527 4.37888015 1.65035311 2.34523863 0 0 Z " fill="#CD5635" transform="translate(156,343)"/>
<path d="M0 0 C0.99 0.33 1.98 0.66 3 1 C1.67342064 4.58176428 -0.51406958 6.42259675 -3.46875 8.76171875 C-5.45768345 10.37011646 -7.22731568 12.15913551 -9 14 C-9 13.01 -9 12.02 -9 11 C-8.2884375 10.319375 -8.2884375 10.319375 -7.5625 9.625 C-5.55416651 7.53633317 -5.38130476 5.8216552 -5 3 C-4.01 3 -3.02 3 -2 3 C-1.34 2.01 -0.68 1.02 0 0 Z " fill="#D95129" transform="translate(298,296)"/>
<path d="M0 0 C0.33 0 0.66 0 1 0 C1.60825648 6.81247258 0.38552408 10.72434479 -4 16 C-6.22269515 18.15840231 -8.53504065 20.12464188 -11 22 C-11.66 21.67 -12.32 21.34 -13 21 C-11.68 20.34 -10.36 19.68 -9 19 C-9 18.34 -9 17.68 -9 17 C-8.4225 16.46375 -7.845 15.9275 -7.25 15.375 C-3.22054975 11.1216914 -0.72959858 5.83678862 0 0 Z " fill="#CF5634" transform="translate(323,213)"/>
<path d="M0 0 C0.66 0.33 1.32 0.66 2 1 C1.44570313 1.53109375 0.89140625 2.0621875 0.3203125 2.609375 C-0.40414062 3.31578125 -1.12859375 4.0221875 -1.875 4.75 C-2.59429687 5.44609375 -3.31359375 6.1421875 -4.0546875 6.859375 C-6.04660567 8.84893673 -6.04660567 8.84893673 -7 11.0625 C-8.28348229 13.54924694 -9.85592616 14.63968954 -12.125 16.25 C-12.84945312 16.77078125 -13.57390625 17.2915625 -14.3203125 17.828125 C-14.87460937 18.21484375 -15.42890625 18.6015625 -16 19 C-14.60560003 14.56327282 -12.30628857 12.09374145 -9 9 C-7.39179093 7.39988595 -5.78788773 5.79543673 -4.1875 4.1875 C-2.09375 2.09375 -2.09375 2.09375 0 0 Z " fill="#CB5737" transform="translate(55,170)"/>
<path d="M0 0 C0.33 0 0.66 0 1 0 C1.08636719 0.97839844 1.17273438 1.95679688 1.26171875 2.96484375 C2.05312041 10.34883909 2.81794616 16.06879361 7.07421875 22.36328125 C7.37972656 22.90339844 7.68523437 23.44351563 8 24 C7.67 24.66 7.34 25.32 7 26 C3.60163773 23.73442515 3.35101512 22.69277466 2 19 C1.34 18.01 0.68 17.02 0 16 C-0.14245897 13.23344676 -0.18769445 10.57346694 -0.125 7.8125 C-0.11597656 7.06291016 -0.10695313 6.31332031 -0.09765625 5.54101562 C-0.07412578 3.69387346 -0.03825561 1.84689588 0 0 Z " fill="#D35531" transform="translate(257,202)"/>
<path d="M0 0 C2.61959624 2.61959624 2.28856227 4.54853793 2.32226562 8.12109375 C2.31743164 9.29865234 2.31743164 9.29865234 2.3125 10.5 C2.32861328 11.28503906 2.34472656 12.07007813 2.36132812 12.87890625 C2.36328125 15.15625 2.36328125 15.15625 2 19 C1.01 19.66 0.02 20.32 -1 21 C-0.67 14.07 -0.34 7.14 0 0 Z " fill="#DF4F25" transform="translate(325,198)"/>
<path d="M0 0 C0.66 0 1.32 0 2 0 C1.51854653 4.33308127 -0.70696795 6.31181057 -4 9 C-12.33278348 13.28774295 -12.33278348 13.28774295 -16.30859375 12.6015625 C-16.86675781 12.40304687 -17.42492187 12.20453125 -18 12 C-17.35933594 11.78085937 -16.71867188 11.56171875 -16.05859375 11.3359375 C-9.82810738 9.05173534 -3.12940747 6.25881494 0 0 Z " fill="#D15633" transform="translate(231,295)"/>
<path d="M0 0 C1.93627769 -0.10807131 3.87427756 -0.1856225 5.8125 -0.25 C7.43091797 -0.31960937 7.43091797 -0.31960937 9.08203125 -0.390625 C12 0 12 0 13.88671875 1.890625 C15 4 15 4 15 6 C11.7 5.01 8.4 4.02 5 3 C5 2.34 5 1.68 5 1 C3.35 1 1.7 1 0 1 C0 0.67 0 0.34 0 0 Z " fill="#D8522B" transform="translate(209,87)"/>
<path d="M0 0 C0.66 0.33 1.32 0.66 2 1 C0.76238177 2.65516419 -0.49057455 4.29886798 -1.75 5.9375 C-2.44609375 6.85402344 -3.1421875 7.77054688 -3.859375 8.71484375 C-6.01029035 11.01098513 -6.93617261 11.67567593 -10 12 C-10 11.34 -10 10.68 -10 10 C-8.3203125 8.37890625 -8.3203125 8.37890625 -6.125 6.5625 C-3.53806278 4.41599116 -1.88815626 2.83223438 0 0 Z " fill="#D15633" transform="translate(180,45)"/>
<path d="M0 0 C2.1986065 2.1986065 3.15500125 4.14498735 4.5 6.9375 C5.8808406 9.79600844 7.23380186 12.35070279 9 15 C8.01 15 7.02 15 6 15 C5.896875 14.360625 5.79375 13.72125 5.6875 13.0625 C5.460625 12.381875 5.23375 11.70125 5 11 C4.01 10.67 3.02 10.34 2 10 C0.19733731 6.58442859 -0.218934 3.83134499 0 0 Z " fill="#D25633" transform="translate(173,130)"/>
<path d="M0 0 C1.98 0 3.96 0 6 0 C8.125 4.625 8.125 4.625 7 8 C5.83035398 6.8572081 4.66435444 5.71068285 3.5 4.5625 C2.8503125 3.92441406 2.200625 3.28632813 1.53125 2.62890625 C0 1 0 1 0 0 Z " fill="#D15431" transform="translate(148,335)"/>
<path d="M0 0 C0.66 0.33 1.32 0.66 2 1 C0.8125 3.9375 0.8125 3.9375 -1 7 C-3.6875 7.875 -3.6875 7.875 -6 8 C-4.768606 4.30581799 -2.79208646 2.64890254 0 0 Z " fill="#D2542F" transform="translate(64,161)"/>
<path d="M0 0 C0.66 0 1.32 0 2 0 C0.72481037 3.8255689 -0.57258371 4.91374661 -4 7 C-7.8125 6.75 -7.8125 6.75 -11 6 C-11 5.67 -11 5.34 -11 5 C-9.1128125 4.5978125 -9.1128125 4.5978125 -7.1875 4.1875 C-3.92849028 3.38855405 -2.16819928 2.65002135 0 0 Z " fill="#DC5027" transform="translate(308,235)"/>
<path d="M0 0 C2.475 0.495 2.475 0.495 5 1 C5 1.99 5 2.98 5 4 C6.32 4.33 7.64 4.66 9 5 C8.67 5.99 8.34 6.98 8 8 C3.96615872 5.92856799 2.07143201 4.03384128 0 0 Z " fill="#D6532E" transform="translate(311,179)"/>
<path d="M0 0 C1.8125 0.1875 1.8125 0.1875 4 1 C5.8125 3.3125 5.8125 3.3125 7 6 C6.6875 8.3125 6.6875 8.3125 6 10 C6 9.01 6 8.02 6 7 C5.34 7 4.68 7 4 7 C4 6.34 4 5.68 4 5 C3.34 5 2.68 5 2 5 C1.34 3.35 0.68 1.7 0 0 Z " fill="#D45430" transform="translate(232,101)"/>
<path d="M0 0 C1.98 0 3.96 0 6 0 C6.66 2.31 7.32 4.62 8 7 C6.66382648 6.02471263 5.3311249 5.04466681 4 4.0625 C3.2575 3.51722656 2.515 2.97195313 1.75 2.41015625 C1.1725 1.94480469 0.595 1.47945313 0 1 C0 0.67 0 0.34 0 0 Z " fill="#DF4D22" transform="translate(173,359)"/>
<path d="M0 0 C0.66 0 1.32 0 2 0 C1.45773019 3.79588866 -0.20127563 5.47211993 -3 8 C-3.66 7.67 -4.32 7.34 -5 7 C-1.125 1.125 -1.125 1.125 0 0 Z " fill="#D3532E" transform="translate(106,119)"/>
<path d="M0 0 C0 3 0 3 -2.3125 5.625 C-5 8 -5 8 -8 9 C-6.4169423 4.7257442 -3.49431596 2.73468206 0 0 Z " fill="#CA5838" transform="translate(309,288)"/>
<path d="M0 0 C0.33 0 0.66 0 1 0 C0.609375 6.0546875 0.609375 6.0546875 0 8 C-2.046875 9.2578125 -2.046875 9.2578125 -4 10 C-3.52449439 8.51965236 -3.04448784 7.04074979 -2.5625 5.5625 C-2.29566406 4.73878906 -2.02882812 3.91507812 -1.75390625 3.06640625 C-1 1 -1 1 0 0 Z " fill="#D05634" transform="translate(237,285)"/>
<path d="M0 0 C0.99 0.33 1.98 0.66 3 1 C3.33 2.98 3.66 4.96 4 7 C1.37812506 5.95125002 0.20628639 5.35068687 -1.25 2.875 C-1.4975 2.25625 -1.745 1.6375 -2 1 C-1.34 0.67 -0.68 0.34 0 0 Z " fill="#E04D22" transform="translate(81,263)"/>
<path d="M0 0 C1.45947705 0.06006078 2.91779272 0.1488689 4.375 0.25 C5.59316406 0.31960937 5.59316406 0.31960937 6.8359375 0.390625 C9 1 9 1 10.2890625 3.046875 C10.64097656 4.01367188 10.64097656 4.01367188 11 5 C6.69159287 3.92289822 3.36423277 2.96052484 0 0 Z " fill="#CA5839" transform="translate(299,174)"/>
<path d="M0 0 C0 3 0 3 -1.1875 4.5625 C-3.32699313 6.25933938 -5.43483454 7.09872565 -8 8 C-6.49776416 3.79373966 -3.71449966 2.26099979 0 0 Z " fill="#D4532E" transform="translate(137,90)"/>
<path d="M0 0 C5 2 5 2 10 4 C10 4.33 10 4.66 10 5 C4.60158311 5.49076517 4.60158311 5.49076517 1.625 3.0625 C0 1 0 1 0 0 Z " fill="#D55430" transform="translate(185,370)"/>
<path d="M0 0 C0.66 0.33 1.32 0.66 2 1 C1.27683594 1.50660156 1.27683594 1.50660156 0.5390625 2.0234375 C-0.09257812 2.46945313 -0.72421875 2.91546875 -1.375 3.375 C-2.00148437 3.81585938 -2.62796875 4.25671875 -3.2734375 4.7109375 C-5.12380509 6.02808866 -5.12380509 6.02808866 -7 8 C-6.875 5.6875 -6.875 5.6875 -6 3 C-3.0625 1.125 -3.0625 1.125 0 0 Z " fill="#CE5634" transform="translate(187,246)"/>
<path d="M0 0 C0 3 0 3 -1.3125 4.38671875 C-2.875 5.59114583 -4.4375 6.79557292 -6 8 C-6 5 -6 5 -4.6875 3.61328125 C-3.125 2.40885417 -1.5625 1.20442708 0 0 Z " fill="#CB5837" transform="translate(295,302)"/>
<path d="M0 0 C2.475 0.495 2.475 0.495 5 1 C5 2.32 5 3.64 5 5 C5.66 5 6.32 5 7 5 C6.67 5.66 6.34 6.32 6 7 C1.125 2.25 1.125 2.25 0 0 Z " fill="#DC5027" transform="translate(174,65)"/>
<path d="" fill="#B65E47" transform="translate(0,0)"/>
<path d="" fill="#B65E47" transform="translate(0,0)"/>
</svg>
