<?xml version="1.0" encoding="UTF-8"?>
<svg version="1.1" xmlns="http://www.w3.org/2000/svg" width="411" height="411">
<path d="M0 0 C135.63 0 271.26 0 411 0 C411 134.64 411 269.28 411 408 C275.37 408 139.74 408 0 408 C0 273.36 0 138.72 0 0 Z " fill="#EFDA4E" transform="translate(0,1)"/>
<path d="M0 0 C1.2684375 0.36544922 1.2684375 0.36544922 2.5625 0.73828125 C12.56857842 4.12174687 22.81049816 11.77421895 28 21 C28 21.66 28 22.32 28 23 C29.485 23.495 29.485 23.495 31 24 C31.6875 26.0625 31.6875 26.0625 32 28 C25.95849673 32.52538458 19.89137794 36.80543528 13.37109375 40.61328125 C9.86430739 42.66420244 6.43761339 44.83557675 3 47 C0.91875381 44.99763486 -0.8210107 42.92272618 -2.5625 40.625 C-7.00666426 35.4819991 -12.2884664 32.54525107 -19.03125 31.5546875 C-25.48681512 31.31015852 -30.7287796 32.1194282 -36 36 C-39.89037139 40.14136309 -40.28487169 44.24877324 -40.22265625 49.71484375 C-39.75094626 54.5560779 -37.41300706 57.74951709 -34 61 C-34 61.66 -34 62.32 -34 63 C-33.34 63.2475 -32.68 63.495 -32 63.75 C-29.61876404 64.74218165 -27.4064188 65.81046646 -25.125 67 C-21.47955033 68.8573774 -17.9641259 70.00896852 -14 71 C-14 71.66 -14 72.32 -14 73 C-13.360625 73.0825 -12.72125 73.165 -12.0625 73.25 C0.73583487 76.38428609 14.98094183 84.54563101 25 93 C25.99 93.721875 26.98 94.44375 28 95.1875 C37.14408733 103.08239507 42.22717285 113.53240189 43.20263672 125.48242188 C44.04948709 141.88901765 42.34024144 156.30860478 31.94921875 169.62890625 C25.15117308 177.11246914 17.18552468 181.17518517 8 185 C6.42025391 185.68449219 6.42025391 185.68449219 4.80859375 186.3828125 C-13.04134459 192.77215213 -34.47790916 190.19694428 -52 184 C-53.1240625 183.62746094 -54.248125 183.25492188 -55.40625 182.87109375 C-69.72412127 177.57569549 -83.4853692 165.99359839 -90 152 C-89.83984375 149.73828125 -89.83984375 149.73828125 -89 148 C-86.5625 146.875 -86.5625 146.875 -84 146 C-83.01 145.01 -83.01 145.01 -82 144 C-80.33448061 143.33047227 -78.66768253 142.66412136 -77 142 C-75.51581268 141.08221632 -74.05676851 140.122586 -72.625 139.125 C-71.85027344 138.60164062 -71.07554687 138.07828125 -70.27734375 137.5390625 C-68.85246658 136.57610949 -67.42793131 135.61265016 -66.00390625 134.6484375 C-64.1875 133.5 -64.1875 133.5 -61 132 C-57.64724722 133.11758426 -56.17602468 134.80412775 -54.25 137.6875 C-48.21723221 146.01846505 -40.29903614 152.11930644 -30 154 C-16.81594227 154.60674574 -16.81594227 154.60674574 -4 152 C-3.67 151.01 -3.34 150.02 -3 149 C-2.38125 148.731875 -1.7625 148.46375 -1.125 148.1875 C2.15671782 146.35359887 2.75916028 144.53639319 4 141 C4.63381601 135.86074488 4.67442849 131.52479485 2.5625 126.75 C-4.36208401 119.31873911 -12.00773331 115.35894237 -21.375 111.6875 C-64.42226704 94.0750425 -64.42226704 94.0750425 -74.75 71.375 C-75.1625 70.26125 -75.575 69.1475 -76 68 C-76.25177002 67.36916504 -76.50354004 66.73833008 -76.76293945 66.08837891 C-79.03858117 59.98850261 -79.48669451 54.47578575 -79.4375 48 C-79.4674707 46.60007812 -79.4674707 46.60007812 -79.49804688 45.171875 C-79.49342092 38.54751426 -78.07874953 33.82379101 -75 28 C-74.56816406 27.05769531 -74.13632812 26.11539063 -73.69140625 25.14453125 C-69.62930106 16.75326206 -64.69638126 11.19189156 -57 6 C-56.36707031 5.55527344 -55.73414063 5.11054688 -55.08203125 4.65234375 C-39.32618713 -5.31315147 -17.27553342 -5.375132 0 0 Z " fill="#343430" transform="translate(334,190)"/>
<path d="M0 0 C12.87 0 25.74 0 39 0 C39.02261392 17.67260458 39.04101813 35.34519672 39.05181217 53.01781178 C39.05695827 61.22436353 39.06396871 69.43090562 39.07543945 77.63745117 C39.08543794 84.79413808 39.09186568 91.950818 39.09408849 99.1075117 C39.09538686 102.8933926 39.09841698 106.67925349 39.10573006 110.46512794 C39.11257193 114.03636525 39.11460052 117.60757451 39.11310768 121.17881775 C39.11350933 123.09827535 39.11886162 125.01772997 39.12442017 126.93717957 C39.11244434 137.11136412 38.94437801 146.92344501 35.4375 156.5625 C35.17428955 157.29065918 34.9110791 158.01881836 34.63989258 158.76904297 C29.6136289 171.86090962 19.72620161 180.19644245 7.1640625 185.859375 C-1.52736841 188.99258219 -9.31516192 190.46776088 -18.5625 190.3125 C-19.52607422 190.31572266 -20.48964844 190.31894531 -21.48242188 190.32226562 C-38.72274306 190.19438732 -52.75787401 184.27275281 -65.44921875 172.640625 C-69.64772609 168.29423761 -73.44302601 163.497878 -76 158 C-75.94140625 155.26953125 -75.94140625 155.26953125 -75 153 C-73.328125 151.77734375 -73.328125 151.77734375 -71.25 150.9375 C-67.62959372 149.43820961 -65.05594245 147.44921519 -62 145 C-59.69444421 143.49594497 -57.32587463 142.11768006 -54.9375 140.75 C-54.32583984 140.38648438 -53.71417969 140.02296875 -53.08398438 139.6484375 C-49.69252133 137.69788794 -48.01096444 137 -44 137 C-43.505 139.475 -43.505 139.475 -43 142 C-42.01 142.33 -41.02 142.66 -40 143 C-38.66666667 145 -37.33333333 147 -36 149 C-30.35246219 154.21311182 -25.31443219 155.44982909 -17.7890625 155.328125 C-13.59765527 154.83501827 -10.55110467 153.16704383 -7 151 C-5.99379388 150.63442804 -5.99379388 150.63442804 -4.96726036 150.26147079 C-2.78240738 149.14541011 -2.78240738 149.14541011 -2.18308449 146.66971207 C-1.06699452 138.77209244 -0.69506415 131.03376664 -0.68115234 123.06152344 C-0.67182824 121.71001096 -0.66165599 120.35850411 -0.65071106 119.00700378 C-0.62367627 115.37767667 -0.60834151 111.74838777 -0.59528303 108.11898708 C-0.57953488 104.31131603 -0.55278266 100.50372172 -0.5272522 96.69610596 C-0.48066947 89.50355178 -0.44382688 82.31098283 -0.41057932 75.11835599 C-0.37221203 66.92229717 -0.3228407 58.72631582 -0.27259517 50.53032255 C-0.1695807 33.68693232 -0.08167435 16.84350929 0 0 Z " fill="#353530" transform="translate(184,189)"/>
<path d="M0 0 C0.66 0.33 1.32 0.66 2 1 C-2.29 5.29 -6.58 9.58 -11 14 C-11 9.82308582 -8.77013484 7.86318847 -6 5 C-4.05228995 3.24842937 -2.05675499 1.62627139 0 0 Z " fill="#565235" transform="translate(275,197)"/>
</svg>
