<?xml version="1.0" encoding="UTF-8"?>
<svg version="1.1" xmlns="http://www.w3.org/2000/svg" width="411" height="411">
<path d="M0 0 C1.83203125 0.1640625 1.83203125 0.1640625 4 1 C5.44921875 3.3984375 5.44921875 3.3984375 6.6875 6.375 C7.10386719 7.35210937 7.52023438 8.32921875 7.94921875 9.3359375 C8.68597737 11.2038534 9.36502574 13.09507723 10 15 C10.66 15 11.32 15 12 15 C16 19.47058824 16 19.47058824 16 22 C17.485 22.495 17.485 22.495 19 23 C19 23.66 19 24.32 19 25 C20.485 25.495 20.485 25.495 22 26 C22 26.66 22 27.32 22 28 C22.66 28 23.32 28 24 28 C24 28.66 24 29.32 24 30 C24.66 30 25.32 30 26 30 C26 30.99 26 31.98 26 33 C27.485 33.495 27.485 33.495 29 34 C29.495 36.475 29.495 36.475 30 39 C30.66 39 31.32 39 32 39 C35 42.46153846 35 42.46153846 35 45 C35.66 45 36.32 45 37 45 C37.26554687 45.69867188 37.53109375 46.39734375 37.8046875 47.1171875 C38.15789062 48.02726562 38.51109375 48.93734375 38.875 49.875 C39.22304687 50.77992188 39.57109375 51.68484375 39.9296875 52.6171875 C40.88530895 55.12217007 40.88530895 55.12217007 43 57 C45.0418529 61.24293286 46.44640176 65.23838118 46 70 C46.66 70 47.32 70 48 70 C48.495 73.96 48.495 73.96 49 78 C49.66 78 50.32 78 51 78 C51.495 83.94 51.495 83.94 52 90 C52.66 90 53.32 90 54 90 C54.04963288 95.56842771 54.08582963 101.13672511 54.10986328 106.70532227 C54.11988815 108.59759771 54.13351155 110.48985778 54.15087891 112.38208008 C54.17528222 115.1102275 54.18651845 117.83816915 54.1953125 120.56640625 C54.20563507 121.40522842 54.21595764 122.2440506 54.22659302 123.10829163 C54.22753552 128.10151355 53.55980591 132.20524711 52 137 C51.63049535 139.32787927 51.28647533 141.66045145 51 144 C50.34 144 49.68 144 49 144 C48.67 146.31 48.34 148.62 48 151 C47.34 151 46.68 151 46 151 C45.896875 152.03125 45.79375 153.0625 45.6875 154.125 C45.00089073 157.99497951 43.89505364 160.58890344 42 164 C41.608125 164.78375 41.21625 165.5675 40.8125 166.375 C40.544375 166.91125 40.27625 167.4475 40 168 C39.34 168 38.68 168 38 168 C37.67 169.65 37.34 171.3 37 173 C36.34 173 35.68 173 35 173 C34.7525 173.721875 34.505 174.44375 34.25 175.1875 C32.87730408 178.27606582 31.27646704 180.51011418 29 183 C28.34 183 27.68 183 27 183 C26.773125 183.556875 26.54625 184.11375 26.3125 184.6875 C24.62449964 187.66159588 22.53323483 189.72008865 20 192 C19.34 192 18.68 192 18 192 C18 192.66 18 193.32 18 194 C17.195625 194.598125 16.39125 195.19625 15.5625 195.8125 C12.70289198 198.2536288 12.3046813 199.34382438 12 203 C11.34 203 10.68 203 10 203 C10.020625 204.175625 10.04125 205.35125 10.0625 206.5625 C10.0625 210.45179881 9.70404476 214.1668674 9 218 C8.67 218.33 8.34 218.66 8 219 C7.76924918 220.34747084 7.58846937 221.70377565 7.4375 223.0625 C7.293125 224.361875 7.14875 225.66125 7 227 C5.02 227 3.04 227 1 227 C-1.82937939 222.43648485 -1.43508772 217.53192977 -1.65625 212.3125 C-1.97618423 209.22949743 -2.55490929 207.65132345 -4 205 C-3.625 202.25 -3.625 202.25 -3 200 C-3.66 199.67 -4.32 199.34 -5 199 C-10.23316118 195.52325614 -14.44616888 191.66221468 -18.45703125 186.83203125 C-19.8962209 185.12322126 -21.41275139 183.56961252 -23 182 C-26 178.33333333 -26 178.33333333 -26 176 C-26.66 176 -27.32 176 -28 176 C-32 170.70588235 -32 170.70588235 -32 167 C-32.66 167 -33.32 167 -34 167 C-34.28875 166.195625 -34.5775 165.39125 -34.875 164.5625 C-35.73262568 161.8673532 -35.73262568 161.8673532 -38 161 C-37.505 160.01 -37.505 160.01 -37 159 C-37.66 159 -38.32 159 -39 159 C-39.433125 157.88625 -39.433125 157.88625 -39.875 156.75 C-40.90202913 154.07763188 -40.90202913 154.07763188 -42.125 152 C-43.19376273 149.55711377 -43.1465693 147.63824739 -43 145 C-43.66 145 -44.32 145 -45 145 C-46.85039769 140.94306113 -47.51316331 137.16315861 -48.0625 132.75 C-48.24179021 128.54978661 -48.24179021 128.54978661 -50 125 C-50.27182279 122.4297645 -50.47651344 119.89071609 -50.625 117.3125 C-50.69146729 116.17458008 -50.69146729 116.17458008 -50.75927734 115.01367188 C-51.10779275 107.97277842 -50.96001472 100.99744063 -50 94 C-49.505 93.505 -49.505 93.505 -49 93 C-49.04125 91.845 -49.0825 90.69 -49.125 89.5 C-49.1926214 85.30747302 -48.16949129 82.02704706 -46.734375 78.12109375 C-45.81060424 75.45296864 -45.35839529 72.79548327 -45 70 C-44.34 70 -43.68 70 -43 70 C-43.33 69.01 -43.66 68.02 -44 67 C-43.2578125 64.9140625 -43.2578125 64.9140625 -42.125 62.625 C-40.60446459 59.41090274 -39.45934403 56.55991621 -39 53 C-38.34 53 -37.68 53 -37 53 C-36.9175 52.29875 -36.835 51.5975 -36.75 50.875 C-35.82861136 47.34301021 -34.07354186 44.98071643 -32 42 C-31.67 41.01 -31.34 40.02 -31 39 C-30.34 39 -29.68 39 -29 39 C-28.74089844 38.26910156 -28.48179687 37.53820312 -28.21484375 36.78515625 C-26.96371992 33.91682414 -25.52468936 31.86386319 -23.5625 29.4375 C-22.96566406 28.69371094 -22.36882812 27.94992188 -21.75390625 27.18359375 C-21.17511719 26.46300781 -20.59632813 25.74242188 -20 25 C-19.47277344 24.24847656 -18.94554687 23.49695313 -18.40234375 22.72265625 C-17.93957031 22.15417969 -17.47679687 21.58570312 -17 21 C-16.34 21 -15.68 21 -15 21 C-14.34 19.68 -13.68 18.36 -13 17 C-12.34 17 -11.68 17 -11 17 C-11 16.34 -11 15.68 -11 15 C-10.360625 14.896875 -9.72125 14.79375 -9.0625 14.6875 C-8.381875 14.460625 -7.70125 14.23375 -7 14 C-6.67 13.01 -6.34 12.02 -6 11 C-5.34 11 -4.68 11 -4 11 C-3.67 9.68 -3.34 8.36 -3 7 C-2.34 7 -1.68 7 -1 7 C-1.20625 6.401875 -1.4125 5.80375 -1.625 5.1875 C-2 3 -2 3 0 0 Z " fill="#01A144" transform="translate(194,102)"/>
<path d="M0 0 C0.66 0 1.32 0 2 0 C2 0.66 2 1.32 2 2 C2.66 2 3.32 2 4 2 C4 2.99 4 3.98 4 5 C4.99 5.33 5.98 5.66 7 6 C7.495 8.475 7.495 8.475 8 11 C8.66 11 9.32 11 10 11 C13 14.46153846 13 14.46153846 13 17 C13.66 17 14.32 17 15 17 C15.39832031 18.04800781 15.39832031 18.04800781 15.8046875 19.1171875 C16.15789062 20.02726562 16.51109375 20.93734375 16.875 21.875 C17.22304687 22.77992188 17.57109375 23.68484375 17.9296875 24.6171875 C18.88530895 27.12217007 18.88530895 27.12217007 21 29 C23.0418529 33.24293286 24.44640176 37.23838118 24 42 C24.66 42 25.32 42 26 42 C26.495 45.96 26.495 45.96 27 50 C27.66 50 28.32 50 29 50 C29.495 55.94 29.495 55.94 30 62 C30.66 62 31.32 62 32 62 C32.04963288 67.56842771 32.08582963 73.13672511 32.10986328 78.70532227 C32.11988815 80.59759771 32.13351155 82.48985778 32.15087891 84.38208008 C32.17528222 87.1102275 32.18651845 89.83816915 32.1953125 92.56640625 C32.20563507 93.40522842 32.21595764 94.2440506 32.22659302 95.10829163 C32.22753552 100.10151355 31.55980591 104.20524711 30 109 C29.63049535 111.32787927 29.28647533 113.66045145 29 116 C28.34 116 27.68 116 27 116 C26.67 118.31 26.34 120.62 26 123 C25.34 123 24.68 123 24 123 C23.896875 124.03125 23.79375 125.0625 23.6875 126.125 C23.00089073 129.99497951 21.89505364 132.58890344 20 136 C19.608125 136.78375 19.21625 137.5675 18.8125 138.375 C18.544375 138.91125 18.27625 139.4475 18 140 C17.34 140 16.68 140 16 140 C15.67 141.65 15.34 143.3 15 145 C14.34 145 13.68 145 13 145 C12.7525 145.721875 12.505 146.44375 12.25 147.1875 C10.87730408 150.27606582 9.27646704 152.51011418 7 155 C6.34 155 5.68 155 5 155 C4.773125 155.556875 4.54625 156.11375 4.3125 156.6875 C2.62449964 159.66159588 0.53323483 161.72008865 -2 164 C-2.66 164 -3.32 164 -4 164 C-4 164.66 -4 165.32 -4 166 C-4.804375 166.598125 -5.60875 167.19625 -6.4375 167.8125 C-9.29710802 170.2536288 -9.6953187 171.34382438 -10 175 C-10.66 175 -11.32 175 -12 175 C-11.979375 176.175625 -11.95875 177.35125 -11.9375 178.5625 C-11.9375 182.45179881 -12.29595524 186.1668674 -13 190 C-13.33 190.33 -13.66 190.66 -14 191 C-14.23075082 192.34747084 -14.41153063 193.70377565 -14.5625 195.0625 C-14.706875 196.361875 -14.85125 197.66125 -15 199 C-16.98 199 -18.96 199 -21 199 C-23.82937939 194.43648485 -23.43508772 189.53192977 -23.65625 184.3125 C-23.97618423 181.22949743 -24.55490929 179.65132345 -26 177 C-25.625 174.25 -25.625 174.25 -25 172 C-25.66 171.67 -26.32 171.34 -27 171 C-32.23316118 167.52325614 -36.44616888 163.66221468 -40.45703125 158.83203125 C-41.8962209 157.12322126 -43.41275139 155.56961252 -45 154 C-48 150.33333333 -48 150.33333333 -48 148 C-48.66 148 -49.32 148 -50 148 C-54 142.70588235 -54 142.70588235 -54 139 C-54.66 139 -55.32 139 -56 139 C-56.28875 138.195625 -56.5775 137.39125 -56.875 136.5625 C-57.73262568 133.8673532 -57.73262568 133.8673532 -60 133 C-59.505 132.01 -59.505 132.01 -59 131 C-59.66 131 -60.32 131 -61 131 C-61.433125 129.88625 -61.433125 129.88625 -61.875 128.75 C-62.91204676 126.05677524 -62.91204676 126.05677524 -64.1875 123.875 C-65 122 -65 122 -64 119 C-64 119.66 -64 120.32 -64 121 C-63.01 121 -62.02 121 -61 121 C-60.40251953 122.33804688 -60.40251953 122.33804688 -59.79296875 123.703125 C-59.26316406 124.87359375 -58.73335937 126.0440625 -58.1875 127.25 C-57.66542969 128.41015625 -57.14335937 129.5703125 -56.60546875 130.765625 C-55.24759757 133.50119031 -54.04419527 135.74655639 -52 138 C-51.01 138.33 -50.02 138.66 -49 139 C-47.00603743 141.66083969 -45 144.61242325 -45 148 C-44.34 148 -43.68 148 -43 148 C-41 151 -41 151 -40.13671875 153.890625 C-38.86588312 157.36686266 -37.41844905 159.14853624 -34.8125 161.75 C-33.70841797 162.88695312 -33.70841797 162.88695312 -32.58203125 164.046875 C-29.55114002 166.58375068 -29.55114002 166.58375068 -23 168 C-22.34 163.05 -21.68 158.1 -21 153 C-20.01 153 -19.02 153 -18 153 C-17.89042969 153.59167969 -17.78085938 154.18335938 -17.66796875 154.79296875 C-16.74085597 159.41345763 -15.77648665 163.0876779 -13 167 C-10.61435923 166.42415568 -8.33317216 165.77772405 -6 165 C-5.71125 164.360625 -5.4225 163.72125 -5.125 163.0625 C-4 161 -4 161 -1.4375 160 C-0.633125 159.67 0.17125 159.34 1 159 C1.13664062 158.37996094 1.27328125 157.75992188 1.4140625 157.12109375 C2.19223042 154.3041259 3.44587107 153.71782301 5.8125 152.0625 C11.30884543 147.5627989 12.46756836 141.70438841 14 135 C14.66 135 15.32 135 16 135 C16 134.34 16 133.68 16 133 C16.66 133 17.32 133 18 133 C18 132.34 18 131.68 18 131 C18.99 131 19.98 131 21 131 C21.09796875 130.319375 21.1959375 129.63875 21.296875 128.9375 C22.73594908 119.60833012 24.73614305 110.26451023 27.5480957 101.24121094 C28.1942529 98.03660638 28.13000066 94.93923153 28.1328125 91.671875 C28.13424759 90.61012054 28.13424759 90.61012054 28.13571167 89.5269165 C28.13639088 88.0308015 28.13455466 86.53468352 28.13037109 85.03857422 C28.12505102 82.77174076 28.13030832 80.50510832 28.13671875 78.23828125 C28.1360573 76.7786454 28.13477476 75.31900968 28.1328125 73.859375 C28.13112061 71.88662598 28.13112061 71.88662598 28.12939453 69.87402344 C27.92696821 63.81345568 27.42283683 58.6000018 24.82421875 53.03515625 C21.75920734 45.4670475 20.50418629 36.99873181 19 29 C18.34 29 17.68 29 17 29 C16.59007812 28.22914063 16.18015625 27.45828125 15.7578125 26.6640625 C15.21898437 25.66117188 14.68015625 24.65828125 14.125 23.625 C13.59132813 22.62726563 13.05765625 21.62953125 12.5078125 20.6015625 C11.1179862 17.94651605 11.1179862 17.94651605 9 16 C9 15.01 9 14.02 9 13 C8.34 13 7.68 13 7 13 C3 7.58823529 3 7.58823529 3 5 C2.34 5 1.68 5 1 5 C0.505 2.525 0.505 2.525 0 0 Z " fill="#B6C6C1" transform="translate(216,130)"/>
<path d="M0 0 C1.83203125 0.1640625 1.83203125 0.1640625 4 1 C5.44921875 3.3984375 5.44921875 3.3984375 6.6875 6.375 C7.10386719 7.35210937 7.52023438 8.32921875 7.94921875 9.3359375 C8.68597737 11.2038534 9.36502574 13.09507723 10 15 C10.66 15 11.32 15 12 15 C16 19.47058824 16 19.47058824 16 22 C16.99 22.33 17.98 22.66 19 23 C19 23.66 19 24.32 19 25 C19.99 25.33 20.98 25.66 22 26 C22 26.66 22 27.32 22 28 C20.0625 27.6875 20.0625 27.6875 18 27 C17.505 25.515 17.505 25.515 17 24 C16.34 24 15.68 24 15 24 C14.7525 23.21625 14.505 22.4325 14.25 21.625 C12.79476997 18.56901693 12.09546642 18.14974467 9 17 C7.63875 16.443125 7.63875 16.443125 6.25 15.875 C5.13625 15.441875 5.13625 15.441875 4 15 C3.67 15.66 3.34 16.32 3 17 C3 16.34 3 15.68 3 15 C1.68 14.67 0.36 14.34 -1 14 C-1.70125 14.99 -2.4025 15.98 -3.125 17 C-5.32959535 19.69099605 -5.64418661 19.95971924 -9.3125 20.375 C-10.199375 20.25125 -11.08625 20.1275 -12 20 C-12.66 21.32 -13.32 22.64 -14 24 C-14.66 24 -15.32 24 -16 24 C-16 25.32 -16 26.64 -16 28 C-16.66 28 -17.32 28 -18 28 C-18.27070313 28.57492188 -18.54140625 29.14984375 -18.8203125 29.7421875 C-20.01715435 32.03283183 -21.34670657 34.04240326 -22.875 36.125 C-23.61363281 37.14980469 -23.61363281 37.14980469 -24.3671875 38.1953125 C-26.11044971 40.122076 -27.62196759 41.00143228 -30 42 C-30 42.66 -30 43.32 -30 44 C-30.99 43.67 -31.98 43.34 -33 43 C-32.34 41.68 -31.68 40.36 -31 39 C-30.34 39 -29.68 39 -29 39 C-28.74089844 38.26910156 -28.48179687 37.53820312 -28.21484375 36.78515625 C-26.96371992 33.91682414 -25.52468936 31.86386319 -23.5625 29.4375 C-22.96566406 28.69371094 -22.36882812 27.94992188 -21.75390625 27.18359375 C-21.17511719 26.46300781 -20.59632813 25.74242188 -20 25 C-19.47277344 24.24847656 -18.94554687 23.49695313 -18.40234375 22.72265625 C-17.93957031 22.15417969 -17.47679687 21.58570312 -17 21 C-16.34 21 -15.68 21 -15 21 C-14.34 19.68 -13.68 18.36 -13 17 C-12.34 17 -11.68 17 -11 17 C-11 16.34 -11 15.68 -11 15 C-10.360625 14.896875 -9.72125 14.79375 -9.0625 14.6875 C-8.381875 14.460625 -7.70125 14.23375 -7 14 C-6.67 13.01 -6.34 12.02 -6 11 C-5.34 11 -4.68 11 -4 11 C-3.67 9.68 -3.34 8.36 -3 7 C-2.34 7 -1.68 7 -1 7 C-1.20625 6.401875 -1.4125 5.80375 -1.625 5.1875 C-2 3 -2 3 0 0 Z " fill="#10A54B" transform="translate(194,102)"/>
<path d="M0 0 C0.33 0.66 0.66 1.32 1 2 C1.99 2 2.98 2 4 2 C4.39832031 2.89203125 4.79664063 3.7840625 5.20703125 4.703125 C5.73683594 5.87359375 6.26664063 7.0440625 6.8125 8.25 C7.33457031 9.41015625 7.85664063 10.5703125 8.39453125 11.765625 C9.75240243 14.50119031 10.95580473 16.74655639 13 19 C13.99 19.33 14.98 19.66 16 20 C17.99396257 22.66083969 20 25.61242325 20 29 C20.66 29 21.32 29 22 29 C24 32 24 32 24.8671875 34.90625 C26.12699559 38.34682933 27.50145632 39.97701026 30.125 42.5 C30.92164063 43.28375 31.71828125 44.0675 32.5390625 44.875 C34.79431879 46.82239591 36.90658282 48.07689743 39.5 49.5 C41.47265625 50.87890625 41.47265625 50.87890625 43 53 C43.87825475 58.01357999 43.98190766 62.84971113 43.95263672 67.92529297 C44.02303613 71.00907759 44.49133526 73.96002725 45 77 C45.99 77 46.98 77 48 77 C48.12117188 76.04480469 48.24234375 75.08960938 48.3671875 74.10546875 C49.37153281 66.35655838 50.50066153 58.67214688 52 51 C53.98 50.505 53.98 50.505 56 50 C55.67 51.98 55.34 53.96 55 56 C54.34 56 53.68 56 53 56 C53.020625 57.175625 53.04125 58.35125 53.0625 59.5625 C53.0625 63.45179881 52.70404476 67.1668674 52 71 C51.67 71.33 51.34 71.66 51 72 C50.76924918 73.34747084 50.58846937 74.70377565 50.4375 76.0625 C50.293125 77.361875 50.14875 78.66125 50 80 C48.02 80 46.04 80 44 80 C41.17062061 75.43648485 41.56491228 70.53192977 41.34375 65.3125 C41.02381577 62.22949743 40.44509071 60.65132345 39 58 C39.375 55.25 39.375 55.25 40 53 C39.01 52.505 39.01 52.505 38 52 C32.76683882 48.52325614 28.55383112 44.66221468 24.54296875 39.83203125 C23.1037791 38.12322126 21.58724861 36.56961252 20 35 C17 31.33333333 17 31.33333333 17 29 C16.34 29 15.68 29 15 29 C11 23.70588235 11 23.70588235 11 20 C10.34 20 9.68 20 9 20 C8.71125 19.195625 8.4225 18.39125 8.125 17.5625 C7.26737432 14.8673532 7.26737432 14.8673532 5 14 C5.33 13.34 5.66 12.68 6 12 C5.34 12 4.68 12 4 12 C3.566875 10.88625 3.566875 10.88625 3.125 9.75 C2.079967 7.06675308 2.079967 7.06675308 0.875 4.875 C0 3 0 3 0 0 Z " fill="#CAE5D7" transform="translate(151,249)"/>
<path d="M0 0 C0.66 0 1.32 0 2 0 C0.34470214 5.60254661 0.34470214 5.60254661 -1.48046875 7.70703125 C-3.5944599 10.89703846 -3.95184208 14.22559114 -4.5 17.9375 C-5.23849437 22.91094045 -6.23357178 26.73477913 -9 31 C-9.71923208 34.69523952 -9.71923208 34.69523952 -10 38 C-10.66 38 -11.32 38 -12 38 C-12.02485094 44.10147815 -12.04293117 50.20292637 -12.05493164 56.30444336 C-12.0599383 58.37703973 -12.06674559 60.44963261 -12.07543945 62.5222168 C-12.08766646 65.51351792 -12.09326513 68.50477206 -12.09765625 71.49609375 C-12.10281754 72.41208847 -12.10797882 73.32808319 -12.11329651 74.27183533 C-12.21488186 84.98465039 -12.21488186 84.98465039 -9 95 C-8.875 97.75 -8.875 97.75 -9 100 C-9.66 100 -10.32 100 -11 100 C-12.85039769 95.94306113 -13.51316331 92.16315861 -14.0625 87.75 C-14.24179021 83.54978661 -14.24179021 83.54978661 -16 80 C-16.27182279 77.4297645 -16.47651344 74.89071609 -16.625 72.3125 C-16.69146729 71.17458008 -16.69146729 71.17458008 -16.75927734 70.01367188 C-17.10779275 62.97277842 -16.96001472 55.99744063 -16 49 C-15.505 48.505 -15.505 48.505 -15 48 C-15.04125 46.845 -15.0825 45.69 -15.125 44.5 C-15.1926214 40.30747302 -14.16949129 37.02704706 -12.734375 33.12109375 C-11.81060424 30.45296864 -11.35839529 27.79548327 -11 25 C-10.34 25 -9.68 25 -9 25 C-9.33 24.01 -9.66 23.02 -10 22 C-9.2578125 19.9140625 -9.2578125 19.9140625 -8.125 17.625 C-6.60446459 14.41090274 -5.45934403 11.55991621 -5 8 C-4.34 8 -3.68 8 -3 8 C-2.87625 7.236875 -2.7525 6.47375 -2.625 5.6875 C-2 3 -2 3 0 0 Z " fill="#86D1A7" transform="translate(160,147)"/>
<path d="M0 0 C0.66 0 1.32 0 2 0 C2 0.66 2 1.32 2 2 C2.66 2 3.32 2 4 2 C4 2.99 4 3.98 4 5 C4.99 5.33 5.98 5.66 7 6 C7.33 7.65 7.66 9.3 8 11 C8.66 11 9.32 11 10 11 C13 14.46153846 13 14.46153846 13 17 C13.66 17 14.32 17 15 17 C15.26554688 17.69867188 15.53109375 18.39734375 15.8046875 19.1171875 C16.15789062 20.02726562 16.51109375 20.93734375 16.875 21.875 C17.22304687 22.77992188 17.57109375 23.68484375 17.9296875 24.6171875 C18.88530895 27.12217007 18.88530895 27.12217007 21 29 C23.0418529 33.24293286 24.44640176 37.23838118 24 42 C24.66 42 25.32 42 26 42 C26.33 44.64 26.66 47.28 27 50 C27.66 50 28.32 50 29 50 C29.33 53.96 29.66 57.92 30 62 C30.66 62 31.32 62 32 62 C32 75.2 32 88.4 32 102 C31.01 102.495 31.01 102.495 30 103 C30.00523682 102.28046143 30.01047363 101.56092285 30.01586914 100.81958008 C31.26268669 79.40814274 31.26268669 79.40814274 26.80444336 58.92114258 C25.34911068 55.44556964 24.41858176 51.81985217 23.4375 48.1875 C23.22134033 47.39939941 23.00518066 46.61129883 22.7824707 45.79931641 C21.27810715 40.23620403 20.00714568 34.67663926 19 29 C18.34 29 17.68 29 17 29 C16.59007812 28.22914063 16.18015625 27.45828125 15.7578125 26.6640625 C15.21898437 25.66117188 14.68015625 24.65828125 14.125 23.625 C13.32449219 22.12839844 13.32449219 22.12839844 12.5078125 20.6015625 C11.1179862 17.94651605 11.1179862 17.94651605 9 16 C9 15.01 9 14.02 9 13 C8.34 13 7.68 13 7 13 C3 7.58823529 3 7.58823529 3 5 C2.34 5 1.68 5 1 5 C0.67 3.35 0.34 1.7 0 0 Z " fill="#A8E2C2" transform="translate(216,130)"/>
<path d="M0 0 C0.66 0.33 1.32 0.66 2 1 C3.90246011 12.57629032 3.11177591 24.6472794 2.5625 36.3125 C2.52334473 37.16078369 2.48418945 38.00906738 2.44384766 38.88305664 C2.19911259 43.6460136 1.75629163 48.29065461 1 53 C0.34 53 -0.32 53 -1 53 C-1.33 55.31 -1.66 57.62 -2 60 C-2.66 60 -3.32 60 -4 60 C-4.1546875 61.546875 -4.1546875 61.546875 -4.3125 63.125 C-4.99910927 66.99497951 -6.10494636 69.58890344 -8 73 C-8.5878125 74.175625 -8.5878125 74.175625 -9.1875 75.375 C-9.455625 75.91125 -9.72375 76.4475 -10 77 C-11.32 77 -12.64 77 -14 77 C-14.33 78.32 -14.66 79.64 -15 81 C-16.25541557 77.23375329 -15.37061958 75.62811066 -14 72 C-13.34 72 -12.68 72 -12 72 C-12 71.34 -12 70.68 -12 70 C-11.34 70 -10.68 70 -10 70 C-10 69.34 -10 68.68 -10 68 C-9.01 68 -8.02 68 -7 68 C-6.90203125 67.319375 -6.8040625 66.63875 -6.703125 65.9375 C-5.2434628 56.47486227 -3.00667431 47.24005906 -0.45069885 38.01812744 C0.30561284 34.63153488 0.12089875 31.18750785 0.09765625 27.734375 C0.0962413 26.94097717 0.09482635 26.14757935 0.09336853 25.33013916 C0.08778415 22.80338728 0.07523454 20.27672496 0.0625 17.75 C0.05748298 16.03385545 0.05292043 14.31770951 0.04882812 12.6015625 C0.03781984 8.40100731 0.02056596 4.20051883 0 0 Z " fill="#67BF8F" transform="translate(244,193)"/>
<path d="M0 0 C0.66 0 1.32 0 2 0 C1.03020668 5.46610782 1.03020668 5.46610782 0 8 C-2.5625 9.3125 -2.5625 9.3125 -5 10 C-5.33 10.99 -5.66 11.98 -6 13 C-6.99 13 -7.98 13 -9 13 C-9.66 14.32 -10.32 15.64 -11 17 C-11.66 17 -12.32 17 -13 17 C-13 18.32 -13 19.64 -13 21 C-13.66 21 -14.32 21 -15 21 C-15.27070313 21.57492188 -15.54140625 22.14984375 -15.8203125 22.7421875 C-17.01715435 25.03283183 -18.34670657 27.04240326 -19.875 29.125 C-20.36742187 29.80820313 -20.85984375 30.49140625 -21.3671875 31.1953125 C-23.11044971 33.122076 -24.62196759 34.00143228 -27 35 C-27 35.66 -27 36.32 -27 37 C-27.99 36.67 -28.98 36.34 -30 36 C-29.34 34.68 -28.68 33.36 -28 32 C-27.34 32 -26.68 32 -26 32 C-25.74089844 31.26910156 -25.48179687 30.53820312 -25.21484375 29.78515625 C-23.96371992 26.91682414 -22.52468936 24.86386319 -20.5625 22.4375 C-19.96566406 21.69371094 -19.36882812 20.94992188 -18.75390625 20.18359375 C-18.17511719 19.46300781 -17.59632813 18.74242188 -17 18 C-16.47277344 17.24847656 -15.94554687 16.49695313 -15.40234375 15.72265625 C-14.93957031 15.15417969 -14.47679687 14.58570312 -14 14 C-13.34 14 -12.68 14 -12 14 C-11.34 12.68 -10.68 11.36 -10 10 C-9.34 10 -8.68 10 -8 10 C-8 9.34 -8 8.68 -8 8 C-7.360625 7.896875 -6.72125 7.79375 -6.0625 7.6875 C-5.0415625 7.3471875 -5.0415625 7.3471875 -4 7 C-3.67 6.01 -3.34 5.02 -3 4 C-2.34 4 -1.68 4 -1 4 C-0.67 2.68 -0.34 1.36 0 0 Z " fill="#81D0A3" transform="translate(191,109)"/>
<path d="M0 0 C0.33 0.66 0.66 1.32 1 2 C1.99 2 2.98 2 4 2 C4.39832031 2.89203125 4.79664063 3.7840625 5.20703125 4.703125 C5.73683594 5.87359375 6.26664063 7.0440625 6.8125 8.25 C7.33457031 9.41015625 7.85664063 10.5703125 8.39453125 11.765625 C9.75240243 14.50119031 10.95580473 16.74655639 13 19 C13.99 19.33 14.98 19.66 16 20 C17.99396257 22.66083969 20 25.61242325 20 29 C20.66 29 21.32 29 22 29 C24 32 24 32 23.625 34.1875 C23.41875 34.785625 23.2125 35.38375 23 36 C22.7525 35.360625 22.505 34.72125 22.25 34.0625 C21.18437567 31.81258459 21.18437567 31.81258459 18.875 31.25 C18.25625 31.1675 17.6375 31.085 17 31 C17 30.34 17 29.68 17 29 C16.34 29 15.68 29 15 29 C11 23.70588235 11 23.70588235 11 20 C10.34 20 9.68 20 9 20 C8.71125 19.195625 8.4225 18.39125 8.125 17.5625 C7.26737432 14.8673532 7.26737432 14.8673532 5 14 C5.33 13.34 5.66 12.68 6 12 C5.34 12 4.68 12 4 12 C3.566875 10.88625 3.566875 10.88625 3.125 9.75 C2.079967 7.06675308 2.079967 7.06675308 0.875 4.875 C0 3 0 3 0 0 Z " fill="#92D7B1" transform="translate(151,249)"/>
<path d="M0 0 C0.66 0 1.32 0 2 0 C2.33 3.96 2.66 7.92 3 12 C3.66 12 4.32 12 5 12 C5 25.2 5 38.4 5 52 C4.01 52.495 4.01 52.495 3 53 C3.00785522 51.92069214 3.00785522 51.92069214 3.01586914 50.81958008 C4.08652664 30.64190148 4.08652664 30.64190148 0.96875 10.9453125 C-0.30498781 7.07273867 -0.1396253 4.04913366 0 0 Z " fill="#A9E4C4" transform="translate(243,180)"/>
<path d="M0 0 C0.99 0.33 1.98 0.66 3 1 C0.87553389 5.24893221 -1.80261286 7.70246151 -5.4765625 10.5703125 C-7.27420352 12.03032951 -7.27420352 12.03032951 -8 15 C-9.98600337 16.3540932 -11.98817543 17.68457624 -14 19 C-14.86625 19.928125 -15.7325 20.85625 -16.625 21.8125 C-19 24 -19 24 -21.1875 24.125 C-23.71860135 22.55397158 -24.14357528 20.78338033 -25 18 C-24.05125 18.33 -23.1025 18.66 -22.125 19 C-19.22937548 20.10159191 -19.22937548 20.10159191 -17 20 C-16.34 18.68 -15.68 17.36 -15 16 C-14.34 16 -13.68 16 -13 16 C-13 15.34 -13 14.68 -13 14 C-12.01 14 -11.02 14 -10 14 C-9.690625 13.21625 -9.38125 12.4325 -9.0625 11.625 C-8 9 -8 9 -7 7 C-6.34 7 -5.68 7 -5 7 C-4.67 6.01 -4.34 5.02 -4 4 C-3.34 4 -2.68 4 -2 4 C-1.34 2.68 -0.68 1.36 0 0 Z " fill="#1D9558" transform="translate(225,274)"/>
<path d="M0 0 C4.10765936 3.47571176 4.4557436 7.85288948 5 13 C4.8871046 15.45764601 4.52492993 17.58532231 4 20 C1.23776722 17.23776722 1.42143709 14.79293383 1 11 C0.67 11 0.34 11 0 11 C-0.66 15.29 -1.32 19.58 -2 24 C-2.33 24 -2.66 24 -3 24 C-3.22119939 21.37549914 -3.42746669 18.75129514 -3.625 16.125 C-3.68945312 15.37863281 -3.75390625 14.63226563 -3.8203125 13.86328125 C-3.96087365 11.9129953 -3.98759849 9.95530533 -4 8 C-3.34 7.34 -2.68 6.68 -2 6 C-1.28591666 4.01643517 -0.61382258 2.01684563 0 0 Z " fill="#23AB5B" transform="translate(196,272)"/>
<path d="M0 0 C0.66 0 1.32 0 2 0 C1.67 1.65 1.34 3.3 1 5 C0.34 5 -0.32 5 -1 5 C-1.2475 5.721875 -1.495 6.44375 -1.75 7.1875 C-3.12269592 10.27606582 -4.72353296 12.51011418 -7 15 C-7.66 15 -8.32 15 -9 15 C-9.226875 15.556875 -9.45375 16.11375 -9.6875 16.6875 C-11.37550036 19.66159588 -13.46676517 21.72008865 -16 24 C-16.66 24 -17.32 24 -18 24 C-18 24.66 -18 25.32 -18 26 C-19.125 27.625 -19.125 27.625 -21 29 C-24.1875 29.1875 -24.1875 29.1875 -27 29 C-22.25 25 -22.25 25 -20 25 C-19.773125 24.38125 -19.54625 23.7625 -19.3125 23.125 C-18 21 -18 21 -15.4375 20 C-14.633125 19.67 -13.82875 19.34 -13 19 C-12.79503906 18.07960938 -12.79503906 18.07960938 -12.5859375 17.140625 C-11.8085685 14.30063693 -10.50359767 13.52037521 -8.1875 11.75 C-3.9671039 8.25699712 -2.11333688 5.01917509 0 0 Z " fill="#79CA9E" transform="translate(230,270)"/>
<path d="M0 0 C4.28324091 2.51407619 6.64531705 4.12314139 8 9 C8.66 9 9.32 9 10 9 C10.99 10.485 10.99 10.485 12 12 C12.99 12.33 13.98 12.66 15 13 C15.33 14.65 15.66 16.3 16 18 C16.66 18 17.32 18 18 18 C22 23.41176471 22 23.41176471 22 26 C22.66 26 23.32 26 24 26 C24 26.66 24 27.32 24 28 C19.19295483 26.14464923 17.45952964 22.50035544 14.78125 18.3125 C12.97007993 15.96115641 11.7322553 15.05455468 9 14 C9 13.01 9 12.02 9 11 C8.34 11 7.68 11 7 11 C5.2734375 9.1015625 5.2734375 9.1015625 3.375 6.625 C2.42753906 5.40683594 2.42753906 5.40683594 1.4609375 4.1640625 C0 2 0 2 0 0 Z " fill="#23985D" transform="translate(201,117)"/>
<path d="M0 0 C0.66 0.33 1.32 0.66 2 1 C2.52734375 2.85546875 2.52734375 2.85546875 2.9375 5.1875 C3.73482227 9.18048994 4.98623071 12.43013627 7 16 C5.68 15.34 4.36 14.68 3 14 C3 13.01 3 12.02 3 11 C2.01 11 1.02 11 0 11 C-0.66 13.31 -1.32 15.62 -2 18 C-4.4375 17.625 -4.4375 17.625 -7 17 C-7.33 16.34 -7.66 15.68 -8 15 C-5.525 15.495 -5.525 15.495 -3 16 C-2.80083984 14.39318359 -2.80083984 14.39318359 -2.59765625 12.75390625 C-2.4194944 11.35674231 -2.24109681 9.95960841 -2.0625 8.5625 C-1.93198242 7.50192383 -1.93198242 7.50192383 -1.79882812 6.41992188 C-1.11328125 1.11328125 -1.11328125 1.11328125 0 0 Z " fill="#64C08E" transform="translate(196,282)"/>
<path d="M0 0 C0.99 0 1.98 0 3 0 C7 6.75 7 6.75 7 9 C7.66 9 8.32 9 9 9 C11 12 11 12 10.625 14.1875 C10.41875 14.785625 10.2125 15.38375 10 16 C9.7525 15.360625 9.505 14.72125 9.25 14.0625 C8.18437567 11.81258459 8.18437567 11.81258459 5.875 11.25 C5.25625 11.1675 4.6375 11.085 4 11 C4 10.34 4 9.68 4 9 C3.34 9 2.68 9 2 9 C1.34 6.03 0.68 3.06 0 0 Z " fill="#60C089" transform="translate(164,269)"/>
<path d="M0 0 C1.485 0.99 1.485 0.99 3 2 C3 2.66 3 3.32 3 4 C3.66 4 4.32 4 5 4 C9 8.47058824 9 8.47058824 9 11 C9.99 11.33 10.98 11.66 12 12 C12 12.66 12 13.32 12 14 C12.99 14.33 13.98 14.66 15 15 C15 15.66 15 16.32 15 17 C13.0625 16.6875 13.0625 16.6875 11 16 C10.67 15.01 10.34 14.02 10 13 C9.34 13 8.68 13 8 13 C7.7525 12.21625 7.505 11.4325 7.25 10.625 C5.81399177 7.60938271 4.99779308 7.21785344 2 6 C1.34 5.34 0.68 4.68 0 4 C0 2.68 0 1.36 0 0 Z " fill="#98D9B5" transform="translate(201,113)"/>
<path d="M0 0 C1.5 1.375 1.5 1.375 3 3 C3 3.66 3 4.32 3 5 C3.66 5 4.32 5 5 5 C5.4803318 6.58298026 5.95921612 8.16639978 6.4375 9.75 C6.70433594 10.63171875 6.97117188 11.5134375 7.24609375 12.421875 C7.88468494 14.60565835 8.46775833 16.78835498 9 19 C6 18 6 18 4.6484375 15.7421875 C2.29553866 10.44455637 0.38712337 5.8068506 0 0 Z " fill="#319F66" transform="translate(230,154)"/>
<path d="M0 0 C0.66 0 1.32 0 2 0 C3.48046875 1.50390625 3.48046875 1.50390625 5.1875 3.5625 C12.17549146 11.85700161 12.17549146 11.85700161 21 18 C20.67 18.66 20.34 19.32 20 20 C14.2688312 16.56909623 9.74189906 13.0172532 5.5078125 7.83203125 C4.04823503 5.98254505 4.04823503 5.98254505 2.3671875 4.44921875 C1 3 1 3 0 0 Z " fill="#A8E5C4" transform="translate(170,281)"/>
<path d="M0 0 C0.66 0 1.32 0 2 0 C0.95902388 3.86648272 -0.03698408 7.49461443 -2 11 C-2.66 11 -3.32 11 -4 11 C-4 12.32 -4 13.64 -4 15 C-4.99 15 -5.98 15 -7 15 C-7.33 15.66 -7.66 16.32 -8 17 C-7.42151551 12.22750294 -5.41311991 9.07213985 -3 5 C-2.67 4.01 -2.34 3.02 -2 2 C-1.34 2 -0.68 2 0 2 C0 1.34 0 0.68 0 0 Z " fill="#28A85D" transform="translate(164,144)"/>
<path d="M0 0 C0.66 0 1.32 0 2 0 C1.67 4.29 1.34 8.58 1 13 C0.34 13 -0.32 13 -1 13 C-1 14.65 -1 16.3 -1 18 C-1.99 17.67 -2.98 17.34 -4 17 C-3.52129086 14.91656149 -3.04201531 12.83325311 -2.5625 10.75 C-2.29566406 9.58984375 -2.02882812 8.4296875 -1.75390625 7.234375 C-1.19032 4.81650239 -0.61330049 2.40556696 0 0 Z " fill="#A5E1C0" transform="translate(149,172)"/>
<path d="M0 0 C0.66 0 1.32 0 2 0 C2 0.66 2 1.32 2 2 C2.66 2 3.32 2 4 2 C4 2.99 4 3.98 4 5 C4.99 5.33 5.98 5.66 7 6 C7.33 7.65 7.66 9.3 8 11 C8.66 11 9.32 11 10 11 C10.33 12.98 10.66 14.96 11 17 C10.34 16.67 9.68 16.34 9 16 C9 15.01 9 14.02 9 13 C8.34 13 7.68 13 7 13 C3 7.58823529 3 7.58823529 3 5 C2.34 5 1.68 5 1 5 C0.67 3.35 0.34 1.7 0 0 Z " fill="#8AD1AB" transform="translate(216,130)"/>
<path d="M0 0 C2.8125 0.1875 2.8125 0.1875 6 1 C8.00533402 3.62767906 8.955963 5.86788901 10 9 C11.32 9 12.64 9 14 9 C14.33 9.99 14.66 10.98 15 12 C10.09782158 11.57602781 8.02631572 9.48226114 4.6875 6 C3.80449219 5.0925 2.92148438 4.185 2.01171875 3.25 C0 1 0 1 0 0 Z " fill="#38B06A" transform="translate(175,285)"/>
<path d="M0 0 C0.66 0.33 1.32 0.66 2 1 C1.34 3.64 0.68 6.28 0 9 C-1.32 9 -2.64 9 -4 9 C-4.33 10.32 -4.66 11.64 -5 13 C-6.25541557 9.23375329 -5.37061958 7.62811066 -4 4 C-3.34 4 -2.68 4 -2 4 C-2 3.34 -2 2.68 -2 2 C-1.34 2 -0.68 2 0 2 C0 1.34 0 0.68 0 0 Z " fill="#52B27F" transform="translate(234,261)"/>
<path d="M0 0 C0.66 0 1.32 0 2 0 C2 0.66 2 1.32 2 2 C2.66 2 3.32 2 4 2 C5.00109515 5.31070838 5.10356134 8.30084769 5.0625 11.75 C5.05347656 12.73484375 5.04445312 13.7196875 5.03515625 14.734375 C5.02355469 15.48203125 5.01195312 16.2296875 5 17 C4.67 17 4.34 17 4 17 C3.33191847 14.35451646 2.66546951 11.7086406 2 9.0625 C1.80921875 8.30775391 1.6184375 7.55300781 1.421875 6.77539062 C0 1.11328125 0 1.11328125 0 0 Z " fill="#7AC99E" transform="translate(238,170)"/>
<path d="M0 0 C4.10765936 3.47571176 4.4557436 7.85288948 5 13 C4.8871046 15.45764601 4.52492993 17.58532231 4 20 C0.70798713 16.70798713 1.54032544 12.35792824 1.34375 7.87109375 C1.17359375 6.44990234 1.17359375 6.44990234 1 5 C0.34 4.67 -0.32 4.34 -1 4 C-0.67 2.68 -0.34 1.36 0 0 Z " fill="#1B9E57" transform="translate(196,272)"/>
<path d="M0 0 C0.66 0 1.32 0 2 0 C2.10477512 5.78591511 1.99250545 11.29309366 1 17 C0.34 17 -0.32 17 -1 17 C-0.67 11.39 -0.34 5.78 0 0 Z " fill="#92D7B1" transform="translate(244,229)"/>
<path d="M0 0 C0.66 0.33 1.32 0.66 2 1 C0.28032649 4.02990095 -1.29238306 6.76327296 -4 9 C-4.66 9 -5.32 9 -6 9 C-6 9.66 -6 10.32 -6 11 C-6.99 10.67 -7.98 10.34 -9 10 C-8.25 8.0625 -8.25 8.0625 -7 6 C-5.66666667 5.66666667 -4.33333333 5.33333333 -3 5 C-1.77472052 3.04978917 -1.77472052 3.04978917 -1 1 C-0.67 0.67 -0.34 0.34 0 0 Z " fill="#62C38B" transform="translate(170,135)"/>
<path d="M0 0 C1.8125 0.125 1.8125 0.125 4 1 C5.8125 3.875 5.8125 3.875 7 7 C6.67 7.99 6.34 8.98 6 10 C4.5 8.6875 4.5 8.6875 3 7 C3 6.01 3 5.02 3 4 C2.34 4 1.68 4 1 4 C1 4.66 1 5.32 1 6 C0.34 6 -0.32 6 -1 6 C-1.33 5.01 -1.66 4.02 -2 3 C-1.34 2.01 -0.68 1.02 0 0 Z " fill="#ACE4C5" transform="translate(194,102)"/>
<path d="M0 0 C0.66 0 1.32 0 2 0 C1.34 3.3 0.68 6.6 0 10 C-0.99 10 -1.98 10 -3 10 C-3 10.66 -3 11.32 -3 12 C-3.66 11.67 -4.32 11.34 -5 11 C-4.67 9.68 -4.34 8.36 -4 7 C-3.34 7 -2.68 7 -2 7 C-1.855625 6.030625 -1.71125 5.06125 -1.5625 4.0625 C-1 1 -1 1 0 0 Z " fill="#269A5F" transform="translate(237,251)"/>
<path d="M0 0 C0.99 0.495 0.99 0.495 2 1 C3.45687503 5.97051481 4.35839688 10.86717502 5 16 C4.34 16 3.68 16 3 16 C1.35199144 12.33552568 0.66419027 9.18796534 0.375 5.1875 C0.30023438 4.21167969 0.22546875 3.23585937 0.1484375 2.23046875 C0.09945312 1.49441406 0.05046875 0.75835937 0 0 Z " fill="#B0E7C9" transform="translate(146,231)"/>
<path d="M0 0 C0.66 0 1.32 0 2 0 C4.01782732 2.90567134 5.35494404 5.51669784 6 9 C5.01 8.67 4.02 8.34 3 8 C3 7.01 3 6.02 3 5 C1.02 5.66 -0.96 6.32 -3 7 C-2.67 5.35 -2.34 3.7 -2 2 C-1.34 2 -0.68 2 0 2 C0 1.34 0 0.68 0 0 Z " fill="#42AB72" transform="translate(195,106)"/>
<path d="M0 0 C2.36543716 2.36543716 3.27541323 4.57067205 4.625 7.625 C5.07101563 8.62789063 5.51703125 9.63078125 5.9765625 10.6640625 C6.31429687 11.43492187 6.65203125 12.20578125 7 13 C5.68 12.34 4.36 11.68 3 11 C3 10.01 3 9.02 3 8 C2.01 8 1.02 8 0 8 C-0.33 8.66 -0.66 9.32 -1 10 C-0.67 6.7 -0.34 3.4 0 0 Z " fill="#87CCA9" transform="translate(196,285)"/>
<path d="M0 0 C0.66 0 1.32 0 2 0 C1.67 1.65 1.34 3.3 1 5 C0.34 5 -0.32 5 -1 5 C-1.2475 5.721875 -1.495 6.44375 -1.75 7.1875 C-3.12269592 10.27606582 -4.72353296 12.51011418 -7 15 C-7.66 15 -8.32 15 -9 15 C-8.05029764 12.88143321 -7.25157967 11.24064143 -5.5625 9.625 C-3.81443488 7.80701228 -2.89245221 6.08412361 -1.8125 3.8125 C-1.46832031 3.09707031 -1.12414062 2.38164062 -0.76953125 1.64453125 C-0.51558594 1.10183594 -0.26164063 0.55914062 0 0 Z " fill="#ACE4C6" transform="translate(230,270)"/>
<path d="M0 0 C0.66 0 1.32 0 2 0 C1.10551135 3.02750006 0.35598216 5.53010355 -1.5625 8.0625 C-3.26116284 10.35200208 -3.61179817 12.20494683 -4 15 C-4.66 15 -5.32 15 -6 15 C-5.67 12.69 -5.34 10.38 -5 8 C-4.34 8 -3.68 8 -3 8 C-2.87625 7.236875 -2.7525 6.47375 -2.625 5.6875 C-2 3 -2 3 0 0 Z " fill="#AAE4C4" transform="translate(160,147)"/>
<path d="M0 0 C3.14292072 2.09528048 3.50856669 2.58783233 4.6875 5.9375 C4.93886719 6.62714844 5.19023437 7.31679687 5.44921875 8.02734375 C6 10 6 10 6 13 C5.01 12.67 4.02 12.34 3 12 C2.05078125 9.27734375 2.05078125 9.27734375 1.3125 5.9375 C1.06113281 4.83277344 0.80976563 3.72804687 0.55078125 2.58984375 C0.36902344 1.73519531 0.18726563 0.88054687 0 0 Z " fill="#ABE3C4" transform="translate(234,157)"/>
<path d="M0 0 C0.66 0 1.32 0 2 0 C2 0.66 2 1.32 2 2 C2.66 2 3.32 2 4 2 C8 7.41176471 8 7.41176471 8 10 C8.66 10 9.32 10 10 10 C10 10.66 10 11.32 10 12 C6.60812721 10.58426179 4.90302459 8.95769034 2.75 6 C2.22921875 5.29875 1.7084375 4.5975 1.171875 3.875 C0 2 0 2 0 0 Z " fill="#1C9357" transform="translate(215,133)"/>
<path d="M0 0 C0.99 0 1.98 0 3 0 C4.32 2.64 5.64 5.28 7 8 C4.625 7.75 4.625 7.75 2 7 C0.2058242 4.43689172 0 3.16880694 0 0 Z " fill="#36AD68" transform="translate(164,269)"/>
<path d="M0 0 C0.66 0 1.32 0 2 0 C1.42531075 3.87915244 -0.37884447 6.14756605 -3 9 C-3.99 9.33 -4.98 9.66 -6 10 C-6 9.34 -6 8.68 -6 8 C-5.34 8 -4.68 8 -4 8 C-4 7.01 -4 6.02 -4 5 C-3.34 5 -2.68 5 -2 5 C-1.855625 4.360625 -1.71125 3.72125 -1.5625 3.0625 C-1 1 -1 1 0 0 Z " fill="#8FD4AF" transform="translate(219,284)"/>
<path d="M0 0 C0.99 0 1.98 0 3 0 C3.33 0.99 3.66 1.98 4 3 C4.66 3.33 5.32 3.66 6 4 C6 4.66 6 5.32 6 6 C5.01 6 4.02 6 3 6 C2.67 6.66 2.34 7.32 2 8 C0.74335022 5.09399739 0 3.20395416 0 0 Z " fill="#07974B" transform="translate(195,111)"/>
<path d="M0 0 C2.0343459 1.41519715 2.90410393 2.54982123 3.421875 4.98046875 C3.66273952 6.98176954 3.83532741 8.9909944 4 11 C0.85041169 7.57653445 0.43820891 4.55737263 0 0 Z " fill="#1B9256" transform="translate(230,154)"/>
<path d="M0 0 C1.33332095 2.6666419 0.67102033 4.16680303 0 7 C-0.99 7 -1.98 7 -3 7 C-3.33 7.66 -3.66 8.32 -4 9 C-3.46930939 5.17902761 -2.50298434 2.93828597 0 0 Z " fill="#4AB778" transform="translate(160,152)"/>
<path d="M0 0 C3.99455527 0.61454696 6.74466336 2.70646737 10 5 C9.67 5.66 9.34 6.32 9 7 C7.4972763 6.02501855 5.99788037 5.04490611 4.5 4.0625 C3.6646875 3.51722656 2.829375 2.97195313 1.96875 2.41015625 C1.3190625 1.94480469 0.669375 1.47945313 0 1 C0 0.67 0 0.34 0 0 Z " fill="#B4E9CC" transform="translate(181,294)"/>
<path d="M0 0 C0.33 0 0.66 0 1 0 C1 2.97 1 5.94 1 9 C0.01 9 -0.98 9 -2 9 C-2.33 8.01 -2.66 7.02 -3 6 C-2.01 5.67 -1.02 5.34 0 5 C0 3.35 0 1.7 0 0 Z " fill="#16A150" transform="translate(192,289)"/>
<path d="M0 0 C0.66 0 1.32 0 2 0 C0.515 5.445 0.515 5.445 -1 11 C-1.33 11 -1.66 11 -2 11 C-2.28571429 3.57142857 -2.28571429 3.57142857 0 0 Z " fill="#14A64D" transform="translate(153,173)"/>
<path d="M0 0 C0.99 0.33 1.98 0.66 3 1 C0.25 5.875 0.25 5.875 -2 7 C-1.34 4.69 -0.68 2.38 0 0 Z " fill="#3CA56E" transform="translate(225,274)"/>
<path d="M0 0 C0.66 0 1.32 0 2 0 C4.1519437 3.22791555 4.20086443 4.28400809 4 8 C0 3.375 0 3.375 0 0 Z " fill="#8BD4AC" transform="translate(230,151)"/>
<path d="M0 0 C2.5 2.3125 2.5 2.3125 5 5 C5 5.99 5 6.98 5 8 C4.01 7.67 3.02 7.34 2 7 C0.8125 3.4375 0.8125 3.4375 0 0 Z " fill="#24985D" transform="translate(225,146)"/>
</svg>
