<?xml version="1.0" encoding="UTF-8"?>
<svg version="1.1" xmlns="http://www.w3.org/2000/svg" width="411" height="411">
<path d="M0 0 C1.38812393 -0.01925285 1.38812393 -0.01925285 2.80429077 -0.03889465 C3.81456329 -0.04628159 4.82483582 -0.05366852 5.86572266 -0.0612793 C7.42258286 -0.07338692 7.42258286 -0.07338692 9.01089478 -0.08573914 C11.2185091 -0.0996077 13.42614512 -0.11031737 15.63378906 -0.11816406 C18.98106035 -0.13524934 22.32731096 -0.17909516 25.67431641 -0.22338867 C27.82144457 -0.23352657 29.96858114 -0.24203922 32.11572266 -0.2487793 C33.10575287 -0.26628738 34.09578308 -0.28379547 35.11581421 -0.30183411 C47.68448382 -0.26340893 57.96631822 4.88663203 67.21728516 13.17700195 C80.70226791 27.38160096 84.82788303 47.70177941 88.65478516 66.17700195 C88.8253241 66.93365646 88.99586304 67.69031097 89.17156982 68.46989441 C89.67910346 71.31323992 89.82387204 73.98448634 89.87939453 76.87158203 C89.90191284 77.99498489 89.92443115 79.11838776 89.94763184 80.27583313 C90.01971713 85.4739908 90.07647944 90.67209681 90.11474609 95.87060547 C90.13671945 98.58319194 90.17802457 101.29433596 90.23779297 104.00634766 C90.83128713 133.12867689 85.07250972 163.89980605 64.65478516 186.17700195 C57.37828489 192.94359595 49.15466081 196.55139529 39.40478516 197.98950195 C38.22142578 198.18962891 38.22142578 198.18962891 37.01416016 198.39379883 C33.12962976 199.00731841 30.47349066 199.15420245 26.65478516 198.17700195 C24.54860347 198.14533524 24.54860347 198.14533524 22.32275391 198.33325195 C11.53585027 199.03729796 0.90747887 199.17732748 -9.89208984 198.7121582 C-29.55097452 197.97733057 -49.20682518 198.06201535 -68.87658691 198.1083374 C-73.79906772 198.11877909 -78.72155415 198.12317848 -83.64404297 198.12817383 C-93.21111436 198.13872915 -102.7781618 198.15567294 -112.34521484 198.17700195 C-112.67521484 201.14700195 -113.00521484 204.11700195 -113.34521484 207.17700195 C-112.11968399 207.17478134 -110.89415314 207.17256073 -109.63148499 207.17027283 C-98.10905571 207.15004332 -86.58663002 207.13503074 -75.06418705 207.12518978 C-69.13970769 207.11996047 -63.21524262 207.11286194 -57.29077148 207.1015625 C-51.57848914 207.09073534 -45.86622057 207.08472549 -40.15392876 207.08212471 C-37.96933208 207.08027015 -35.78473619 207.07664895 -33.60014534 207.0712719 C-30.55169135 207.06406374 -27.50329505 207.06301092 -24.45483398 207.06347656 C-23.08566833 207.05808365 -23.08566833 207.05808365 -21.68884277 207.05258179 C-15.45926701 207.06294979 -15.45926701 207.06294979 -14.34521484 208.17700195 C-14.20638395 211.28470767 -14.13190921 214.36842931 -14.10693359 217.4777832 C-14.09886185 218.42453415 -14.0907901 219.3712851 -14.08247375 220.34672546 C-14.06860389 222.36182818 -14.05789481 224.37695467 -14.05004883 226.39208984 C-14.0329991 229.43870752 -13.98916051 232.48419317 -13.94482422 235.53051758 C-13.82572016 250.28992633 -14.72268044 261.9665792 -25.34521484 273.17700195 C-31.01533807 278.89406328 -36.87898852 283.97489196 -44.34521484 287.17700195 C-45.00521484 287.17700195 -45.66521484 287.17700195 -46.34521484 287.17700195 C-46.67521484 287.83700195 -47.00521484 288.49700195 -47.34521484 289.17700195 C-49.81030273 290.21435547 -49.81030273 290.21435547 -53.06787109 291.3059082 C-54.24671875 291.70100586 -55.42556641 292.09610352 -56.64013672 292.50317383 C-57.8834375 292.91116211 -59.12673828 293.31915039 -60.40771484 293.73950195 C-61.62394531 294.15135742 -62.84017578 294.56321289 -64.09326172 294.98754883 C-70.22690772 297.0210039 -75.90783117 298.63373142 -82.34521484 299.17700195 C-83.67950962 299.50646565 -85.01281606 299.83995246 -86.34521484 300.17700195 C-118.8198944 305.14828309 -153.37796774 302.25724695 -183.34521484 288.17700195 C-185.00716223 287.49865608 -186.67120388 286.8250062 -188.34521484 286.17700195 C-188.34521484 285.51700195 -188.34521484 284.85700195 -188.34521484 284.17700195 C-189.39708984 283.80575195 -189.39708984 283.80575195 -190.47021484 283.42700195 C-196.57702569 280.7718668 -200.52591383 277.11690041 -204.73193359 272.0793457 C-206.27462162 270.18631613 -206.27462162 270.18631613 -207.92333984 268.70043945 C-209.62117493 266.88133043 -210.43296038 265.14945271 -211.40771484 262.86450195 C-211.72869141 262.12586914 -212.04966797 261.38723633 -212.38037109 260.6262207 C-212.85796875 259.41385742 -212.85796875 259.41385742 -213.34521484 258.17700195 C-213.68879532 257.35108551 -214.03237579 256.52516907 -214.3863678 255.67422485 C-215.66986123 250.99291241 -215.64829776 246.6052046 -215.65161133 241.7722168 C-215.65993484 240.73723053 -215.66825836 239.70224426 -215.67683411 238.63589478 C-215.70089506 235.21987116 -215.70970277 231.80403879 -215.71630859 228.38793945 C-215.72527982 226.00387517 -215.73440175 223.61981145 -215.7436676 221.23574829 C-215.76015093 216.2374739 -215.7678562 211.23926642 -215.77075195 206.2409668 C-215.77612649 199.85905952 -215.81377199 193.47778795 -215.85949612 187.0960598 C-215.88935121 182.16986845 -215.8964774 177.2438284 -215.8974781 172.31755447 C-215.90166571 169.9661837 -215.91404081 167.61481186 -215.93499565 165.26353073 C-216.12656345 141.90358561 -216.12656345 141.90358561 -210.34521484 132.17700195 C-209.5993235 130.78933121 -209.5993235 130.78933121 -208.83836365 129.37362671 C-203.85253504 120.22983624 -197.11588479 114.56956934 -188.34521484 109.17700195 C-187.58980911 108.68827354 -186.83440338 108.19954514 -186.05610657 107.69600677 C-178.01341584 103.18941365 -168.7297842 102.73699176 -159.70849609 102.79223633 C-158.61411224 102.78686356 -157.51972839 102.78149078 -156.3921814 102.7759552 C-154.03843947 102.76624315 -151.68466202 102.76321293 -149.3309021 102.76631165 C-145.59632542 102.77082616 -141.86221349 102.75668717 -138.12768555 102.73791504 C-129.52841647 102.6981985 -120.9291588 102.68555085 -112.32981873 102.67438507 C-103.80819743 102.66298985 -95.28675772 102.63983478 -86.76522827 102.59700012 C-83.10275056 102.58350992 -79.44056863 102.58758557 -75.77807617 102.59240723 C-73.51269157 102.58305976 -71.24731018 102.57288923 -68.98193359 102.56176758 C-67.97794525 102.5679158 -66.97395691 102.57406403 -65.93954468 102.58039856 C-52.68415898 102.46694573 -40.92045742 98.47191213 -29.97412109 91.13012695 C-28.34521484 90.17700195 -28.34521484 90.17700195 -26.34521484 90.17700195 C-26.34521484 89.51700195 -26.34521484 88.85700195 -26.34521484 88.17700195 C-25.35521484 87.41387695 -24.36521484 86.65075195 -23.34521484 85.86450195 C-14.64345491 78.61009357 -10.33354265 67.81342296 -7.34521484 57.17700195 C-7.01521484 56.18700195 -6.68521484 55.19700195 -6.34521484 54.17700195 C-6.23460666 52.44940643 -6.17903321 50.71803684 -6.15576172 48.98706055 C-6.13904419 47.92941498 -6.12232666 46.87176941 -6.10510254 45.78207397 C-6.0915271 44.64138458 -6.07795166 43.50069519 -6.06396484 42.32543945 C-6.03635071 40.57077866 -6.03635071 40.57077866 -6.00817871 38.78067017 C-5.92934306 33.76443799 -5.86157212 28.74807039 -5.79296875 23.73168945 C-5.74139797 20.07536857 -5.68409937 16.41916894 -5.62646484 12.76293945 C-5.6128894 11.6182016 -5.59931396 10.47346375 -5.58532715 9.29403687 C-5.56860962 8.24269562 -5.55189209 7.19135437 -5.53466797 6.1081543 C-5.52213989 5.17788422 -5.50961182 4.24761414 -5.4967041 3.28915405 C-5.2217797 -0.5440032 -3.39540698 0.04089617 0 0 Z " fill="#FED046" transform="translate(320.34521484375,102.822998046875)"/>
<path d="M0 0 C1.03125 0.7425 2.0625 1.485 3.125 2.25 C11.57058582 10.32838644 18.52353442 21.12435449 19.10096169 33.09262085 C19.15156203 35.72875971 19.16948721 38.36338139 19.17700195 41 C19.18357315 42.00397324 19.19014435 43.00794647 19.19691467 44.04234314 C19.21660626 47.36156293 19.22830333 50.68073747 19.23828125 54 C19.24235678 55.13760773 19.2464323 56.27521545 19.25063133 57.44729614 C19.27147801 63.47283749 19.28578381 69.49835619 19.29516602 75.52392578 C19.30620583 81.72293105 19.34058212 87.92157494 19.38033772 94.12045288 C19.40658905 98.9077009 19.41486559 103.69486408 19.41844749 108.48217773 C19.42329423 110.7657311 19.43485302 113.04928117 19.45348549 115.33276367 C19.59974563 134.45127875 18.02295257 149.76465333 4.25 164.25 C-6.00912827 174.04769821 -17.76854872 179.02515443 -31.92529297 179.20532227 C-32.60535715 179.21523036 -33.28542133 179.22513845 -33.98609352 179.23534679 C-36.23808995 179.26694085 -38.49010481 179.29178981 -40.7421875 179.31640625 C-42.33411082 179.33692356 -43.92602974 179.35778399 -45.51794434 179.37896729 C-48.89090136 179.42284693 -52.2638772 179.46353937 -55.63690186 179.50186157 C-60.00261632 179.55157465 -64.36822279 179.60755135 -68.73383522 179.66546917 C-99.62897856 180.07266318 -99.62897856 180.07266318 -114.21875 179.921875 C-115.13238312 179.91385361 -116.04601624 179.90583221 -116.98733521 179.89756775 C-120.91199226 179.86034014 -124.83384193 179.80229497 -128.75732422 179.69946289 C-146.4229175 179.37424792 -162.24079697 185.74946951 -175 198 C-186.98926452 211.8402387 -191.45887977 227.65931833 -191.08325195 245.69165039 C-190.92710613 253.3238168 -191.21686364 260.93665547 -191.5 268.5625 C-191.54785645 269.87887451 -191.59571289 271.19524902 -191.64501953 272.55151367 C-191.76090966 275.70110817 -191.87915325 278.85059238 -192 282 C-196.99361555 284.49680778 -204.47101222 283.24375204 -210.0625 283.25 C-211.22440857 283.25250763 -211.22440857 283.25250763 -212.40979004 283.25506592 C-225.82770876 283.25681204 -238.19777614 282.46138104 -251 278 C-251 277.34 -251 276.68 -251 276 C-251.5775 275.896875 -252.155 275.79375 -252.75 275.6875 C-255.35661158 274.89103535 -256.9735311 273.80934723 -259 272 C-259 271.34 -259 270.68 -259 270 C-259.763125 269.773125 -260.52625 269.54625 -261.3125 269.3125 C-264.59716118 267.70836315 -265.29918141 266.16970738 -267 263 C-267.69802734 262.32130859 -267.69802734 262.32130859 -268.41015625 261.62890625 C-279.34167699 250.42879778 -282.5549794 230.80430157 -285 216 C-285.34076114 214.45320296 -285.68193655 212.90649715 -286.0234375 211.35986328 C-287.03568864 206.31269706 -287.29098005 201.49903486 -287.265625 196.36328125 C-287.26753845 195.48077194 -287.2694519 194.59826263 -287.27142334 193.68901062 C-287.27277423 191.83441887 -287.26915515 189.9798173 -287.26074219 188.12524414 C-287.25009176 185.3365266 -287.26064193 182.54846268 -287.2734375 179.75976562 C-287.28547694 165.97077514 -286.37573874 152.67649243 -282.6875 139.3125 C-282.36265625 138.11197998 -282.36265625 138.11197998 -282.03125 136.88720703 C-279.19501031 126.72059931 -275.35391979 113.09420173 -267 106 C-266.34 106 -265.68 106 -265 106 C-264.34 104.68 -263.68 103.36 -263 102 C-262.34 102 -261.68 102 -261 102 C-260.505 100.515 -260.505 100.515 -260 99 C-258.02966485 97.39609913 -256.11567949 96.01048922 -254 94.625 C-253.47921875 94.25117187 -252.9584375 93.87734375 -252.421875 93.4921875 C-236.10731336 82.7627911 -216.42164008 84.32258369 -197.79465556 84.49303031 C-193.74820263 84.52464069 -189.70172399 84.5272515 -185.65516663 84.53315735 C-178.01987535 84.54859527 -170.38494915 84.58948492 -162.74981743 84.6399048 C-154.04589219 84.69611453 -145.34194798 84.72336364 -136.63788593 84.74838197 C-118.75838494 84.80041188 -100.87922199 84.88815477 -83 85 C-83 81.7 -83 78.4 -83 75 C-84.0115918 75.03029297 -85.02318359 75.06058594 -86.06542969 75.09179688 C-106.62661952 75.69644825 -127.17934017 76.10567245 -147.75 76.125 C-148.67421753 76.12749756 -149.59843506 76.12999512 -150.55065918 76.13256836 C-172.55658729 76.18163397 -172.55658729 76.18163397 -181 75 C-182.55625789 73.44374211 -182.14250539 71.94311209 -182.16113281 69.77832031 C-182.17074036 68.87938049 -182.1803479 67.98044067 -182.19024658 67.05426025 C-182.19449646 66.07213562 -182.19874634 65.09001099 -182.203125 64.078125 C-182.20882507 63.06715759 -182.21452515 62.05619019 -182.22039795 61.0145874 C-182.22987295 58.86243746 -182.23639179 56.71027284 -182.24023438 54.55810547 C-182.24983648 51.30539355 -182.28079187 48.05334183 -182.3125 44.80078125 C-182.46949715 14.2409761 -182.46949715 14.2409761 -172.02734375 2.84765625 C-166.89569206 -2.01247948 -161.51255876 -5.31150704 -155 -8 C-154.16597656 -8.34675781 -153.33195313 -8.69351562 -152.47265625 -9.05078125 C-111.52214572 -24.26768545 -36.11113378 -27.79777924 0 0 Z " fill="#3671A2" transform="translate(287,18)"/>
<path d="M0 0 C-5.02435641 5.02435641 -13.28071838 5.34236118 -20.04248047 5.3621521 C-21.00855225 5.34979523 -21.97462402 5.33743835 -22.9699707 5.32470703 C-24.01678513 5.32353882 -25.06359955 5.32237061 -26.14213562 5.32116699 C-29.57022591 5.31403306 -32.99780415 5.2858705 -36.42578125 5.2578125 C-38.8208929 5.24966788 -41.21601001 5.2430077 -43.61112976 5.23776245 C-49.89415955 5.22070165 -56.17697095 5.18647687 -62.4598999 5.14770508 C-72.53297155 5.08834001 -82.60615508 5.05463113 -92.67934227 5.02193832 C-96.19418359 5.00798753 -99.70891498 4.98639884 -103.22370911 4.96365356 C-105.37480596 4.95363102 -107.52590355 4.94376532 -109.67700195 4.93408203 C-110.65319489 4.92577362 -111.62938782 4.91746521 -112.63516235 4.90890503 C-113.53631271 4.90594421 -114.43746307 4.9029834 -115.36592102 4.89993286 C-116.534169 4.89270549 -116.534169 4.89270549 -117.72601795 4.88533211 C-120.22855804 5.01152528 -122.54990544 5.48901204 -125 6 C-126.6662553 6.0370279 -128.33401319 6.04759962 -130 6 C-130 6.66 -130 7.32 -130 8 C-131.75 9.4375 -131.75 9.4375 -134 11 C-134.61875 11.515625 -135.2375 12.03125 -135.875 12.5625 C-138.45566346 14.30824293 -141.02489491 15.12099168 -144 16 C-144 16.66 -144 17.32 -144 18 C-145.46908241 19.46908241 -146.97483774 20.90172491 -148.5 22.3125 C-150.92650644 24.92099443 -151.84200699 26.70417375 -153 30 C-153.66 30.66 -154.32 31.32 -155 32 C-157.19618509 35.29427763 -157.96423202 38.20218407 -159 42 C-159.33 42.66 -159.66 43.32 -160 44 C-159.85600266 44.82134933 -159.71200531 45.64269867 -159.56364441 46.48893738 C-158.82597774 51.08402222 -158.91776658 55.53250838 -158.98168945 60.17700195 C-159.0013541 62.27061437 -159.02099087 64.36422706 -159.04060364 66.45783997 C-159.05894729 68.1146173 -159.05894729 68.1146173 -159.07766151 69.80486488 C-159.13854853 75.67381577 -159.16900724 81.54296306 -159.20507812 87.41210938 C-159.2529762 94.87157919 -159.30975129 102.33067959 -159.39770508 109.78979492 C-159.46809746 115.82675781 -159.50894742 121.86329772 -159.53032494 127.90062523 C-159.54388486 130.19592388 -159.56825647 132.49118591 -159.60381508 134.78624916 C-159.65228515 138.00295228 -159.66297089 141.217792 -159.6652832 144.43481445 C-159.6884259 145.37485825 -159.7115686 146.31490204 -159.7354126 147.28343201 C-159.68087319 154.39616187 -157.35828841 158.49066553 -153 164 C-152.319375 164.969375 -151.63875 165.93875 -150.9375 166.9375 C-148.76137406 169.25402117 -146.93010332 169.89131226 -144 171 C-143.67 171.99 -143.34 172.98 -143 174 C-140.99983534 175.20882096 -140.99983534 175.20882096 -139 176 C-139 176.66 -139 177.32 -139 178 C-138.29875 178.268125 -137.5975 178.53625 -136.875 178.8125 C-134 180 -134 180 -131.23828125 181.38671875 C-122.7582986 185.61136632 -114.23841075 189.2345434 -105.01171875 191.45703125 C-103 192 -103 192 -102 193 C-100.06191756 193.2339065 -98.123546 193.46573815 -96.18359375 193.68359375 C-93.03252037 194.14018936 -90.0538362 195.11161129 -87 196 C-85.72125 196.165 -84.4425 196.33 -83.125 196.5 C-82.09375 196.665 -81.0625 196.83 -80 197 C-79.67 197.66 -79.34 198.32 -79 199 C-85.30275668 199.31601566 -90.99187594 198.13533504 -97.125 196.75 C-98.14674316 196.52256104 -99.16848633 196.29512207 -100.22119141 196.06079102 C-110.92451981 193.63346849 -121.04420936 190.67777273 -131 186 C-132.66194738 185.32165413 -134.32598903 184.64800425 -136 184 C-136 183.34 -136 182.68 -136 182 C-137.051875 181.62875 -137.051875 181.62875 -138.125 181.25 C-144.23181084 178.59486485 -148.18069899 174.93989845 -152.38671875 169.90234375 C-153.92940678 168.00931418 -153.92940678 168.00931418 -155.578125 166.5234375 C-157.27596009 164.70432847 -158.08774553 162.97245076 -159.0625 160.6875 C-159.38347656 159.94886719 -159.70445312 159.21023438 -160.03515625 158.44921875 C-160.35355469 157.64097656 -160.67195313 156.83273437 -161 156 C-161.34358047 155.17408356 -161.68716095 154.34816711 -162.04115295 153.4972229 C-163.32464638 148.81591046 -163.30308292 144.42820265 -163.30639648 139.59521484 C-163.31472 138.56022858 -163.32304352 137.52524231 -163.33161926 136.45889282 C-163.35568022 133.04286921 -163.36448793 129.62703683 -163.37109375 126.2109375 C-163.38006497 123.82687322 -163.38918691 121.44280949 -163.39845276 119.05874634 C-163.41493609 114.06047195 -163.42264136 109.06226447 -163.42553711 104.06396484 C-163.43091165 97.68205757 -163.46855715 91.300786 -163.51428127 84.91905785 C-163.54413637 79.9928665 -163.55126256 75.06682644 -163.55226326 70.14055252 C-163.55645087 67.78918175 -163.56882597 65.43780991 -163.58978081 63.08652878 C-163.78134861 39.72658366 -163.78134861 39.72658366 -158 30 C-157.50273911 29.07488617 -157.00547821 28.14977234 -156.4931488 27.19662476 C-151.50732019 18.05283428 -144.77066995 12.39256739 -136 7 C-135.24445107 6.51121022 -134.48890215 6.02242044 -133.7104578 5.51881886 C-125.64367976 0.99855863 -116.30063909 0.55483335 -107.25219727 0.56762695 C-106.14656937 0.5574353 -105.04094147 0.54724365 -103.90180969 0.53674316 C-100.28995543 0.50683623 -96.67836761 0.49737875 -93.06640625 0.48828125 C-90.53961832 0.47141243 -88.01283867 0.45325927 -85.48606873 0.43388367 C-79.53902476 0.39137371 -73.59200732 0.36176371 -67.64486498 0.33856028 C-60.88712209 0.31145556 -54.12952074 0.26750663 -47.37187874 0.22227156 C-13.01225886 -0.00658042 -13.01225886 -0.00658042 0 0 Z " fill="#F2D16A" transform="translate(268,205)"/>
<path d="M0 0 C4.68898295 2.08399242 7.45502544 5.33449957 10.375 9.5 C12.17529881 14.90089644 12.24176287 21.01302573 10.1875 26.375 C7.16991783 31.57772787 2.92212582 34.32465654 -2.625 36.5 C-8.90354227 37.20886768 -13.47863409 36.26692762 -18.625 32.5 C-23.06278889 28.23548703 -25.52541669 23.93052036 -25.78125 17.7265625 C-25.34117529 11.45549782 -23.24148286 7.73955561 -18.5625 3.5625 C-12.51837442 -1.3786008 -7.57421236 -1.04471895 0 0 Z " fill="#F8FBFC" transform="translate(156.625,31.5)"/>
<path d="M0 0 C6.74818943 4.75440619 6.74818943 4.75440619 8.75 8.9375 C9.54233416 15.0398631 10.08210098 21.52283591 6.75 26.9375 C6.09 26.9375 5.43 26.9375 4.75 26.9375 C4.75 27.5975 4.75 28.2575 4.75 28.9375 C-0.45200222 33.67710202 -3.89090046 35.24807179 -10.97265625 35.15625 C-16.22893034 34.65135918 -20.5516124 31.53593117 -24.25 27.9375 C-27.21118873 22.72989224 -28.34297832 17.82201719 -27.25 11.9375 C-25.85453879 8.74441342 -24.17168154 5.84061176 -22.25 2.9375 C-21.59 2.9375 -20.93 2.9375 -20.25 2.9375 C-20.25 2.2775 -20.25 1.6175 -20.25 0.9375 C-13.49726601 -1.41127704 -6.90178891 -2.25635407 0 0 Z " fill="#FEFEF8" transform="translate(270.25,337.0625)"/>
<path d="M0 0 C22.11 0 44.22 0 67 0 C66.67 0.99 66.34 1.98 66 3 C45.21 3 24.42 3 3 3 C2.67 5.97 2.34 8.94 2 12 C3.22553085 11.99777939 4.45106171 11.99555878 5.71372986 11.99327087 C17.23615913 11.97304137 28.75858482 11.95802879 40.28102779 11.94818783 C46.20550715 11.94295851 52.12997222 11.93585999 58.05444336 11.92456055 C63.76672571 11.91373339 69.47899428 11.90772353 75.19128609 11.90512276 C77.37588277 11.9032682 79.56047865 11.899647 81.7450695 11.89426994 C84.79352349 11.88706179 87.84191979 11.88600896 90.89038086 11.88647461 C91.80315796 11.88287933 92.71593506 11.87928406 93.65637207 11.87557983 C99.88594784 11.88594784 99.88594784 11.88594784 101 13 C101.1388309 16.10770571 101.21330563 19.19142736 101.23828125 22.30078125 C101.246353 23.2475322 101.25442474 24.19428314 101.26274109 25.16972351 C101.27661096 27.18482622 101.28732004 29.19995272 101.29516602 31.21508789 C101.31221574 34.26170556 101.35605433 37.30719122 101.40039062 40.35351562 C101.48033736 50.590805 101.45837243 59.57052341 97 69 C95.63968689 65.59921722 96.42277091 63.454975 97.49285889 60.068573 C98.504052 55.94402714 98.36257661 51.69892026 98.4140625 47.47265625 C98.43342865 46.48373886 98.4527948 45.49482147 98.4727478 44.47593689 C98.53220622 41.33821049 98.57879356 38.20044672 98.625 35.0625 C98.66321084 32.92641689 98.70226436 30.79034867 98.7421875 28.65429688 C98.83787972 23.43633081 98.92302455 18.21827395 99 13 C97.61962555 13.01879211 97.61962555 13.01879211 96.21136475 13.03796387 C87.44678872 13.15704081 78.68219609 13.27479793 69.91758347 13.39115143 C65.41395859 13.45098316 60.91034116 13.51128714 56.40673828 13.57275391 C21.96331872 14.04207278 21.96331872 14.04207278 9.640625 14.09375 C8.8558075 14.1002356 8.07098999 14.10672119 7.26239014 14.11340332 C2.23561653 14.11780826 2.23561653 14.11780826 0 13 C0 8.71 0 4.42 0 0 Z " fill="#F2CF68" transform="translate(205,298)"/>
<path d="M0 0 C25.74 0 51.48 0 78 0 C77.67 0.66 77.34 1.32 77 2 C74.63671875 2.66796875 74.63671875 2.66796875 71.6875 3.1875 C70.72199219 3.36667969 69.75648438 3.54585938 68.76171875 3.73046875 C66 4 66 4 64.09814453 3.50708008 C61.80490543 2.9528495 60.01679146 2.98766084 57.66796875 3.15625 C56.37028564 3.23661499 56.37028564 3.23661499 55.04638672 3.31860352 C53.63123779 3.40839478 53.63123779 3.40839478 52.1875 3.5 C41.22292753 4.09418738 30.3697509 3.83377768 19.40283203 3.40844727 C8.59453771 2.99253623 -2.18538988 2.89149221 -13 3 C-13 2.67 -13 2.34 -13 2 C-8.71 2 -4.42 2 0 2 C0 1.34 0 0.68 0 0 Z " fill="#F8CF5A" transform="translate(285,298)"/>
<path d="M0 0 C1.4540625 0.0309375 1.4540625 0.0309375 2.9375 0.0625 C1.6175 0.3925 0.2975 0.7225 -1.0625 1.0625 C-1.05805878 1.6689183 -1.05361755 2.27533661 -1.04904175 2.90013123 C-1.00460315 9.24353669 -0.97454871 15.58689751 -0.95263672 21.93041992 C-0.94261382 24.29404498 -0.92899194 26.65765775 -0.91162109 29.02124023 C-0.88720931 32.42955571 -0.87597946 35.83770643 -0.8671875 39.24609375 C-0.85686493 40.29333115 -0.84654236 41.34056854 -0.83590698 42.41954041 C-0.83497092 48.61830177 -1.48681869 54.062371 -3.0625 60.0625 C-3.7225 60.0625 -4.3825 60.0625 -5.0625 60.0625 C-5.0625 63.0325 -5.0625 66.0025 -5.0625 69.0625 C-5.7225 69.0625 -6.3825 69.0625 -7.0625 69.0625 C-7.31 69.866875 -7.5575 70.67125 -7.8125 71.5 C-8.43125 72.7684375 -8.43125 72.7684375 -9.0625 74.0625 C-11.140625 74.72265625 -11.140625 74.72265625 -13.0625 75.0625 C-12.65257812 74.13308594 -12.24265625 73.20367187 -11.8203125 72.24609375 C-11.27581134 70.99749625 -10.73155352 69.74879261 -10.1875 68.5 C-9.78337891 67.58637695 -9.78337891 67.58637695 -9.37109375 66.65429688 C-8.97470703 65.74067383 -8.97470703 65.74067383 -8.5703125 64.80859375 C-8.20897217 63.98379517 -8.20897217 63.98379517 -7.84033203 63.14233398 C-5.12491042 55.88160682 -4.74170306 49.55549258 -4.68359375 41.8203125 C-4.66659927 40.65619843 -4.6496048 39.49208435 -4.63209534 38.29269409 C-4.57914501 34.59101714 -4.53872128 30.88935099 -4.5 27.1875 C-4.45610994 23.46427991 -4.40950578 19.74114741 -4.35719299 16.01803589 C-4.32516061 13.70440271 -4.29829429 11.39069139 -4.27696228 9.07693481 C-4.26347244 8.03850433 -4.2499826 7.00007385 -4.23608398 5.93017578 C-4.22657211 5.01197052 -4.21706024 4.09376526 -4.20726013 3.1477356 C-3.97298365 -0.22696188 -3.46188083 0.07065063 0 0 Z " fill="#E8C967" transform="translate(319.0625,102.9375)"/>
<path d="M0 0 C3.11378655 -0.29136741 6.02822823 -0.38829759 9.14379883 -0.35644531 C10.09190933 -0.35848969 11.04001984 -0.36053406 12.01686096 -0.36264038 C15.16377803 -0.36565826 18.31017609 -0.34713712 21.45703125 -0.328125 C23.63937755 -0.32506828 25.82172579 -0.3231915 28.0040741 -0.32244873 C32.58490429 -0.3178389 37.16555936 -0.30338986 41.74633789 -0.28125 C47.61762673 -0.25301728 53.48877719 -0.24204408 59.36012745 -0.2375679 C63.86998377 -0.23340876 68.37981213 -0.22358631 72.88965416 -0.21169281 C75.05419377 -0.20599509 77.21873605 -0.20123474 79.3832798 -0.19742584 C82.41157355 -0.19054556 85.43975868 -0.17690324 88.46801758 -0.16113281 C89.36327148 -0.16001495 90.25852539 -0.15889709 91.1809082 -0.15774536 C95.24910978 -0.12970909 99.03169329 -0.02097319 103 1 C103 1.33 103 1.66 103 2 C92.62508541 2.17215641 82.25008715 2.33859469 71.875 2.5 C71.11175289 2.51187725 70.34850578 2.5237545 69.56212997 2.53599167 C45.7068189 2.90545491 21.8586296 3.15612714 -2 3 C-1.34 2.01 -0.68 1.02 0 0 Z " fill="#456F8E" transform="translate(150,195)"/>
<path d="M0 0 C2.64 0 5.28 0 8 0 C8.02686553 1.97909398 8.04633375 3.95828971 8.0625 5.9375 C8.07410156 7.03964844 8.08570313 8.14179688 8.09765625 9.27734375 C8 12 8 12 7 13 C6.7180604 15.28684338 6.55222995 17.57363273 6.37890625 19.87109375 C6 22 6 22 4 24 C1.875 24.625 1.875 24.625 0 25 C-0.06058594 24.05898437 -0.12117188 23.11796875 -0.18359375 22.1484375 C-0.30927734 20.28058594 -0.30927734 20.28058594 -0.4375 18.375 C-0.51871094 17.14523438 -0.59992188 15.91546875 -0.68359375 14.6484375 C-0.93933677 11.04692347 -0.93933677 11.04692347 -1.59375 7.71875 C-2.07255225 4.514458 -1.43005936 2.86011873 0 0 Z " fill="#FEC936" transform="translate(402,210)"/>
<path d="M0 0 C0.77126221 -0.00014603 1.54252441 -0.00029205 2.3371582 -0.0004425 C4.87478493 0.00025161 7.41233734 0.00802047 9.94995117 0.01586914 C11.71400411 0.0177351 13.47805757 0.01915816 15.24211121 0.02015686 C19.87646932 0.02396801 24.51079591 0.0337863 29.1451416 0.04486084 C33.87759983 0.05510513 38.61006317 0.05966094 43.3425293 0.06469727 C52.62183999 0.07540984 61.90112733 0.0924694 71.18041992 0.11352539 C70.85041992 0.77352539 70.52041992 1.43352539 70.18041992 2.11352539 C68.21948242 2.52758789 68.21948242 2.52758789 65.80541992 2.73852539 C65.01393555 2.81329102 64.22245117 2.88805664 63.40698242 2.96508789 C61.66795267 3.08102321 59.9233099 3.11352539 58.18041992 3.11352539 C55.96614334 3.12356994 53.75186964 3.13425256 51.53759766 3.14526367 C44.70781701 3.17800097 37.87803956 3.20043654 31.04820156 3.21714973 C26.91425298 3.22761612 22.78038601 3.241838 18.64648438 3.2644043 C14.64895382 3.28608459 10.6515021 3.29808269 6.65391731 3.30327988 C5.12883318 3.30698153 3.60375348 3.31420976 2.07870293 3.3249855 C-0.04967843 3.33943855 -2.17773006 3.34150608 -4.30615234 3.34057617 C-5.51844009 3.3450174 -6.73072784 3.34945862 -7.97975159 3.35403442 C-10.81958008 3.11352539 -10.81958008 3.11352539 -12.81958008 1.11352539 C-8.53547537 0.06361731 -4.38348539 -0.02186644 0 0 Z " fill="#3D7096" transform="translate(65.819580078125,102.886474609375)"/>
<path d="M0 0 C20.13 0 40.26 0 61 0 C60.67 0.99 60.34 1.98 60 3 C39.21 3 18.42 3 -3 3 C-2.01 2.67 -1.02 2.34 0 2 C0 1.34 0 0.68 0 0 Z " fill="#E6C768" transform="translate(211,298)"/>
<path d="M0 0 C1.125 1.5 1.125 1.5 2 4 C1.58907317 5.9238847 1.16161242 7.84706373 0.61816406 9.73779297 C-4.41393538 28.15305105 -4.6873563 49.10646362 -1.4453125 67.828125 C-0.69012914 73.2071503 -0.8379833 78.58144163 -1 84 C-1.33 84 -1.66 84 -2 84 C-4.6918807 72.48795779 -5.44517745 61.47907636 -5.33618164 49.67260742 C-5.312496 46.93703778 -5.31566074 44.20244407 -5.32226562 41.46679688 C-5.29975668 27.21292608 -4.27199652 13.69886885 0 0 Z " fill="#417399" transform="translate(5,156)"/>
<path d="M0 0 C12.77347255 11.53733005 18.04990026 38.77400837 19.24609375 55.42578125 C19.2491955 57.61872011 19.14349124 59.81175853 19 62 C18.67 62 18.34 62 18 62 C17.87995605 61.31711914 17.75991211 60.63423828 17.63623047 59.93066406 C12.78897986 31.56969435 12.78897986 31.56969435 1.3203125 5.43359375 C0 3 0 3 0 0 Z " fill="#E9CA68" transform="translate(391,122)"/>
<path d="M0 0 C2.1040882 -0.02764495 4.20828968 -0.04667887 6.3125 -0.0625 C7.48425781 -0.07410156 8.65601563 -0.08570313 9.86328125 -0.09765625 C12.93430885 -0.07074069 15.94447753 0.16339733 19 0.46875 C26.21570756 1.16900854 33.44419547 1.35014992 40.6875 1.5625 C42.08269161 1.60582087 43.47787402 1.64943878 44.87304688 1.69335938 C48.2486196 1.79848102 51.62425393 1.90062877 55 2 C55 2.33 55 2.66 55 3 C43.2245084 4.24052991 31.56820342 3.85728474 19.75927734 3.40869141 C8.8330722 2.99688357 -2.06751542 2.89030952 -13 3 C-13 2.67 -13 2.34 -13 2 C-8.71 2 -4.42 2 0 2 C0 1.34 0 0.68 0 0 Z " fill="#C5B675" transform="translate(285,298)"/>
<path d="M0 0 C2.97 0 5.94 0 9 0 C9.33 0.66 9.66 1.32 10 2 C8.67548828 2.32871094 8.67548828 2.32871094 7.32421875 2.6640625 C-3.20943245 5.44739031 -12.05797822 9.71641713 -21 16 C-21 13 -21 13 -19.25 11.0625 C-18.5075 10.381875 -17.765 9.70125 -17 9 C-16.401875 8.278125 -15.80375 7.55625 -15.1875 6.8125 C-12.23164518 4.36336315 -9.76984452 4.39682574 -6 4 C-3.19932935 3.16513613 -3.19932935 3.16513613 -1 2 C-0.67 1.34 -0.34 0.68 0 0 Z " fill="#507993" transform="translate(137,196)"/>
<path d="M0 0 C0.91354248 -0.01289062 1.82708496 -0.02578125 2.76831055 -0.0390625 C4.04315308 -0.04099609 4.04315308 -0.04099609 5.34375 -0.04296875 C6.47586914 -0.04913208 6.47586914 -0.04913208 7.63085938 -0.05541992 C9.5 0.1875 9.5 0.1875 11.5 2.1875 C2.51236323 3.08245536 -6.48529551 3.65589258 -15.5 4.1875 C-15.5 3.5275 -15.5 2.8675 -15.5 2.1875 C-17.0159375 2.4659375 -17.0159375 2.4659375 -18.5625 2.75 C-22.47914227 3.18518247 -25.64244663 2.89603021 -29.5 2.1875 C-29.5 1.8575 -29.5 1.5275 -29.5 1.1875 C-19.66885084 0.51528467 -9.85537251 0.06823278 0 0 Z " fill="#4B7692" transform="translate(206.5,-0.1875)"/>
<path d="M0 0 C-3.32903932 1.15857429 -6.66388421 2.29947919 -10 3.4375 C-10.93457031 3.76298828 -11.86914062 4.08847656 -12.83203125 4.42382812 C-18.28377701 6.27284679 -23.27379567 7.45375024 -29 8 C-30.33333333 8.33333333 -31.66666667 8.66666667 -33 9 C-35.08033429 9.21827342 -37.16427484 9.40380352 -39.25 9.5625 C-40.32765625 9.64628906 -41.4053125 9.73007812 -42.515625 9.81640625 C-43.33546875 9.87699219 -44.1553125 9.93757813 -45 10 C-42.41073669 7.41073669 -40.97294721 7.62601957 -37.375 7.375 C-36.37210938 7.30023438 -35.36921875 7.22546875 -34.3359375 7.1484375 C-33.17964844 7.07496094 -33.17964844 7.07496094 -32 7 C-32 6.34 -32 5.68 -32 5 C-30.95199219 4.87882812 -29.90398437 4.75765625 -28.82421875 4.6328125 C-27.44526114 4.46396055 -26.06635761 4.29466659 -24.6875 4.125 C-23.99720703 4.04636719 -23.30691406 3.96773438 -22.59570312 3.88671875 C-19.04360529 3.44056153 -17.0302971 3.02019807 -14 1 C-11.66015625 0.33203125 -11.66015625 0.33203125 -9.0625 -0.1875 C-8.20785156 -0.36667969 -7.35320312 -0.54585938 -6.47265625 -0.73046875 C-3.96211375 -1.00412978 -2.39937421 -0.67197714 0 0 Z " fill="#E5C86B" transform="translate(267,394)"/>
<path d="M0 0 C16.96174183 -0.61412796 29.87763434 0.15228622 43.11328125 11.87109375 C46.52477937 15.15953181 46.52477937 15.15953181 48 17 C48 17.66 48 18.32 48 19 C45 18 45 18 42.9375 15.3125 C39.50393077 10.96819747 34.80592143 8.59441612 30 6 C29.34902344 5.63519531 28.69804687 5.27039063 28.02734375 4.89453125 C19.63507077 1.19158229 9.00677227 1.50629785 0 1 C0 0.67 0 0.34 0 0 Z " fill="#EBCB68" transform="translate(343,103)"/>
<path d="M0 0 C0.66 0.33 1.32 0.66 2 1 C-1.80411834 4.91939465 -5.81576108 8.49102731 -10 12 C-10.33 11.34 -10.66 10.68 -11 10 C-10.34 10 -9.68 10 -9 10 C-8.34 8.68 -7.68 7.36 -7 6 C-6.34 6 -5.68 6 -5 6 C-4.67 5.01 -4.34 4.02 -4 3 C-1.9375 1.3125 -1.9375 1.3125 0 0 Z M-12 12 C-11.32421875 13.75390625 -11.32421875 13.75390625 -11 16 C-12.14453125 17.96484375 -12.14453125 17.96484375 -13.8125 19.9375 C-16.20653503 22.89418842 -17.60385009 25.45592716 -19 29 C-19.99 29.33 -20.98 29.66 -22 30 C-20.3523657 23.90375311 -17.34188389 18.33066806 -14 13 C-13.34 12.67 -12.68 12.34 -12 12 Z " fill="#517A93" transform="translate(31,114)"/>
<path d="M0 0 C-0.99 0.495 -0.99 0.495 -2 1 C-2.33 1.66 -2.66 2.32 -3 3 C-4.32 3 -5.64 3 -7 3 C-7.2475 3.639375 -7.495 4.27875 -7.75 4.9375 C-9 7 -9 7 -11.125 7.75 C-12.053125 7.87375 -12.053125 7.87375 -13 8 C-13.33 6.68 -13.66 5.36 -14 4 C-17.3 4.33 -20.6 4.66 -24 5 C-24 4.34 -24 3.68 -24 3 C-21.31374546 2.49236135 -18.62631617 1.99372803 -15.9375 1.5 C-15.18533203 1.35691406 -14.43316406 1.21382813 -13.65820312 1.06640625 C-9.02259825 0.223569 -4.7110385 -0.15015262 0 0 Z " fill="#447396" transform="translate(173,2)"/>
<path d="M0 0 C0 3.77773318 -0.96765283 4.37439338 -3.5 7.0625 C-6.23444837 9.61867835 -6.23444837 9.61867835 -7 13 C-8.98 13 -10.96 13 -13 13 C-13 13.66 -13 14.32 -13 15 C-16.82989106 16.80230168 -19.78121808 17.19622241 -24 17 C-21.22334525 15.14889683 -18.42600358 13.53814981 -15.5 11.9375 C-14.06140625 11.14666016 -14.06140625 11.14666016 -12.59375 10.33984375 C-10 9 -10 9 -7 8 C-7 7.34 -7 6.68 -7 6 C-5.46875 4.4921875 -5.46875 4.4921875 -3.5 2.875 C-2.8503125 2.33617187 -2.200625 1.79734375 -1.53125 1.2421875 C-1.0259375 0.83226562 -0.520625 0.42234375 0 0 Z " fill="#F3CD5B" transform="translate(301,185)"/>
<path d="M0 0 C0.99 0.33 1.98 0.66 3 1 C3.125 3.375 3.125 3.375 3 6 C1 8 1 8 -2.125 8.125 C-3.548125 8.063125 -3.548125 8.063125 -5 8 C-3.62845496 5.04590299 -2.01136276 2.55991624 0 0 Z M-6 8 C-5 11 -5 11 -5 14 C-4.34 14.33 -3.68 14.66 -3 15 C-5.31 15.66 -7.62 16.32 -10 17 C-8.68 14.03 -7.36 11.06 -6 8 Z " fill="#3677AF" transform="translate(21,127)"/>
<path d="M0 0 C0.99 0.33 1.98 0.66 3 1 C3.75946056 2.68402124 4.51028712 4.3734692 5.18359375 6.09375 C6.78386934 9.83027865 9.22348866 13.02936082 11.75 16.1875 C13 18 13 18 13 21 C13.639375 21.268125 14.27875 21.53625 14.9375 21.8125 C17 23 17 23 18 26 C17.34 26 16.68 26 16 26 C14.37890625 24.35546875 14.37890625 24.35546875 12.5625 22.1875 C10.09491794 19.24325638 10.09491794 19.24325638 7.40625 16.5078125 C3.4495437 12.26534408 1.67099985 5.43074951 0 0 Z " fill="#EBCB67" transform="translate(105,355)"/>
<path d="M0 0 C1.98 0.99 1.98 0.99 4 2 C4 2.66 4 3.32 4 4 C4.639375 4.103125 5.27875 4.20625 5.9375 4.3125 C8.4448068 4.87536479 10.65662934 5.57138656 13.0625 6.4375 C18.58464289 8.34040059 24.23418406 9.17073713 30 10 C30 10.66 30 11.32 30 12 C21.32224704 11.09495828 13.18220858 10.21443909 5 7 C5 6.34 5 5.68 5 5 C3.68 4.67 2.36 4.34 1 4 C0.67 2.68 0.34 1.36 0 0 Z " fill="#4A7593" transform="translate(31,289)"/>
<path d="M0 0 C0 0.66 0 1.32 0 2 C-4.29 2 -8.58 2 -13 2 C-13 1.34 -13 0.68 -13 0 C-13.63164062 0.0721875 -14.26328125 0.144375 -14.9140625 0.21875 C-22.62568579 1.01880314 -30.25180183 1.10180114 -38 1 C-38 0.67 -38 0.34 -38 0 C-25.52728516 -1.84780961 -12.49214127 -1.54088086 0 0 Z " fill="#FAD05A" transform="translate(285,298)"/>
<path d="M0 0 C1.60004883 0.07250977 1.60004883 0.07250977 3.23242188 0.14648438 C4.88661133 0.2305957 4.88661133 0.2305957 6.57421875 0.31640625 C8.25741211 0.3947168 8.25741211 0.3947168 9.97460938 0.47460938 C12.73728584 0.60392615 15.49956793 0.73887768 18.26171875 0.87890625 C16.26171875 2.87890625 16.26171875 2.87890625 13.64794922 3.10595703 C12.56916504 3.0954834 11.49038086 3.08500977 10.37890625 3.07421875 C9.21230469 3.06777344 8.04570312 3.06132812 6.84375 3.0546875 C5.62042969 3.03792969 4.39710938 3.02117187 3.13671875 3.00390625 C1.90566406 2.99488281 0.67460937 2.98585938 -0.59375 2.9765625 C-3.6421194 2.95293173 -6.69010507 2.91998679 -9.73828125 2.87890625 C-10.06828125 2.21890625 -10.39828125 1.55890625 -10.73828125 0.87890625 C-7.04412869 0.00327711 -3.78708802 -0.18226627 0 0 Z " fill="#E2C66E" transform="translate(201.73828125,402.12109375)"/>
<path d="M0 0 C0.8125 1.6875 0.8125 1.6875 1 4 C-1.95296237 7.64777704 -4.56707306 9.58223321 -9 11 C-11.97265625 11.23046875 -11.97265625 11.23046875 -15.0625 11.1875 C-16.59583984 11.17783203 -16.59583984 11.17783203 -18.16015625 11.16796875 C-20.60072799 11.02361581 -22.66839596 10.69892207 -25 10 C-25 9.34 -25 8.68 -25 8 C-24.360625 8.165 -23.72125 8.33 -23.0625 8.5 C-17.69041084 9.37707578 -11.18032759 9.88375549 -6 8 C-4.63979849 6.03241727 -4.63979849 6.03241727 -4 4 C-3.34 4 -2.68 4 -2 4 C-2 3.34 -2 2.68 -2 2 C-1.34 2 -0.68 2 0 2 C0 1.34 0 0.68 0 0 Z " fill="#F8D86E" transform="translate(277,362)"/>
<path d="M0 0 C3.96 0 7.92 0 12 0 C12 0.66 12 1.32 12 2 C16.29 2 20.58 2 25 2 C25 2.33 25 2.66 25 3 C15.76 3 6.52 3 -3 3 C-2.01 2.67 -1.02 2.34 0 2 C0 1.34 0 0.68 0 0 Z " fill="#D1BC6F" transform="translate(211,298)"/>
<path d="M0 0 C1.32 0.33 2.64 0.66 4 1 C-2.11445306 7.52589289 -7.69513491 13.28844301 -16 17 C-14.62222717 13.6580177 -13.33357835 12.30096395 -10.1875 10.5625 C-5.60957793 7.85736423 -1.73487755 5.20463266 0 0 Z " fill="#4A7594" transform="translate(293,175)"/>
<path d="M0 0 C0.66 0.33 1.32 0.66 2 1 C-1.82798655 8.42946502 -5.66000039 15.52549498 -11 22 C-11.33 21.01 -11.66 20.02 -12 19 C-10.7421875 16.8359375 -10.7421875 16.8359375 -8.875 14.375 C-5.49319723 9.7665313 -2.65116111 5.05797558 0 0 Z " fill="#EBCB67" transform="translate(397,266)"/>
<path d="M0 0 C2.9375 0.8125 2.9375 0.8125 6 2 C6.33 2.99 6.66 3.98 7 5 C9.00016466 6.20882096 9.00016466 6.20882096 11 7 C11 7.66 11 8.32 11 9 C12.2065625 9.433125 12.2065625 9.433125 13.4375 9.875 C16 11 16 11 17 13 C7.1359205 10.988877 7.1359205 10.988877 4 6.375 C3.34 5.26125 2.68 4.1475 2 3 C1.34 2.67 0.68 2.34 0 2 C0 1.34 0 0.68 0 0 Z " fill="#FAD35C" transform="translate(118,374)"/>
<path d="M0 0 C1.88420968 3.19190745 2.04969924 3.75978702 1.25 7.625 C1.04890625 8.30949219 0.8478125 8.99398437 0.640625 9.69921875 C-0.30216684 13.08522116 -0.84550285 16.53396757 -1.4375 19.99609375 C-1.623125 20.65738281 -1.80875 21.31867188 -2 22 C-2.66 22.33 -3.32 22.66 -4 23 C-3.59378936 14.97383806 -2.40152224 7.67278805 0 0 Z " fill="#527991" transform="translate(5,156)"/>
<path d="M0 0 C0 3 0 3 -1 6 C-1.4413121 11.38811289 -1.07424894 15.94401821 1 21 C0.34 21 -0.32 21 -1 21 C-4.40468237 17.07152035 -4.38552991 13.33347957 -4.23046875 8.37890625 C-3.96096067 5.59703475 -3.40790274 3.42472138 -2 1 C-1.34 0.67 -0.68 0.34 0 0 Z " fill="#F8DB7C" transform="translate(245,343)"/>
<path d="M0 0 C0.66 0 1.32 0 2 0 C2.08114106 1.77007714 2.13925505 3.54122098 2.1875 5.3125 C2.22230469 6.29863281 2.25710937 7.28476563 2.29296875 8.30078125 C2 11 2 11 0.55078125 12.85546875 C-1 14 -1 14 -2 14 C-1.85923685 12.0412957 -1.7122324 10.08303907 -1.5625 8.125 C-1.48128906 7.03445312 -1.40007812 5.94390625 -1.31640625 4.8203125 C-1 2 -1 2 0 0 Z " fill="#3479B0" transform="translate(4,173)"/>
<path d="M0 0 C6.27 0.33 12.54 0.66 19 1 C19 1.33 19 1.66 19 2 C12.32325671 3.77864063 7.56702194 4.38800798 1 2 C0.67 1.34 0.34 0.68 0 0 Z " fill="#507890" transform="translate(226,1)"/>
<path d="M0 0 C0.99 0.33 1.98 0.66 3 1 C-7.39238786 9.29179882 -7.39238786 9.29179882 -13 11 C-15.234375 10.59765625 -15.234375 10.59765625 -17 10 C-14.61822364 7.61822364 -12.22775515 6.97407105 -9.10546875 5.859375 C-5.74713744 4.48862753 -2.58065436 2.58065436 0 0 Z " fill="#E8C968" transform="translate(382,288)"/>
<path d="M0 0 C0.99 0.33 1.98 0.66 3 1 C1.37829621 2.00533667 -0.24747237 3.00411907 -1.875 4 C-2.77992188 4.556875 -3.68484375 5.11375 -4.6171875 5.6875 C-7 7 -7 7 -9 7 C-9.33 7.66 -9.66 8.32 -10 9 C-13.0625 9.625 -13.0625 9.625 -16 10 C-16 9.34 -16 8.68 -16 8 C-15.34773438 7.75765625 -14.69546875 7.5153125 -14.0234375 7.265625 C-8.02951651 4.98385518 -8.02951651 4.98385518 -2.5625 1.6875 C-1.2940625 0.8521875 -1.2940625 0.8521875 0 0 Z " fill="#ECCB67" transform="translate(283,383)"/>
<path d="M0 0 C0.66 0.33 1.32 0.66 2 1 C-2.92107966 5.92107966 -7.16763326 7.09531903 -14 8 C-11.85946942 5.65879468 -9.85334961 4.24763409 -7 2.875 C-6.319375 2.54242188 -5.63875 2.20984375 -4.9375 1.8671875 C-3 1 -3 1 0 0 Z " fill="#467597" transform="translate(135,9)"/>
<path d="M0 0 C-2.37145894 0.84479453 -4.74634124 1.67593283 -7.125 2.5 C-7.79015625 2.73847656 -8.4553125 2.97695313 -9.140625 3.22265625 C-13.23354055 4.62708806 -16.61131792 5.27343814 -21 5 C-20.401875 4.71125 -19.80375 4.4225 -19.1875 4.125 C-16.80672208 2.95257974 -16.80672208 2.95257974 -14 1 C-11.66015625 0.33203125 -11.66015625 0.33203125 -9.0625 -0.1875 C-8.20785156 -0.36667969 -7.35320312 -0.54585938 -6.47265625 -0.73046875 C-3.98865141 -1.00123705 -2.35550498 -0.77059444 0 0 Z " fill="#EFCD67" transform="translate(267,394)"/>
<path d="M0 0 C0 3.35762885 -0.39462725 3.84515966 -2.375 6.375 C-4.05362408 8.60059147 -5.09517404 10.24322255 -6.125 12.875 C-6.41375 13.57625 -6.7025 14.2775 -7 15 C-7.99 15.33 -8.98 15.66 -10 16 C-8.26670419 9.69710616 -5.52093184 3.68062123 0 0 Z " fill="#447396" transform="translate(19,128)"/>
<path d="M0 0 C-0.33 0.66 -0.66 1.32 -1 2 C-3.36328125 2.66796875 -3.36328125 2.66796875 -6.3125 3.1875 C-7.27800781 3.36667969 -8.24351562 3.54585938 -9.23828125 3.73046875 C-11.8958582 3.98983623 -13.49417939 3.80832923 -16 3 C-17.66519519 2.65939189 -19.33157466 2.32441604 -21 2 C-21 1.67 -21 1.34 -21 1 C-18.43761495 0.83138242 -15.87511576 0.66504227 -13.3125 0.5 C-12.59126953 0.45230469 -11.87003906 0.40460938 -11.12695312 0.35546875 C-7.41171286 0.11796481 -3.72305126 -0.05874637 0 0 Z " fill="#DCC26D" transform="translate(363,298)"/>
<path d="M0 0 C0.99 0 1.98 0 3 0 C3 0.66 3 1.32 3 2 C3.66 2 4.32 2 5 2 C5 2.99 5 3.98 5 5 C5.99 5 6.98 5 8 5 C7.67 6.32 7.34 7.64 7 9 C6.01 9 5.02 9 4 9 C0 2.25 0 2.25 0 0 Z " fill="#FDC933" transform="translate(400,173)"/>
<path d="M0 0 C2.45103548 0.98041419 3.76758786 1.6513818 5.25 3.875 C6 6 6 6 6 10 C5.01 10 4.02 10 3 10 C0.39749195 6.62637846 -0.36265043 4.23092172 0 0 Z " fill="#FEC933" transform="translate(386,133)"/>
<path d="M0 0 C0.66 0.33 1.32 0.66 2 1 C0.625 3 0.625 3 -1 5 C-1.66 5 -2.32 5 -3 5 C-3.268125 5.53625 -3.53625 6.0725 -3.8125 6.625 C-4.204375 7.40875 -4.59625 8.1925 -5 9 C-5.495 10.051875 -5.99 11.10375 -6.5 12.1875 C-8 15 -8 15 -10 16 C-8.38920595 9.55682381 -4.63830054 4.63830054 0 0 Z " fill="#4B7693" transform="translate(118,18)"/>
<path d="M0 0 C6.875 0.875 6.875 0.875 8 2 C10.5 2.16666667 10.5 2.16666667 13 2 C13.33 1.67 13.66 1.34 14 1 C15.99958364 0.95919217 18.00045254 0.95745644 20 1 C17.13431878 3.86568122 14.5835824 4.16925218 10.6875 4.25 C6.46657861 4.22241228 3.63591332 3.23748512 0 1 C0 0.67 0 0.34 0 0 Z " fill="#FDF3C5" transform="translate(251,368)"/>
<path d="M0 0 C-0.125 1.875 -0.125 1.875 -1 4 C-2.98248715 4.71706982 -4.98415349 5.38290413 -7 6 C-7.66 6.99 -8.32 7.98 -9 9 C-9.6875 7.1875 -9.6875 7.1875 -10 5 C-7.72425423 1.71281167 -3.97219994 0 0 0 Z " fill="#3477B0" transform="translate(39,115)"/>
<path d="M0 0 C1.37302582 4.11907746 0.74706646 6.72134667 0 11 C-0.66 11.66 -1.32 12.32 -2 13 C-2.99 12.67 -3.98 12.34 -5 12 C-3.35 8.04 -1.7 4.08 0 0 Z " fill="#EBCB69" transform="translate(110,235)"/>
<path d="M0 0 C0.99 0 1.98 0 3 0 C3 3.63 3 7.26 3 11 C2.01 11 1.02 11 0 11 C0 7.37 0 3.74 0 0 Z " fill="#47718E" transform="translate(204,93)"/>
<path d="M0 0 C0.66 0 1.32 0 2 0 C0.84941444 5.39795989 -0.42421759 10.70987333 -2 16 C-2.66 16 -3.32 16 -4 16 C-2.98408579 10.53135543 -1.92908943 5.23609987 0 0 Z " fill="#EAC966" transform="translate(406,239)"/>
<path d="M0 0 C1.62566606 0.47690204 3.25051311 0.95659666 4.875 1.4375 C5.77992188 1.70433594 6.68484375 1.97117187 7.6171875 2.24609375 C10 3 10 3 12 4 C12 4.66 12 5.32 12 6 C12.66 6.33 13.32 6.66 14 7 C10.20442119 7 8.37097383 6.49821059 5 5 C5 4.34 5 3.68 5 3 C2.525 2.01 2.525 2.01 0 1 C0 0.67 0 0.34 0 0 Z " fill="#E7C96A" transform="translate(127,384)"/>
<path d="M0 0 C0.66 0.33 1.32 0.66 2 1 C0.59106853 2.63171123 -0.82745958 4.25513945 -2.25 5.875 C-3.03890625 6.77992188 -3.8278125 7.68484375 -4.640625 8.6171875 C-6.74691403 10.74439993 -8.25651526 11.90512306 -11 13 C-11 12.34 -11 11.68 -11 11 C-9.34614767 9.65080468 -7.678298 8.31866272 -6 7 C-5.34 6.01 -4.68 5.02 -4 4 C-3.34 4 -2.68 4 -2 4 C-1.34 2.68 -0.68 1.36 0 0 Z " fill="#EBCB6A" transform="translate(298,369)"/>
<path d="M0 0 C0.66 0.33 1.32 0.66 2 1 C2 1.66 2 2.32 2 3 C4.475 3.99 4.475 3.99 7 5 C6.01 6.485 6.01 6.485 5 8 C2.00675737 6.9024777 1.15389099 6.32317108 -0.25 3.375 C-0.4975 2.59125 -0.745 1.8075 -1 1 C-0.67 0.67 -0.34 0.34 0 0 Z " fill="#3478AF" transform="translate(30,283)"/>
<path d="M0 0 C0.66 0.66 1.32 1.32 2 2 C-2.97361654 3.75734451 -7.7415998 5.32584613 -13 6 C-13 5.34 -13 4.68 -13 4 C-8.73295562 2.13316808 -4.56264971 0.89757044 0 0 Z " fill="#507891" transform="translate(274,191)"/>
<path d="M0 0 C1.48828125 1.08203125 1.48828125 1.08203125 3 3 C3.29296875 6.13671875 3.29296875 6.13671875 3.1875 9.6875 C3.16042969 10.86699219 3.13335937 12.04648438 3.10546875 13.26171875 C3.07066406 14.16535156 3.03585937 15.06898438 3 16 C2.67 16 2.34 16 2 16 C0.80911014 10.61972975 -0.2919519 5.54708616 0 0 Z " fill="#517991" transform="translate(1,224)"/>
<path d="M0 0 C0.99 0.33 1.98 0.66 3 1 C3.66 4.63 4.32 8.26 5 12 C4.34 12 3.68 12 3 12 C2.49166409 10.75336669 1.99368855 9.50250613 1.5 8.25 C1.2215625 7.55390625 0.943125 6.8578125 0.65625 6.140625 C0 4 0 4 0 0 Z " fill="#597E91" transform="translate(5,246)"/>
<path d="M0 0 C1.32 0.33 2.64 0.66 4 1 C4 2.98 4 4.96 4 7 C3.01 7.495 3.01 7.495 2 8 C1.34 7.67 0.68 7.34 0 7 C0 4.69 0 2.38 0 0 Z " fill="#FDC934" transform="translate(400,156)"/>
<path d="M0 0 C2 2 2 2 2.125 5.625 C2.08375 6.73875 2.0425 7.8525 2 9 C2.99 9 3.98 9 5 9 C5 9.66 5 10.32 5 11 C3.68 10.67 2.36 10.34 1 10 C0.63883954 8.5225254 0.28624952 7.04295325 -0.0625 5.5625 C-0.25972656 4.73878906 -0.45695313 3.91507813 -0.66015625 3.06640625 C-0.82837891 2.04353516 -0.82837891 2.04353516 -1 1 C-0.67 0.67 -0.34 0.34 0 0 Z " fill="#3578B1" transform="translate(4,224)"/>
<path d="M0 0 C1.98 0.99 1.98 0.99 4 2 C4 2.66 4 3.32 4 4 C5.2065625 4.185625 5.2065625 4.185625 6.4375 4.375 C7.7059375 4.684375 7.7059375 4.684375 9 5 C9.33 5.66 9.66 6.32 10 7 C8.35 7 6.7 7 5 7 C5 6.34 5 5.68 5 5 C3.68 4.67 2.36 4.34 1 4 C0.67 2.68 0.34 1.36 0 0 Z " fill="#597E91" transform="translate(31,289)"/>
<path d="M0 0 C0.99 0.33 1.98 0.66 3 1 C0.03 4.96 0.03 4.96 -3 9 C-3.33 8.01 -3.66 7.02 -4 6 C-2.84338843 3.79192337 -1.77322566 1.77322566 0 0 Z " fill="#4C7896" transform="translate(108,216)"/>
<path d="M0 0 C0 0.99 0 1.98 0 3 C-3.82989106 4.80230168 -6.78121808 5.19622241 -11 5 C-3.5 0 -3.5 0 0 0 Z " fill="#E5C665" transform="translate(288,197)"/>
<path d="M0 0 C1.625 1.4375 1.625 1.4375 3 4 C2.66417503 7.09705247 1.88564868 10.01810374 1 13 C-0.9078584 9.8250906 -1.1609041 7.89414789 -0.625 4.25 C-0.51414063 3.45078125 -0.40328125 2.6515625 -0.2890625 1.828125 C-0.19367188 1.22484375 -0.09828125 0.6215625 0 0 Z " fill="#D8EAF3" transform="translate(132,43)"/>
<path d="M0 0 C4.03384128 2.07143201 5.92856799 3.96615872 8 8 C5.5625 7.1875 5.5625 7.1875 3 6 C2.67 5.01 2.34 4.02 2 3 C1.34 3 0.68 3 0 3 C0 2.01 0 1.02 0 0 Z " fill="#4F7994" transform="translate(287,19)"/>
<path d="M0 0 C2.89260975 0.26907998 5.05672151 1.04735841 7.6875 2.25 C4.6875 4.25 4.6875 4.25 2.42578125 4.0078125 C1.62527344 3.79898437 0.82476562 3.59015625 0 3.375 C-0.80824219 3.17132813 -1.61648437 2.96765625 -2.44921875 2.7578125 C-3.06410156 2.59023438 -3.67898437 2.42265625 -4.3125 2.25 C-2.3125 0.25 -2.3125 0.25 0 0 Z " fill="#FAD259" transform="translate(186.3125,399.75)"/>
<path d="M0 0 C2.88437779 1.29299694 4.87219421 2.65941363 7 5 C6.67 5.99 6.34 6.98 6 8 C6 7.34 6 6.68 6 6 C5.195625 5.7525 4.39125 5.505 3.5625 5.25 C1 4 1 4 0.1875 1.875 C0.125625 1.25625 0.06375 0.6375 0 0 Z " fill="#587D92" transform="translate(22,282)"/>
<path d="M0 0 C0.66 0.33 1.32 0.66 2 1 C2 2.65 2 4.3 2 6 C1.01 6.495 1.01 6.495 0 7 C-0.99 6.67 -1.98 6.34 -3 6 C-1.125 1.125 -1.125 1.125 0 0 Z " fill="#E8C760" transform="translate(305,179)"/>
<path d="M0 0 C0.66 0.33 1.32 0.66 2 1 C1.34 4.3 0.68 7.6 0 11 C-0.99 10.67 -1.98 10.34 -3 10 C-2.01 6.7 -1.02 3.4 0 0 Z " fill="#4D7894" transform="translate(8,145)"/>
<path d="M0 0 C0.66 0 1.32 0 2 0 C2 0.99 2 1.98 2 3 C2.99 3.33 3.98 3.66 5 4 C4.34 4 3.68 4 3 4 C3 4.66 3 5.32 3 6 C2.01 6 1.02 6 0 6 C0 6.66 0 7.32 0 8 C-0.66 7.67 -1.32 7.34 -2 7 C-1.67 6.34 -1.34 5.68 -1 5 C-0.34 5 0.32 5 1 5 C0.34 3.68 -0.32 2.36 -1 1 C-0.67 0.67 -0.34 0.34 0 0 Z " fill="#FAD35E" transform="translate(250,332)"/>
<path d="M0 0 C2.97 0 5.94 0 9 0 C9.33 0.66 9.66 1.32 10 2 C6.42355152 3.2380014 3.66305234 2.74926071 0 2 C0 1.34 0 0.68 0 0 Z " fill="#477698" transform="translate(137,196)"/>
<path d="M0 0 C-1.45255699 3.82946843 -3.42895561 5.12050295 -7 7 C-4.60526316 0 -4.60526316 0 0 0 Z " fill="#42749A" transform="translate(38,111)"/>
<path d="M0 0 C0.33 0 0.66 0 1 0 C1.33 3.96 1.66 7.92 2 12 C0.68 12.33 -0.64 12.66 -2 13 C-1.34 8.71 -0.68 4.42 0 0 Z " fill="#6B93B3" transform="translate(168,45)"/>
<path d="M0 0 C1.32 0.33 2.64 0.66 4 1 C4.33 2.32 4.66 3.64 5 5 C2.525 4.01 2.525 4.01 0 3 C0 2.01 0 1.02 0 0 Z " fill="#FEC933" transform="translate(394,140)"/>
<path d="M0 0 C2.97 0.495 2.97 0.495 6 1 C5.67 2.65 5.34 4.3 5 6 C3 5 3 5 2 2 C1.34 1.34 0.68 0.68 0 0 Z " fill="#FDCA37" transform="translate(387,125)"/>
<path d="M0 0 C-2.67478244 1.6627026 -4.9995144 2.99983813 -8 4 C-8.66 3.34 -9.32 2.68 -10 2 C-8.71211992 1.46987262 -7.41953322 0.9511671 -6.125 0.4375 C-5.40570313 0.14746094 -4.68640625 -0.14257812 -3.9453125 -0.44140625 C-2 -1 -2 -1 0 0 Z " fill="#567C90" transform="translate(49,107)"/>
<path d="M0 0 C0.33 0.99 0.66 1.98 1 3 C-3.75 4.125 -3.75 4.125 -6 3 C-6 2.34 -6 1.68 -6 1 C-3 0 -3 0 0 0 Z " fill="#FECA34" transform="translate(360,106)"/>
<path d="" fill="#A7A681" transform="translate(0,0)"/>
</svg>
