<?xml version="1.0" encoding="UTF-8"?>
<svg version="1.1" xmlns="http://www.w3.org/2000/svg" width="411" height="411">
<path d="M0 0 C11.42434278 9.19172694 20.14825136 19.52280555 27.0625 32.4375 C27.45421387 33.16227539 27.84592773 33.88705078 28.24951172 34.63378906 C39.03024157 55.11050729 45.93007933 81.15167089 45.0625 104.4375 C44.0625 105.4375 44.0625 105.4375 41.875 105.64453125 C38.54038459 105.3990665 36.12781027 104.4504339 33.0625 103.125 C32.051875 102.69574219 31.04125 102.26648438 30 101.82421875 C27.20417593 100.50438159 24.60264855 99.20199605 22.0625 97.4375 C20.96981358 94.15944074 20.64052906 91.18446587 20.25 87.75 C17.15340802 63.7055313 8.72254401 38.96985737 -10.55078125 23.09375 C-21.02276093 15.82677883 -31.64513537 15.1675842 -43.91015625 16.84375 C-57.22508583 19.8244117 -71.16514953 28.98271 -78.59765625 40.3671875 C-83.53808015 48.34280423 -87.80013141 56.58261026 -90.9375 65.4375 C-91.45376953 66.86642578 -91.45376953 66.86642578 -91.98046875 68.32421875 C-94.25445914 75.1287647 -95.76252209 82.03017557 -97.125 89.0625 C-97.29201416 89.92093506 -97.45902832 90.77937012 -97.63110352 91.66381836 C-103.84107221 125.21299044 -100.43332863 163.63372725 -87.28125 195.171875 C-85.9375 198.4375 -85.9375 198.4375 -85.09375 201.515625 C-84.31054434 204.2568448 -83.70292042 206.19622502 -81.9375 208.4375 C-78.94377063 209.6253487 -76.0829719 210.19491372 -72.9140625 210.75390625 C-66.82418998 212.15249902 -63.4882029 216.35935637 -60.125 221.375 C-55.62987999 229.21188686 -54.5459862 237.55519165 -56.625 246.34375 C-59.01115532 253.58175446 -62.33731333 258.80321707 -68.5 263.3125 C-74.37184274 266.02258126 -80.36386018 266.29537994 -86.5 264.25 C-93.4226734 260.59986312 -98.12644712 256.00057985 -101.03515625 248.671875 C-102.01290532 245.16721599 -102.1698449 242.25743698 -102.125 238.625 C-102.11855469 237.48417969 -102.11210937 236.34335937 -102.10546875 235.16796875 C-101.9375 231.4375 -101.9375 231.4375 -101.57641602 229.3125 C-100.51323238 222.93757028 -101.85645556 218.86969709 -104.5 213.0625 C-105.25270305 211.29521974 -105.9999882 209.52562338 -106.7421875 207.75390625 C-107.11569336 206.86590332 -107.48919922 205.97790039 -107.87402344 205.06298828 C-118.96762198 177.67534853 -123.73423805 147.88059247 -122.9375 118.4375 C-122.92493164 117.78442871 -122.91236328 117.13135742 -122.89941406 116.45849609 C-122.03658586 77.41111776 -110.71243822 38.28691979 -83.5625 9.5 C-60.2514401 -12.77277993 -27.36664762 -19.04764572 0 0 Z " fill="#7449B6" transform="translate(237.9375,28.5625)"/>
<path d="M0 0 C5.95833876 2.68258045 9.22331906 5.43580638 12.44140625 11.12109375 C12.44140625 11.78109375 12.44140625 12.44109375 12.44140625 13.12109375 C13.48296875 13.09789062 14.52453125 13.0746875 15.59765625 13.05078125 C57.58110645 12.39849601 93.27769175 28.64200306 123.19140625 57.55859375 C128.53500843 63.01093202 133.02673691 68.9069211 137.44140625 75.12109375 C138.04597656 75.91902344 138.65054688 76.71695313 139.2734375 77.5390625 C147.35404913 88.42873551 153.19004185 101.29566894 157.44140625 114.12109375 C157.66989258 114.74677246 157.89837891 115.37245117 158.13378906 116.01708984 C162.51908819 128.30364173 162.94829457 140.52810091 163.00390625 153.43359375 C163.01691269 154.64944656 163.01691269 154.64944656 163.03018188 155.88986206 C163.19076606 177.53480338 157.06873436 195.02013298 143.44140625 212.12109375 C142.26384766 213.60996094 142.26384766 213.60996094 141.0625 215.12890625 C128.69315971 229.24949441 107.79488477 239.71430556 89.14257812 241.31884766 C77.29933402 241.97179315 66.7145384 240.72551307 55.44140625 237.12109375 C53.95060547 236.65316406 53.95060547 236.65316406 52.4296875 236.17578125 C45.60798954 233.85971261 38.44008803 231.13358993 32.44140625 227.12109375 C31.59375 225.2644043 31.59375 225.2644043 31.44140625 223.12109375 C32.71728516 221.21411133 32.71728516 221.21411133 34.66796875 219.265625 C35.37050781 218.56115234 36.07304687 217.85667969 36.796875 217.13085938 C37.54582031 216.40576172 38.29476562 215.68066406 39.06640625 214.93359375 C39.79214844 214.19689453 40.51789063 213.46019531 41.265625 212.70117188 C47.4109624 206.63948244 47.4109624 206.63948244 52.44140625 206.12109375 C54.37109375 206.7578125 54.37109375 206.7578125 56.31640625 207.80859375 C70.83029772 214.65972344 88.52447592 217.25337319 104.02734375 212.09375 C120.08603914 205.62349894 128.35238584 195.65668468 136.08203125 180.37109375 C139.94576227 171.13366787 140.95988905 163.0144504 140.87890625 152.99609375 C140.8727832 151.71379883 140.86666016 150.43150391 140.86035156 149.11035156 C140.70288071 139.54339151 139.73168041 131.12665381 136.44140625 122.12109375 C135.99087891 120.88552734 135.99087891 120.88552734 135.53125 119.625 C134.60817328 117.38324225 133.56546146 115.26904083 132.44140625 113.12109375 C131.68537109 111.61482422 131.68537109 111.61482422 130.9140625 110.078125 C127.0301507 102.56570603 122.60728861 95.8057655 117.44140625 89.12109375 C116.82652344 88.28964844 116.21164062 87.45820313 115.578125 86.6015625 C97.20975405 62.45266902 68.71846468 46.88187845 39.12109375 41.51953125 C34.0883972 40.97458959 29.06055952 40.7592807 24.00390625 40.55859375 C22.98619141 40.51541016 21.96847656 40.47222656 20.91992188 40.42773438 C18.42719597 40.32240793 15.93438287 40.22027703 13.44140625 40.12109375 C13.17585938 40.86101562 12.9103125 41.6009375 12.63671875 42.36328125 C10.23901982 47.89522715 6.1719019 52.75080864 0.56640625 55.18359375 C-4.73417451 56.7492093 -9.62118219 56.37231293 -14.6953125 54.2109375 C-22.08757845 50.05718806 -26.756915 43.56456822 -29.08984375 35.46875 C-30.90992225 26.35319017 -29.17680253 17.906096 -24.74609375 9.80859375 C-18.33707246 1.93465331 -10.19489489 -3.50206313 0 0 Z " fill="#7449B7" transform="translate(191.55859375,123.87890625)"/>
<path d="M0 0 C1.92089844 0.74121094 1.92089844 0.74121094 4 2 C4.82128906 3.87597656 4.82128906 3.87597656 5.265625 6.140625 C5.51699219 7.37619141 5.51699219 7.37619141 5.7734375 8.63671875 C5.93070313 9.49910156 6.08796875 10.36148438 6.25 11.25 C6.42273438 12.09691406 6.59546875 12.94382813 6.7734375 13.81640625 C9.03410171 25.35297045 9.03410171 25.35297045 6.8203125 28.87890625 C6.26085937 29.43449219 5.70140625 29.99007812 5.125 30.5625 C-15.69930112 52.77508786 -22.98811741 75.32226249 -22.17919922 105.67480469 C-21.82883328 112.17614538 -20.4309024 117.94179497 -18 124 C-17.59910156 125.03511719 -17.19820312 126.07023437 -16.78515625 127.13671875 C-12.35081089 137.17504839 -3.58369979 148.26911232 6.4296875 153.1953125 C7.64011719 153.65550781 7.64011719 153.65550781 8.875 154.125 C10.07769531 154.59292969 10.07769531 154.59292969 11.3046875 155.0703125 C12.63886719 155.53050781 12.63886719 155.53050781 14 156 C14.98871094 156.36222656 15.97742188 156.72445312 16.99609375 157.09765625 C22.58900165 158.65107355 28.43125877 158.32828783 34.1875 158.3125 C35.34314453 158.32861328 36.49878906 158.34472656 37.68945312 158.36132812 C45.55146091 158.3657425 52.49219906 157.3158221 60 155 C60.72856201 154.77658936 61.45712402 154.55317871 62.20776367 154.32299805 C95.56674215 143.28561498 122.23130585 113.83036547 138.68359375 83.94140625 C141.47513875 78.56264167 141.47513875 78.56264167 141.4375 72.6875 C140.963125 71.800625 140.48875 70.91375 140 70 C136.6759808 61.20112564 136.29861429 53.0536541 139 44 C142.09195553 37.15352704 146.88858631 32.18855705 153.8125 29.125 C159.16446151 27.35120704 163.87361254 27.8029074 169.1015625 29.8046875 C175.37426496 33.12268069 178.90696888 38.76014591 182 45 C184.30768292 53.48373606 183.9459537 63.09336889 180 71 C176.66486289 76.37647104 172.73093911 81.78567458 166.50439453 83.81225586 C163.36111285 85.30300117 162.8541453 86.47317239 161.4921875 89.62890625 C161.06848877 90.57354736 160.64479004 91.51818848 160.20825195 92.49145508 C159.54829224 94.01162231 159.54829224 94.01162231 158.875 95.5625 C141.95412437 132.69128964 112.23812544 163.99190506 73.61791992 178.55493164 C60.0724151 183.40008455 45.4566827 187.50937976 31 187 C30.33484375 186.98324219 29.6696875 186.96648437 28.984375 186.94921875 C7.12977564 185.48946498 -11.91379568 173.52150719 -26.08203125 157.6015625 C-36.49651882 145.22293912 -40.11295554 130.57035571 -43 115 C-43.17813232 114.19014648 -43.35626465 113.38029297 -43.53979492 112.54589844 C-46.45765861 96.4039979 -44.07182349 78.7243846 -40 63 C-39.73509766 61.97108643 -39.73509766 61.97108643 -39.46484375 60.92138672 C-33.07019402 37.19605204 -17.60190871 16.69407388 0 0 Z " fill="#7449B8" transform="translate(100,178)"/>
<path d="M0 0 C-20.77067065 15.87144612 -49.49756901 27.93381049 -76 27 C-76.99773437 26.97486328 -76.99773437 26.97486328 -78.015625 26.94921875 C-95.86915089 25.75671225 -114.6950296 16.77823849 -127 4 C-126.01 3.67 -125.02 3.34 -124 3 C-122.31003952 4.68996048 -120.6383859 6.38421498 -119 8.125 C-117.04896365 10.21598078 -117.04896365 10.21598078 -114 11 C-114 11.66 -114 12.32 -114 13 C-113.01 13 -112.02 13 -111 13 C-111 13.66 -111 14.32 -111 15 C-108.93771534 15.48009262 -106.87516299 15.95903544 -104.8125 16.4375 C-103.66394531 16.70433594 -102.51539062 16.97117187 -101.33203125 17.24609375 C-99.3119876 17.70314935 -97.28676913 18.13899378 -95.25390625 18.53515625 C-93 19 -93 19 -90.125 20 C-86.75490744 21.07842962 -83.50753118 21.57909626 -80 22 C-80 22.66 -80 23.32 -80 24 C-78.02 24 -76.04 24 -74 24 C-74 23.34 -74 22.68 -74 22 C-64.65741704 20.87001156 -55.39146903 20.90091064 -46 21 C-46 20.34 -46 19.68 -46 19 C-44.948125 18.61908203 -44.948125 18.61908203 -43.875 18.23046875 C-41.90562765 17.51603612 -39.93690872 16.79980047 -37.96875 16.08203125 C-36.17855162 15.42955105 -34.38721889 14.78015483 -32.59375 14.13671875 C-29.44139081 12.98987165 -26.80592878 11.87061919 -24 10 C-21.66427803 9.44680269 -19.32816851 9.05469475 -16.9609375 8.66015625 C-16.31382812 8.44230469 -15.66671875 8.22445313 -15 8 C-14.67 7.01 -14.34 6.02 -14 5 C-12.34795544 4.29788106 -10.68076231 3.63028587 -9 3 C-8.67 2.34 -8.34 1.68 -8 1 C-3.6 -1.2 -3.6 -1.2 0 0 Z " fill="#664C99" transform="translate(207,338)"/>
<path d="M0 0 C1.19302734 -0.01224609 2.38605469 -0.02449219 3.61523438 -0.03710938 C5.33516602 -0.04000977 5.33516602 -0.04000977 7.08984375 -0.04296875 C8.13906006 -0.04707764 9.18827637 -0.05118652 10.26928711 -0.05541992 C13.11126414 0.19174092 14.59706518 0.84565155 17.0625 2.1875 C19.08038665 2.632121 19.08038665 2.632121 21.171875 2.8203125 C22.30302734 2.94599609 22.30302734 2.94599609 23.45703125 3.07421875 C24.23433594 3.15285156 25.01164062 3.23148438 25.8125 3.3125 C27.00166016 3.44205078 27.00166016 3.44205078 28.21484375 3.57421875 C30.16333141 3.78550054 32.11282976 3.98742467 34.0625 4.1875 C34.0625 4.8475 34.0625 5.5075 34.0625 6.1875 C35.0525 6.5175 36.0425 6.8475 37.0625 7.1875 C37.0625 7.8475 37.0625 8.5075 37.0625 9.1875 C38.00609375 9.46013672 38.00609375 9.46013672 38.96875 9.73828125 C43.17791783 10.97440734 47.33937736 12.2428417 51.4375 13.8125 C54.02775205 14.7950094 56.38967108 15.56344743 59.0625 16.1875 C59.0625 16.8475 59.0625 17.5075 59.0625 18.1875 C60.0525 18.1875 61.0425 18.1875 62.0625 18.1875 C62.0625 18.8475 62.0625 19.5075 62.0625 20.1875 C62.866875 20.455625 63.67125 20.72375 64.5 21 C65.345625 21.391875 66.19125 21.78375 67.0625 22.1875 C67.5575 23.6725 67.5575 23.6725 68.0625 25.1875 C69.9444078 26.94690251 69.9444078 26.94690251 72.25 28.625 C73.06082031 29.24117187 73.87164062 29.85734375 74.70703125 30.4921875 C76.56099689 31.82655083 78.48840665 33.0588874 80.4375 34.25 C83.54328819 36.54236747 84.51445567 38.70440025 86.0625 42.1875 C86.7225 42.5175 87.3825 42.8475 88.0625 43.1875 C87.7325 44.5075 87.4025 45.8275 87.0625 47.1875 C86.54042969 46.57003906 86.01835937 45.95257813 85.48046875 45.31640625 C79.85176416 38.8399458 73.84256798 33.4294033 67.0625 28.1875 C66.38445312 27.64351562 65.70640625 27.09953125 65.0078125 26.5390625 C45.30673255 11.08883798 21.35208367 3.60636116 -3.375 2.625 C-4.39271484 2.58181641 -5.41042969 2.53863281 -6.45898438 2.49414062 C-8.95171028 2.38881418 -11.44452338 2.28668328 -13.9375 2.1875 C-14.19273437 2.92355469 -14.44796875 3.65960938 -14.7109375 4.41796875 C-15.99559147 7.31866832 -17.42991643 9.16995499 -19.5625 11.5 C-20.19414062 12.19738281 -20.82578125 12.89476562 -21.4765625 13.61328125 C-21.95867187 14.13277344 -22.44078125 14.65226563 -22.9375 15.1875 C-24.2575 14.8575 -25.5775 14.5275 -26.9375 14.1875 C-25.9375 12.1875 -25.9375 12.1875 -22.4375 10.3125 C-19.52707309 8.79074373 -19.52707309 8.79074373 -18 5.9375 C-17.979375 5.36 -17.95875 4.7825 -17.9375 4.1875 C-17.2775 4.1875 -16.6175 4.1875 -15.9375 4.1875 C-15.9375 3.1975 -15.9375 2.2075 -15.9375 1.1875 C-10.79873014 -0.52542329 -5.37888115 0.00289654 0 0 Z " fill="#654C98" transform="translate(218.9375,161.8125)"/>
<path d="M0 0 C0.495 0.99 0.495 0.99 1 2 C-7.73739897 24.77573036 -25.48366436 39.28908745 -47 49 C-56.33534309 52.97899869 -65.37282165 54.2812575 -75.4375 54.3125 C-76.28965088 54.31781738 -77.14180176 54.32313477 -78.01977539 54.32861328 C-82.73070498 54.27566583 -86.57434275 53.80624385 -91 52 C-91 51.67 -91 51.34 -91 51 C-90.39115967 51.01571045 -89.78231934 51.0314209 -89.1550293 51.04760742 C-71.70492803 52.11055929 -71.70492803 52.11055929 -55.6796875 46.4375 C-52.26789019 44.60726471 -49.53813259 44.4924361 -45.6875 44.3125 C-43.80611328 44.21388672 -43.80611328 44.21388672 -41.88671875 44.11328125 C-40.93410156 44.07589844 -39.98148437 44.03851563 -39 44 C-39 43.34 -39 42.68 -39 42 C-37.20963542 41.0234375 -35.41927083 40.046875 -33.62890625 39.0703125 C-31.83381685 38.08589976 -31.83381685 38.08589976 -31 36 C-30.01 36 -29.02 36 -28 36 C-28 35.34 -28 34.68 -28 34 C-26.35 33.67 -24.7 33.34 -23 33 C-23 32.01 -23 31.02 -23 30 C-21.948125 29.7525 -21.948125 29.7525 -20.875 29.5 C-15.95858537 26.93491411 -12.73893917 22.21681751 -11 17 C-10.34 17 -9.68 17 -9 17 C-9 16.01 -9 15.02 -9 14 C-8.34 14 -7.68 14 -7 14 C-6.67 12.35 -6.34 10.7 -6 9 C-5.34 9 -4.68 9 -4 9 C-3.67 7.35 -3.34 5.7 -3 4 C-2.34 4 -1.68 4 -1 4 C-0.67 2.68 -0.34 1.36 0 0 Z " fill="#624F93" transform="translate(348,311)"/>
<path d="M0 0 C5.96654571 2.66947675 9.23120271 5.43202582 12.44921875 11.1171875 C12.44921875 11.7771875 12.44921875 12.4371875 12.44921875 13.1171875 C13.49078125 13.09398437 14.53234375 13.07078125 15.60546875 13.046875 C41.41306119 12.64590958 64.55914891 18.1153671 87.44921875 30.1171875 C83.72461575 31.35872183 82.97169606 30.59171289 79.44921875 29.1171875 C78.37671875 28.9521875 77.30421875 28.7871875 76.19921875 28.6171875 C75.29171875 28.4521875 74.38421875 28.2871875 73.44921875 28.1171875 C72.95421875 27.1271875 72.95421875 27.1271875 72.44921875 26.1171875 C70.36114875 25.50446445 70.36114875 25.50446445 67.94921875 25.1171875 C65.48046875 24.6796875 65.48046875 24.6796875 63.44921875 24.1171875 C62.95421875 23.1271875 62.95421875 23.1271875 62.44921875 22.1171875 C60.788808 21.75397265 59.11978024 21.43041778 57.44921875 21.1171875 C56.04833623 20.65298974 54.65291777 20.17214733 53.26171875 19.6796875 C43.39779934 16.36872896 34.20273179 15.85323727 23.82421875 15.9921875 C22.53386719 16.00121094 21.24351562 16.01023438 19.9140625 16.01953125 C16.75891626 16.0429027 13.60416949 16.07566659 10.44921875 16.1171875 C10.44921875 15.4571875 10.44921875 14.7971875 10.44921875 14.1171875 C9.78921875 14.1171875 9.12921875 14.1171875 8.44921875 14.1171875 C8.40925781 13.50230469 8.36929688 12.88742188 8.328125 12.25390625 C7.98819927 9.62262929 7.55884595 7.53351855 6.44921875 5.1171875 C1.50305522 1.74338332 -4.77523332 1.62773429 -10.55078125 2.1171875 C-11.89875555 2.75373092 -13.23674849 3.41324138 -14.55078125 4.1171875 C-16.66015625 3.67578125 -16.66015625 3.67578125 -18.55078125 3.1171875 C-12.3215106 -0.59386736 -7.07817465 -2.44972048 0 0 Z " fill="#5D4F88" transform="translate(191.55078125,123.8828125)"/>
<path d="M0 0 C0.99 0.33 1.98 0.66 3 1 C2.030625 1.886875 1.06125 2.77375 0.0625 3.6875 C-17.89087965 21.78566497 -25.42850896 45.0544159 -26 70 C-26.66 70 -27.32 70 -28 70 C-28.96793624 46.37342093 -28.96793624 46.37342093 -24.171875 38.1015625 C-22.95670648 35.92236029 -22.56755815 34.33729218 -22.3125 31.875 C-22.209375 30.92625 -22.10625 29.9775 -22 29 C-21.34 28.67 -20.68 28.34 -20 28 C-19.29268453 26.34959723 -18.58935905 24.69732593 -17.91015625 23.03515625 C-15.24262031 17.07040851 -11.67038754 12.54065455 -7 8 C-6.67 7.01 -6.34 6.02 -6 5 C-4.625 3.3125 -4.625 3.3125 -3 2 C-2.01 2 -1.02 2 0 2 C0 1.34 0 0.68 0 0 Z " fill="#684B9C" transform="translate(103,207)"/>
<path d="M0 0 C0.90234375 0.46664063 1.8046875 0.93328125 2.734375 1.4140625 C6.28273819 3.13731065 9.68327144 4.13978755 13.5 5.125 C14.7684375 5.45757812 16.036875 5.79015625 17.34375 6.1328125 C20.55637835 6.89478204 23.73685021 7.50649895 27 8 C27 8.66 27 9.32 27 10 C25.52093108 10.02689216 24.04172517 10.04634621 22.5625 10.0625 C21.32693359 10.07990234 21.32693359 10.07990234 20.06640625 10.09765625 C18 10 18 10 17 9 C15.04875695 8.76849659 13.09731247 8.53846103 11.14453125 8.3203125 C8.2953185 7.89474703 5.69109834 7.00916188 3 6 C3 5.34 3 4.68 3 4 C2.34 4 1.68 4 1 4 C1 3.34 1 2.68 1 2 C-4.19164882 1.51514465 -4.19164882 1.51514465 -8.875 3.1875 C-10.1075015 5.03209725 -10.1075015 5.03209725 -10.875 7.4375 C-12 10 -12 10 -14.625 11.9375 C-17.24377091 13.82777937 -17.24377091 13.82777937 -17.8125 16.9375 C-16.84663542 20.57806651 -16.09066478 20.93715867 -13 22.875 C-11.6782485 23.60471697 -10.34799574 24.31998429 -9 25 C-12.46629086 25 -14.46065722 24.13596544 -17.625 22.75 C-18.60726562 22.33234375 -19.58953125 21.9146875 -20.6015625 21.484375 C-23 20 -23 20 -23.8581543 18.14819336 C-24 16 -24 16 -22.67651367 14.09301758 C-22.01369385 13.45001709 -21.35087402 12.8070166 -20.66796875 12.14453125 C-19.95189453 11.44005859 -19.23582031 10.73558594 -18.49804688 10.00976562 C-17.73556641 9.28466797 -16.97308594 8.55957031 -16.1875 7.8125 C-15.06118164 6.70745117 -15.06118164 6.70745117 -13.91210938 5.58007812 C-6.61043949 -1.52548604 -6.61043949 -1.52548604 0 0 Z " fill="#5F4D8A" transform="translate(247,331)"/>
<path d="M0 0 C15.9866098 18.04823143 19.53295589 45.49887636 19.625 68.5625 C19.63226105 69.36661316 19.63952209 70.17072632 19.64700317 70.99920654 C19.69952649 81.96355466 18.38801963 91.54213174 15 102 C14.67 102 14.34 102 14 102 C13.71665975 96.19152486 15.18015459 91.45953624 17 86 C17.23643411 82.5258094 17.19032489 79.04389825 17.1875 75.5625 C17.18669434 74.54510742 17.18588867 73.52771484 17.18505859 72.47949219 C17.13011886 65.53554067 16.79481748 58.66161899 16.125 51.75 C16.04660889 50.91154541 15.96821777 50.07309082 15.88745117 49.20922852 C15.48059089 45.45464534 15.12734388 43.19101582 13 40 C12.57375511 37.88827693 12.22814 35.75961646 11.9375 33.625 C11.39432919 29.71955696 10.81646938 25.85835972 10 22 C9.34 22 8.68 22 8 22 C7.76216797 21.18208984 7.76216797 21.18208984 7.51953125 20.34765625 C5.90822646 15.13984795 3.85317535 10.682576 0.98828125 6.04296875 C0 4 0 4 0 0 Z " fill="#5D4F8B" transform="translate(335,209)"/>
<path d="M0 0 C0.680625 0.680625 1.36125 1.36125 2.0625 2.0625 C2.52011719 2.51625 2.97773437 2.97 3.44921875 3.4375 C4.52993899 4.52638689 5.59393227 5.63202294 6.64453125 6.75 C15.23381296 15.74644856 26.71211531 20.94697468 39.16796875 21.30078125 C41.50777063 21.31531418 43.84766179 21.31891755 46.1875 21.3125 C47.34314453 21.32861328 48.49878906 21.34472656 49.68945312 21.36132812 C59.68802341 21.36694215 68.61472823 19.38912592 78 16 C78 16.66 78 17.32 78 18 C64.49509578 25.29224089 43.58300363 27.60696459 28.83374023 23.27539062 C25.84187536 22.2816191 22.91844384 21.19297068 20 20 C20 19.34 20 18.68 20 18 C18.4221875 17.566875 18.4221875 17.566875 16.8125 17.125 C15.554375 16.75375 14.29625 16.3825 13 16 C12.154375 15.773125 11.30875 15.54625 10.4375 15.3125 C6.20862395 13.0354129 3.00115312 9.44831758 1.17578125 4.984375 C0.70549465 3.34337496 0.34134355 1.67258339 0 0 Z " fill="#604F8E" transform="translate(88,315)"/>
<path d="M0 0 C0.33 0 0.66 0 1 0 C1.97506683 10.84406845 2.30401346 21.66139341 2.55224609 32.53955078 C2.60368346 34.74003181 2.6609018 36.94030464 2.71875 39.140625 C2.74904297 40.43516602 2.77933594 41.72970703 2.81054688 43.06347656 C2.66838296 45.88842116 2.66838296 45.88842116 4 47 C4.40397852 49.19976624 4.7478353 51.41069283 5.0625 53.625 C5.23910156 54.83414063 5.41570312 56.04328125 5.59765625 57.2890625 C6 61 6 61 5.99609375 64.8984375 C5.63477392 67.87017914 5.63477392 67.87017914 7 69 C7.07179964 70.51928038 7.08392007 72.04167482 7.0625 73.5625 C7.05347656 74.38878906 7.04445313 75.21507812 7.03515625 76.06640625 C7.02355469 76.70449219 7.01195313 77.34257812 7 78 C6.67 78 6.34 78 6 78 C-0.4494195 51.85793551 -1.77911927 26.81386903 0 0 Z " fill="#664B97" transform="translate(116,130)"/>
<path d="M0 0 C0 0.66 0 1.32 0 2 C-0.825 2.37125 -1.65 2.7425 -2.5 3.125 C-6.06363158 5.03408834 -8.96455313 7.2297818 -12.0703125 9.79296875 C-14 11 -14 11 -18 11 C-18.33 11.99 -18.66 12.98 -19 14 C-19.639375 14.144375 -20.27875 14.28875 -20.9375 14.4375 C-21.9584375 14.7159375 -21.9584375 14.7159375 -23 15 C-23.28230469 15.58265625 -23.56460938 16.1653125 -23.85546875 16.765625 C-25.2766091 19.54000138 -27.10202423 21.18677681 -29.375 23.3125 C-32.1184151 25.98141341 -34.45519001 28.36062742 -36.25 31.75 C-38.1087564 35.20197618 -40.1358733 37.3506828 -43 40 C-43.763125 40.763125 -44.52625 41.52625 -45.3125 42.3125 C-45.869375 42.869375 -46.42625 43.42625 -47 44 C-46.57332031 38.73761721 -43.73424005 35.41739628 -40.625 31.375 C-40.08407715 30.66786865 -39.5431543 29.9607373 -38.98583984 29.23217773 C-30.77694623 18.68421653 -15.00719719 0 0 0 Z " fill="#674D9A" transform="translate(183,21)"/>
<path d="M0 0 C0.66 0 1.32 0 2 0 C5.65308648 10.35584782 6.38594243 20.1180156 6.375 31.0625 C6.37693359 32.95295044 6.37693359 32.95295044 6.37890625 34.8815918 C6.3077343 40.93322912 6.11642821 46.30257526 4 52 C3.34 52 2.68 52 2 52 C1.96132813 52.88751953 1.96132813 52.88751953 1.921875 53.79296875 C1.53437177 59.1915933 0.75037743 61.90867916 -3 66 C-4.24016669 68.6794645 -4.24016669 68.6794645 -5 71 C-5.99 71 -6.98 71 -8 71 C-6.20034077 66.27266547 -3.89803984 61.89169166 -1.53515625 57.42578125 C2.64968182 48.08709681 3.47009721 39.83210039 3.375 29.625 C3.38660156 28.3875 3.39820313 27.15 3.41015625 25.875 C3.38746445 18.68926463 2.64946184 12.31159182 0.64306641 5.40380859 C0 3 0 3 0 0 Z " fill="#5F508E" transform="translate(329,247)"/>
<path d="M0 0 C3.9585888 2.71559191 6.27835927 5.78134504 8.75 9.875 C8.75 10.535 8.75 11.195 8.75 11.875 C7.76 11.875 6.77 11.875 5.75 11.875 C5.75 10.885 5.75 9.895 5.75 8.875 C5.09 8.875 4.43 8.875 3.75 8.875 C3.255 7.39 3.255 7.39 2.75 5.875 C2.09 5.545 1.43 5.215 0.75 4.875 C0.75 4.215 0.75 3.555 0.75 2.875 C-7.67308871 1.44128277 -14.49063661 0.91924611 -22.25 4.875 C-23.03375 5.16375 -23.8175 5.4525 -24.625 5.75 C-26.53360888 6.81726469 -26.53360888 6.81726469 -27 9.5 C-27.0825 10.28375 -27.165 11.0675 -27.25 11.875 C-28.24 11.875 -29.23 11.875 -30.25 11.875 C-30.58 13.525 -30.91 15.175 -31.25 16.875 C-32.10883109 14.47987478 -32.42516838 13.3133567 -31.46484375 10.91015625 C-27.3280029 4.52145708 -22.75754477 -0.23678516 -15.38671875 -2.6796875 C-9.78248242 -3.84766363 -4.93753633 -2.80288716 0 0 Z " fill="#6D4AAB" transform="translate(271.25,209.125)"/>
<path d="M0 0 C0.94617188 -0.01611328 1.89234375 -0.03222656 2.8671875 -0.04882812 C10.51504943 -0.05412443 16.24446406 1.65325137 23 5.3125 C23 5.9725 23 6.6325 23 7.3125 C25.31 7.9725 27.62 8.6325 30 9.3125 C30 9.9725 30 10.6325 30 11.3125 C30.99 11.3125 31.98 11.3125 33 11.3125 C35.09350689 14.7144487 35.17942163 17.36522412 35 21.3125 C34.38125 20.673125 33.7625 20.03375 33.125 19.375 C32.08499488 18.35247396 31.04300751 17.33196332 30 16.3125 C29.29488281 15.59964844 28.58976562 14.88679688 27.86328125 14.15234375 C18.04842664 4.68519735 9.08858077 1.71597674 -4.23828125 1.94140625 C-8.03805214 2.31625385 -11.34984481 3.22661154 -15 4.3125 C-16.32 4.3125 -17.64 4.3125 -19 4.3125 C-19 3.6525 -19 2.9925 -19 2.3125 C-12.56632694 0.40819347 -6.69189206 -0.02279255 0 0 Z " fill="#624E92" transform="translate(205,42.6875)"/>
<path d="M0 0 C2.93894537 1.04735634 3.92500581 1.87916585 5.59765625 4.57421875 C6.08105469 5.60160156 6.56445312 6.62898438 7.0625 7.6875 C7.83207031 9.30591797 7.83207031 9.30591797 8.6171875 10.95703125 C10.13007226 14.28623245 11.58401662 17.62861099 13 21 C13.53625 22.051875 14.0725 23.10375 14.625 24.1875 C16.57078991 28.16752482 17.1274368 31.3342979 17.0625 35.75 C17.05347656 36.54921875 17.04445313 37.3484375 17.03515625 38.171875 C17.02355469 38.77515625 17.01195312 39.3784375 17 40 C17.66 40 18.32 40 19 40 C21.31177931 47.55181241 21.6123387 55.16516106 22 63 C20 62 20 62 19 59 C18.70832671 56.77346426 18.44120496 54.54368097 18.1875 52.3125 C16.57162063 39.76549309 13.43207672 28.44348735 8.5 16.8125 C8.12029053 15.91515137 7.74058105 15.01780273 7.34936523 14.09326172 C5.3391499 9.51721118 3.2715768 5.82923194 0 2 C0 1.34 0 0.68 0 0 Z " fill="#5F4E8C" transform="translate(240,64)"/>
<path d="M0 0 C0.66 0 1.32 0 2 0 C0.76855181 8.62013736 -2.62072612 14.66341038 -9.625 20 C-15.56152188 22.49958816 -21.42344464 22.85885179 -27.5625 20.8125 C-32.61612781 18.14785988 -36.93375111 14.94006766 -40 10 C-40 9.34 -40 8.68 -40 8 C-37.53199953 9.15173355 -35.95216435 10.04783565 -34 12 C-34 12.99 -34 13.98 -34 15 C-32.68 15 -31.36 15 -30 15 C-29.67 15.66 -29.34 16.32 -29 17 C-23.052862 19.18466294 -17.14262876 20.36636033 -11.125 17.75 C-8.90526978 16.16998561 -8.90526978 16.16998561 -8 13.9375 C-7.505 12.9784375 -7.505 12.9784375 -7 12 C-6.175 11.79375 -5.35 11.5875 -4.5 11.375 C-1.78809238 10.25366341 -1.78809238 10.25366341 -1.23046875 7.65625 C-0.7330383 5.10826095 -0.31845264 2.57613924 0 0 Z " fill="#604C99" transform="translate(179,272)"/>
<path d="M0 0 C0 3.27442221 -0.72824916 5.10402459 -1.9375 8.125 C-5.96476356 19.13189827 -4.58225585 28.61037319 -3 40 C-7.30539582 36.1528816 -8.62310278 31.16593663 -9.29296875 25.5390625 C-9.58272729 16.79111414 -7.36834105 8.92689168 -2 2 C-1.34 1.34 -0.68 0.68 0 0 Z " fill="#604D93" transform="translate(171,129)"/>
<path d="M0 0 C0.66 0 1.32 0 2 0 C2.06058594 0.71027344 2.12117188 1.42054688 2.18359375 2.15234375 C2.26738281 3.07144531 2.35117187 3.99054688 2.4375 4.9375 C2.51871094 5.85402344 2.59992187 6.77054687 2.68359375 7.71484375 C2.76044976 9.96159732 2.76044976 9.96159732 4 11 C4.66 10.01 5.32 9.02 6 8 C6.10957031 9.18078125 6.21914063 10.3615625 6.33203125 11.578125 C6.49151994 13.13548518 6.65171318 14.69277331 6.8125 16.25 C6.88275391 17.02730469 6.95300781 17.80460937 7.02539062 18.60546875 C7.49437421 22.99515508 8.01207029 25.59533273 11 29 C11.48296912 30.96407441 11.9628057 32.9294298 12.390625 34.90625 C13.04228227 37.14527756 13.96367193 38.83425736 15.1875 40.8125 C15.785625 41.864375 16.38375 42.91625 17 44 C16.67 44.99 16.34 45.98 16 47 C15.09903423 45.54483192 14.20460132 44.08561929 13.3125 42.625 C12.81363281 41.81289063 12.31476563 41.00078125 11.80078125 40.1640625 C7.22980557 32.13263017 4.07935198 24.76218672 2.1875 15.6875 C1.97158203 14.72521484 1.75566406 13.76292969 1.53320312 12.77148438 C0.58407118 8.4175299 -0.11714321 4.47287651 0 0 Z " fill="#634D97" transform="translate(57,288)"/>
<path d="M0 0 C0.33 0 0.66 0 1 0 C-0.42170819 18.42170819 -0.42170819 18.42170819 -2 20 C-2.28306234 22.54756104 -2.44815786 25.09510022 -2.62109375 27.65234375 C-3 30 -3 30 -5 32 C-5.37135915 34.52037964 -5.37135915 34.52037964 -5.4140625 37.4453125 C-5.45273437 38.52167969 -5.49140625 39.59804688 -5.53125 40.70703125 C-5.5621875 41.83496094 -5.593125 42.96289062 -5.625 44.125 C-5.66367187 45.26066406 -5.70234375 46.39632812 -5.7421875 47.56640625 C-5.83667601 50.37743956 -5.92223541 53.18846233 -6 56 C-6.33 56 -6.66 56 -7 56 C-7.60354439 36.47533893 -6.5505886 18.5089324 0 0 Z " fill="#624C90" transform="translate(63,232)"/>
<path d="M0 0 C0.66 0 1.32 0 2 0 C-2.67061457 12.62879766 -12.2852865 22.97807947 -21 33 C-21.33 32.01 -21.66 31.02 -22 30 C-21.21625 29.278125 -20.4325 28.55625 -19.625 27.8125 C-17.15587562 25.16700959 -16.06739722 23.39626389 -15 20 C-14.34 20 -13.68 20 -13 20 C-13 18.68 -13 17.36 -13 16 C-12.01 16 -11.02 16 -10 16 C-9.67 14.68 -9.34 13.36 -9 12 C-8.01 12 -7.02 12 -6 12 C-5.88527344 11.42765625 -5.77054688 10.8553125 -5.65234375 10.265625 C-4.93817644 7.78528344 -3.92692128 5.93631303 -2.5625 3.75 C-1.91474609 2.69039063 -1.91474609 2.69039063 -1.25390625 1.609375 C-0.84011719 1.07828125 -0.42632812 0.5471875 0 0 Z " fill="#634C96" transform="translate(249,287)"/>
<path d="M0 0 C1.92089844 0.74121094 1.92089844 0.74121094 4 2 C4.82128906 3.87597656 4.82128906 3.87597656 5.265625 6.140625 C5.43320313 6.96433594 5.60078125 7.78804687 5.7734375 8.63671875 C5.93070313 9.49910156 6.08796875 10.36148438 6.25 11.25 C6.42273438 12.09691406 6.59546875 12.94382813 6.7734375 13.81640625 C7.63771706 18.22697574 8.4201115 22.4908032 8 27 C7.34 27.66 6.68 28.32 6 29 C6.04125 28.05125 6.0825 27.1025 6.125 26.125 C6.34973818 22.89755144 6.34973818 22.89755144 4 21 C3.53708744 18.74544439 3.17605606 16.46931381 2.875 14.1875 C2.70742187 12.96417969 2.53984375 11.74085938 2.3671875 10.48046875 C2.06447829 7.61117192 1.92321701 4.87936222 2 2 C1.49210937 2.44730469 0.98421875 2.89460937 0.4609375 3.35546875 C-3.64642275 6.96286942 -7.78321121 10.52114925 -12 14 C-10.41332422 10.09714233 -7.86649519 7.66479018 -4.875 4.75 C-3.96492188 3.85796875 -3.05484375 2.9659375 -2.1171875 2.046875 C-1.41851562 1.37140625 -0.71984375 0.6959375 0 0 Z " fill="#5F4F8E" transform="translate(100,178)"/>
<path d="M0 0 C1.32 0.33 2.64 0.66 4 1 C-1.47269231 5.83633274 -1.47269231 5.83633274 -4.43603516 6.75610352 C-7.76190088 8.36963293 -8.33442614 9.84854717 -9.82421875 13.19140625 C-10.29537109 14.21814453 -10.76652344 15.24488281 -11.25195312 16.30273438 C-11.72568359 17.37845703 -12.19941406 18.45417969 -12.6875 19.5625 C-13.64445534 21.69118552 -14.60643513 23.81762179 -15.57421875 25.94140625 C-15.99276123 26.88701416 -16.41130371 27.83262207 -16.8425293 28.80688477 C-18 31 -18 31 -20 32 C-19.52203106 28.05675627 -18.09419281 25.35235162 -16.0546875 21.98046875 C-14.20407205 18.50542418 -13.12565255 14.76070283 -12 11 C-11.34 11 -10.68 11 -10 11 C-9.731875 10.05125 -9.46375 9.1025 -9.1875 8.125 C-8 5 -8 5 -5 3 C-3.68 3 -2.36 3 -1 3 C-0.67 2.01 -0.34 1.02 0 0 Z " fill="#5D508E" transform="translate(271,255)"/>
<path d="M0 0 C0.66 0.33 1.32 0.66 2 1 C-1.11720525 6.19534209 -3.7354039 8.82809371 -9.4375 10.875 C-12.23762969 11.96303604 -12.23762969 11.96303604 -15 14.5 C-18.66383997 17.55319997 -21.22642053 19 -26 19 C-26 19.66 -26 20.32 -26 21 C-27.32 20.67 -28.64 20.34 -30 20 C-29.10474609 19.55914062 -29.10474609 19.55914062 -28.19140625 19.109375 C-18.41421901 14.05371206 -7.81791295 7.81791295 0 0 Z " fill="#5F508B" transform="translate(199,310)"/>
<path d="M0 0 C2.59752345 2.94385991 3.6446692 5.81087152 4.78759766 9.53393555 C6.81062635 16.16096804 6.81062635 16.16096804 11.91796875 20.5078125 C15.08396622 21.24217776 15.08396622 21.24217776 18.1953125 21.48046875 C21.62202926 22.11522269 22.79969733 23.37332289 25 26 C20.9130341 25.25691529 16.97981857 24.18696343 13 23 C12.00484375 22.77441406 11.0096875 22.54882812 9.984375 22.31640625 C5.05994652 20.14424343 4.20712058 16.09739724 2.19140625 11.35546875 C0.80096464 7.43943812 0.16218836 4.13580322 0 0 Z " fill="#604D91" transform="translate(147,218)"/>
<path d="M0 0 C0.66 0.33 1.32 0.66 2 1 C1.58427734 2.32064453 1.58427734 2.32064453 1.16015625 3.66796875 C0.61681641 5.41013672 0.61681641 5.41013672 0.0625 7.1875 C-0.29714844 8.33605469 -0.65679687 9.48460937 -1.02734375 10.66796875 C-2.75740924 16.59465896 -3.26688009 22.17232917 -3.5625 28.3125 C-3.60568359 29.14845703 -3.64886719 29.98441406 -3.69335938 30.84570312 C-3.79885307 32.89696935 -3.89987315 34.9484648 -4 37 C-4.66 37 -5.32 37 -6 37 C-6.68712171 23.36680053 -7.01713012 12.05025023 0 0 Z " fill="#604E89" transform="translate(81,240)"/>
<path d="M0 0 C0.99 0 1.98 0 3 0 C3.77627255 3.80373549 4.1820816 6.40676639 3.03125 10.15625 C1.8076537 14.71692712 1.77678367 18.74955883 1.875 23.4375 C1.88853516 24.67790039 1.88853516 24.67790039 1.90234375 25.94335938 C1.92568488 27.96236708 1.96154712 29.98122356 2 32 C-3.43877565 23.84183652 -1.22175234 12.31586161 0 3 C0 2.01 0 1.02 0 0 Z " fill="#65489A" transform="translate(137,248)"/>
<path d="M0 0 C1.39431504 2.78863007 1.25660094 4.92078868 1 8 C0.01 8.66 -0.98 9.32 -2 10 C-2.33 11.175625 -2.66 12.35125 -3 13.5625 C-3.33 14.696875 -3.66 15.83125 -4 17 C-4.99 17.33 -5.98 17.66 -7 18 C-7.10957031 18.83144531 -7.21914062 19.66289063 -7.33203125 20.51953125 C-7.49058594 21.60621094 -7.64914063 22.69289063 -7.8125 23.8125 C-7.96332031 24.89144531 -8.11414063 25.97039062 -8.26953125 27.08203125 C-9.01612403 30.06440991 -9.62075684 31.14223479 -12 33 C-11.40703164 27.11775385 -9.76671734 22.01842591 -7.6875 16.5 C-7.39166016 15.68402344 -7.09582031 14.86804688 -6.79101562 14.02734375 C-4.93572766 9.03449536 -2.7703271 4.54994119 0 0 Z " fill="#5C4C8F" transform="translate(135,65)"/>
<path d="M0 0 C11.05060854 0.36835362 20.83053131 5.67497158 29 13 C31.5 15.875 31.5 15.875 33 18 C31.02 17.67 29.04 17.34 27 17 C26.67 15.68 26.34 14.36 26 13 C24.88625 12.7525 23.7725 12.505 22.625 12.25 C21.42875 11.8375 20.2325 11.425 19 11 C18.69191406 10.35933594 18.38382813 9.71867187 18.06640625 9.05859375 C16.28009905 5.61030109 13.11189105 5.10835591 9.62109375 3.81640625 C6.37988226 2.80684857 3.3770135 2.29365335 0 2 C0 1.34 0 0.68 0 0 Z " fill="#624E8E" transform="translate(213,19)"/>
<path d="M0 0 C0.33 0 0.66 0 1 0 C0.8547445 1.77088083 0.70875402 3.54170136 0.5625 5.3125 C0.48128906 6.29863281 0.40007812 7.28476563 0.31640625 8.30078125 C0.14411775 10.31506775 -0.03602849 12.32899611 -0.25610352 14.33862305 C-1.08867184 22.29714881 -1.11439721 30.19133722 -1.0625 38.1875 C-1.05746963 39.53450352 -1.05290947 40.88150889 -1.04882812 42.22851562 C-1.03715354 45.48572537 -1.02077883 48.74283778 -1 52 C-1.66 52 -2.32 52 -3 52 C-3.89447991 46.09313692 -4.03982113 40.56726735 -3.73046875 34.609375 C-3.68940506 33.74233948 -3.64834137 32.87530396 -3.60603333 31.98199463 C-3.51778606 30.16327927 -3.42599516 28.34473267 -3.33081055 26.52636719 C-3.18722023 23.74457993 -3.06076204 20.96235552 -2.93554688 18.1796875 C-2.84738473 16.40619847 -2.75822689 14.63275859 -2.66796875 12.859375 C-2.61312569 11.61556061 -2.61312569 11.61556061 -2.55717468 10.34661865 C-2.16300966 3.26462911 -2.16300966 3.26462911 0 0 Z " fill="#5D4C8B" transform="translate(139,116)"/>
<path d="M0 0 C11.0567282 4.01333147 20.21452769 12.39838566 29 20 C25.89448334 20 24.64738916 19.4606285 22 18 C22 17.34 22 16.68 22 16 C21.44828125 15.731875 20.8965625 15.46375 20.328125 15.1875 C17.74911961 13.87203416 15.24917932 12.46150838 12.75 11 C11.85796875 10.484375 10.9659375 9.96875 10.046875 9.4375 C9.37140625 8.963125 8.6959375 8.48875 8 8 C8 7.34 8 6.68 8 6 C7.4225 5.9175 6.845 5.835 6.25 5.75 C3.36675699 4.788919 1.98036332 3.26327237 0 1 C0 0.67 0 0.34 0 0 Z " fill="#604F90" transform="translate(279,155)"/>
<path d="M0 0 C9.07382044 6.51453775 15.02878372 16.72705236 21 26 C20.34 26.33 19.68 26.66 19 27 C16.43609639 25.71804819 16.29110502 24.65949394 15.1875 22.0625 C13.34622483 18.16616864 12.03809182 17.48771804 8 16 C7.30562253 14.00945124 6.64389782 12.00744615 6 10 C4.50521926 8.09828434 2.91767682 6.35691248 1.2421875 4.61328125 C0 3 0 3 0 0 Z " fill="#604C93" transform="translate(314,182)"/>
<path d="M0 0 C3.48110932 3.48110932 3.17485397 8.01579989 3.25 12.75 C3.16798189 21.09534236 0.94807717 27.34568932 -4 34 C-5 32 -5 32 -4.2578125 29.21484375 C-3.88398438 28.13332031 -3.51015625 27.05179688 -3.125 25.9375 C-2.57199219 24.31134766 -2.57199219 24.31134766 -2.0078125 22.65234375 C-1 20 -1 20 0 19 C0.08651611 17.58429877 0.10704904 16.164405 0.09765625 14.74609375 C0.09443359 13.89208984 0.09121094 13.03808594 0.08789062 12.15820312 C0.07951172 11.26037109 0.07113281 10.36253906 0.0625 9.4375 C0.05798828 8.53580078 0.05347656 7.63410156 0.04882812 6.70507812 C0.03700225 4.46998686 0.0205222 2.23502563 0 0 Z " fill="#5D4C89" transform="translate(280,221)"/>
<path d="M0 0 C0.33 0 0.66 0 1 0 C0.99476318 0.7520874 0.98952637 1.5041748 0.98413086 2.27905273 C0.96342773 5.66519342 0.95036123 9.05132084 0.9375 12.4375 C0.92912109 13.62150391 0.92074219 14.80550781 0.91210938 16.02539062 C0.90888672 17.15009766 0.90566406 18.27480469 0.90234375 19.43359375 C0.89710693 20.47572021 0.89187012 21.51784668 0.88647461 22.59155273 C0.72694444 24.95128747 0.72694444 24.95128747 2 26 C2.32237212 28.57897694 2.51267304 31.15931821 2.71875 33.75 C2.76200665 35.96665352 2.76200665 35.96665352 4 37 C4.07179964 38.51928038 4.08392007 40.04167482 4.0625 41.5625 C4.05347656 42.38878906 4.04445313 43.21507812 4.03515625 44.06640625 C4.02355469 44.70449219 4.01195312 45.34257812 4 46 C3.67 46 3.34 46 3 46 C0.72858546 40.60539047 0.79586639 35.73842251 1 30 C0.34 30 -0.32 30 -1 30 C-1.02917234 26.12501596 -1.04685673 22.25006042 -1.0625 18.375 C-1.07087891 17.28058594 -1.07925781 16.18617188 -1.08789062 15.05859375 C-1.09111328 13.99511719 -1.09433594 12.93164062 -1.09765625 11.8359375 C-1.10289307 10.86188965 -1.10812988 9.8878418 -1.11352539 8.88427734 C-0.99414506 5.85124679 -0.55866724 2.98084732 0 0 Z " fill="#6D49A8" transform="translate(58,258)"/>
<path d="M0 0 C2.94795167 2.5185761 4.79318358 5.21654233 6.796875 8.53515625 C6.796875 9.19515625 6.796875 9.85515625 6.796875 10.53515625 C5.806875 10.53515625 4.816875 10.53515625 3.796875 10.53515625 C3.796875 9.54515625 3.796875 8.55515625 3.796875 7.53515625 C3.136875 7.53515625 2.476875 7.53515625 1.796875 7.53515625 C1.466875 6.54515625 1.136875 5.55515625 0.796875 4.53515625 C0.136875 4.20515625 -0.523125 3.87515625 -1.203125 3.53515625 C-1.203125 2.87515625 -1.203125 2.21515625 -1.203125 1.53515625 C-7.99055678 -1.28037101 -13.89201506 -1.83381565 -21.203125 -1.46484375 C-15.39416536 -7.27380339 -5.96221422 -4.09007896 0 0 Z " fill="#5B4B85" transform="translate(273.203125,210.46484375)"/>
<path d="M0 0 C1.00224609 0.03544922 2.00449219 0.07089844 3.03710938 0.10742188 C4.00326172 0.15060547 4.96941406 0.19378906 5.96484375 0.23828125 C7.28730103 0.29495972 7.28730103 0.29495972 8.63647461 0.3527832 C11.0625 0.6875 11.0625 0.6875 15.0625 2.6875 C6.1525 2.3575 -2.7575 2.0275 -11.9375 1.6875 C-12.5975 3.3375 -13.2575 4.9875 -13.9375 6.6875 C-15.6640625 8.92578125 -15.6640625 8.92578125 -17.5625 11 C-18.19414062 11.69738281 -18.82578125 12.39476562 -19.4765625 13.11328125 C-19.95867187 13.63277344 -20.44078125 14.15226563 -20.9375 14.6875 C-22.2575 14.3575 -23.5775 14.0275 -24.9375 13.6875 C-23.9375 11.6875 -23.9375 11.6875 -20.4375 9.8125 C-17.52707309 8.29074373 -17.52707309 8.29074373 -16 5.4375 C-15.979375 4.86 -15.95875 4.2825 -15.9375 3.6875 C-15.2775 3.6875 -14.6175 3.6875 -13.9375 3.6875 C-13.9375 2.6975 -13.9375 1.7075 -13.9375 0.6875 C-9.32654029 -0.84948657 -4.81424007 -0.22513743 0 0 Z " fill="#5D4D89" transform="translate(216.9375,162.3125)"/>
<path d="M0 0 C0.61488281 0.18949219 1.22976562 0.37898438 1.86328125 0.57421875 C0.89390625 1.41984375 -0.07546875 2.26546875 -1.07421875 3.13671875 C-5.38875348 7.38949122 -8.21775618 12.37568539 -11.20288086 17.59399414 C-12.16013193 19.26608782 -13.14574532 20.92188751 -14.13671875 22.57421875 C-14.46671875 22.57421875 -14.79671875 22.57421875 -15.13671875 22.57421875 C-15.47953008 18.36360137 -14.69018862 16.30865356 -12.26171875 12.88671875 C-11.72804687 12.11972656 -11.194375 11.35273437 -10.64453125 10.5625 C-9.13671875 8.57421875 -9.13671875 8.57421875 -7.13671875 6.57421875 C-7.01296875 5.93484375 -6.88921875 5.29546875 -6.76171875 4.63671875 C-5.73094716 1.23517249 -3.60580082 -0.71852338 0 0 Z " fill="#644F94" transform="translate(167.13671875,57.42578125)"/>
<path d="M0 0 C5.74675325 2.68181818 5.74675325 2.68181818 7.21875 4.53125 C9.99774552 6.82270245 13.2210769 6.83470811 16.6875 7.1875 C17.38939453 7.26935547 18.09128906 7.35121094 18.81445312 7.43554688 C20.54166726 7.63529273 22.27070003 7.81919988 24 8 C23 10 23 10 21.28515625 10.58984375 C14.34879501 11.67479305 9.81800334 9.76028941 4 6 C1.375 3.8125 1.375 3.8125 0 2 C0 1.34 0 0.68 0 0 Z " fill="#5F4D92" transform="translate(168,169)"/>
<path d="M0 0 C0.33 0 0.66 0 1 0 C1.09796875 0.77601563 1.1959375 1.55203125 1.296875 2.3515625 C2.83938218 13.49484711 4.89607866 24.40812361 11 34 C11 34.66 11 35.32 11 36 C10.34 36 9.68 36 9 36 C9 35.01 9 34.02 9 33 C8.34 33 7.68 33 7 33 C5.13470876 30.20206314 4.38932826 28.30531518 3.5 25.125 C2.76866653 22.52558646 2.0552253 20.11859535 0.9140625 17.66796875 C-0.28829944 14.1585106 -0.2160331 10.84633055 -0.125 7.1875 C-0.11597656 6.49462891 -0.10695313 5.80175781 -0.09765625 5.08789062 C-0.07426157 3.39177605 -0.03839641 1.69584129 0 0 Z " fill="#5C4D8C" transform="translate(76,278)"/>
<path d="M0 0 C-5.53686034 5.87700875 -11.58107148 11.10251302 -18 16 C-18.33 16 -18.66 16 -19 16 C-19 14.35 -19 12.7 -19 11 C-18.01 11 -17.02 11 -16 11 C-15.67 10.01 -15.34 9.02 -15 8 C-14.01 8 -13.02 8 -12 8 C-11.67 7.34 -11.34 6.68 -11 6 C-10.01 6 -9.02 6 -8 6 C-7.9175 5.21625 -7.835 4.4325 -7.75 3.625 C-7 1 -7 1 -5.125 -0.375 C-3 -1 -3 -1 0 0 Z " fill="#624C95" transform="translate(227,321)"/>
<path d="M0 0 C0.66 0.33 1.32 0.66 2 1 C2.04935509 6.37514905 2.08569802 11.75016685 2.10986328 17.12548828 C2.11993484 18.95493873 2.13359276 20.78437303 2.15087891 22.61376953 C2.17507677 25.23994934 2.18647132 27.86591675 2.1953125 30.4921875 C2.20563507 31.31306854 2.21595764 32.13394958 2.22659302 32.97970581 C2.22699184 34.98789142 2.1224954 36.99555382 2 39 C1.34 39.66 0.68 40.32 0 41 C-0.99 41 -1.98 41 -3 41 C-3 40.01 -3 39.02 -3 38 C-2.34 38 -1.68 38 -1 38 C-0.20651375 33.12651177 0.11813526 28.47059816 0.09765625 23.53515625 C0.0962413 22.85698349 0.09482635 22.17881073 0.09336853 21.48008728 C0.08782745 19.34084422 0.07528653 17.20171075 0.0625 15.0625 C0.05747736 13.60091298 0.0529158 12.13932431 0.04882812 10.67773438 C0.03787745 7.11845474 0.02065445 3.55923809 0 0 Z " fill="#6F4AAB" transform="translate(334,261)"/>
<path d="M0 0 C0.33 0.99 0.66 1.98 1 3 C0.01 3.70125 -0.98 4.4025 -2 5.125 C-4.40719779 7.16363162 -4.95496495 7.84559412 -5.875 11 C-4.6653659 15.1473169 -2.4185249 16.09185605 1.25 18.1171875 C1.8275 18.40851563 2.405 18.69984375 3 19 C-0.86695678 19 -3.5088452 17.58090029 -7 16 C-7 15.34 -7 14.68 -7 14 C-7.99 13.67 -8.98 13.34 -10 13 C-9.48223379 8.89552608 -7.35372556 7.04300477 -4.4375 4.25 C-3.61121094 3.45078125 -2.78492188 2.6515625 -1.93359375 1.828125 C-1.29550781 1.22484375 -0.65742188 0.6215625 0 0 Z " fill="#684A9B" transform="translate(235,337)"/>
<path d="M0 0 C0.99 0 1.98 0 3 0 C2.45925627 3.78520613 0.92427254 5.59177555 -2 8 C-2.99 8 -3.98 8 -5 8 C-5.061875 8.5775 -5.12375 9.155 -5.1875 9.75 C-6.36567031 13.01262547 -8.11367834 14.13992604 -11 16 C-14.3125 16.75 -14.3125 16.75 -17 17 C-16 15 -16 15 -13.9375 13.8125 C-8.01671597 10.15925028 -3.47536249 6.0361559 0 0 Z " fill="#6D4BA7" transform="translate(321,318)"/>
<path d="M0 0 C0.66 0 1.32 0 2 0 C0.76706608 8.63053741 -2.64079993 14.51263994 -9.5 20 C-12.64227744 21.25691098 -15.6427312 21.670856 -19 22 C-19 21.34 -19 20.68 -19 20 C-18.38511719 19.84144531 -17.77023438 19.68289063 -17.13671875 19.51953125 C-11.90609276 18.15578316 -11.90609276 18.15578316 -8.25 14.4375 C-7.8375 13.633125 -7.425 12.82875 -7 12 C-5.7315625 11.6596875 -5.7315625 11.6596875 -4.4375 11.3125 C-1.78221469 10.24398914 -1.78221469 10.24398914 -1.234375 7.66015625 C-0.73380194 5.11080918 -0.31868627 2.57802921 0 0 Z " fill="#5E4F8C" transform="translate(179,272)"/>
<path d="M0 0 C3 0 3 0 4.4375 1.25 C4.953125 1.8275 5.46875 2.405 6 3 C9.01273619 6.21987959 9.01273619 6.21987959 13 8 C13 8.66 13 9.32 13 10 C13.99 10 14.98 10 16 10 C16 10.66 16 11.32 16 12 C16.61488281 12.18175781 17.22976562 12.36351562 17.86328125 12.55078125 C18.67152344 12.80214844 19.47976562 13.05351562 20.3125 13.3125 C21.11300781 13.55613281 21.91351563 13.79976563 22.73828125 14.05078125 C25.09964573 15.04182023 26.33879993 16.08074943 28 18 C16.93637385 14.95349425 8.05199403 9.14924034 0 1 C0 0.67 0 0.34 0 0 Z " fill="#5D4F8A" transform="translate(80,341)"/>
<path d="M0 0 C5.20709274 4.62852688 8.66801076 10.07629357 10 17 C10.06548492 18.58211573 10.08578381 20.16670081 10.0625 21.75 C10.05347656 22.54921875 10.04445312 23.3484375 10.03515625 24.171875 C10.02355469 24.77515625 10.01195312 25.3784375 10 26 C9.67 26 9.34 26 9 26 C8.81824219 25.01257813 8.63648438 24.02515625 8.44921875 23.0078125 C8.19785156 21.72648437 7.94648438 20.44515625 7.6875 19.125 C7.44386719 17.84882813 7.20023438 16.57265625 6.94921875 15.2578125 C6.30246379 11.73677431 6.30246379 11.73677431 3 10 C2.8125 7.375 2.8125 7.375 3 5 C2.34 5 1.68 5 1 5 C0.67 3.35 0.34 1.7 0 0 Z " fill="#5C4D8A" transform="translate(172,244)"/>
<path d="M0 0 C1.20366211 0.00483398 1.20366211 0.00483398 2.43164062 0.00976562 C3.68170898 0.02233398 3.68170898 0.02233398 4.95703125 0.03515625 C5.80201172 0.03966797 6.64699219 0.04417969 7.51757812 0.04882812 C9.6015928 0.06060222 11.68557102 0.07853735 13.76953125 0.09765625 C14.09953125 0.75765625 14.42953125 1.41765625 14.76953125 2.09765625 C6.79462997 3.42680646 -1.17233594 3.18566984 -9.23046875 3.09765625 C-6.3406093 0.2077968 -3.90972204 -0.02772853 0 0 Z " fill="#6D48A7" transform="translate(212.23046875,159.90234375)"/>
<path d="M0 0 C0.33 0 0.66 0 1 0 C1 1.65 1 3.3 1 5 C0.40445313 5.25652344 -0.19109375 5.51304687 -0.8046875 5.77734375 C-3.21239436 7.11829081 -4.40605636 8.42461783 -6.125 10.5625 C-10.31336331 15.53561112 -15.10130777 19.7419818 -20 24 C-20.66 23.67 -21.32 23.34 -22 23 C-21.58226318 22.62302979 -21.16452637 22.24605957 -20.73413086 21.85766602 C-10.15819914 12.37383064 -10.15819914 12.37383064 -1.1015625 1.4765625 C-0.73804688 0.98929687 -0.37453125 0.50203125 0 0 Z " fill="#624E90" transform="translate(223,286)"/>
<path d="M0 0 C6.28534266 4.84495164 10.52946118 10.4741745 15 17 C14.67 17.66 14.34 18.32 14 19 C11.47411298 16.63707344 10.11179163 15.33537489 9 12 C5.99992729 10.29144978 5.99992729 10.29144978 3 9 C3 7.35 3 5.7 3 4 C2.34 4 1.68 4 1 4 C0.67 2.68 0.34 1.36 0 0 Z " fill="#634E91" transform="translate(246,37)"/>
<path d="M0 0 C2.97 0 5.94 0 9 0 C9 0.66 9 1.32 9 2 C21.375 1.505 21.375 1.505 34 1 C26.58121836 5.94585442 15.47367448 4.39946348 7 3 C4.62178108 2.42624921 2.33302208 1.74458151 0 1 C0 0.67 0 0.34 0 0 Z " fill="#5A4D85" transform="translate(115,361)"/>
<path d="M0 0 C1.85542389 2.78313584 2.32271791 3.84633727 2.81640625 6.9765625 C2.94080078 7.729375 3.06519531 8.4821875 3.19335938 9.2578125 C3.37608398 10.42957031 3.37608398 10.42957031 3.5625 11.625 C3.94934869 16.72239947 3.94934869 16.72239947 6 21 C6.07179964 22.51928038 6.08392007 24.04167482 6.0625 25.5625 C6.05347656 26.38878906 6.04445313 27.21507812 6.03515625 28.06640625 C6.02355469 28.70449219 6.01195313 29.34257812 6 30 C5.67 30 5.34 30 5 30 C2.41454418 19.95881111 0.36181897 10.4022955 0 0 Z " fill="#604E8D" transform="translate(117,178)"/>
<path d="M0 0 C0.33 0.99 0.66 1.98 1 3 C-1.1788544 5.23775461 -3.36960976 7.46350493 -5.5625 9.6875 C-6.47612305 10.62625977 -6.47612305 10.62625977 -7.40820312 11.58398438 C-11.34821443 15.56568892 -15.35154216 18.87111525 -20 22 C-19.16830723 17.67123713 -17.37785599 16.37429553 -13.875 13.6875 C-5.91940117 7.77067244 -5.91940117 7.77067244 0 0 Z " fill="#6E49AA" transform="translate(219,293)"/>
<path d="M0 0 C1.32 0.33 2.64 0.66 4 1 C4.66 3.64 5.32 6.28 6 9 C6.66 9 7.32 9 8 9 C9.4783226 11.95664519 9.06032783 14.74229737 9 18 C9.66 18 10.32 18 11 18 C10.67 19.32 10.34 20.64 10 22 C9.78085937 21.48953125 9.56171875 20.9790625 9.3359375 20.453125 C6.81157051 14.66555191 4.04085404 9.03058515 1.171875 3.40625 C0 1 0 1 0 0 Z " fill="#615091" transform="translate(318,224)"/>
<path d="M0 0 C0.33 0 0.66 0 1 0 C1.48212636 3.14538695 1.96014325 6.29138596 2.4375 9.4375 C2.57220703 10.31599609 2.70691406 11.19449219 2.84570312 12.09960938 C3.69657287 17.72365089 4.40723344 23.34282007 5 29 C4.70351562 28.40574219 4.40703125 27.81148437 4.1015625 27.19921875 C3.20027341 25.39983664 2.28904566 23.60543573 1.375 21.8125 C-1.20939269 15.02035238 -0.21905796 7.13966675 0 0 Z " fill="#604F8F" transform="translate(137,169)"/>
<path d="M0 0 C1.16670117 3.50010351 1.2944849 6.56540778 1.5 10.25 C1.78000543 15.23009654 2.23479132 20.07715751 3 25 C-1.11797577 21.48161961 -1.48115185 17.19578919 -2 12 C-1.80145985 3.60291971 -1.80145985 3.60291971 0 0 Z " fill="#6E49AB" transform="translate(165,144)"/>
<path d="M0 0 C-7.92 0.33 -15.84 0.66 -24 1 C-24 0.34 -24 -0.32 -24 -1 C-16.25287053 -3.19502002 -7.03738465 -4.69158977 0 0 Z " fill="#6B49A6" transform="translate(216,43)"/>
<path d="M0 0 C0.33 0 0.66 0 1 0 C1.12375 0.969375 1.2475 1.93875 1.375 2.9375 C1.58125 3.948125 1.7875 4.95875 2 6 C2.66 6.33 3.32 6.66 4 7 C4.99782019 9.86710939 5.11803903 12.53022283 5.09765625 15.546875 C5.09282227 16.81337891 5.09282227 16.81337891 5.08789062 18.10546875 C5.07951172 18.97816406 5.07113281 19.85085938 5.0625 20.75 C5.05798828 21.63816406 5.05347656 22.52632813 5.04882812 23.44140625 C5.037074 25.62767329 5.02064249 27.81380179 5 30 C4.67 30 4.34 30 4 30 C3.9498877 29.40985107 3.89977539 28.81970215 3.84814453 28.21166992 C3.61594352 25.53609298 3.37062472 22.86187659 3.125 20.1875 C3.00705078 18.7943457 3.00705078 18.7943457 2.88671875 17.37304688 C2.80292969 16.48037109 2.71914063 15.58769531 2.6328125 14.66796875 C2.55949707 13.84578857 2.48618164 13.0236084 2.41064453 12.17651367 C2.09335737 9.71664613 2.09335737 9.71664613 0 7 C-0.07905064 4.66800612 -0.08798769 2.33167378 0 0 Z " fill="#674C9E" transform="translate(348,242)"/>
<path d="M0 0 C0.99 0.33 1.98 0.66 3 1 C2.57589844 1.38929688 2.15179688 1.77859375 1.71484375 2.1796875 C-3.30531262 6.96814435 -7.17748455 12.22556176 -11 18 C-11.33 17.01 -11.66 16.02 -12 15 C-11.0390625 13.28125 -11.0390625 13.28125 -9.625 11.5 C-7.82427389 9.2063377 -6.94399506 7.83198518 -6 5 C-4.625 3.3125 -4.625 3.3125 -3 2 C-2.01 2 -1.02 2 0 2 C0 1.34 0 0.68 0 0 Z " fill="#624B90" transform="translate(103,207)"/>
<path d="M0 0 C0 3.53750029 -0.46774398 3.80825894 -2.8125 6.25 C-5.86944214 9.63937557 -7.43215603 12.73198031 -9 17 C-9.66 17 -10.32 17 -11 17 C-11.103125 17.639375 -11.20625 18.27875 -11.3125 18.9375 C-11.539375 19.618125 -11.76625 20.29875 -12 21 C-12.99 21.33 -13.98 21.66 -15 22 C-11.93305853 13.55087692 -5.91763967 6.63930304 0 0 Z " fill="#5D4F8C" transform="translate(87,192)"/>
<path d="M0 0 C7.51153944 -0.35959497 14.0601543 0.20469652 21.30859375 2.24609375 C23.85971251 2.96070321 26.39692435 3.51339965 29 4 C29 4.33 29 4.66 29 5 C22.59370576 5.20852314 17.07027358 5.1583195 11 3 C11 2.34 11 1.68 11 1 C7.37 1 3.74 1 0 1 C0 0.67 0 0.34 0 0 Z " fill="#6F48A8" transform="translate(218,139)"/>
<path d="M0 0 C0.99 0.33 1.98 0.66 3 1 C3.81038091 9.23887262 1.34674122 14.07884955 -3 21 C-3.66 21 -4.32 21 -5 21 C-3.86880136 17.32360443 -2.49770924 13.94622374 -0.8125 10.5 C0.96258664 6.6288701 1.28687464 4.18234257 0 0 Z " fill="#5E508D" transform="translate(241,248)"/>
<path d="M0 0 C0.66 0.33 1.32 0.66 2 1 C-2.88364155 5.06970129 -6.46781427 7.07796905 -12.75 8.125 C-13.73484375 8.29257812 -14.7196875 8.46015625 -15.734375 8.6328125 C-16.48203125 8.75398438 -17.2296875 8.87515625 -18 9 C-17.67 8.34 -17.34 7.68 -17 7 C-14.4375 6.375 -14.4375 6.375 -12 6 C-12 5.34 -12 4.68 -12 4 C-8.86650268 2.95550089 -8.01031744 3.06576355 -5 4 C-5 3.34 -5 2.68 -5 2 C-2.625 0.9375 -2.625 0.9375 0 0 Z " fill="#6D4BA1" transform="translate(178,327)"/>
<path d="M0 0 C0.33 0 0.66 0 1 0 C1 4.29 1 8.58 1 13 C1.66 13.33 2.32 13.66 3 14 C2.67 17.3 2.34 20.6 2 24 C1.34 23.67 0.68 23.34 0 23 C-1.10774296 15.36138985 -1.39683376 7.60498381 0 0 Z " fill="#6C4AA3" transform="translate(74,264)"/>
<path d="M0 0 C2.24808254 3.37212381 3.05160443 6.2874961 4.125 10.1875 C4.30675781 10.84169922 4.48851563 11.49589844 4.67578125 12.16992188 C5.12199044 13.77862343 5.56164215 15.38914131 6 17 C6.66 17 7.32 17 8 17 C8 19.97 8 22.94 8 26 C5.38500749 22.07751123 4.27199017 18.03754745 2.875 13.5625 C2.59785156 12.70333984 2.32070312 11.84417969 2.03515625 10.95898438 C1.77347656 10.12818359 1.51179688 9.29738281 1.2421875 8.44140625 C1.0035498 7.68545166 0.76491211 6.92949707 0.51904297 6.15063477 C0 4 0 4 0 0 Z " fill="#5A4E7F" transform="translate(123,208)"/>
<path d="M0 0 C0.99 0 1.98 0 3 0 C1.18594782 6.95386667 -0.9933621 13.99004316 -5 20 C-4.88529863 18.24929483 -4.75780972 16.49942464 -4.625 14.75 C-4.55539063 13.77546875 -4.48578125 12.8009375 -4.4140625 11.796875 C-4.01534751 9.10366811 -3.36492937 7.33036721 -2 5 C-1.34 5 -0.68 5 0 5 C0 3.35 0 1.7 0 0 Z " fill="#5F4B92" transform="translate(149,80)"/>
<path d="M0 0 C10.55808656 -0.18451025 10.55808656 -0.18451025 15 1 C15 1.66 15 2.32 15 3 C15.99 3.33 16.98 3.66 18 4 C18 4.33 18 4.66 18 5 C12.82633685 5.30433313 10.31009437 4.76288101 6 2 C2.80604974 1.28598768 2.80604974 1.28598768 0 1 C0 0.67 0 0.34 0 0 Z " fill="#6648A6" transform="translate(238,165)"/>
<path d="M0 0 C9.41002278 -0.3690205 9.41002278 -0.3690205 14 2 C14 2.99 14 3.98 14 5 C15.423125 4.938125 15.423125 4.938125 16.875 4.875 C20 5 20 5 22 7 C20.5199159 6.88637738 19.04089926 6.75877092 17.5625 6.625 C16.73878906 6.55539063 15.91507812 6.48578125 15.06640625 6.4140625 C14.38449219 6.27742187 13.70257813 6.14078125 13 6 C12.67 5.34 12.34 4.68 12 4 C10.34550895 3.61070799 8.67453799 3.291224 7 3 C4.66237777 2.34853151 2.32809543 1.68473395 0 1 C0 0.67 0 0.34 0 0 Z " fill="#664E98" transform="translate(242,142)"/>
<path d="M0 0 C0.33 1.32 0.66 2.64 1 4 C0.01 4.66 -0.98 5.32 -2 6 C-3.07074095 8.25951635 -3.89475545 10.55481692 -4.7421875 12.90625 C-6.38616523 15.64280921 -8.00897745 16.09183474 -11 17 C-9.92188894 15.10119204 -8.83726681 13.20608022 -7.75 11.3125 C-7.14671875 10.25675781 -6.5434375 9.20101563 -5.921875 8.11328125 C-4.1272513 5.20613677 -2.19271883 2.61476869 0 0 Z " fill="#635091" transform="translate(235,269)"/>
<path d="M0 0 C1.32 0.33 2.64 0.66 4 1 C4 1.66 4 2.32 4 3 C4.66 3 5.32 3 6 3 C6 3.66 6 4.32 6 5 C6.99 5.33 7.98 5.66 9 6 C9.73046875 8.06640625 9.73046875 8.06640625 10.1875 10.5625 C10.34605469 11.38878906 10.50460937 12.21507812 10.66796875 13.06640625 C10.77753906 13.70449219 10.88710938 14.34257812 11 15 C8.19995374 12.40311167 6.0486587 9.4624468 3.8125 6.375 C3.09707031 5.39273438 2.38164062 4.41046875 1.64453125 3.3984375 C0 1 0 1 0 0 Z " fill="#614D90" transform="translate(307,209)"/>
<path d="M0 0 C4.37899007 0.5891018 8.11407305 1.67128531 12.1875 3.375 C13.21230469 3.79523438 14.23710937 4.21546875 15.29296875 4.6484375 C17.75874033 5.87954423 19.23358047 6.92400179 21 9 C20.01 9.495 20.01 9.495 19 10 C16.66185675 8.96576427 14.44132884 7.88260719 12.1875 6.6875 C8.18900339 4.60259947 4.22903349 2.58689447 0 1 C0 0.67 0 0.34 0 0 Z " fill="#5A4C86" transform="translate(252,170)"/>
<path d="M0 0 C1.5067748 2.79738782 2.48224115 5.40322432 3.1875 8.5 C3.36667969 9.2528125 3.54585938 10.005625 3.73046875 10.78125 C4.01801942 13.14833379 3.72248395 14.74544015 3 17 C2 16 2 16 1.9375 13.4375 C1.958125 12.633125 1.97875 11.82875 2 11 C1.01 11 0.02 11 -1 11 C-1.125 3.375 -1.125 3.375 0 0 Z " fill="#644E94" transform="translate(277,97)"/>
<path d="M0 0 C1.32 0 2.64 0 4 0 C5.44681324 2.89362649 5.43242376 5.8083009 5.71875 9.00390625 C5.79532012 10.99583131 5.79532012 10.99583131 7 12 C7.04092937 14.33297433 7.04241723 16.66705225 7 19 C6.67 19 6.34 19 6 19 C4.70756464 14.8803623 3.73747375 11.33168317 4 7 C3.34 7 2.68 7 2 7 C2 5.35 2 3.7 2 2 C1.34 2 0.68 2 0 2 C0 1.34 0 0.68 0 0 Z " fill="#704AAA" transform="translate(327,240)"/>
<path d="M0 0 C2.59583531 3.16081123 4.17645154 6.35773987 5.75 10.125 C6.42289062 11.70667969 6.42289062 11.70667969 7.109375 13.3203125 C8 16 8 16 7 18 C1.31638665 13.26365554 0.85984599 7.02207562 0 0 Z " fill="#5D4D8B" transform="translate(265,63)"/>
<path d="M0 0 C0 0.66 0 1.32 0 2 C-1.64333504 3.03789581 -3.31243867 4.03567924 -5 5 C-7.35953094 7.35953094 -7.49141413 8.77895617 -8 12 C-8.99 12 -9.98 12 -11 12 C-11.33 13.65 -11.66 15.3 -12 17 C-12.85883109 14.60487478 -13.17516838 13.4383567 -12.21484375 11.03515625 C-5.06930693 0 -5.06930693 0 0 0 Z " fill="#5F508E" transform="translate(252,209)"/>
<path d="M0 0 C0.66 0.33 1.32 0.66 2 1 C2 7.27 2 13.54 2 20 C0.68 19.67 -0.64 19.34 -2 19 C-2.33 18.34 -2.66 17.68 -3 17 C-2.01 17 -1.02 17 0 17 C0 11.39 0 5.78 0 0 Z " fill="#6B48A6" transform="translate(279,113)"/>
<path d="M0 0 C1.39431504 2.78863007 1.25660094 4.92078868 1 8 C0.01 8.66 -0.98 9.32 -2 10 C-2.69356423 12.32548007 -3.36149212 14.65880445 -4 17 C-4.66 17.33 -5.32 17.66 -6 18 C-6 17.01 -6 16.02 -6 15 C-5.34 15 -4.68 15 -4 15 C-4.0825 13.824375 -4.165 12.64875 -4.25 11.4375 C-4.28424585 6.63451989 -2.62933968 3.94400953 0 0 Z " fill="#684F9C" transform="translate(135,65)"/>
<path d="M0 0 C1.05367562 2.71771213 1.04119417 3.87551411 0.109375 6.69140625 C-0.33921875 7.63886719 -0.7878125 8.58632812 -1.25 9.5625 C-1.68828125 10.51253906 -2.1265625 11.46257812 -2.578125 12.44140625 C-3.86183826 14.75138478 -5.02618477 16.27581434 -7 18 C-6.44380331 13.3110507 -5.11817327 9.80075733 -2.9375 5.625 C-2.38964844 4.56539062 -1.84179688 3.50578125 -1.27734375 2.4140625 C-0.85582031 1.61742187 -0.43429688 0.82078125 0 0 Z " fill="#5C4D87" transform="translate(71,214)"/>
<path d="M0 0 C0.33 0 0.66 0 1 0 C1.33 8.25 1.66 16.5 2 25 C1.34 25 0.68 25 0 25 C-0.8916376 19.18784382 -1.00380742 13.853664 -0.5625 8 C-0.51029297 7.22527344 -0.45808594 6.45054687 -0.40429688 5.65234375 C-0.27633098 3.76775513 -0.13914404 1.88379629 0 0 Z " fill="#594880" transform="translate(136,143)"/>
<path d="M0 0 C0.33 0 0.66 0 1 0 C1 4.62 1 9.24 1 14 C1.66 14 2.32 14 3 14 C3 16.64 3 19.28 3 22 C-0.74574259 18.25425741 -0.52111315 12.10408521 -1 7 C-0.89917525 4.50761215 -0.56651249 2.43600369 0 0 Z " fill="#5B4C8C" transform="translate(238,226)"/>
<path d="M0 0 C-0.33246655 3.07531556 -0.63104756 4.61832506 -2.8125 6.875 C-5.45646904 8.2347555 -6.25427947 7.84040922 -9 7 C-7.88121617 5.82737096 -6.75476949 4.66204862 -5.625 3.5 C-4.68527344 2.52546875 -4.68527344 2.52546875 -3.7265625 1.53125 C-2 0 -2 0 0 0 Z " fill="#7048AB" transform="translate(102,180)"/>
<path d="M0 0 C0.66 0.33 1.32 0.66 2 1 C-0.50123051 5.16871752 -2.49415979 7.98422938 -7 10 C-7.66 9.67 -8.32 9.34 -9 9 C-6.31941902 5.42589203 -3.57410797 2.68058098 0 0 Z " fill="#694D98" transform="translate(199,310)"/>
<path d="M0 0 C0.66 0.66 1.32 1.32 2 2 C1.88679697 5.28288776 0.71715137 6.30354487 -1.5625 8.75 C-2.7690625 9.86375 -2.7690625 9.86375 -4 11 C-4.33 10.34 -4.66 9.68 -5 9 C-4.0625 6.375 -4.0625 6.375 -3 4 C-2.34 4 -1.68 4 -1 4 C-0.67 2.68 -0.34 1.36 0 0 Z " fill="#714AAB" transform="translate(76,209)"/>
<path d="M0 0 C0.33 0 0.66 0 1 0 C2.32 5.94 3.64 11.88 5 18 C4.34 17.67 3.68 17.34 3 17 C3 16.34 3 15.68 3 15 C2.34 15 1.68 15 1 15 C0.15318867 9.91913204 -0.09038099 5.15171623 0 0 Z " fill="#60528D" transform="translate(142,198)"/>
<path d="M0 0 C0.33 0 0.66 0 1 0 C1.33 2.31 1.66 4.62 2 7 C1.01 7 0.02 7 -1 7 C-1.33 9.64 -1.66 12.28 -2 15 C-2.92565097 11.95161559 -3.04155806 9.53510031 -2.6875 6.375 C-2.60886719 5.59898437 -2.53023437 4.82296875 -2.44921875 4.0234375 C-2 2 -2 2 0 0 Z " fill="#6C49A6" transform="translate(180,265)"/>
<path d="M0 0 C2.66931006 5.12552394 4.35375916 10.16297391 4 16 C3.34 16 2.68 16 2 16 C0.13216954 10.51324804 -0.2358396 5.77807024 0 0 Z " fill="#63518F" transform="translate(273,81)"/>
<path d="M0 0 C0.99 0.33 1.98 0.66 3 1 C2.67 2.98 2.34 4.96 2 7 C1.01 7 0.02 7 -1 7 C-1.33 7.66 -1.66 8.32 -2 9 C-2.25 3.375 -2.25 3.375 0 0 Z " fill="#6D49AA" transform="translate(104,200)"/>
<path d="M0 0 C1.8871875 0.0309375 1.8871875 0.0309375 3.8125 0.0625 C2.8225 1.5475 2.8225 1.5475 1.8125 3.0625 C-0.5703125 3.35546875 -0.5703125 3.35546875 -3.3125 3.25 C-4.22257813 3.22292969 -5.13265625 3.19585937 -6.0703125 3.16796875 C-6.76898438 3.13316406 -7.46765625 3.09835938 -8.1875 3.0625 C-6.45706736 -0.39836529 -3.47359009 -0.0569441 0 0 Z " fill="#6F4AA9" transform="translate(185.1875,124.9375)"/>
<path d="M0 0 C0.33 0 0.66 0 1 0 C1.06058594 0.77085937 1.12117187 1.54171875 1.18359375 2.3359375 C1.26738281 3.33882813 1.35117188 4.34171875 1.4375 5.375 C1.51871094 6.37273437 1.59992188 7.37046875 1.68359375 8.3984375 C1.84965626 10.97927613 1.84965626 10.97927613 3 13 C3.04022391 15.3329866 3.04320247 17.66706666 3 20 C-0.05675241 15.41487138 -0.11219208 12.22893676 -0.0625 6.8125 C-0.05347656 5.54019531 -0.04445312 4.26789063 -0.03515625 2.95703125 C-0.02355469 1.98121094 -0.01195312 1.00539063 0 0 Z " fill="#5D4E87" transform="translate(136,260)"/>
<path d="M0 0 C2.93697877 0.62935259 5.48752634 1.32501756 8 3 C9.25 5.625 9.25 5.625 10 8 C6.88349604 6.49946106 3.86850702 4.93818042 1 3 C0.67 2.01 0.34 1.02 0 0 Z " fill="#624F93" transform="translate(220,45)"/>
<path d="M0 0 C0.99 0 1.98 0 3 0 C1.61043975 3.35810395 0.17473533 5.18586552 -3 7 C-5.75 7.1875 -5.75 7.1875 -8 7 C-7.01 6.67 -6.02 6.34 -5 6 C-5 5.34 -5 4.68 -5 4 C-3.35 3.67 -1.7 3.34 0 3 C0 2.01 0 1.02 0 0 Z " fill="#664C98" transform="translate(325,341)"/>
<path d="M0 0 C1.13089582 3.39268745 0.86432909 4.22256151 -0.25 7.5 C-0.62898438 8.66015625 -0.62898438 8.66015625 -1.015625 9.84375 C-2.04546257 12.09958469 -3.14843664 13.37728155 -5 15 C-4.54901762 13.06077578 -4.08894441 11.12366406 -3.625 9.1875 C-3.24214844 7.56908203 -3.24214844 7.56908203 -2.8515625 5.91796875 C-2 3 -2 3 0 0 Z " fill="#674C9B" transform="translate(280,240)"/>
<path d="M0 0 C0 3.96130371 -1.34877125 4.82914401 -4 7.6875 C-4.7425 8.49574219 -5.485 9.30398438 -6.25 10.13671875 C-6.8275 10.75160156 -7.405 11.36648438 -8 12 C-8.33 11.01 -8.66 10.02 -9 9 C-6.03 6.03 -3.06 3.06 0 0 Z " fill="#5B4E89" transform="translate(236,308)"/>
<path d="M0 0 C1.73602074 3.05938081 2.39557633 5.63288438 2.75 9.125 C2.84796875 9.99382812 2.9459375 10.86265625 3.046875 11.7578125 C3 14 3 14 1 16 C1.020625 15.030625 1.04125 14.06125 1.0625 13.0625 C1.35618499 10.12534105 1.35618499 10.12534105 0 9 C-0.07179964 7.48071962 -0.08392007 5.95832518 -0.0625 4.4375 C-0.05347656 3.61121094 -0.04445313 2.78492188 -0.03515625 1.93359375 C-0.02355469 1.29550781 -0.01195313 0.65742188 0 0 Z " fill="#5D4F8F" transform="translate(105,191)"/>
<path d="M0 0 C0.66 0 1.32 0 2 0 C4 3 4 3 3.625 5.6875 C3.41875 6.450625 3.2125 7.21375 3 8 C2.67 7.34 2.34 6.68 2 6 C1.34 6 0.68 6 0 6 C-0.38218767 4.34385343 -0.71395102 2.67542976 -1 1 C-0.67 0.67 -0.34 0.34 0 0 Z " fill="#654EA0" transform="translate(200,132)"/>
<path d="M0 0 C0.33 0 0.66 0 1 0 C1.19818283 6.70518586 1.30844801 12.65176798 -1 19 C-1.33 19 -1.66 19 -2 19 C-2.33 16.36 -2.66 13.72 -3 11 C-2.01 11 -1.02 11 0 11 C0 7.37 0 3.74 0 0 Z " fill="#6C49A8" transform="translate(119,117)"/>
<path d="M0 0 C1.75 0.125 1.75 0.125 4 1 C8 6.22222222 8 6.22222222 8 9 C7.01 9 6.02 9 5 9 C5 8.01 5 7.02 5 6 C4.34 6 3.68 6 3 6 C2.67 5.01 2.34 4.02 2 3 C1.34 2.67 0.68 2.34 0 2 C0 1.34 0 0.68 0 0 Z " fill="#634E95" transform="translate(272,212)"/>
<path d="M0 0 C3.1875 -0.3125 3.1875 -0.3125 6 0 C4.1875 2 4.1875 2 2 4 C1.01 4 0.02 4 -1 4 C-1.33 4.99 -1.66 5.98 -2 7 C-2.33 6.34 -2.66 5.68 -3 5 C-1.9375 2.375 -1.9375 2.375 0 0 Z " fill="#6F4BAA" transform="translate(194,170)"/>
<path d="M0 0 C1.3805087 3.76668598 0.59568159 6.44789173 -0.4375 10.25 C-0.72496094 11.32765625 -1.01242188 12.4053125 -1.30859375 13.515625 C-1.53675781 14.33546875 -1.76492187 15.1553125 -2 16 C-2.91787677 12.97031651 -3.04344865 10.57728581 -2.6875 7.4375 C-2.60886719 6.67308594 -2.53023437 5.90867187 -2.44921875 5.12109375 C-2 3 -2 3 0 0 Z " fill="#56477D" transform="translate(143,100)"/>
<path d="M0 0 C0 0.66 0 1.32 0 2 C-1.24176695 2.70226141 -2.49385599 3.38629109 -3.75 4.0625 C-4.79414063 4.63677734 -4.79414063 4.63677734 -5.859375 5.22265625 C-8.36140628 6.1312406 -9.5332355 5.88336837 -12 5 C-10.37750059 4.16180842 -8.75191503 3.3295884 -7.125 2.5 C-6.22007812 2.0359375 -5.31515625 1.571875 -4.3828125 1.09375 C-2 0 -2 0 0 0 Z " fill="#5C4B86" transform="translate(183,21)"/>
<path d="M0 0 C2.1875 0.0625 2.1875 0.0625 5 1 C6.93157957 3.1717219 8.48201687 5.52601047 10 8 C6.05205855 6.32971708 3.18203882 3.8204435 0 1 C0 0.67 0 0.34 0 0 Z " fill="#604F8F" transform="translate(285,188)"/>
<path d="M0 0 C0.66 0.33 1.32 0.66 2 1 C-1.0684847 3.97550031 -2.46236331 4.96474513 -6.8125 5.25 C-7.864375 5.1675 -8.91625 5.085 -10 5 C-9.67 4.34 -9.34 3.68 -9 3 C-7.02 3.495 -7.02 3.495 -5 4 C-5 3.34 -5 2.68 -5 2 C-2.625 0.9375 -2.625 0.9375 0 0 Z " fill="#6847AC" transform="translate(178,327)"/>
<path d="M0 0 C0.66 0 1.32 0 2 0 C1.34 1.32 0.68 2.64 0 4 C0 2.68 0 1.36 0 0 Z M-1 4 C-0.67 4.66 -0.34 5.32 0 6 C-1.65 7.65 -3.3 9.3 -5 11 C-4.39816251 8.97954558 -3.72693904 6.97888961 -3 5 C-2.34 4.67 -1.68 4.34 -1 4 Z " fill="#6F4AA8" transform="translate(236,269)"/>
<path d="M0 0 C1.32 0.33 2.64 0.66 4 1 C4 3.64 4 6.28 4 9 C1.49701566 6.06171403 0.53069061 3.82097239 0 0 Z " fill="#624E92" transform="translate(131,234)"/>
<path d="M0 0 C0.66 0 1.32 0 2 0 C0.34832443 3.5786304 -1.78286492 6.74820188 -4 10 C-4.33 9.01 -4.66 8.02 -5 7 C-4.07421875 5.17578125 -4.07421875 5.17578125 -2.6875 3.3125 C-2.23761719 2.68988281 -1.78773437 2.06726563 -1.32421875 1.42578125 C-0.88722656 0.95527344 -0.45023437 0.48476562 0 0 Z " fill="#5C5089" transform="translate(96,215)"/>
<path d="M0 0 C2.29633824 3.44450737 2.54016485 5.93812283 3 10 C2.34 9.67 1.68 9.34 1 9 C0.34 9.66 -0.32 10.32 -1 11 C-0.67 7.37 -0.34 3.74 0 0 Z " fill="#704AAC" transform="translate(345,233)"/>
<path d="M0 0 C0.33 0 0.66 0 1 0 C0.88557539 1.60495567 0.75805306 3.20898119 0.625 4.8125 C0.55539063 5.70582031 0.48578125 6.59914063 0.4140625 7.51953125 C0 10 0 10 -2 13 C-2.16682272 8.07872966 -2.24828052 4.49656104 0 0 Z " fill="#6E49A4" transform="translate(140,106)"/>
<path d="M0 0 C0 0.33 0 0.66 0 1 C-1.98 1 -3.96 1 -6 1 C-6 1.66 -6 2.32 -6 3 C-8.31 3.66 -10.62 4.32 -13 5 C-8.49251112 0.34226149 -6.53321609 -0.12098548 0 0 Z " fill="#694BA6" transform="translate(192,44)"/>
<path d="M0 0 C0.66 0 1.32 0 2 0 C1.125 5.75 1.125 5.75 0 8 C-0.66 8 -1.32 8 -2 8 C-1.125 2.25 -1.125 2.25 0 0 Z " fill="#614D9C" transform="translate(259,266)"/>
<path d="M0 0 C3.67230705 3.07999946 4.56802365 5.2482602 5 10 C4.34 10 3.68 10 3 10 C3 8.35 3 6.7 3 5 C2.34 5 1.68 5 1 5 C0.67 3.35 0.34 1.7 0 0 Z " fill="#634F9A" transform="translate(172,244)"/>
<path d="M0 0 C0.66 0 1.32 0 2 0 C4.09230769 4.43076923 4.09230769 4.43076923 3.625 7.3125 C3.41875 7.869375 3.2125 8.42625 3 9 C0 3.375 0 3.375 0 0 Z " fill="#60518F" transform="translate(164,160)"/>
<path d="M0 0 C0.8125 1.6875 0.8125 1.6875 1 4 C-1.4375 6.75 -1.4375 6.75 -4 9 C-3.46930939 5.17902761 -2.50298434 2.93828597 0 0 Z " fill="#5F4C8F" transform="translate(140,56)"/>
<path d="M0 0 C0.99 0.33 1.98 0.66 3 1 C2.21625 1.763125 1.4325 2.52625 0.625 3.3125 C-2.07257717 5.90891805 -2.07257717 5.90891805 -4 9 C-3.46930939 5.17902761 -2.50298434 2.93828597 0 0 Z " fill="#6D4AA8" transform="translate(230,311)"/>
<path d="M0 0 C2.475 0.495 2.475 0.495 5 1 C5.33 2.65 5.66 4.3 6 6 C3.97945196 4.35830472 1.97956942 2.69088222 0 1 C0 0.67 0 0.34 0 0 Z " fill="#614E91" transform="translate(74,335)"/>
<path d="M0 0 C0.99 0 1.98 0 3 0 C3 2.97 3 5.94 3 9 C0.87491756 5.81237635 0.4979837 3.73487777 0 0 Z " fill="#614F91" transform="translate(128,225)"/>
<path d="M0 0 C1.27875 0.103125 2.5575 0.20625 3.875 0.3125 C4.95394531 0.39951172 4.95394531 0.39951172 6.0546875 0.48828125 C8 1 8 1 10 4 C6.44219804 3.39009109 3.3171411 2.4216319 0 1 C0 0.67 0 0.34 0 0 Z " fill="#6A4BA6" transform="translate(256,170)"/>
</svg>
