<?xml version="1.0" encoding="UTF-8"?>
<svg version="1.1" xmlns="http://www.w3.org/2000/svg" width="373" height="369">
<path d="M0 0 C123.09 0 246.18 0 373 0 C373 121.77 373 243.54 373 369 C249.91 369 126.82 369 0 369 C0 247.23 0 125.46 0 0 Z " fill="#017ACC" transform="translate(0,0)"/>
<path d="M0 0 C1.28648437 -0.03287109 2.57296875 -0.06574219 3.8984375 -0.09960938 C17.95229951 -0.17737219 29.98037528 3.85223705 40.5 13.4375 C48.83230769 22.43442308 48.83230769 22.43442308 50.5 27.4375 C44.46674527 31.95628467 38.33812261 36.32479999 32.0625 40.5 C31.47194824 40.90597412 30.88139648 41.31194824 30.27294922 41.73022461 C26.10681961 44.45817528 26.10681961 44.45817528 23.20703125 44.359375 C20.4292043 42.85922132 19.22899242 40.03098863 17.5 37.4375 C10.38425219 31.98713998 4.32070898 30.60731563 -4.5 31.4375 C-9.18837591 33.05712077 -12.15849072 35.02465559 -14.5 39.4375 C-15.24063701 44.81845459 -15.17602971 49.64602127 -13.25 54.75 C-5.73996725 62.08935019 4.4575807 65.84168539 13.92382812 70.03051758 C31.984042 78.05331575 49.9646365 86.57595712 57.875 105.875 C62.10312386 117.32770071 63.01206989 132.9191373 58.375 144.4375 C56.9765625 147.109375 56.9765625 147.109375 55.5 149.4375 C55.05398438 150.16453125 54.60796875 150.8915625 54.1484375 151.640625 C45.73847762 163.95017522 32.92492653 170.99083119 18.4921875 173.97265625 C13.12968742 174.72832022 7.71870939 174.72118445 2.3125 174.75 C1.30276123 174.75563965 0.29302246 174.7612793 -0.74731445 174.76708984 C-7.21770624 174.70460468 -13.21597515 173.96906747 -19.5 172.4375 C-20.52609375 172.18871094 -21.5521875 171.93992187 -22.609375 171.68359375 C-39.94114613 166.37637981 -52.48221645 154.95040739 -61.5 139.4375 C-56.43921398 135.26925983 -51.04500939 131.93796493 -45.4375 128.5625 C-44.44427734 127.94375 -43.45105469 127.325 -42.42773438 126.6875 C-41.47060547 126.11257813 -40.51347656 125.53765625 -39.52734375 124.9453125 C-38.65843506 124.41566895 -37.78952637 123.88602539 -36.89428711 123.34033203 C-34.5 122.4375 -34.5 122.4375 -32.31347656 123.14501953 C-29.89699197 124.86726905 -28.20897334 126.9075867 -26.3125 129.1875 C-18.87691429 137.60881802 -12.00585926 141.62741817 -0.875 142.6875 C6.65676893 143.02985313 14.03844987 141.65534368 20.265625 137.1640625 C23.11531219 134.46177292 24.35743178 132.05510101 24.703125 128.1328125 C24.85854632 121.26823869 24.85854632 121.26823869 21.5 115.4375 C17.78498261 112.18351894 13.85314097 109.89894159 9.4375 107.75 C8.40943237 107.2406189 8.40943237 107.2406189 7.3605957 106.72094727 C2.55486496 104.36605879 -2.31247818 102.17381774 -7.21118164 100.02026367 C-25.21963102 92.09181355 -39.89451699 83.104477 -48.3125 64.625 C-52.24282833 54.07517134 -52.5592052 39.08551299 -48.375 28.625 C-41.65891885 15.39919774 -31.58916496 6.64946411 -17.76245117 1.39770508 C-11.94885139 -0.31335441 -6.02052063 0.02650914 0 0 Z " fill="#FBFDFD" transform="translate(284.5,168.5625)"/>
<path d="M0 0 C43.89 0 87.78 0 133 0 C133 10.23 133 20.46 133 31 C116.83 31 100.66 31 84 31 C84 77.2 84 123.4 84 171 C72.45 171 60.9 171 49 171 C49 124.8 49 78.6 49 31 C32.83 31 16.66 31 0 31 C0 20.77 0 10.54 0 0 Z " fill="#FBFDFE" transform="translate(81,170)"/>
<path d="M0 0 C11.55 0 23.1 0 35 0 C30.77037676 2.11481162 28.89005069 2.23587764 24.265625 2.1953125 C22.97011719 2.18886719 21.67460937 2.18242187 20.33984375 2.17578125 C18.97655981 2.15907193 17.61327856 2.14214206 16.25 2.125 C14.87110015 2.1149634 13.49219335 2.10583873 12.11328125 2.09765625 C8.74201118 2.07408093 5.37109364 2.0411727 2 2 C2 2.66 2 3.32 2 4 C1.34 4 0.68 4 0 4 C0 2.68 0 1.36 0 0 Z " fill="#1777B9" transform="translate(130,341)"/>
<path d="M0 0 C10 0 10 0 14 2 C10.04 2 6.08 2 2 2 C2 12.23 2 22.46 2 33 C1.67 33 1.34 33 1 33 C0.67 22.11 0.34 11.22 0 0 Z " fill="#137ABB" transform="translate(79,168)"/>
<path d="M0 0 C1.64826111 2.96687001 2.44271087 5.65626525 3 9 C2.01 9 1.02 9 0 9 C-0.33 10.32 -0.66 11.64 -1 13 C-2.32 13.33 -3.64 13.66 -5 14 C-3.46527032 9.27775484 -1.76054874 4.64144669 0 0 Z " fill="#1980C3" transform="translate(344,306)"/>
<path d="M0 0 C1.66611905 -0.042721 3.33382885 -0.04063832 5 0 C5.33 0.33 5.66 0.66 6 1 C7.99958364 1.04080783 10.00045254 1.04254356 12 1 C9.6870518 3.3129482 8.52095125 3.49580975 5.375 4.125 C4.55773437 4.29257813 3.74046875 4.46015625 2.8984375 4.6328125 C1.95871094 4.81457031 1.95871094 4.81457031 1 5 C0.67 3.35 0.34 1.7 0 0 Z " fill="#127DC1" transform="translate(258,168)"/>
<path d="M0 0 C0.66 0.33 1.32 0.66 2 1 C1.938125 1.78375 1.87625 2.5675 1.8125 3.375 C1.874375 4.24125 1.93625 5.1075 2 6 C2.99 6.66 3.98 7.32 5 8 C4.67 8.66 4.34 9.32 4 10 C2.66102417 9.04956626 1.32894573 8.08940853 0 7.125 C-0.7425 6.59132812 -1.485 6.05765625 -2.25 5.5078125 C-2.8275 5.01023438 -3.405 4.51265625 -4 4 C-4 3.34 -4 2.68 -4 2 C-2.125 0.9375 -2.125 0.9375 0 0 Z " fill="#167EC4" transform="translate(328,249)"/>
<path d="M0 0 C-0.99 0.33 -1.98 0.66 -3 1 C-3 1.66 -3 2.32 -3 3 C-1.02 3 0.96 3 3 3 C2.67 3.99 2.34 4.98 2 6 C0.53932801 5.54917531 -0.91848032 5.08906463 -2.375 4.625 C-3.18710937 4.36976563 -3.99921875 4.11453125 -4.8359375 3.8515625 C-7 3 -7 3 -9 1 C-5.8035914 -0.06546953 -3.34252724 -0.07427838 0 0 Z " fill="#137CC4" transform="translate(302,235)"/>
<path d="M0 0 C0.99 0 1.98 0 3 0 C3 0.66 3 1.32 3 2 C3.94875 1.79375 4.8975 1.5875 5.875 1.375 C7.421875 1.189375 7.421875 1.189375 9 1 C9.66 1.66 10.32 2.32 11 3 C6.25 6 6.25 6 4 6 C1.875 4.125 1.875 4.125 0 2 C0 1.34 0 0.68 0 0 Z " fill="#0F7AC4" transform="translate(227,296)"/>
<path d="M0 0 C2.31 0.33 4.62 0.66 7 1 C7.33 1.99 7.66 2.98 8 4 C9.32 4 10.64 4 12 4 C12 4.99 12 5.98 12 7 C7.69235185 5.43358249 3.93828536 3.31663844 0 1 C0 0.67 0 0.34 0 0 Z " fill="#DEF1F8" transform="translate(257,257)"/>
<path d="M0 0 C0 0.66 0 1.32 0 2 C-1.65848177 3.01351664 -3.32665961 4.01120795 -5 5 C-6.36984198 6.29579647 -7.7151049 7.61992749 -9 9 C-9.99 8.34 -10.98 7.68 -12 7 C-10.3790787 5.82767315 -8.75313167 4.6622923 -7.125 3.5 C-6.22007812 2.8503125 -5.31515625 2.200625 -4.3828125 1.53125 C-2 0 -2 0 0 0 Z " fill="#1E80BF" transform="translate(333,198)"/>
<path d="M0 0 C-1.28913487 0.67154933 -2.58140204 1.33708859 -3.875 2 C-4.59429687 2.37125 -5.31359375 2.7425 -6.0546875 3.125 C-8 4 -8 4 -10 4 C-10 3.34 -10 2.68 -10 2 C-10.99 1.67 -11.98 1.34 -13 1 C-11.58622218 0.63447197 -10.16879424 0.28304505 -8.75 -0.0625 C-7.96109375 -0.25972656 -7.1721875 -0.45695312 -6.359375 -0.66015625 C-3.89605178 -1.01497267 -2.34395868 -0.76877544 0 0 Z " fill="#1F82C5" transform="translate(312,341)"/>
<path d="M0 0 C1.2065625 0.495 1.2065625 0.495 2.4375 1 C4.69681125 2.06059041 4.69681125 2.06059041 6 2 C6.99 2.33 7.98 2.66 9 3 C8.67 3.66 8.34 4.32 8 5 C7.34 5 6.68 5 6 5 C5.67 5.66 5.34 6.32 5 7 C3.29115995 5.37660195 1.62553283 3.70680947 0 2 C0 1.34 0 0.68 0 0 Z " fill="#127AC1" transform="translate(255,294)"/>
<path d="M0 0 C0.66 0 1.32 0 2 0 C2.95696948 3.721548 2.95229341 6.28605569 2 10 C1.814375 10.763125 1.62875 11.52625 1.4375 12.3125 C1.293125 12.869375 1.14875 13.42625 1 14 C-0.38226016 11.23547967 -0.09525387 8.9538637 -0.0625 5.875 C-0.05347656 4.77929688 -0.04445313 3.68359375 -0.03515625 2.5546875 C-0.02355469 1.71164063 -0.01195312 0.86859375 0 0 Z " fill="#177CBE" transform="translate(269,208)"/>
<path d="M0 0 C1.32 0.66 2.64 1.32 4 2 C2.87926138 2.83905565 1.75325453 3.67107831 0.625 4.5 C-0.00148438 4.9640625 -0.62796875 5.428125 -1.2734375 5.90625 C-3 7 -3 7 -5 7 C-5 6.01 -5 5.02 -5 4 C-3.68 4 -2.36 4 -1 4 C-0.67 2.68 -0.34 1.36 0 0 Z " fill="#E5F9FC" transform="translate(318,203)"/>
<path d="M0 0 C1.32 0 2.64 0 4 0 C4.33 0.99 4.66 1.98 5 3 C8.00007271 4.70855022 8.00007271 4.70855022 11 6 C11 6.66 11 7.32 11 8 C6.40378078 6.5129879 3.53027653 4.20187872 0 1 C0 0.67 0 0.34 0 0 Z " fill="#1C7FC0" transform="translate(261,301)"/>
<path d="M0 0 C3.465 1.98 3.465 1.98 7 4 C3.25 6 3.25 6 1 6 C0.67 4.02 0.34 2.04 0 0 Z " fill="#E6F6FC" transform="translate(315,247)"/>
<path d="M0 0 C0.33 0.99 0.66 1.98 1 3 C0.319375 3.5878125 0.319375 3.5878125 -0.375 4.1875 C-2.27642919 6.30832487 -3.06204028 8.33042235 -4 11 C-4.66 11 -5.32 11 -6 11 C-4.74194623 6.49197399 -3.09592835 3.5087188 0 0 Z " fill="#DCF6FE" transform="translate(244,185)"/>
<path d="M0 0 C0.99 0.33 1.98 0.66 3 1 C1.58480285 3.0343459 0.45017877 3.90410393 -1.98046875 4.421875 C-3.98176954 4.66273952 -5.9909944 4.83532741 -8 5 C-7.01 4.34 -6.02 3.68 -5 3 C-3.7625 2.1646875 -3.7625 2.1646875 -2.5 1.3125 C-1.675 0.879375 -0.85 0.44625 0 0 Z " fill="#D5EFF9" transform="translate(304,306)"/>
<path d="M0 0 C0 0.99 0 1.98 0 3 C-0.99 3 -1.98 3 -3 3 C-3.33 3.99 -3.66 4.98 -4 6 C-5.98 6.33 -7.96 6.66 -10 7 C-7.2180632 3.72713318 -3.72045933 2.03572303 0 0 Z " fill="#D2EFFA" transform="translate(245,294)"/>
<path d="M0 0 C2.64 0.33 5.28 0.66 8 1 C7.67 2.32 7.34 3.64 7 5 C3.535 3.02 3.535 3.02 0 1 C0 0.67 0 0.34 0 0 Z " fill="#1A81C2" transform="translate(279,229)"/>
<path d="M0 0 C1.65 1.65 3.3 3.3 5 5 C4.01 5.33 3.02 5.66 2 6 C2 6.66 2 7.32 2 8 C1.34 8 0.68 8 0 8 C0 5.36 0 2.72 0 0 Z " fill="#E6F6F9" transform="translate(325,183)"/>
<path d="M0 0 C0.68707555 2.49064888 1 4.37886292 1 7 C-1.97 6.505 -1.97 6.505 -5 6 C-3.35 4.02 -1.7 2.04 0 0 Z " fill="#1D81C4" transform="translate(333,326)"/>
<path d="M0 0 C2.475 0.99 2.475 0.99 5 2 C3.75 3.5625 3.75 3.5625 2 5 C-0.1875 4.6875 -0.1875 4.6875 -2 4 C-2 3.34 -2 2.68 -2 2 C-1.34 2 -0.68 2 0 2 C0 1.34 0 0.68 0 0 Z " fill="#E0F6FC" transform="translate(308,208)"/>
<path d="M0 0 C0 1.65 0 3.3 0 5 C-2.64 4.01 -5.28 3.02 -8 2 C-8 1.67 -8 1.34 -8 1 C-5.23735711 0.40267181 -2.83967231 0 0 0 Z " fill="#D9F2FA" transform="translate(299,198)"/>
<path d="M0 0 C2.97 1.65 5.94 3.3 9 5 C5.86650268 6.04449911 5.01031744 5.93423645 2 5 C2 4.01 2 3.02 2 2 C1.34 2 0.68 2 0 2 C0 1.34 0 0.68 0 0 Z " fill="#D6F2FB" transform="translate(273,226)"/>
<path d="M0 0 C1.65 1.65 3.3 3.3 5 5 C4.01 5.66 3.02 6.32 2 7 C1.34 6.67 0.68 6.34 0 6 C0 4.02 0 2.04 0 0 Z " fill="#157FC7" transform="translate(239,240)"/>
<path d="M0 0 C0.99 0.99 1.98 1.98 3 3 C2.67 3.66 2.34 4.32 2 5 C-0.97 4.505 -0.97 4.505 -4 4 C-2.68 2.68 -1.36 1.36 0 0 Z " fill="#1680CB" transform="translate(316,208)"/>
<path d="M0 0 C2.125 0.375 2.125 0.375 4 1 C2.35 2.65 0.7 4.3 -1 6 C-1.625 4.125 -1.625 4.125 -2 2 C-1.34 1.34 -0.68 0.68 0 0 Z " fill="#157DC2" transform="translate(241,184)"/>
</svg>
