<?xml version="1.0" encoding="UTF-8"?>
<svg version="1.1" xmlns="http://www.w3.org/2000/svg" width="411" height="411">
<path d="M0 0 C1.62106355 1.37617381 3.22473463 2.77303808 4.8125 4.1875 C6.15634766 5.36892578 6.15634766 5.36892578 7.52734375 6.57421875 C12.81509825 11.32255131 17.87468282 16.23859112 22.85009766 21.31323242 C34.60844331 33.27924008 47.27046447 44.04960329 64.90429688 44.47998047 C82.17833588 44.6274067 94.82181227 39.2533702 107.48046875 27.51171875 C110.3141983 24.68748243 112.91842185 21.7275531 115.4375 18.62109375 C116.118125 17.91146484 116.118125 17.91146484 116.8125 17.1875 C117.4725 17.1875 118.1325 17.1875 118.8125 17.1875 C118.23912799 22.30171472 117.09162264 26.87044007 115.25 31.6875 C114.98823975 32.37529541 114.72647949 33.06309082 114.45678711 33.77172852 C110.27424127 44.424511 104.99951609 56.02261098 96.8125 64.1875 C96.1525 64.1875 95.4925 64.1875 94.8125 64.1875 C94.56886719 64.77015625 94.32523438 65.3528125 94.07421875 65.953125 C87.61408034 77.39337011 69.50622123 84.22832143 57.44677734 87.66552734 C49.03557427 89.84126589 40.46318173 90.64497077 31.8125 91.1875 C30.89210938 91.24808594 29.97171875 91.30867188 29.0234375 91.37109375 C-0.22642367 92.22547114 -26.39295184 81.28917272 -47.625 61.5 C-51.42867837 57.90820667 -55.15036939 54.24721891 -58.79296875 50.4921875 C-72.2308346 36.64615784 -85.13135656 26.85510055 -105.25390625 26.03125 C-121.90909063 26.69282634 -135.71771284 34.22789987 -147.1875 46.1875 C-148.90019317 48.32658981 -150.50549348 50.47857748 -152.03125 52.75390625 C-152.60359375 53.46353516 -152.60359375 53.46353516 -153.1875 54.1875 C-153.8475 54.1875 -154.5075 54.1875 -155.1875 54.1875 C-154.65445633 48.66100121 -153.62685623 43.76105815 -151.625 38.5625 C-151.36251465 37.87591309 -151.1000293 37.18932617 -150.82958984 36.48193359 C-146.38211868 25.26129683 -140.18494288 15.24799766 -132.1875 6.1875 C-131.67058594 5.57648438 -131.15367187 4.96546875 -130.62109375 4.3359375 C-99.39121424 -29.94648663 -34.66176053 -27.02066955 0 0 Z " fill="#17B9B8" transform="translate(270.1875,116.8125)"/>
<path d="M0 0 C4.60907805 4.2687041 8.98890758 8.76560874 13.3984375 13.23828125 C27.34723991 27.33195253 40.53991365 38.5174792 61.4609375 38.86328125 C76.45801425 38.6962346 88.94168942 32.66692377 99.8359375 22.61328125 C102.59324448 19.74076102 105.21096012 16.75882453 107.8046875 13.73828125 C108.475 13.03703125 109.1453125 12.33578125 109.8359375 11.61328125 C110.4959375 11.61328125 111.1559375 11.61328125 111.8359375 11.61328125 C109.1442903 31.33655816 98.78257485 48.83144907 84.8359375 62.61328125 C83.85173828 63.61294922 83.85173828 63.61294922 82.84765625 64.6328125 C66.03056299 80.58564401 42.97654216 85.03036137 20.5859375 84.92578125 C19.31468018 84.9201416 18.04342285 84.91450195 16.73364258 84.90869141 C-2.63107305 84.65942915 -20.9855716 80.76260311 -37.1640625 69.61328125 C-38.1128125 68.95972656 -39.0615625 68.30617188 -40.0390625 67.6328125 C-44.80916218 64.25187749 -49.13180927 60.86349411 -53.1640625 56.61328125 C-55.28962042 54.77647837 -57.43205718 52.96288273 -59.58984375 51.1640625 C-60.10933594 50.65230469 -60.62882812 50.14054687 -61.1640625 49.61328125 C-61.1640625 48.95328125 -61.1640625 48.29328125 -61.1640625 47.61328125 C-61.8240625 47.61328125 -62.4840625 47.61328125 -63.1640625 47.61328125 C-64.3264244 46.21160954 -65.48503975 44.80666924 -66.625 43.38671875 C-69.47852153 40.0986508 -72.82137977 37.38776836 -76.1640625 34.61328125 C-76.86660156 34.01128906 -77.56914063 33.40929687 -78.29296875 32.7890625 C-89.94827659 23.17708233 -103.17018728 19.39550458 -118.1640625 20.61328125 C-134.60219982 23.28343554 -149.03835814 32.68560987 -158.9765625 46.05078125 C-159.564375 46.82421875 -159.564375 46.82421875 -160.1640625 47.61328125 C-160.8240625 47.61328125 -161.4840625 47.61328125 -162.1640625 47.61328125 C-161.59023704 42.44885215 -160.40421132 37.84917183 -158.5390625 32.98828125 C-158.27472412 32.29532959 -158.01038574 31.60237793 -157.73803711 30.88842773 C-153.68115243 20.54532735 -148.55028545 10.95913159 -141.1640625 2.61328125 C-140.38546875 1.72898438 -139.606875 0.8446875 -138.8046875 -0.06640625 C-103.43934228 -37.83826904 -36.71476167 -32.98698852 0 0 Z " fill="#19B5B9" transform="translate(186.1640625,231.38671875)"/>
<path d="M0 0 C-0.99 0.33 -1.98 0.66 -3 1 C-4.796875 -0.328125 -4.796875 -0.328125 -6.75 -2.25 C-10.34625532 -5.58652577 -13.39708332 -7.36980034 -18 -9 C-18 -9.66 -18 -10.32 -18 -11 C-18.64710938 -11.2578125 -19.29421875 -11.515625 -19.9609375 -11.78125 C-21.61698331 -12.4453712 -23.27218072 -13.11169224 -24.92285156 -13.7890625 C-33.88783027 -17.46275936 -42.34082383 -20.70978513 -52 -22 C-52.55187988 -22.16677246 -53.10375977 -22.33354492 -53.67236328 -22.50537109 C-56.90842489 -23.19304267 -60.11263316 -23.18270322 -63.40625 -23.203125 C-64.12679565 -23.20882507 -64.84734131 -23.21452515 -65.58972168 -23.22039795 C-67.11611474 -23.2298303 -68.64252799 -23.23637491 -70.16894531 -23.24023438 C-72.46457399 -23.24985159 -74.7592721 -23.28085274 -77.0546875 -23.3125 C-91.69151501 -23.43677354 -91.69151501 -23.43677354 -105 -18 C-105.66 -18 -106.32 -18 -107 -18 C-112.25536471 -16.77737557 -116.17996097 -14.87673551 -120.6875 -11.9375 C-126.61850893 -8.08338961 -126.61850893 -8.08338961 -129.26953125 -7.50390625 C-129.84058594 -7.33761719 -130.41164062 -7.17132813 -131 -7 C-131.71482019 -5.6918508 -132.37515197 -4.35343532 -133 -3 C-134.35569437 -1.60565039 -135.75687483 -0.25485708 -137.1875 1.0625 C-146.77269944 10.46336868 -154.45231726 23.75204977 -157 37 C-156.34 37 -155.68 37 -155 37 C-153.69842492 35.63832454 -153.69842492 35.63832454 -152.375 33.875 C-142.94322833 22.5431384 -130.33051801 18.06403342 -115.921875 16.7109375 C-103.65996958 16.35029322 -93.08640715 19.07123373 -83 26 C-82.12085937 26.51046875 -81.24171875 27.0209375 -80.3359375 27.546875 C-77.50254787 29.30945182 -76.07854787 31.38696839 -74 34 C-72.85203872 35.04182374 -71.68268373 36.06026699 -70.5 37.0625 C-66.14333673 40.76402594 -62.1704149 44.79328481 -58.21289062 48.91235352 C-55.66200415 51.52347393 -53.42723949 53.65358449 -50 55 C-50 55.66 -50 56.32 -50 57 C-49.34 57 -48.68 57 -48 57 C-46.31267723 58.98260426 -44.64633943 60.9832342 -43 63 C-42.34 63.33 -41.68 63.66 -41 64 C-41 64.66 -41 65.32 -41 66 C-48.04437789 62.67392403 -53.18126676 58.02341655 -58 52 C-59.32901064 50.99426222 -60.66073801 49.99204592 -62 49 C-62 48.34 -62 47.68 -62 47 C-62.66 47 -63.32 47 -64 47 C-65.1623619 45.59832829 -66.32097725 44.19338799 -67.4609375 42.7734375 C-70.31445903 39.48536955 -73.65731727 36.77448711 -77 34 C-77.70253906 33.39800781 -78.40507813 32.79601562 -79.12890625 32.17578125 C-90.78421409 22.56380108 -104.00612478 18.78222333 -119 20 C-135.43813732 22.67015429 -149.87429564 32.07232862 -159.8125 45.4375 C-160.4003125 46.2109375 -160.4003125 46.2109375 -161 47 C-161.66 47 -162.32 47 -163 47 C-162.42617454 41.8355709 -161.24014882 37.23589058 -159.375 32.375 C-159.11066162 31.68204834 -158.84632324 30.98909668 -158.57397461 30.27514648 C-154.51708993 19.9320461 -149.38622295 10.34585034 -142 2 C-141.22140625 1.11570313 -140.4428125 0.23140625 -139.640625 -0.6796875 C-103.60562811 -39.16676998 -37.27936436 -32.86670491 0 0 Z " fill="#2BA8AA" transform="translate(187,232)"/>
<path d="M0 0 C0.99 0.99 0.99 0.99 2 2 C-2.75158665 1.64138969 -6.58141063 0.86068539 -11 -0.9375 C-31.84869273 -8.87848407 -61.39966971 -6.83436803 -82 1 C-87.4082893 3.43647551 -92.72374098 6.01584443 -97.625 9.375 C-100 11 -100 11 -102 11 C-102.20625 11.556875 -102.4125 12.11375 -102.625 12.6875 C-104.12606898 15.21202511 -105.90317516 16.53182391 -108.1640625 18.3515625 C-119.69188987 28.70207984 -125.40016921 42.91010318 -131 57 C-128.53770003 56.28254644 -128.53770003 56.28254644 -126 55 C-125.32101676 53.67289639 -124.65595559 52.33863531 -124 51 C-111.17903538 40.30310564 -96.64334226 34.33782268 -79.8125 35.1875 C-74.12556275 35.7050681 -69.29783141 36.89913582 -64 39 C-64 39.66 -64 40.32 -64 41 C-63.01 41.0928125 -63.01 41.0928125 -62 41.1875 C-54.7264889 43.15740926 -49.35848435 48.26422358 -43.98046875 53.328125 C-42.00706809 55.20337851 -42.00706809 55.20337851 -39 56 C-39.99 57.98 -39.99 57.98 -41 60 C-41.64001953 59.29037109 -41.64001953 59.29037109 -42.29296875 58.56640625 C-54.20720518 45.96433761 -67.50110752 38.56290246 -85.06640625 37.84375 C-101.72159063 38.50532634 -115.53021284 46.04039987 -127 58 C-128.71269317 60.13908981 -130.31799348 62.29107748 -131.84375 64.56640625 C-132.41609375 65.27603516 -132.41609375 65.27603516 -133 66 C-133.66 66 -134.32 66 -135 66 C-134.46695633 60.47350121 -133.43935623 55.57355815 -131.4375 50.375 C-131.17501465 49.68841309 -130.9125293 49.00182617 -130.64208984 48.29443359 C-126.19461868 37.07379683 -119.99744288 27.06049766 -112 18 C-111.48308594 17.38898438 -110.96617187 16.77796875 -110.43359375 16.1484375 C-84.13064475 -12.72547644 -34.03809171 -14.166953 0 0 Z " fill="#2BA8AA" transform="translate(250,105)"/>
<path d="M0 0 C0 0.66 0 1.32 0 2 C-0.68707031 2.32613281 -1.37414062 2.65226563 -2.08203125 2.98828125 C-3.43361328 3.64376953 -3.43361328 3.64376953 -4.8125 4.3125 C-5.70582031 4.74175781 -6.59914063 5.17101562 -7.51953125 5.61328125 C-9.99443029 6.80769306 -9.99443029 6.80769306 -11.34204102 8.57763672 C-13.63587484 10.54551713 -15.02509596 10.29482735 -18.0078125 10.14453125 C-18.99523437 10.09876953 -19.98265625 10.05300781 -21 10.00585938 C-22.546875 9.91014648 -22.546875 9.91014648 -24.125 9.8125 C-25.13304687 9.76802734 -26.14109375 9.72355469 -27.1796875 9.67773438 C-33.33039738 9.35506112 -39.02898946 8.50826981 -45 7 C-45 6.34 -45 5.68 -45 5 C-45.66 4.67 -46.32 4.34 -47 4 C-46.23042969 4.2165625 -46.23042969 4.2165625 -45.4453125 4.4375 C-31.61001182 7.79151229 -16.60942853 7.39777943 -3.7734375 0.8671875 C-2 0 -2 0 0 0 Z " fill="#23BBAB" transform="translate(366,155)"/>
<path d="M0 0 C0.66 0 1.32 0 2 0 C1.42381249 5.14595054 0.25256722 9.55078055 -1.5625 14.4375 C-2.01753906 15.67371094 -2.47257812 16.90992188 -2.94140625 18.18359375 C-3.29074219 19.11300781 -3.64007813 20.04242188 -4 21 C-5.03159626 17.90521121 -4.97482862 16.47368607 -4.5625 13.3125 C-4.46066406 12.50425781 -4.35882813 11.69601563 -4.25390625 10.86328125 C-4.17011719 10.24839844 -4.08632813 9.63351563 -4 9 C-4.47050781 9.433125 -4.94101562 9.86625 -5.42578125 10.3125 C-6.04839844 10.869375 -6.67101562 11.42625 -7.3125 12 C-8.23482422 12.8353125 -8.23482422 12.8353125 -9.17578125 13.6875 C-11 15 -11 15 -14 15 C-13.24074219 14.25234375 -12.48148437 13.5046875 -11.69921875 12.734375 C-10.69517864 11.73971844 -9.69127983 10.74491923 -8.6875 9.75 C-8.18798828 9.25886719 -7.68847656 8.76773438 -7.17382812 8.26171875 C-5.04102599 6.14304114 -3.04962863 4.06766522 -1.26953125 1.640625 C-0.85058594 1.09921875 -0.43164062 0.5578125 0 0 Z " fill="#2FAFA7" transform="translate(387,134)"/>
<path d="M0 0 C0 0.33 0 0.66 0 1 C-4.64919489 1.7436644 -9.10974665 2.12815606 -13.81640625 2.1328125 C-15.07517578 2.13410156 -16.33394531 2.13539063 -17.63085938 2.13671875 C-18.92830078 2.13285156 -20.22574219 2.12898438 -21.5625 2.125 C-22.86380859 2.12886719 -24.16511719 2.13273437 -25.50585938 2.13671875 C-27.39208008 2.13478516 -27.39208008 2.13478516 -29.31640625 2.1328125 C-31.02485718 2.13112061 -31.02485718 2.13112061 -32.76782227 2.12939453 C-35.92625724 2.00295216 -38.89786825 1.59068671 -42 1 C-42 0.67 -42 0.34 -42 0 C-37.78684004 -0.16982027 -33.57344808 -0.33010041 -29.35961914 -0.48217773 C-27.9311385 -0.53500117 -26.50274582 -0.59026993 -25.07446289 -0.64819336 C-16.64335491 -0.98827663 -8.39603694 -1.07000657 0 0 Z " fill="#29B0A9" transform="translate(228,314)"/>
<path d="M0 0 C0.66 0 1.32 0 2 0 C1.44686437 5.35535861 -0.4278891 9.36562585 -2.875 14.0625 C-3.22691406 14.75666016 -3.57882812 15.45082031 -3.94140625 16.16601562 C-5.83077045 19.86397194 -7.81065995 23.4681401 -10 27 C-10.93065133 24.39417629 -11.14917407 23.35801776 -10.0625 20.75 C-9.711875 20.1725 -9.36125 19.595 -9 19 C-8.34 19 -7.68 19 -7 19 C-6.67 17.35 -6.34 15.7 -6 14 C-5.34 14 -4.68 14 -4 14 C-3.79503906 13.07316406 -3.59007812 12.14632813 -3.37890625 11.19140625 C-3.10949219 9.99386719 -2.84007812 8.79632813 -2.5625 7.5625 C-2.29566406 6.36753906 -2.02882813 5.17257812 -1.75390625 3.94140625 C-1 1 -1 1 0 0 Z " fill="#29B5A9" transform="translate(293,253)"/>
<path d="M0 0 C-4.50620321 2.41403744 -8.14130421 3.12971968 -13.25 3.0625 C-14.14203125 3.05347656 -15.0340625 3.04445313 -15.953125 3.03515625 C-16.62859375 3.02355469 -17.3040625 3.01195312 -18 3 C-18.33 3.66 -18.66 4.32 -19 5 C-19 4.34 -19 3.68 -19 3 C-20.37285156 3.01740234 -20.37285156 3.01740234 -21.7734375 3.03515625 C-23.55621094 3.04869141 -23.55621094 3.04869141 -25.375 3.0625 C-26.55835938 3.07410156 -27.74171875 3.08570313 -28.9609375 3.09765625 C-32 3 -32 3 -34 2 C-34 1.34 -34 0.68 -34 0 C-32.49566406 0.24169922 -32.49566406 0.24169922 -30.9609375 0.48828125 C-21.56203518 1.70253786 -8.19358734 -2.73119578 0 0 Z " fill="#1AC0AF" transform="translate(267,270)"/>
<path d="M0 0 C-3.41636136 2.95680006 -7.14325445 4.30885061 -11.375 5.6875 C-12.02210938 5.91244141 -12.66921875 6.13738281 -13.3359375 6.36914062 C-17.34610591 7.69912592 -20.78445965 8.24144736 -25 8 C-25 7.67 -25 7.34 -25 7 C-24.0925 6.773125 -23.185 6.54625 -22.25 6.3125 C-17.62375609 5.02167431 -13.32898049 3.00765736 -8.96484375 1.0234375 C-5.79076828 -0.07222492 -3.33272889 -0.18817786 0 0 Z " fill="#2FAFA7" transform="translate(253,306)"/>
<path d="M0 0 C4.18149572 0.33904019 7.39567055 1.57779782 11.125 3.375 C16.91533518 6.12282068 22.75123286 7.65864161 29 9 C29 9.33 29 9.66 29 10 C22.40525408 9.96829449 16.68322329 8.40850061 10.5625 6.125 C9.86447266 5.86831543 9.16644531 5.61163086 8.44726562 5.34716797 C5.05585178 4.03369683 2.28606969 2.90322158 0 0 Z " fill="#32ABA6" transform="translate(156,304)"/>
<path d="M0 0 C0.87180908 0.21438721 0.87180908 0.21438721 1.76123047 0.43310547 C8.62414675 1.97965913 15.10961595 2.24103053 22.125 2.125 C23.176875 2.11597656 24.22875 2.10695312 25.3125 2.09765625 C27.87524878 2.07435853 30.43749512 2.04165112 33 2 C29.71700508 3.95622886 27.26162388 4.24662796 23.46484375 4.23046875 C22.40845703 4.22853516 21.35207031 4.22660156 20.26367188 4.22460938 C18.6172168 4.20624023 18.6172168 4.20624023 16.9375 4.1875 C15.83599609 4.18685547 14.73449219 4.18621094 13.59960938 4.18554688 C5.42175854 4.14058618 5.42175854 4.14058618 2 3 C2 2.34 2 1.68 2 1 C1.34 0.67 0.68 0.34 0 0 Z " fill="#32ABA6" transform="translate(319,159)"/>
<path d="M0 0 C0.66 0 1.32 0 2 0 C1.34 3.3 0.68 6.6 0 10 C-0.66 8.68 -1.32 7.36 -2 6 C-4.97 8.97 -7.94 11.94 -11 15 C-11.66 14.67 -12.32 14.34 -13 14 C-12.39671875 13.40832031 -11.7934375 12.81664062 -11.171875 12.20703125 C-6.15955169 7.26179045 -6.15955169 7.26179045 -1.5625 1.9375 C-1.046875 1.298125 -0.53125 0.65875 0 0 Z " fill="#2BB2A8" transform="translate(296,243)"/>
<path d="M0 0 C0.33 0 0.66 0 1 0 C1 1.65 1 3.3 1 5 C0.01 5 -0.98 5 -2 5 C-3.71108689 6.62102968 -5.37253306 8.29503463 -7 10 C-8.64864545 11.35555293 -10.31003995 12.69631653 -12 14 C-12.66 13.67 -13.32 13.34 -14 13 C-13.07316406 12.14535156 -12.14632813 11.29070312 -11.19140625 10.41015625 C-9.98176077 9.29428174 -8.7721259 8.17839573 -7.5625 7.0625 C-6.64500977 6.21655273 -6.64500977 6.21655273 -5.70898438 5.35351562 C-5.12568359 4.81533203 -4.54238281 4.27714844 -3.94140625 3.72265625 C-3.40201416 3.22515869 -2.86262207 2.72766113 -2.30688477 2.21508789 C-1.52614632 1.48918929 -0.75381738 0.75381738 0 0 Z " fill="#17C5B1" transform="translate(294,248)"/>
<path d="M0 0 C5.18703124 0.44144947 9.08055435 1.79625205 13.77734375 4.01171875 C16.79290168 5.35255558 19.80623096 6.18456961 23 7 C18.90313019 8.71399656 15.4538529 7.13960655 11.5 5.75 C10.83613281 5.53214844 10.17226563 5.31429687 9.48828125 5.08984375 C5.85969191 3.8513432 2.90499131 2.51963532 0 0 Z " fill="#2FAEA7" transform="translate(250,197)"/>
<path d="M0 0 C4.69159716 3.38772897 9.0299782 6.78185183 13 11 C9.28400809 11.20086443 8.22791555 11.1519437 5 9 C4.3162955 7.67532254 3.65035814 6.34136367 3 5 C2.46375 4.46375 1.9275 3.9275 1.375 3.375 C0.92125 2.92125 0.4675 2.4675 0 2 C0 1.34 0 0.68 0 0 Z " fill="#27B4AA" transform="translate(298,144)"/>
<path d="M0 0 C4.52615993 3.67832017 8.39424999 7.41086363 12 12 C10.0625 11.6875 10.0625 11.6875 8 11 C7.67 10.01 7.34 9.02 7 8 C5.6846659 7.29848848 4.34882408 6.63474075 3 6 C1.25 4.5625 1.25 4.5625 0 3 C0 2.01 0 1.02 0 0 Z " fill="#27B1AA" transform="translate(189,235)"/>
<path d="M0 0 C4.88049925 3.9419417 9.0580583 8.11950075 13 13 C9.44319572 11.26025877 6.1770945 9.38282087 3 7 C3 6.01 3 5.02 3 4 C2.34 4 1.68 4 1 4 C0.67 2.68 0.34 1.36 0 0 Z " fill="#2CADA8" transform="translate(280,126)"/>
<path d="M0 0 C0.99 0 1.98 0 3 0 C1.54955729 4.10958767 -0.51110752 7.43258745 -3 11 C-3.75 9.4375 -3.75 9.4375 -4 7 C-2.86915563 4.49713591 -1.47860484 2.32992278 0 0 Z " fill="#26B8AA" transform="translate(375,163)"/>
<path d="M0 0 C3.52238047 1.56367357 6.27123994 3.69495889 9.25 6.125 C10.14203125 6.84945312 11.0340625 7.57390625 11.953125 8.3203125 C12.62859375 8.87460938 13.3040625 9.42890625 14 10 C13.01 10.495 13.01 10.495 12 11 C9.33333333 9 6.66666667 7 4 5 C3.25234375 4.48050781 2.5046875 3.96101563 1.734375 3.42578125 C0.87585938 2.72001953 0.87585938 2.72001953 0 2 C0 1.34 0 0.68 0 0 Z " fill="#2EAAA8" transform="translate(266,115)"/>
<path d="M0 0 C-1.6209213 1.17232685 -3.24686833 2.3377077 -4.875 3.5 C-5.77992188 4.1496875 -6.68484375 4.799375 -7.6171875 5.46875 C-10 7 -10 7 -12 7 C-12 6.34 -12 5.68 -12 5 C-11.01 5 -10.02 5 -9 5 C-8.7525 4.38125 -8.505 3.7625 -8.25 3.125 C-6.05756043 -0.60214727 -4.06146667 -1.35382222 0 0 Z " fill="#29B4A9" transform="translate(265,299)"/>
<path d="M0 0 C0.33 0 0.66 0 1 0 C1.36263859 5.8022175 0.25684543 9.63999211 -2 15 C-3.04391334 11.86825999 -3.0069626 10.17503887 -2.6875 6.9375 C-2.60886719 6.05964844 -2.53023438 5.18179688 -2.44921875 4.27734375 C-2 2 -2 2 0 0 Z " fill="#26B8AA" transform="translate(385,140)"/>
<path d="M0 0 C0.33 0 0.66 0 1 0 C1 1.65 1 3.3 1 5 C1.66 5.33 2.32 5.66 3 6 C1.625 8 1.625 8 0 10 C-0.66 10 -1.32 10 -2 10 C-1.54177532 6.53058454 -1.10868317 3.32604951 0 0 Z " fill="#30A8A7" transform="translate(26,269)"/>
<path d="M0 0 C0.66 0.33 1.32 0.66 2 1 C1.24172908 2.17487036 0.46792245 3.33972592 -0.3125 4.5 C-0.74175781 5.1496875 -1.17101562 5.799375 -1.61328125 6.46875 C-2.07089844 6.9740625 -2.52851563 7.479375 -3 8 C-3.99 8 -4.98 8 -6 8 C-4.73058503 4.08597051 -3.48832306 2.20927127 0 0 Z " fill="#24BAAB" transform="translate(281,258)"/>
<path d="M0 0 C-3.74525799 3.74525799 -7.98270909 3.68909949 -13 4 C-9.15294495 0.15294495 -5.29192831 -0.2461362 0 0 Z " fill="#26B8AA" transform="translate(253,306)"/>
<path d="M0 0 C1.32 0.33 2.64 0.66 4 1 C4 1.66 4 2.32 4 3 C4.639375 3.2475 5.27875 3.495 5.9375 3.75 C8 5 8 5 8.62890625 7.078125 C8.81259766 8.02945313 8.81259766 8.02945313 9 9 C7.87105124 8.06725891 6.74699124 7.12859878 5.625 6.1875 C4.99851563 5.66542969 4.37203125 5.14335937 3.7265625 4.60546875 C2 3 2 3 0 0 Z " fill="#2FA9A8" transform="translate(210,165)"/>
<path d="M0 0 C0.99 0.33 1.98 0.66 3 1 C-0.465 3.97 -0.465 3.97 -4 7 C-3.6875 4.625 -3.6875 4.625 -3 2 C-2.01 1.34 -1.02 0.68 0 0 Z " fill="#26B7AB" transform="translate(275,286)"/>
<path d="M0 0 C4.95 0.99 4.95 0.99 10 2 C10 2.66 10 3.32 10 4 C7.36 3.67 4.72 3.34 2 3 C2 2.34 2 1.68 2 1 C1.34 0.67 0.68 0.34 0 0 Z " fill="#29B3A9" transform="translate(319,159)"/>
<path d="M0 0 C3.9492568 0.55105909 7.34920174 1.38935371 11 3 C11 3.33 11 3.66 11 4 C3.49230769 3.38461538 3.49230769 3.38461538 1 1.4375 C0.67 0.963125 0.34 0.48875 0 0 Z " fill="#2AB2A9" transform="translate(156,304)"/>
<path d="M0 0 C0.99 0.33 1.98 0.66 3 1 C3 1.66 3 2.32 3 3 C2.34 3 1.68 3 1 3 C0.34 4.32 -0.32 5.64 -1 7 C-1.66 6.67 -2.32 6.34 -3 6 C-2.01 4.02 -1.02 2.04 0 0 Z " fill="#2BB3A9" transform="translate(364,178)"/>
</svg>
