<?xml version="1.0" encoding="UTF-8"?>
<svg version="1.1" xmlns="http://www.w3.org/2000/svg" width="411" height="411">
<path d="M0 0 C3.1526989 0.93203769 5.6559926 2.28248622 8.49853516 3.93701172 C9.62799561 4.58911621 10.75745605 5.2412207 11.92114258 5.91308594 C13.13708317 6.62411968 14.35298394 7.33522153 15.56884766 8.04638672 C16.82661461 8.77519544 18.08483963 9.5032142 19.34350586 10.23046875 C21.2638135 11.34015152 23.18381204 12.45033208 25.10231018 13.56314087 C31.00022215 16.98335008 36.93727982 20.33211945 42.88134766 23.67138672 C51.43576388 28.49278096 59.91852831 33.42240968 68.36914062 38.42285156 C82.26016108 46.63025348 96.22244592 54.69098024 110.32104492 62.53662109 C118.65078245 67.1831148 126.89405911 71.96698958 135.1159668 76.80126953 C142.14872048 80.92677558 149.24206098 84.92476856 156.42797852 88.77783203 C161.58714459 91.58298058 161.58714459 91.58298058 162.69384766 93.79638672 C162.79786318 96.20535399 162.84164666 98.58581706 162.84101868 100.99533081 C162.84469536 101.74559103 162.84837205 102.49585125 162.85216016 103.26884663 C162.86321966 105.79609989 162.86704463 108.32331207 162.87084961 110.85058594 C162.87711246 112.65717704 162.88375909 114.46376684 162.89076233 116.27035522 C162.90818651 121.18769943 162.91872755 126.1050339 162.92696786 131.02240133 C162.93211408 134.09222808 162.93818992 137.16205178 162.94447899 140.23187637 C162.96353339 149.82990835 162.97776507 159.42793261 162.98609096 169.02597988 C162.99587104 180.11820922 163.02220963 191.21023942 163.06259185 202.30239856 C163.09270988 210.86803736 163.10755565 219.43361892 163.11087197 227.99930966 C163.11322703 233.11914528 163.12224669 238.23876821 163.14733315 243.35854721 C163.17054411 248.17336134 163.17487534 252.98782167 163.16457176 257.80267715 C163.16407462 259.57159855 163.17044744 261.34053695 163.18412781 263.10940552 C163.2017396 265.52119053 163.19479459 267.93169097 163.18159485 270.34347534 C163.19804872 271.39785366 163.19804872 271.39785366 163.21483499 272.47353256 C163.17049191 275.82049549 162.92301503 277.50733476 160.81598186 280.16496468 C158.483343 281.95821528 156.14796463 283.40846987 153.56103516 284.81201172 C152.10503906 285.60478516 152.10503906 285.60478516 150.61962891 286.41357422 C149.61287109 286.95240234 148.60611328 287.49123047 147.56884766 288.04638672 C146.55435547 288.60068359 145.53986328 289.15498047 144.49462891 289.72607422 C136.96555332 293.79638672 136.96555332 293.79638672 134.69384766 293.79638672 C134.36384766 294.45638672 134.03384766 295.11638672 133.69384766 295.79638672 C131.46186519 297.06754251 129.23141738 298.25864875 126.94384766 299.42138672 C120.76145236 302.63049565 114.85372861 306.07851431 108.98681641 309.83935547 C105.53491108 311.89084369 102.00804937 313.65040906 98.40844727 315.42407227 C93.64681754 317.83122405 89.01931001 320.47332771 84.38134766 323.10888672 C83.37168945 323.6806665 82.36203125 324.25244629 81.32177734 324.84155273 C75.06114777 328.40302788 68.8772271 332.04485337 62.80322266 335.91748047 C59.13242281 338.13563967 55.37790667 340.1681768 51.60693359 342.21020508 C47.02236532 344.70651249 42.48472041 347.28421867 37.94384766 349.85888672 C36.96810791 350.40963867 35.99236816 350.96039063 34.98706055 351.52783203 C29.74205742 354.49048544 24.51144415 357.47545682 19.29931641 360.49560547 C18.26581055 361.09042725 17.23230469 361.68524902 16.16748047 362.2980957 C14.18464096 363.43987069 12.20591167 364.58882187 10.23193359 365.74584961 C1.59959481 370.69902074 1.59959481 370.69902074 -3.30615234 370.79638672 C-6.68115234 369.35888672 -6.68115234 369.35888672 -9.30615234 367.79638672 C-9.30615234 367.13638672 -9.30615234 366.47638672 -9.30615234 365.79638672 C-10.40672974 365.62792236 -10.40672974 365.62792236 -11.52954102 365.45605469 C-14.41698707 364.77005458 -16.23933019 363.82694194 -18.73193359 362.24169922 C-22.83155302 359.69700308 -26.96885105 357.23858309 -31.16162109 354.85107422 C-32.05628586 354.34039398 -32.05628586 354.34039398 -32.96902466 353.81939697 C-34.81001158 352.76908225 -36.6518084 351.72019768 -38.49365234 350.67138672 C-39.73785147 349.96185388 -40.98199239 349.25221896 -42.22607422 348.54248047 C-45.585579 346.62620084 -48.9458068 344.71119167 -52.30615234 342.79638672 C-56.40152717 340.46249709 -60.4880362 338.11507446 -64.55615234 335.73388672 C-70.79172198 332.09124868 -77.04159582 328.47359097 -83.29296875 324.8581543 C-87.84586632 322.22406235 -92.3923401 319.57966806 -96.93115234 316.92138672 C-100.8739811 314.61777268 -104.84286922 312.37276801 -108.84130859 310.16748047 C-116.44873328 305.93577514 -123.9865694 301.5781419 -131.49365234 297.17138672 C-137.83245809 293.46251102 -144.27515897 289.95699917 -150.74755859 286.48779297 C-151.50939453 286.07400391 -152.27123047 285.66021484 -153.05615234 285.23388672 C-154.03841797 284.70601563 -154.03841797 284.70601563 -155.04052734 284.16748047 C-156.16201172 283.48878906 -156.16201172 283.48878906 -157.30615234 282.79638672 C-158.49116333 282.28731277 -159.67617432 281.77823883 -160.89709473 281.2537384 C-163.73971531 279.17639539 -164.25795856 278.04204777 -164.94584656 274.53563499 C-165.27634121 270.0627842 -165.18351335 265.5886518 -165.11669922 261.10766602 C-165.11636167 259.37608646 -165.1190937 257.64450398 -165.12466431 255.91293335 C-165.13094683 251.21193793 -165.09387755 246.51216708 -165.04884148 241.8114202 C-165.00877249 236.88912537 -165.00762175 231.96682063 -165.0020752 227.04438782 C-164.98735719 218.77473688 -164.94725852 210.50553949 -164.88916016 202.23608398 C-164.80735889 190.58756599 -164.77083856 178.93923485 -164.74364376 167.29047906 C-164.72096997 158.23382642 -164.68684332 149.17720984 -164.64990234 140.12060547 C-164.64599676 139.15163448 -164.64209118 138.18266349 -164.63806725 137.18432975 C-164.61465963 131.60377745 -164.58526896 126.02330963 -164.54731369 120.44283676 C-164.53643895 118.75462992 -164.52714106 117.06641205 -164.51956558 115.37818718 C-164.50878828 113.06686188 -164.49195197 110.75565689 -164.47351074 108.44438171 C-164.46534081 107.15299129 -164.45717087 105.86160086 -164.44875336 104.53107738 C-164.03454501 93.68304742 -164.03454501 93.68304742 -161.72412109 90.87060547 C-160.98806641 90.41298828 -160.25201172 89.95537109 -159.49365234 89.48388672 C-158.58615234 88.91412109 -157.67865234 88.34435547 -156.74365234 87.75732422 C-150.76911522 84.34912236 -144.75638107 81.01793628 -138.70849609 77.74169922 C-133.4523884 74.88884336 -128.24613932 71.95507676 -123.05615234 68.98388672 C-122.19030518 68.48840332 -121.32445801 67.99291992 -120.43237305 67.48242188 C-114.8225275 64.2625545 -109.23717237 61.00232455 -103.65795898 57.72973633 C-102.67561279 57.15360596 -101.6932666 56.57747559 -100.68115234 55.98388672 C-99.20279907 55.11679077 -99.20279907 55.11679077 -97.69458008 54.23217773 C-88.81942694 49.04960136 -79.84450224 44.05458334 -70.82910156 39.12133789 C-64.15733253 35.45263062 -57.65046969 31.60204261 -51.20605469 27.55224609 C-47.78176414 25.47887535 -44.26233757 23.72413761 -40.66162109 21.98388672 C-38.33917784 20.81303639 -36.14680476 19.53248558 -33.93115234 18.17138672 C-27.89487491 14.46862229 -21.66441605 11.1231997 -15.4375 7.75488281 C-11.81535442 5.78356602 -8.32073519 3.86145394 -5.00927734 1.39794922 C-2.30615234 -0.20361328 -2.30615234 -0.20361328 0 0 Z " fill="#333331" transform="translate(208.30615234375,23.20361328125)"/>
<path d="M0 0 C3.08801757 2.83763777 5.36272244 6.13007121 7 10 C7.226875 9.113125 7.45375 8.22625 7.6875 7.3125 C9.62331533 2.42687083 12.6907959 -0.12719727 17 -3 C25.39524629 -4.78622262 34.79340901 -5.66683619 42.37890625 -1.125 C47.67361508 2.54940034 47.67361508 2.54940034 48.45703125 6.03125 C48.71855507 8.01185707 48.86710842 10.00662625 49 12 C46.69 12 44.38 12 42 12 C41.609375 9.98177083 41.21875 7.96354167 40.828125 5.9453125 C40.14620859 3.91071599 40.14620859 3.91071599 38.42578125 2.76171875 C34.9454407 1.66885819 31.54824338 1.67125003 27.9375 1.6875 C27.21755859 1.67138672 26.49761719 1.65527344 25.75585938 1.63867188 C21.6750602 1.62415961 21.6750602 1.62415961 18.0546875 3.3046875 C16.30743745 6.11323017 16.17142094 8.74300216 16 12 C16.92205631 14.85144582 17.57755836 15.77557788 20.25 17.1953125 C21.61125 17.65550781 21.61125 17.65550781 23 18.125 C24.47919922 18.62580078 24.47919922 18.62580078 25.98828125 19.13671875 C28.72518033 19.92122549 31.38213008 20.47211305 34.1875 20.9375 C39.27018214 21.83587216 42.85803487 24.01548933 47 27 C47.99 27.66 48.98 28.32 50 29 C51.20254037 32.93885979 51.59895947 37.11806227 50.33984375 41.07421875 C47.74053328 45.92556339 44.37154221 49.04450908 39.3046875 51.0859375 C35.58364746 52.11516134 32.35789846 52.30073811 28.5 52.3125 C27.2315625 52.32925781 25.963125 52.34601563 24.65625 52.36328125 C20.72498519 51.97267481 18.34447806 51.06455317 15 49 C13.65705519 47.34106818 12.32255312 45.67523395 11 44 C9.11099997 43.07201918 9.11099997 43.07201918 7 43 C5.27322186 44.08829446 5.27322186 44.08829446 3.75 45.75 C-3.39640044 52.20578191 -10.08273369 52.34071794 -19.4140625 52.3984375 C-26.3424281 51.6286191 -30.30843928 48.29602811 -34.65234375 43.140625 C-36.70927894 39.87337722 -36.54821716 37.75920335 -36 34 C-33.375 33.375 -33.375 33.375 -30 34 C-28.13410723 36.45719682 -26.72637302 38.98265803 -25.296875 41.71484375 C-24.2077419 44.12827599 -24.2077419 44.12827599 -22 45 C-19.73167291 45.12362239 -17.45916213 45.17560648 -15.1875 45.1875 C-13.96417969 45.20167969 -12.74085938 45.21585938 -11.48046875 45.23046875 C-8.12043345 45.00797483 -5.94607238 44.59204271 -3 43 C-0.54589642 39.31884463 -0.76712157 37.34706402 -1 33 C-1.33 32.01 -1.66 31.02 -2 30 C-8.09729345 27.47185394 -14.70981931 26.22713501 -21.1875 25.0625 C-26.27825457 24.04902665 -29.38447302 22.39721252 -33.3125 19 C-35.90186683 14.39668119 -35.96513087 10.14982046 -35 5 C-32.87282969 0.76820889 -30.18621051 -1.44320731 -25.9375 -3.4375 C-16.82196647 -4.73971908 -7.91338569 -5.38572805 0 0 Z " fill="#383836" transform="translate(314,192)"/>
<path d="M0 0 C5.65914436 2.55574261 9.31064065 8.2177432 11.73828125 13.734375 C12.84356405 18.19741264 12.89192792 22.41930436 12.875 27 C12.89111328 27.86818359 12.90722656 28.73636719 12.92382812 29.63085938 C12.92992071 37.69134723 10.68731196 43.69111216 5.5625 50.0625 C-1.47694865 55.44731536 -7.65334133 56.80221862 -16.4375 56.0625 C-21.76483248 54.80683758 -25.20146371 52.50273281 -29.4375 49.0625 C-29.46255615 49.84488037 -29.4876123 50.62726074 -29.51342773 51.43334961 C-29.62899788 54.95574949 -29.75189949 58.4778556 -29.875 62 C-29.93397461 63.84754883 -29.93397461 63.84754883 -29.99414062 65.73242188 C-30.03603516 66.90224609 -30.07792969 68.07207031 -30.12109375 69.27734375 C-30.17608032 70.90337524 -30.17608032 70.90337524 -30.23217773 72.56225586 C-30.4375 75.0625 -30.4375 75.0625 -31.4375 76.0625 C-33.4175 76.0625 -35.3975 76.0625 -37.4375 76.0625 C-37.4375 51.3125 -37.4375 26.5625 -37.4375 1.0625 C-35.4575 1.0625 -33.4775 1.0625 -31.4375 1.0625 C-31.4375 3.7025 -31.4375 6.3425 -31.4375 9.0625 C-30.7775 9.0625 -30.1175 9.0625 -29.4375 9.0625 C-29.210625 8.485 -28.98375 7.9075 -28.75 7.3125 C-22.95582422 -2.62037276 -9.99428991 -2.90600178 0 0 Z " fill="#373735" transform="translate(188.4375,187.9375)"/>
<path d="M0 0 C5.39947042 4.6754035 8.02374143 8.94924366 9 16 C9 18.97 9 21.94 9 25 C-5.19 25 -19.38 25 -34 25 C-32.61077099 32.02490865 -32.61077099 32.02490865 -31 39 C-29.68352881 39.69937532 -28.34977849 40.36729133 -27 41 C-26.67 41.99 -26.34 42.98 -26 44 C-20.60068515 46.1958936 -13.6701991 45.57953254 -8 45 C-3.13967773 42.94609332 -0.97483958 38.71767233 1 34 C3.31 34 5.62 34 8 34 C8 35.32 8 36.64 8 38 C7.34 38 6.68 38 6 38 C5.79375 38.886875 5.5875 39.77375 5.375 40.6875 C3.17326828 45.99167186 -0.26880783 48.13545567 -5.21484375 50.60546875 C-11.53798777 53.21392197 -18.34070374 52.93416982 -25 52 C-31.3164598 49.03756333 -36.26961646 43.73104863 -38.67578125 37.15234375 C-41.21188116 27.92232028 -41.85143366 16.54460287 -37.27734375 7.93359375 C-34.04561452 3.04152657 -30.50289905 -2.10182076 -24.5625 -3.625 C-15.76087097 -4.55148727 -7.59893209 -5.18241346 0 0 Z " fill="#ECECEA" transform="translate(94,192)"/>
<path d="M0 0 C4.13191316 2.57456899 7.70819789 5.61822114 8.8984375 10.5390625 C9.15146483 12.47437967 9.27418024 14.42581793 9.375 16.375 C10.035 16.375 10.695 16.375 11.375 16.375 C11.375 20.005 11.375 23.635 11.375 27.375 C-2.485 27.375 -16.345 27.375 -30.625 27.375 C-28.67205743 36.99443442 -28.67205743 36.99443442 -23.8125 45.3125 C-17.76120496 48.25170045 -9.76446005 48.42148668 -3.4375 46.3125 C-0.31318274 44.16019255 1.57608776 41.76937922 3.91796875 38.828125 C5.375 37.375 5.375 37.375 8.25 36.9375 C8.95125 37.081875 9.6525 37.22625 10.375 37.375 C9.80953326 41.33326719 8.73953668 44.134709 6.375 47.375 C4.1875 48.6875 4.1875 48.6875 2.375 49.375 C2.375 50.035 2.375 50.695 2.375 51.375 C-5.25720702 54.96662683 -12.93842523 55.66155538 -21.21484375 53.7890625 C-27.41028971 51.48033221 -31.37103157 47.05636609 -34.625 41.375 C-34.625 40.385 -34.625 39.395 -34.625 38.375 C-35.285 38.375 -35.945 38.375 -36.625 38.375 C-38.86994135 31.64017596 -38.76840971 21.42293033 -36.375 14.75 C-29.21946594 0.95004145 -15.49817138 -7.11197157 0 0 Z " fill="#EBEBE9" transform="translate(264.625,189.625)"/>
<path d="M0 0 C1.5 1.3125 1.5 1.3125 3 3 C3 3.99 3 4.98 3 6 C3.66 6 4.32 6 5 6 C5 4.02 5 2.04 5 0 C5.33 0 5.66 0 6 0 C6.01417969 0.58007812 6.02835937 1.16015625 6.04296875 1.7578125 C6.41492601 7.84986927 7.44946229 10.85395453 12 15 C16.10559555 16.63415407 20.00194815 17.35616334 24.375 17.875 C30.05736343 18.69975446 34.12808133 19.9665412 39 23 C41.50031654 26.75047482 41.53603554 28.55856266 41 33 C38.45862841 36.15954305 36.85377341 37.71540886 33 39 C20.55895197 40.069869 20.55895197 40.069869 15.8125 36.8125 C15.214375 35.884375 14.61625 34.95625 14 34 C13.401875 33.113125 12.80375 32.22625 12.1875 31.3125 C11 29 11 29 11 27 C9.02 27 7.04 27 5 27 C5 28.98 5 30.96 5 33 C3.35 33.66 1.7 34.32 0 35 C0.66 32.69 1.32 30.38 2 28 C-2.24618073 28.90989587 -4.40494267 30.17977903 -7.0625 33.5 C-9.50782756 36.53144989 -11.05942379 38.17522823 -15 39 C-21.80236666 39.57865123 -27.71731491 38.86516198 -33.75 35.4375 C-38.46314449 30.33159347 -39 24.77225572 -39 18 C-25.14 18 -11.28 18 3 18 C3 14.37 3 10.74 3 7 C2.34 7 1.68 7 1 7 C0.505 3.535 0.505 3.535 0 0 Z " fill="#3B3B39" transform="translate(273,199)"/>
<path d="M0 0 C5.65914436 2.55574261 9.31064065 8.2177432 11.73828125 13.734375 C12.84356405 18.19741264 12.89192792 22.41930436 12.875 27 C12.89111328 27.86818359 12.90722656 28.73636719 12.92382812 29.63085938 C12.92992071 37.69134723 10.68731196 43.69111216 5.5625 50.0625 C-1.47694865 55.44731536 -7.65334133 56.80221862 -16.4375 56.0625 C-21.76483248 54.80683758 -25.20146371 52.50273281 -29.4375 49.0625 C-29.46255615 49.84488037 -29.4876123 50.62726074 -29.51342773 51.43334961 C-29.62899788 54.95574949 -29.75189949 58.4778556 -29.875 62 C-29.93397461 63.84754883 -29.93397461 63.84754883 -29.99414062 65.73242188 C-30.03603516 66.90224609 -30.07792969 68.07207031 -30.12109375 69.27734375 C-30.17608032 70.90337524 -30.17608032 70.90337524 -30.23217773 72.56225586 C-30.4375 75.0625 -30.4375 75.0625 -31.4375 76.0625 C-33.4175 76.0625 -35.3975 76.0625 -37.4375 76.0625 C-37.4375 51.3125 -37.4375 26.5625 -37.4375 1.0625 C-35.4575 1.0625 -33.4775 1.0625 -31.4375 1.0625 C-31.4375 3.7025 -31.4375 6.3425 -31.4375 9.0625 C-30.7775 9.0625 -30.1175 9.0625 -29.4375 9.0625 C-29.210625 8.485 -28.98375 7.9075 -28.75 7.3125 C-22.95582422 -2.62037276 -9.99428991 -2.90600178 0 0 Z M-26.3125 10.9375 C-31.73126129 17.32823641 -30.98943103 25.16427364 -30.61230469 33.15673828 C-30.07890592 38.97197683 -27.40998755 43.41349599 -23.5 47.625 C-19.24254683 50.94969228 -14.73435406 50.65923731 -9.5234375 50.56640625 C-3.26384149 49.54426969 -0.12564717 46.01238172 3.5625 41.0625 C7.78895967 33.95066883 7.77156476 25.71417479 6.05859375 17.70703125 C3.9499223 12.24858457 -0.60959958 8.17244316 -5.4375 5.0625 C-13.34492483 3.8306901 -20.80048944 4.92236474 -26.3125 10.9375 Z " fill="#EDEDEC" transform="translate(188.4375,187.9375)"/>
<path d="M0 0 C3.27209245 2.74085861 4.9074291 5.00023426 5.3125 9.375 C5.209375 10.24125 5.10625 11.1075 5 12 C2.69 12 0.38 12 -2 12 C-2.226875 11.071875 -2.45375 10.14375 -2.6875 9.1875 C-4.28712397 5.30269893 -5.20933019 4.69370353 -9 3 C-11.85672736 2.79015225 -14.47201222 2.71350177 -17.3125 2.8125 C-18.05306641 2.82603516 -18.79363281 2.83957031 -19.55664062 2.85351562 C-21.37141075 2.88864021 -23.18580288 2.94244028 -25 3 C-26.92162094 6.55231919 -27.4249581 8.92040226 -27 13 C-25.40013654 15.87757011 -24.31156695 16.86855769 -21.25 18.16015625 C-20.1775 18.45792969 -19.105 18.75570312 -18 19.0625 C-16.26556641 19.56523437 -16.26556641 19.56523437 -14.49609375 20.078125 C-12.31206911 20.65402423 -10.11725722 21.19194913 -7.91015625 21.671875 C-2.40689493 22.90992007 1.6146777 24.14760314 5.02734375 28.84375 C6.9979353 33.21229031 7.00871199 37.36537732 6 42 C3.79537391 46.40925219 0.80230702 48.54779059 -3.4375 50.9375 C-10.44081 53.11841472 -19.41066928 53.43747468 -26.21875 50.7109375 C-30.3717947 48.15611506 -33.3995165 45.13062306 -36 41 C-36.5575834 38.37491709 -36.39336216 36.69734055 -36 34 C-33.375 33.375 -33.375 33.375 -30 34 C-28.13410723 36.45719682 -26.72637302 38.98265803 -25.296875 41.71484375 C-24.2077419 44.12827599 -24.2077419 44.12827599 -22 45 C-19.73167291 45.12362239 -17.45916213 45.17560648 -15.1875 45.1875 C-13.96417969 45.20167969 -12.74085938 45.21585938 -11.48046875 45.23046875 C-8.12043345 45.00797483 -5.94607238 44.59204271 -3 43 C-0.54589642 39.31884463 -0.76712157 37.34706402 -1 33 C-1.33 32.01 -1.66 31.02 -2 30 C-8.09729345 27.47185394 -14.70981931 26.22713501 -21.1875 25.0625 C-26.27825457 24.04902665 -29.38447302 22.39721252 -33.3125 19 C-35.90186683 14.39668119 -35.96513087 10.14982046 -35 5 C-32.87282969 0.76820889 -30.18621051 -1.44320731 -25.9375 -3.4375 C-16.79064186 -4.74419402 -7.95221744 -5.35658722 0 0 Z " fill="#E9E9E8" transform="translate(314,192)"/>
<path d="M0 0 C2.31309277 3.33085359 2.29442276 6.22884139 2.5625 10.25 C0.2525 10.25 -2.0575 10.25 -4.4375 10.25 C-4.828125 8.23177083 -5.21875 6.21354167 -5.609375 4.1953125 C-6.29129141 2.16071599 -6.29129141 2.16071599 -8.01171875 1.01171875 C-11.4920593 -0.08114181 -14.88925662 -0.07874997 -18.5 -0.0625 C-19.21994141 -0.07861328 -19.93988281 -0.09472656 -20.68164062 -0.11132812 C-24.7624398 -0.12584039 -24.7624398 -0.12584039 -28.3828125 1.5546875 C-30.13006255 4.36323017 -30.26607906 6.99300216 -30.4375 10.25 C-29.51544369 13.10144582 -28.85994164 14.02557788 -26.1875 15.4453125 C-25.28 15.75210938 -24.3725 16.05890625 -23.4375 16.375 C-22.45136719 16.70886719 -21.46523438 17.04273438 -20.44921875 17.38671875 C-17.71231967 18.17122549 -15.05536992 18.72211305 -12.25 19.1875 C-7.16731786 20.08587216 -3.57946513 22.26548933 0.5625 25.25 C1.5525 25.91 2.5425 26.57 3.5625 27.25 C4.76504037 31.18885979 5.16145947 35.36806227 3.90234375 39.32421875 C1.30303328 44.17556339 -2.06595779 47.29450908 -7.1328125 49.3359375 C-10.85385254 50.36516134 -14.07960154 50.55073811 -17.9375 50.5625 C-19.2059375 50.57925781 -20.474375 50.59601563 -21.78125 50.61328125 C-26.57198221 50.13727901 -29.82301597 48.80694477 -33.30078125 45.453125 C-36.62033636 40.97933106 -38.20420913 37.84898084 -38.4375 32.25 C-36.4575 32.25 -34.4775 32.25 -32.4375 32.25 C-32.14617187 32.87648437 -31.85484375 33.50296875 -31.5546875 34.1484375 C-29.06447104 39.25632519 -29.06447104 39.25632519 -24.8125 42.8125 C-18.25778604 43.66218514 -11.90062241 43.71092279 -5.4375 42.25 C-4.5255791 39.5142373 -4.21505178 37.59374032 -4.125 34.75 C-4.08761719 33.9765625 -4.05023438 33.203125 -4.01171875 32.40625 C-4.23980754 30.11210328 -4.23980754 30.11210328 -6.17944336 28.69311523 C-8.52044213 27.19699201 -10.29126902 26.5876243 -12.9921875 26.00390625 C-13.85457031 25.80603516 -14.71695312 25.60816406 -15.60546875 25.40429688 C-17.40188631 25.01157356 -19.19875956 24.62092861 -20.99609375 24.23242188 C-27.19014275 22.80622132 -31.79414851 21.02719207 -36.2890625 16.3046875 C-38.41904269 12.49390661 -37.92529634 8.47979563 -37.4375 4.25 C-36.17684241 0.60072803 -35.17927994 -1.15245505 -32.1875 -3.5625 C-21.18499762 -8.31358057 -9.45857866 -6.79077442 0 0 Z " fill="#E9E9E8" transform="translate(360.4375,193.75)"/>
<path d="M0 0 C2.75 -0.28125 2.75 -0.28125 6 0 C8.125 1.90625 8.125 1.90625 10 4.5 C10.67417969 5.40492188 11.34835938 6.30984375 12.04296875 7.2421875 C12.68878906 8.15226563 13.33460937 9.06234375 14 10 C15.09869074 11.54557394 16.20223944 13.08771615 17.3125 14.625 C17.76238281 15.27726563 18.21226563 15.92953125 18.67578125 16.6015625 C19.11277344 17.06304687 19.54976562 17.52453125 20 18 C20.99 18 21.98 18 23 18 C24.68264206 16.0442559 24.68264206 16.0442559 26.25 13.5 C33.48864623 2.82451754 33.48864623 2.82451754 37 0 C40.9375 -0.5 40.9375 -0.5 44 0 C42.37940026 3.54506192 40.27370948 6.59021257 38 9.75 C36.948125 11.22726563 36.948125 11.22726563 35.875 12.734375 C35.25625 13.48203125 34.6375 14.2296875 34 15 C33.34 15 32.68 15 32 15 C31.731875 15.721875 31.46375 16.44375 31.1875 17.1875 C30 20 30 20 28.3125 22.5625 C26.82628394 24.80017699 26.82628394 24.80017699 27.12890625 26.76953125 C28.38511644 29.98610531 30.48005965 32.46284277 32.625 35.125 C33.53284274 36.27869637 34.43907865 37.43365886 35.34375 38.58984375 C35.79234375 39.16202637 36.2409375 39.73420898 36.703125 40.32373047 C45 51.04781627 45 51.04781627 45 54 C42.11381821 54.58243 40.75737019 54.83413444 38 54 C35.01458302 51.0900352 32.87208488 47.68269919 30.625 44.1875 C29.99722656 43.25873047 29.36945313 42.32996094 28.72265625 41.37304688 C24.20571608 34.61714824 24.20571608 34.61714824 23 31 C18.86450143 32.37849952 17.41863478 35.29106811 15.0625 38.75 C14.2005701 39.99572777 13.33730854 41.24053529 12.47265625 42.484375 C11.85028076 43.38446289 11.85028076 43.38446289 11.21533203 44.30273438 C10.11835187 45.83471631 8.93645054 47.30501389 7.74609375 48.765625 C5.82492601 50.9669155 5.82492601 50.9669155 5 54 C2.36 54 -0.28 54 -3 54 C-1.66012316 50.169847 0.02232134 47.47540207 2.625 44.375 C5.64821495 40.68303001 8.5937906 36.95760294 11.4375 33.125 C12.09621094 32.24070313 12.75492188 31.35640625 13.43359375 30.4453125 C14.9376264 28.09737125 15.66751906 26.73333992 16 24 C15.1096282 22.07354393 15.1096282 22.07354393 13.61328125 20.28515625 C13.08669922 19.59873047 12.56011719 18.91230469 12.01757812 18.20507812 C11.45490234 17.49802734 10.89222656 16.79097656 10.3125 16.0625 C9.76916016 15.35931641 9.22582031 14.65613281 8.66601562 13.93164062 C6.36584693 10.96395019 4.03794967 8.04463574 1.60546875 5.18359375 C0 3 0 3 0 0 Z " fill="#E6E6E5" transform="translate(104,189)"/>
<path d="M0 0 C0.70318359 -0.02384766 1.40636719 -0.04769531 2.13085938 -0.07226562 C6.08197642 -0.06115658 7.88812755 0.42503177 11.015625 2.890625 C13.30465059 5.8785897 13.80320813 7.84598315 14.0625 11.5625 C16.3725 11.5625 18.6825 11.5625 21.0625 11.5625 C20.5675 8.5925 20.5675 8.5925 20.0625 5.5625 C21.3825 6.5525 22.7025 7.5425 24.0625 8.5625 C24.7225 6.5825 25.3825 4.6025 26.0625 2.5625 C26.3925 2.5625 26.7225 2.5625 27.0625 2.5625 C27.12069473 6.62493957 27.15616215 10.68727146 27.1875 14.75 C27.20425781 15.90048828 27.22101563 17.05097656 27.23828125 18.23632812 C27.24794922 19.90405273 27.24794922 19.90405273 27.2578125 21.60546875 C27.27352295 23.13723755 27.27352295 23.13723755 27.28955078 24.69995117 C27.05113888 27.70573563 26.2832317 29.82521691 25.0625 32.5625 C24.73566234 34.22262782 24.44360169 35.88999913 24.1875 37.5625 C23.39548804 41.84191947 22.20553198 44.41946802 19.0625 47.5625 C18.4025 47.2325 17.7425 46.9025 17.0625 46.5625 C18.0215625 45.6034375 18.0215625 45.6034375 19 44.625 C22.3673206 39.62503911 22.0625 34.45234243 22.0625 28.5625 C21.48628906 28.2840625 20.91007812 28.005625 20.31640625 27.71875 C18.0625 26.5625 18.0625 26.5625 16.08984375 25.34375 C11.00434153 22.22590939 6.65333625 20.96514695 0.78515625 20.08203125 C-3.37642764 19.28792701 -7.40571699 17.9377211 -10.9375 15.5625 C-12.81469998 12.69699225 -12.93902571 11.60522 -12.8125 8.0625 C-11.00049037 0.81446148 -6.92112822 -0.10725541 0 0 Z " fill="#3D3D3B" transform="translate(341.9375,192.4375)"/>
<path d="M0 0 C5.94 0 11.88 0 18 0 C18.33 2.97 18.66 5.94 19 9 C18.34 9 17.68 9 17 9 C17 6.36 17 3.72 17 1 C15.02 1 13.04 1 11 1 C11 25.42 11 49.84 11 75 C10.67 75 10.34 75 10 75 C10 68.73 10 62.46 10 56 C7.03 56 4.06 56 1 56 C1.33 55.34 1.66 54.68 2 54 C4.31 54.33 6.62 54.66 9 55 C3.86835099 46.56485193 -1.81646602 38.88566556 -8.234375 31.390625 C-10 29 -10 29 -10.0625 26.125 C-8.73933538 22.23333934 -6.84151342 18.99199855 -4 16 C-3.34 16 -2.68 16 -2 16 C-1.75507813 15.28457031 -1.51015625 14.56914062 -1.2578125 13.83203125 C0.15359676 10.65416879 1.91281519 8.36353001 4.125 5.6875 C4.84945312 4.80449219 5.57390625 3.92148438 6.3203125 3.01171875 C6.87460938 2.34785156 7.42890625 1.68398437 8 1 C5.36 1.33 2.72 1.66 0 2 C0 1.34 0 0.68 0 0 Z " fill="#353533" transform="translate(140,188)"/>
<path d="M0 0 C14.19 0 28.38 0 43 0 C43 0.33 43 0.66 43 1 C29.8 1.33 16.6 1.66 3 2 C15.87 2 28.74 2 42 2 C44.08954032 6.17908064 44.16552619 6.80410573 43 11 C42.505 10.01 42.505 10.01 42 9 C38.59385054 9.02126462 38.59385054 9.02126462 35 10 C33.35814007 12.78287055 33.35814007 12.78287055 32 16 C28.95220444 19.78915123 27.50418078 20.83053945 22.63671875 21.37890625 C10.7004997 21.56482867 10.7004997 21.56482867 6.3671875 17.44921875 C1.19943164 11.34802008 0 8.36933092 0 0 Z " fill="#3B3B39" transform="translate(60,217)"/>
<path d="M0 0 C1.11503906 -0.00515625 2.23007813 -0.0103125 3.37890625 -0.015625 C7.44516941 0.33751152 9.40454305 1.10806135 12.140625 4.1328125 C12.65109375 4.87273437 13.1615625 5.61265625 13.6875 6.375 C14.46867187 7.46167969 14.46867187 7.46167969 15.265625 8.5703125 C16.4375 11.25 16.4375 11.25 16.4375 19.25 C4.8875 19.25 -6.6625 19.25 -18.5625 19.25 C-17.45138889 8.13888889 -17.45138889 8.13888889 -13.328125 3.625 C-9.1478789 0.36958711 -5.19067334 -0.02405874 0 0 Z " fill="#3D3D3B" transform="translate(79.5625,192.75)"/>
<path d="M0 0 C14.35255958 -0.57495417 14.35255958 -0.57495417 19 3 C23.55789612 8.17382803 23.16082605 10.44743449 24 18 C12.45 18 0.9 18 -11 18 C-11 11.23843416 -11 11.23843416 -9.0625 7.6875 C-8.70285156 7.01074219 -8.34320313 6.33398438 -7.97265625 5.63671875 C-7 4 -7 4 -6 3 C-4.33382885 2.95936168 -2.66611905 2.957279 -1 3 C-0.67 2.01 -0.34 1.02 0 0 Z " fill="#353533" transform="translate(246,194)"/>
<path d="M0 0 C0 2.31 0 4.62 0 7 C-0.66386719 7.08636719 -1.32773438 7.17273438 -2.01171875 7.26171875 C-6.38412212 7.95747345 -9.37475182 8.54408987 -13 11.1875 C-16.94827399 16.7397603 -17.30980204 22.75584595 -17.4140625 29.33984375 C-17.43342865 30.10680069 -17.4527948 30.87375763 -17.4727478 31.66395569 C-17.53202558 34.08836106 -17.57871911 36.51281528 -17.625 38.9375 C-17.66322762 40.59181638 -17.70228206 42.24611387 -17.7421875 43.90039062 C-17.83768363 47.93343844 -17.92190307 51.96657927 -18 56 C-20.31 56 -22.62 56 -25 56 C-25 37.85 -25 19.7 -25 1 C-22.69 1 -20.38 1 -18 1 C-17.67 3.31 -17.34 5.62 -17 8 C-16.2575 7.236875 -15.515 6.47375 -14.75 5.6875 C-13.8425 4.800625 -12.935 3.91375 -12 3 C-11.401875 2.401875 -10.80375 1.80375 -10.1875 1.1875 C-6.7951681 -0.65405161 -3.82214982 -0.19110749 0 0 Z " fill="#E2E2E1" transform="translate(231,187)"/>
<path d="M0 0 C2.41879616 2.41879616 2.23872654 3.65999036 2.26282471 6.95999908 C2.25768115 7.65317986 2.25253759 8.34636063 2.24723816 9.06054688 C2.24965257 9.79588402 2.25206699 10.53122116 2.25455457 11.28884125 C2.26021357 13.76556643 2.25151199 16.2420362 2.24291992 18.71875 C2.24399226 20.48917715 2.24593022 22.25960395 2.24867249 24.0300293 C2.2535317 28.84810778 2.24585176 33.66609405 2.23571944 38.48416138 C2.22695632 43.5174347 2.22869605 48.55070498 2.2290802 53.58398438 C2.22814276 62.03777618 2.21944807 70.49153215 2.20581055 78.9453125 C2.19008419 88.73033297 2.1848124 98.51531418 2.1855461 108.30034637 C2.18615573 117.69869026 2.18105625 127.0970213 2.17275429 136.49536133 C2.16921647 140.50171 2.16739033 144.50805414 2.16686058 148.5144043 C2.16585856 153.22898809 2.15977349 157.94353871 2.14969444 162.65811157 C2.14676507 164.39238278 2.14554495 166.12665781 2.14612198 167.8609314 C2.1466101 170.22047431 2.14098242 172.57992326 2.13371277 174.93945312 C2.13526137 175.6326339 2.13680997 176.32581467 2.1384055 177.04000092 C2.11417893 181.77164214 2.11417893 181.77164214 1 184 C0.34 184 -0.32 184 -1 184 C-1.17712151 174.0469801 -1.34306621 164.09384246 -1.49477577 154.14040089 C-1.56557243 149.51853677 -1.64020612 144.89680125 -1.72363281 140.27514648 C-1.80401438 135.81434114 -1.87428537 131.35348022 -1.93757248 126.89240074 C-1.96348006 125.19111967 -1.99301983 123.48988987 -2.02626419 121.78873634 C-2.07223438 119.40452068 -2.10524329 117.02044894 -2.13525391 114.63598633 C-2.1517952 113.93395584 -2.16833649 113.23192535 -2.18537903 112.50862122 C-2.21995133 108.51261602 -1.66041228 105.6197778 0 102 C0.2882358 99.21755371 0.2882358 99.21755371 0.23046875 96.2890625 C0.22756836 94.66871094 0.22756836 94.66871094 0.22460938 93.015625 C0.21236328 91.89671875 0.20011719 90.7778125 0.1875 89.625 C0.18685547 88.51382813 0.18621094 87.40265625 0.18554688 86.2578125 C0.16281353 82.01425524 0.13747842 77.92001103 -0.49072266 73.71606445 C-1.09358665 69.3171225 -1.22805882 65.00068037 -1.31640625 60.56640625 C-1.33718735 59.68846909 -1.35796844 58.81053192 -1.37937927 57.9059906 C-1.44431945 55.12490015 -1.50349927 52.34372215 -1.5625 49.5625 C-1.60573814 47.66730896 -1.64935405 45.7721265 -1.69335938 43.87695312 C-1.79994322 39.25138987 -1.90136408 34.62573929 -2 30 C-1.34 30 -0.68 30 0 30 C0 20.1 0 10.2 0 0 Z " fill="#2C2829" transform="translate(368,118)"/>
<path d="M0 0 C0.66 0.66 1.32 1.32 2 2 C1.35056521 2.36321067 0.70113043 2.72642134 0.0320158 3.10063839 C-2.27136619 4.8728206 -2.27136619 4.8728206 -2.50501537 7.84887791 C-2.50740373 9.0173775 -2.50979208 10.18587709 -2.51225281 11.38978577 C-2.51904849 12.04118434 -2.52584418 12.69258291 -2.5328458 13.36372083 C-2.55083491 15.55149676 -2.54032481 17.73821316 -2.5300293 19.92602539 C-2.53712581 21.49331014 -2.54598865 23.06058775 -2.55648804 24.62785339 C-2.58015737 28.89329626 -2.57935676 33.15843387 -2.57457328 37.42392659 C-2.57397978 41.89990002 -2.5966814 46.37575142 -2.61714172 50.85166931 C-2.65261695 59.35121416 -2.66857631 67.85067357 -2.6769169 76.35028404 C-2.68980286 88.76101658 -2.72839278 101.17167328 -2.77101612 113.58233547 C-2.77415481 114.49815759 -2.77729349 115.41397971 -2.78052729 116.35755402 C-2.78681198 118.18672934 -2.79315569 120.01590446 -2.79955989 121.84507936 C-2.8174603 127.15636905 -2.82868956 132.46761762 -2.83385694 137.7789346 C-2.83774058 141.11326667 -2.84537957 144.44758431 -2.8536644 147.78190804 C-2.85657851 149.30788953 -2.85787036 150.83387531 -2.85725212 152.35985947 C-2.85370499 163.27073242 -3.30406948 174.11152995 -4 185 C-4.33 185 -4.66 185 -5 185 C-5.02333834 161.45234517 -5.04098379 137.90469207 -5.05181217 114.35702801 C-5.05697313 103.42396852 -5.06401205 92.49091621 -5.07543945 81.55786133 C-5.08539237 72.03098429 -5.09185488 62.50411246 -5.09408849 52.97723037 C-5.09539456 47.93069777 -5.0984739 42.88418005 -5.10573006 37.83765221 C-5.11249983 33.09109068 -5.11461499 28.34455021 -5.11310768 23.59798431 C-5.11338358 21.85284371 -5.11538303 20.10770243 -5.11920547 18.36256599 C-5.12415764 15.98575902 -5.12299261 13.60903222 -5.12025452 11.23222351 C-5.12316736 10.53670039 -5.1260802 9.84117728 -5.12908131 9.1245777 C-5.11970685 6.12789419 -4.95661501 3.86984504 -4 1 C-2.0625 0.1875 -2.0625 0.1875 0 0 Z " fill="#2A2526" transform="translate(51,113)"/>
<path d="M0 0 C0.33 0 0.66 0 1 0 C1 24.42 1 48.84 1 74 C2.32 74 3.64 74 5 74 C5 64.43 5 54.86 5 45 C5.99 45 6.98 45 8 45 C7.88201748 49.11193736 7.75778941 53.22363288 7.62768555 57.33520508 C7.58428566 58.73489199 7.54261436 60.13463359 7.50268555 61.53442383 C7.44510555 63.54261495 7.38086 65.55061149 7.31640625 67.55859375 C7.26141968 69.37315063 7.26141968 69.37315063 7.20532227 71.22436523 C7 74 7 74 6 75 C4.02 75 2.04 75 0 75 C0 50.25 0 25.5 0 0 Z " fill="#BCBCBB" transform="translate(151,189)"/>
<path d="M0 0 C5.94 0 11.88 0 18 0 C18.33 2.97 18.66 5.94 19 9 C18.34 9 17.68 9 17 9 C17 6.36 17 3.72 17 1 C15.02 1 13.04 1 11 1 C11 25.42 11 49.84 11 75 C10.67 75 10.34 75 10 75 C10 68.73 10 62.46 10 56 C7.03 56 4.06 56 1 56 C1.33 55.34 1.66 54.68 2 54 C4.31 54.33 6.62 54.66 9 55 C8.505 53.515 8.505 53.515 8 52 C8.66 52 9.32 52 10 52 C10 36.49 10 20.98 10 5 C8.35 5.33 6.7 5.66 5 6 C5.99 4.35 6.98 2.7 8 1 C5.36 1.33 2.72 1.66 0 2 C0 1.34 0 0.68 0 0 Z " fill="#5F5F5D" transform="translate(140,188)"/>
<path d="M0 0 C0.5165918 0.64743164 1.03318359 1.29486328 1.56542969 1.96191406 C4.79512609 4.66563503 6.77691982 4.53859186 10.953125 4.609375 C11.61334656 4.62591125 12.27356812 4.64244751 12.95379639 4.65948486 C15.05262626 4.70788451 17.15073222 4.72931519 19.25 4.75 C20.6771196 4.77816683 22.10420559 4.80809528 23.53125 4.83984375 C27.02067609 4.91363763 30.50996472 4.96326279 34 5 C34.33 3.68 34.66 2.36 35 1 C35 2.65 35 4.3 35 6 C23.45 6 11.9 6 0 6 C0 4.02 0 2.04 0 0 Z " fill="#545452" transform="translate(235,206)"/>
<path d="M0 0 C0.66 0 1.32 0 2 0 C2 0.99 2 1.98 2 3 C3.98 3 5.96 3 8 3 C8.33 3.66 8.66 4.32 9 5 C7.02 5 5.04 5 3 5 C3.66 7.97 4.32 10.94 5 14 C3.35 14.33 1.7 14.66 0 15 C0 10.05 0 5.1 0 0 Z " fill="#6F6F6E" transform="translate(319,221)"/>
<path d="M0 0 C4.95 0 9.9 0 15 0 C15 0.33 15 0.66 15 1 C13.02 1 11.04 1 9 1 C9 2.98 9 4.96 9 7 C7.35 7.66 5.7 8.32 4 9 C4.66 6.69 5.32 4.38 6 2 C4.02 2.33 2.04 2.66 0 3 C0 2.01 0 1.02 0 0 Z " fill="#757573" transform="translate(269,225)"/>
<path d="M0 0 C5.94 0 11.88 0 18 0 C18.33 2.97 18.66 5.94 19 9 C18.34 9 17.68 9 17 9 C17 6.36 17 3.72 17 1 C14.69 1 12.38 1 10 1 C10 2.32 10 3.64 10 5 C8.35 5.33 6.7 5.66 5 6 C5.99 4.35 6.98 2.7 8 1 C5.36 1.33 2.72 1.66 0 2 C0 1.34 0 0.68 0 0 Z " fill="#6A6A68" transform="translate(140,188)"/>
<path d="M0 0 C0.33 0.66 0.66 1.32 1 2 C-0.93269959 3.17460192 -2.87133313 4.33944472 -4.8125 5.5 C-5.89144531 6.1496875 -6.97039062 6.799375 -8.08203125 7.46875 C-11 9 -11 9 -14 9 C-12.63016497 5.83884224 -12.0109362 5.0072908 -9 3 C-7.45233858 2.4172881 -5.88807778 1.87735813 -4.3125 1.375 C-3.50425781 1.11460938 -2.69601563 0.85421875 -1.86328125 0.5859375 C-1.24839844 0.39257812 -0.63351563 0.19921875 0 0 Z " fill="#322D2F" transform="translate(75,100)"/>
<path d="M0 0 C0.33 0 0.66 0 1 0 C1.04898437 0.60328125 1.09796875 1.2065625 1.1484375 1.828125 C1.22320312 2.62734375 1.29796875 3.4265625 1.375 4.25 C1.44460938 5.03890625 1.51421875 5.8278125 1.5859375 6.640625 C2.01507113 9.085877 2.78600638 10.84836903 4 13 C3.34 12.67 2.68 12.34 2 12 C1.34 13.98 0.68 15.96 0 18 C-0.33 18 -0.66 18 -1 18 C-1.18451025 5.33029613 -1.18451025 5.33029613 0 0 Z " fill="#535351" transform="translate(278,199)"/>
<path d="M0 0 C1.45903258 0.30921884 2.91720722 0.62248799 4.375 0.9375 C5.18710938 1.11152344 5.99921875 1.28554688 6.8359375 1.46484375 C9 2 9 2 11 3 C11.625 5.0625 11.625 5.0625 12 7 C9.23723823 6.47731534 6.6739124 5.89130413 4 5 C4 4.34 4 3.68 4 3 C2.68 2.34 1.36 1.68 0 1 C0 0.67 0 0.34 0 0 Z " fill="#2F2A2C" transform="translate(216,30)"/>
<path d="M0 0 C0.79277344 0.01353516 1.58554688 0.02707031 2.40234375 0.04101562 C4.35185564 0.07624777 6.30101626 0.13005179 8.25 0.1875 C8.58 1.1775 8.91 2.1675 9.25 3.1875 C8.46882813 2.94193359 8.46882813 2.94193359 7.671875 2.69140625 C4.5743125 2.04691341 1.66158906 2.09338411 -1.5 2.125 C-3.25570312 2.13853516 -3.25570312 2.13853516 -5.046875 2.15234375 C-5.93890625 2.16394531 -6.8309375 2.17554688 -7.75 2.1875 C-8.08 2.8475 -8.41 3.5075 -8.75 4.1875 C-10.07 3.8575 -11.39 3.5275 -12.75 3.1875 C-8.95853035 -0.69569875 -5.06357505 -0.16374745 0 0 Z " fill="#929291" transform="translate(253.75,192.8125)"/>
<path d="M0 0 C0.66 0.33 1.32 0.66 2 1 C-2.19572352 4.05654046 -5.17892276 4.33143207 -10.3125 4.1875 C-11.56675781 4.16042969 -12.82101563 4.13335937 -14.11328125 4.10546875 C-15.54220703 4.05326172 -15.54220703 4.05326172 -17 4 C-17 3.67 -17 3.34 -17 3 C-16.19175781 2.95101562 -15.38351563 2.90203125 -14.55078125 2.8515625 C-13.48214844 2.77679688 -12.41351563 2.70203125 -11.3125 2.625 C-9.72888672 2.52058594 -9.72888672 2.52058594 -8.11328125 2.4140625 C-5.09095643 2.01209709 -2.80546014 1.13004524 0 0 Z " fill="#6D6D6B" transform="translate(264,241)"/>
<path d="M0 0 C0.66 0.33 1.32 0.66 2 1 C1.01 1 0.02 1 -1 1 C-0.67 0.67 -0.34 0.34 0 0 Z M-4 1 C-3.01 1.33 -2.02 1.66 -1 2 C-7.59090909 7 -7.59090909 7 -11 7 C-11 6.34 -11 5.68 -11 5 C-9.35 4.67 -7.7 4.34 -6 4 C-6 3.34 -6 2.68 -6 2 C-5.34 1.67 -4.68 1.34 -4 1 Z " fill="#2B2628" transform="translate(123,73)"/>
<path d="M0 0 C4.37702633 1.22556737 8.69677317 2.53060547 13 4 C12.67 4.99 12.34 5.98 12 7 C7.69235185 5.43358249 3.93828536 3.31663844 0 1 C0 0.67 0 0.34 0 0 Z " fill="#3C3638" transform="translate(146,359)"/>
<path d="M0 0 C-0.66 1.65 -1.32 3.3 -2 5 C-4.31 5.33 -6.62 5.66 -9 6 C-9 5.34 -9 4.68 -9 4 C-2.25 0 -2.25 0 0 0 Z " fill="#2F2A2B" transform="translate(319,328)"/>
<path d="M0 0 C7.625 1.875 7.625 1.875 11 3 C11 4.32 11 5.64 11 7 C9.66666667 6.33333333 8.33333333 5.66666667 7 5 C5.948125 4.505 4.89625 4.01 3.8125 3.5 C1 2 1 2 0 0 Z " fill="#3C3739" transform="translate(47,302)"/>
<path d="M0 0 C0 0.66 0 1.32 0 2 C-1.65 2.33 -3.3 2.66 -5 3 C-4.67 3.99 -4.34 4.98 -4 6 C-5.8125 6.625 -5.8125 6.625 -8 7 C-8.99 6.34 -9.98 5.68 -11 5 C-9.54462432 4.16151196 -8.08559627 3.32936066 -6.625 2.5 C-5.81289062 2.0359375 -5.00078125 1.571875 -4.1640625 1.09375 C-2 0 -2 0 0 0 Z " fill="#3B3638" transform="translate(117,75)"/>
<path d="M0 0 C0 0.66 0 1.32 0 2 C-3.3 3.32 -6.6 4.64 -10 6 C-9 3 -9 3 -6.125 1.3125 C-3 0 -3 0 0 0 Z " fill="#2B2628" transform="translate(352,310)"/>
<path d="M0 0 C6.75 1.625 6.75 1.625 9 5 C5.625 4.75 5.625 4.75 2 4 C0.5625 1.9375 0.5625 1.9375 0 0 Z " fill="#2D282A" transform="translate(78,318)"/>
<path d="M0 0 C-1.28524261 0.86380259 -2.57842419 1.71580369 -3.875 2.5625 C-4.59429687 3.03816406 -5.31359375 3.51382812 -6.0546875 4.00390625 C-6.69664062 4.33261719 -7.33859375 4.66132813 -8 5 C-8.66 4.67 -9.32 4.34 -10 4 C-4.7704918 -1.59016393 -4.7704918 -1.59016393 0 0 Z " fill="#2B2627" transform="translate(209,26)"/>
<path d="M0 0 C6.52307692 1.47692308 6.52307692 1.47692308 8.9375 4.125 C9.288125 4.74375 9.63875 5.3625 10 6 C6.51329166 4.8905928 3.22515763 3.73662334 0 2 C0 1.34 0 0.68 0 0 Z " fill="#2B2627" transform="translate(146,357)"/>
<path d="M0 0 C0.99 0 1.98 0 3 0 C3 0.66 3 1.32 3 2 C-2.17578125 5.22265625 -2.17578125 5.22265625 -4 6 C-4.99 5.67 -5.98 5.34 -7 5 C-3.375 2 -3.375 2 0 2 C0 1.34 0 0.68 0 0 Z " fill="#2B2627" transform="translate(182,38)"/>
<path d="M0 0 C0 3.17370278 -0.30933342 4.3794668 -2 7 C-4.125 8.25 -4.125 8.25 -6 9 C-6 8.34 -6 7.68 -6 7 C-5.34 7 -4.68 7 -4 7 C-3.71125 6.21625 -3.4225 5.4325 -3.125 4.625 C-2 2 -2 2 0 0 Z " fill="#5E5E5C" transform="translate(142,197)"/>
<path d="M0 0 C-1.28519565 2.86697492 -2.57129254 4.97607712 -5 7 C-5.66 7 -6.32 7 -7 7 C-3.86206897 0 -3.86206897 0 0 0 Z " fill="#D8D8D7" transform="translate(287,190)"/>
<path d="M0 0 C0.33 0.66 0.66 1.32 1 2 C-4.17578125 5.22265625 -4.17578125 5.22265625 -6 6 C-6.99 5.67 -7.98 5.34 -9 5 C-8.34 5 -7.68 5 -7 5 C-7 4.34 -7 3.68 -7 3 C-4.69 2.01 -2.38 1.02 0 0 Z " fill="#2A2527" transform="translate(75,100)"/>
<path d="M0 0 C2.475 0.495 2.475 0.495 5 1 C5 1.66 5 2.32 5 3 C5.99 3.33 6.98 3.66 8 4 C7.01 4.495 7.01 4.495 6 5 C3.96855359 4.06553465 1.96466413 3.06775224 0 2 C0 1.34 0 0.68 0 0 Z " fill="#2B2628" transform="translate(101,331)"/>
<path d="M0 0 C3.4375 0.8125 3.4375 0.8125 7 2 C7.33 2.99 7.66 3.98 8 5 C4.62537285 4.45276317 2.91765 3.9451 0 2 C0 1.34 0 0.68 0 0 Z " fill="#2B2628" transform="translate(314,86)"/>
<path d="M0 0 C0.33 0.99 0.66 1.98 1 3 C0 4 0 4 -3.5625 4.0625 C-4.696875 4.041875 -5.83125 4.02125 -7 4 C-2.25 0 -2.25 0 0 0 Z " fill="#383335" transform="translate(106,81)"/>
<path d="M0 0 C2.31 0.66 4.62 1.32 7 2 C7 2.99 7 3.98 7 5 C3.34683329 3.75023244 2.21934164 3.32901247 0 0 Z " fill="#2B2628" transform="translate(118,341)"/>
</svg>
